G75*
G70*
%OFA0B0*%
%FSLAX24Y24*%
%IPPOS*%
%LPD*%
%AMOC8*
5,1,8,0,0,1.08239X$1,22.5*
%
%ADD10C,0.0070*%
%ADD11C,0.0060*%
%ADD12R,0.0017X0.0033*%
%ADD13R,0.0017X0.0050*%
%ADD14R,0.0017X0.0050*%
%ADD15R,0.0017X0.0067*%
%ADD16R,0.0017X0.0084*%
%ADD17R,0.0017X0.0117*%
%ADD18R,0.0017X0.0133*%
%ADD19R,0.0017X0.0150*%
%ADD20R,0.0017X0.0150*%
%ADD21R,0.0017X0.0167*%
%ADD22R,0.0017X0.0016*%
%ADD23R,0.0017X0.0217*%
%ADD24R,0.0017X0.0217*%
%ADD25R,0.0017X0.0233*%
%ADD26R,0.0017X0.0250*%
%ADD27R,0.0017X0.0250*%
%ADD28R,0.0017X0.0316*%
%ADD29R,0.0017X0.0317*%
%ADD30R,0.0017X0.0350*%
%ADD31R,0.0017X0.0383*%
%ADD32R,0.0017X0.0400*%
%ADD33R,0.0017X0.0417*%
%ADD34R,0.0017X0.0417*%
%ADD35R,0.0017X0.0433*%
%ADD36R,0.0017X0.0017*%
%ADD37R,0.0017X0.0450*%
%ADD38R,0.0017X0.0017*%
%ADD39R,0.0017X0.0483*%
%ADD40R,0.0017X0.0016*%
%ADD41R,0.0017X0.0500*%
%ADD42R,0.0017X0.0516*%
%ADD43R,0.0017X0.0517*%
%ADD44R,0.0017X0.0533*%
%ADD45R,0.0017X0.0583*%
%ADD46R,0.0017X0.0583*%
%ADD47R,0.0017X0.0600*%
%ADD48R,0.0017X0.0616*%
%ADD49R,0.0017X0.0617*%
%ADD50R,0.0017X0.0034*%
%ADD51R,0.0017X0.0633*%
%ADD52R,0.0017X0.0717*%
%ADD53R,0.0017X0.0716*%
%ADD54R,0.0017X0.0733*%
%ADD55R,0.0017X0.0084*%
%ADD56R,0.0017X0.1683*%
%ADD57R,0.0017X0.0850*%
%ADD58R,0.0017X0.1184*%
%ADD59R,0.0017X0.0083*%
%ADD60R,0.0017X0.0066*%
%ADD61R,0.0017X0.0117*%
%ADD62R,0.0017X0.0100*%
%ADD63R,0.0017X0.0116*%
%ADD64R,0.0017X0.1266*%
%ADD65R,0.0017X0.1417*%
%ADD66R,0.0017X0.1750*%
%ADD67R,0.0017X0.0517*%
%ADD68R,0.0017X0.1483*%
%ADD69R,0.0017X0.0183*%
%ADD70R,0.0017X0.2716*%
%ADD71R,0.0017X0.3816*%
%ADD72R,0.0017X0.0033*%
%ADD73R,0.0017X0.0317*%
%ADD74R,0.0017X0.0167*%
%ADD75R,0.0017X0.3083*%
%ADD76R,0.0017X0.4167*%
%ADD77R,0.0017X0.0034*%
%ADD78R,0.0017X0.0383*%
%ADD79R,0.0017X0.0216*%
%ADD80R,0.0017X0.2750*%
%ADD81R,0.0017X0.4283*%
%ADD82R,0.0017X0.0184*%
%ADD83R,0.0017X0.1116*%
%ADD84R,0.0017X0.1950*%
%ADD85R,0.0017X0.2117*%
%ADD86R,0.0017X0.0184*%
%ADD87R,0.0017X0.0083*%
%ADD88R,0.0017X0.1650*%
%ADD89R,0.0017X0.2650*%
%ADD90R,0.0017X0.1250*%
%ADD91R,0.0017X0.3083*%
%ADD92R,0.0017X0.4633*%
%ADD93R,0.0017X0.4250*%
%ADD94R,0.0017X0.4484*%
%ADD95R,0.0017X0.4584*%
%ADD96R,0.0017X0.9116*%
%ADD97R,0.0017X0.9117*%
%ADD98R,0.0017X0.9117*%
%ADD99R,0.0017X0.9150*%
%ADD100R,0.0017X0.6333*%
%ADD101R,0.0017X0.2767*%
%ADD102R,0.0017X0.6367*%
%ADD103R,0.0017X0.2517*%
%ADD104R,0.0017X0.6617*%
%ADD105R,0.0017X0.2517*%
%ADD106R,0.0017X0.6384*%
%ADD107R,0.0017X0.2466*%
%ADD108R,0.0017X0.2366*%
%ADD109R,0.0017X0.6366*%
%ADD110R,0.0017X0.2467*%
%ADD111R,0.0017X0.6350*%
%ADD112R,0.0017X0.2383*%
%ADD113R,0.0017X0.6383*%
%ADD114R,0.0017X0.2467*%
%ADD115R,0.0017X0.2400*%
%ADD116R,0.0017X0.2417*%
%ADD117R,0.0017X0.6333*%
%ADD118R,0.0017X0.1567*%
%ADD119R,0.0017X0.0817*%
%ADD120R,0.0017X0.2500*%
%ADD121R,0.0017X0.6334*%
%ADD122R,0.0017X0.6317*%
%ADD123R,0.0017X0.2533*%
%ADD124R,0.0017X0.6317*%
%ADD125R,0.0017X0.2550*%
%ADD126R,0.0017X0.6300*%
%ADD127R,0.0017X0.1817*%
%ADD128R,0.0017X0.0783*%
%ADD129R,0.0017X0.6284*%
%ADD130R,0.0017X0.2583*%
%ADD131R,0.0017X0.6284*%
%ADD132R,0.0017X0.2600*%
%ADD133R,0.0017X0.6267*%
%ADD134R,0.0017X0.2583*%
%ADD135R,0.0017X0.6267*%
%ADD136R,0.0017X0.2683*%
%ADD137R,0.0017X0.6250*%
%ADD138R,0.0017X0.2617*%
%ADD139R,0.0017X0.6217*%
%ADD140R,0.0017X0.6200*%
%ADD141R,0.0017X0.2750*%
%ADD142R,0.0017X0.6200*%
%ADD143R,0.0017X0.2717*%
%ADD144R,0.0017X0.6183*%
%ADD145R,0.0017X0.1984*%
%ADD146R,0.0017X0.0716*%
%ADD147R,0.0017X0.1017*%
%ADD148R,0.0017X0.1050*%
%ADD149R,0.0017X0.0784*%
%ADD150R,0.0017X0.0650*%
%ADD151R,0.0017X0.0483*%
%ADD152R,0.0017X0.0950*%
%ADD153R,0.0017X0.0916*%
%ADD154R,0.0017X0.0700*%
%ADD155R,0.0017X0.0584*%
%ADD156R,0.0017X0.0734*%
%ADD157R,0.0017X0.0884*%
%ADD158R,0.0017X0.0816*%
%ADD159R,0.0017X0.0283*%
%ADD160R,0.0017X0.0617*%
%ADD161R,0.0017X0.0684*%
%ADD162R,0.0017X0.0750*%
%ADD163R,0.0017X0.0283*%
%ADD164R,0.0017X0.0683*%
%ADD165R,0.0017X0.0800*%
%ADD166R,0.0017X0.0783*%
%ADD167R,0.0017X0.0350*%
%ADD168R,0.0017X0.0133*%
%ADD169R,0.0017X0.0200*%
%ADD170R,0.0017X0.0734*%
%ADD171R,0.0017X0.0767*%
%ADD172R,0.0017X0.0434*%
%ADD173R,0.0017X0.0300*%
%ADD174R,0.0017X0.0550*%
%ADD175R,0.0017X0.0134*%
%ADD176R,0.0017X0.0766*%
%ADD177R,0.0017X0.0700*%
%ADD178R,0.0017X0.0234*%
%ADD179R,0.0017X0.0066*%
%ADD180R,0.0017X0.0850*%
%ADD181R,0.0017X0.0883*%
%ADD182R,0.0017X0.0684*%
%ADD183R,0.0017X0.0200*%
%ADD184R,0.0017X0.0917*%
%ADD185R,0.0017X0.0650*%
%ADD186R,0.0017X0.0450*%
%ADD187R,0.0017X0.0067*%
%ADD188R,0.0017X0.0917*%
%ADD189R,0.0017X0.0284*%
%ADD190R,0.0017X0.0634*%
%ADD191R,0.0017X0.0267*%
%ADD192R,0.0017X0.0433*%
%ADD193R,0.0017X0.0267*%
%ADD194R,0.0017X0.0950*%
%ADD195R,0.0017X0.1350*%
%ADD196R,0.0017X0.0567*%
%ADD197R,0.0017X0.0166*%
%ADD198R,0.0017X0.0234*%
%ADD199R,0.0017X0.1367*%
%ADD200R,0.0017X0.1384*%
%ADD201R,0.0017X0.0216*%
%ADD202R,0.0017X0.0100*%
%ADD203R,0.0017X0.0634*%
%ADD204R,0.0017X0.1383*%
%ADD205R,0.0017X0.0534*%
%ADD206R,0.0017X0.0266*%
%ADD207R,0.0017X0.1400*%
%ADD208R,0.0017X0.0166*%
%ADD209R,0.0017X0.1384*%
%ADD210R,0.0017X0.0333*%
%ADD211R,0.0017X0.1416*%
%ADD212R,0.0017X0.0316*%
%ADD213R,0.0017X0.0367*%
%ADD214R,0.0017X0.0366*%
%ADD215R,0.0017X0.0500*%
%ADD216R,0.0017X0.0600*%
%ADD217R,0.0017X0.1416*%
%ADD218R,0.0017X0.0384*%
%ADD219R,0.0017X0.0484*%
%ADD220R,0.0017X0.0933*%
%ADD221R,0.0017X0.0333*%
%ADD222R,0.0017X0.0266*%
%ADD223R,0.0017X0.0384*%
%ADD224R,0.0017X0.0367*%
%ADD225R,0.0017X0.0366*%
%ADD226R,0.0017X0.0400*%
%ADD227R,0.0017X0.0900*%
%ADD228R,0.0017X0.0334*%
%ADD229R,0.0017X0.0884*%
%ADD230R,0.0017X0.0334*%
%ADD231R,0.0017X0.0183*%
%ADD232R,0.0017X0.0667*%
%ADD233R,0.0017X0.0833*%
%ADD234R,0.0017X0.0467*%
%ADD235R,0.0017X0.0284*%
%ADD236R,0.0017X0.0300*%
%ADD237R,0.0017X0.0467*%
%ADD238R,0.0017X0.0550*%
%ADD239R,0.0017X0.1484*%
%ADD240R,0.0017X0.0233*%
%ADD241R,0.0017X0.0416*%
%ADD242R,0.0017X0.2683*%
%ADD243R,0.0017X0.1450*%
%ADD244R,0.0017X0.2633*%
%ADD245R,0.0017X0.1467*%
%ADD246R,0.0017X0.2600*%
%ADD247R,0.0017X0.1484*%
%ADD248R,0.0017X0.2434*%
%ADD249R,0.0017X0.2400*%
%ADD250R,0.0017X0.1516*%
%ADD251R,0.0017X0.0566*%
%ADD252R,0.0017X0.1500*%
%ADD253R,0.0017X0.1466*%
%ADD254R,0.0017X0.2550*%
%ADD255R,0.0017X0.2417*%
%ADD256R,0.0017X0.1500*%
%ADD257R,0.0017X0.2567*%
%ADD258R,0.0017X0.1516*%
%ADD259R,0.0017X0.0584*%
%ADD260R,0.0017X0.0683*%
%ADD261R,0.0017X0.2617*%
%ADD262R,0.0017X0.2650*%
%ADD263R,0.0017X0.2667*%
%ADD264R,0.0017X0.1450*%
%ADD265R,0.0017X0.0816*%
%ADD266R,0.0017X0.2667*%
%ADD267R,0.0017X0.0784*%
%ADD268R,0.0017X0.2717*%
%ADD269R,0.0017X0.2450*%
%ADD270R,0.0017X0.1550*%
%ADD271R,0.0017X0.9300*%
%ADD272R,0.0017X0.9317*%
%ADD273R,0.0017X0.9283*%
%ADD274R,0.0017X0.9533*%
%ADD275R,0.0017X0.9483*%
%ADD276R,0.0017X0.9550*%
%ADD277R,0.0017X0.8983*%
%ADD278R,0.0017X0.9517*%
%ADD279R,0.0017X0.9267*%
%ADD280R,0.0017X0.9350*%
%ADD281R,0.0017X0.9367*%
%ADD282R,0.0017X0.9384*%
%ADD283R,0.0017X0.9384*%
%ADD284R,0.0017X0.0516*%
%ADD285R,0.0017X0.8817*%
%ADD286R,0.0017X0.8817*%
%ADD287R,0.0017X0.9450*%
%ADD288R,0.0017X0.8584*%
%ADD289R,0.0017X0.8667*%
%ADD290R,0.0017X0.8584*%
%ADD291R,0.0017X0.0616*%
%ADD292R,0.0017X0.8650*%
%ADD293R,0.0017X0.8950*%
%ADD294R,0.0017X0.9283*%
%ADD295R,0.0017X0.9217*%
%ADD296R,0.0017X0.9183*%
%ADD297R,0.0017X0.3184*%
%ADD298R,0.0017X0.5950*%
%ADD299R,0.0017X0.2584*%
%ADD300R,0.0017X0.6184*%
%ADD301R,0.0017X0.2484*%
%ADD302R,0.0017X0.5183*%
%ADD303R,0.0017X0.1716*%
%ADD304R,0.0017X0.1383*%
%ADD305R,0.0017X0.5750*%
%ADD306R,0.0017X0.1083*%
%ADD307R,0.0017X0.2984*%
%ADD308R,0.0017X0.0717*%
%ADD309R,0.0017X0.1150*%
%ADD310R,0.0017X0.0966*%
%ADD311R,0.0017X0.0984*%
%ADD312R,0.0014X0.0086*%
%ADD313R,0.0014X0.0071*%
%ADD314R,0.0014X0.0114*%
%ADD315R,0.0014X0.0129*%
%ADD316R,0.0014X0.0186*%
%ADD317R,0.0014X0.0214*%
%ADD318R,0.0014X0.0029*%
%ADD319R,0.0014X0.0028*%
%ADD320R,0.0014X0.0200*%
%ADD321R,0.0014X0.0228*%
%ADD322R,0.0014X0.0215*%
%ADD323R,0.0014X0.0243*%
%ADD324R,0.0014X0.0229*%
%ADD325R,0.0014X0.0257*%
%ADD326R,0.0014X0.0029*%
%ADD327R,0.0014X0.0028*%
%ADD328R,0.0014X0.0243*%
%ADD329R,0.0014X0.0271*%
%ADD330R,0.0014X0.0029*%
%ADD331R,0.0014X0.0028*%
%ADD332R,0.0014X0.0257*%
%ADD333R,0.0014X0.0085*%
%ADD334R,0.0014X0.0271*%
%ADD335R,0.0014X0.0257*%
%ADD336R,0.0014X0.0114*%
%ADD337R,0.0014X0.0271*%
%ADD338R,0.0014X0.0257*%
%ADD339R,0.0014X0.0143*%
%ADD340R,0.0014X0.0057*%
%ADD341R,0.0014X0.0057*%
%ADD342R,0.0014X0.0257*%
%ADD343R,0.0014X0.0042*%
%ADD344R,0.0014X0.0228*%
%ADD345R,0.0014X0.0229*%
%ADD346R,0.0014X0.0043*%
%ADD347R,0.0014X0.0214*%
%ADD348R,0.0014X0.0215*%
%ADD349R,0.0014X0.0043*%
%ADD350R,0.0014X0.0200*%
%ADD351R,0.0014X0.0043*%
%ADD352R,0.0014X0.0157*%
%ADD353R,0.0014X0.0114*%
%ADD354R,0.0014X0.0100*%
%ADD355R,0.0014X0.0014*%
%ADD356R,0.0014X0.0015*%
%ADD357R,0.0014X0.0286*%
%ADD358R,0.0014X0.0514*%
%ADD359R,0.0014X0.0686*%
%ADD360R,0.0014X0.0800*%
%ADD361R,0.0014X0.0914*%
%ADD362R,0.0014X0.1028*%
%ADD363R,0.0014X0.1114*%
%ADD364R,0.0014X0.1172*%
%ADD365R,0.0014X0.1258*%
%ADD366R,0.0014X0.1342*%
%ADD367R,0.0014X0.1400*%
%ADD368R,0.0014X0.1458*%
%ADD369R,0.0014X0.1514*%
%ADD370R,0.0014X0.1572*%
%ADD371R,0.0014X0.1628*%
%ADD372R,0.0014X0.1686*%
%ADD373R,0.0014X0.0714*%
%ADD374R,0.0014X0.0643*%
%ADD375R,0.0014X0.0600*%
%ADD376R,0.0014X0.0558*%
%ADD377R,0.0014X0.0528*%
%ADD378R,0.0014X0.0500*%
%ADD379R,0.0014X0.0486*%
%ADD380R,0.0014X0.0471*%
%ADD381R,0.0014X0.0443*%
%ADD382R,0.0014X0.0443*%
%ADD383R,0.0014X0.0428*%
%ADD384R,0.0014X0.0400*%
%ADD385R,0.0014X0.0415*%
%ADD386R,0.0014X0.0572*%
%ADD387R,0.0014X0.0686*%
%ADD388R,0.0014X0.0385*%
%ADD389R,0.0014X0.0271*%
%ADD390R,0.0014X0.0386*%
%ADD391R,0.0014X0.0214*%
%ADD392R,0.0014X0.0386*%
%ADD393R,0.0014X0.0171*%
%ADD394R,0.0014X0.0371*%
%ADD395R,0.0014X0.0157*%
%ADD396R,0.0014X0.0286*%
%ADD397R,0.0014X0.0372*%
%ADD398R,0.0014X0.0458*%
%ADD399R,0.0014X0.0357*%
%ADD400R,0.0014X0.0128*%
%ADD401R,0.0014X0.0600*%
%ADD402R,0.0014X0.0129*%
%ADD403R,0.0014X0.0714*%
%ADD404R,0.0014X0.0343*%
%ADD405R,0.0014X0.0115*%
%ADD406R,0.0014X0.0800*%
%ADD407R,0.0014X0.0343*%
%ADD408R,0.0014X0.0858*%
%ADD409R,0.0014X0.0343*%
%ADD410R,0.0014X0.0115*%
%ADD411R,0.0014X0.0942*%
%ADD412R,0.0014X0.0328*%
%ADD413R,0.0014X0.1000*%
%ADD414R,0.0014X0.0314*%
%ADD415R,0.0014X0.1086*%
%ADD416R,0.0014X0.0315*%
%ADD417R,0.0014X0.1142*%
%ADD418R,0.0014X0.0314*%
%ADD419R,0.0014X0.1200*%
%ADD420R,0.0014X0.0086*%
%ADD421R,0.0014X0.0857*%
%ADD422R,0.0014X0.0315*%
%ADD423R,0.0014X0.0100*%
%ADD424R,0.0014X0.0400*%
%ADD425R,0.0014X0.0457*%
%ADD426R,0.0014X0.0314*%
%ADD427R,0.0014X0.0428*%
%ADD428R,0.0014X0.0429*%
%ADD429R,0.0014X0.0400*%
%ADD430R,0.0014X0.0300*%
%ADD431R,0.0014X0.0086*%
%ADD432R,0.0014X0.0414*%
%ADD433R,0.0014X0.0415*%
%ADD434R,0.0014X0.0300*%
%ADD435R,0.0014X0.0085*%
%ADD436R,0.0014X0.0457*%
%ADD437R,0.0014X0.0386*%
%ADD438R,0.0014X0.0443*%
%ADD439R,0.0014X0.0472*%
%ADD440R,0.0014X0.0371*%
%ADD441R,0.0014X0.0485*%
%ADD442R,0.0014X0.0486*%
%ADD443R,0.0014X0.0157*%
%ADD444R,0.0014X0.0472*%
%ADD445R,0.0014X0.0285*%
%ADD446R,0.0014X0.0072*%
%ADD447R,0.0014X0.0457*%
%ADD448R,0.0014X0.0186*%
%ADD449R,0.0014X0.0071*%
%ADD450R,0.0014X0.0428*%
%ADD451R,0.0014X0.0071*%
%ADD452R,0.0014X0.0072*%
%ADD453R,0.0014X0.0272*%
%ADD454R,0.0014X0.0557*%
%ADD455R,0.0014X0.0542*%
%ADD456R,0.0014X0.0071*%
%ADD457R,0.0014X0.0285*%
%ADD458R,0.0014X0.0072*%
%ADD459R,0.0014X0.0614*%
%ADD460R,0.0014X0.0214*%
%ADD461R,0.0014X0.0271*%
%ADD462R,0.0014X0.0257*%
%ADD463R,0.0014X0.0357*%
%ADD464R,0.0014X0.0272*%
%ADD465R,0.0014X0.0329*%
%ADD466R,0.0014X0.0328*%
%ADD467R,0.0014X0.0329*%
%ADD468R,0.0014X0.0514*%
%ADD469R,0.0014X0.0071*%
%ADD470R,0.0014X0.0557*%
%ADD471R,0.0014X0.0258*%
%ADD472R,0.0014X0.0314*%
%ADD473R,0.0014X0.1028*%
%ADD474R,0.0014X0.0258*%
%ADD475R,0.0014X0.0057*%
%ADD476R,0.0014X0.1028*%
%ADD477R,0.0014X0.0058*%
%ADD478R,0.0014X0.0471*%
%ADD479R,0.0014X0.0429*%
%ADD480R,0.0014X0.0014*%
%ADD481R,0.0014X0.0372*%
%ADD482R,0.0014X0.0242*%
%ADD483R,0.0014X0.0057*%
%ADD484R,0.0014X0.0414*%
%ADD485R,0.0014X0.0057*%
%ADD486R,0.0014X0.0042*%
%ADD487R,0.0014X0.1714*%
%ADD488R,0.0014X0.0371*%
%ADD489R,0.0014X0.1728*%
%ADD490R,0.0014X0.1714*%
%ADD491R,0.0014X0.1700*%
%ADD492R,0.0014X0.0771*%
%ADD493R,0.0014X0.1686*%
%ADD494R,0.0014X0.0243*%
%ADD495R,0.0014X0.0058*%
%ADD496R,0.0014X0.0743*%
%ADD497R,0.0014X0.0042*%
%ADD498R,0.0014X0.1657*%
%ADD499R,0.0014X0.0058*%
%ADD500R,0.0014X0.0729*%
%ADD501R,0.0014X0.1643*%
%ADD502R,0.0014X0.0672*%
%ADD503R,0.0014X0.0157*%
%ADD504R,0.0014X0.0643*%
%ADD505R,0.0014X0.0614*%
%ADD506R,0.0014X0.1328*%
%ADD507R,0.0014X0.0586*%
%ADD508R,0.0014X0.0158*%
%ADD509R,0.0014X0.1328*%
%ADD510R,0.0014X0.0557*%
%ADD511R,0.0014X0.1314*%
%ADD512R,0.0014X0.0571*%
%ADD513R,0.0014X0.1300*%
%ADD514R,0.0014X0.0571*%
%ADD515R,0.0014X0.1285*%
%ADD516R,0.0014X0.0586*%
%ADD517R,0.0014X0.1257*%
%ADD518R,0.0014X0.1243*%
%ADD519R,0.0014X0.1229*%
%ADD520R,0.0014X0.0242*%
%ADD521R,0.0014X0.1214*%
%ADD522R,0.0014X0.0057*%
%ADD523R,0.0014X0.0600*%
%ADD524R,0.0014X0.0014*%
%ADD525R,0.0014X0.0300*%
%ADD526R,0.0014X0.0185*%
%ADD527R,0.0014X0.0143*%
%ADD528R,0.0014X0.1200*%
%ADD529R,0.0014X0.0185*%
%ADD530R,0.0014X0.0185*%
%ADD531R,0.0014X0.0142*%
%ADD532R,0.0014X0.1157*%
%ADD533R,0.0014X0.1128*%
%ADD534R,0.0014X0.1100*%
%ADD535R,0.0014X0.1058*%
%ADD536R,0.0014X0.0143*%
%ADD537R,0.0014X0.0229*%
%ADD538R,0.0014X0.0629*%
%ADD539R,0.0014X0.0085*%
%ADD540R,0.0014X0.0986*%
%ADD541R,0.0014X0.0629*%
%ADD542R,0.0014X0.0943*%
%ADD543R,0.0014X0.0629*%
%ADD544R,0.0014X0.0914*%
%ADD545R,0.0014X0.0871*%
%ADD546R,0.0014X0.0843*%
%ADD547R,0.0014X0.0800*%
%ADD548R,0.0014X0.0643*%
%ADD549R,0.0014X0.0771*%
%ADD550R,0.0014X0.0100*%
%ADD551R,0.0014X0.0700*%
%ADD552R,0.0014X0.0657*%
%ADD553R,0.0014X0.0628*%
%ADD554R,0.0014X0.0558*%
%ADD555R,0.0014X0.0514*%
%ADD556R,0.0014X0.0414*%
%ADD557R,0.0014X0.0657*%
%ADD558R,0.0014X0.0286*%
%ADD559R,0.0014X0.4342*%
%ADD560R,0.0014X0.4342*%
%ADD561R,0.0014X0.0157*%
%ADD562R,0.0014X0.0315*%
%ADD563R,0.0014X0.4342*%
%ADD564R,0.0014X0.0357*%
%ADD565R,0.0014X0.0214*%
%ADD566R,0.0014X0.0158*%
%ADD567R,0.0014X0.0271*%
%ADD568R,0.0014X0.0415*%
%ADD569R,0.0014X0.0214*%
%ADD570R,0.0014X0.0129*%
%ADD571R,0.0014X0.0429*%
%ADD572R,0.0014X0.0457*%
%ADD573R,0.0014X0.0500*%
%ADD574R,0.0014X0.0515*%
%ADD575R,0.0014X0.0529*%
%ADD576R,0.0014X0.0142*%
%ADD577R,0.0014X0.0543*%
%ADD578R,0.0014X0.0615*%
%ADD579R,0.0014X0.0558*%
%ADD580R,0.0014X0.0142*%
%ADD581R,0.0014X0.0700*%
%ADD582R,0.0014X0.0115*%
%ADD583R,0.0014X0.0715*%
%ADD584R,0.0014X0.0743*%
%ADD585R,0.0014X0.0772*%
%ADD586R,0.0014X0.0786*%
%ADD587R,0.0014X0.0815*%
%ADD588R,0.0014X0.1072*%
%ADD589R,0.0014X0.1115*%
%ADD590R,0.0014X0.0457*%
%ADD591R,0.0014X0.1129*%
%ADD592R,0.0014X0.0686*%
%ADD593R,0.0014X0.0457*%
%ADD594R,0.0014X0.1143*%
%ADD595R,0.0014X0.1143*%
%ADD596R,0.0014X0.1000*%
%ADD597R,0.0014X0.0872*%
%ADD598R,0.0014X0.0872*%
%ADD599R,0.0014X0.0542*%
%ADD600R,0.0014X0.1000*%
%ADD601R,0.0014X0.0872*%
%ADD602R,0.0014X0.0542*%
%ADD603R,0.0014X0.0357*%
%ADD604R,0.0014X0.0172*%
%ADD605R,0.0014X0.0486*%
%ADD606R,0.0014X0.0172*%
%ADD607R,0.0014X0.0171*%
%ADD608R,0.0014X0.0171*%
%ADD609R,0.0014X0.0172*%
%ADD610R,0.0014X0.0314*%
%ADD611R,0.0014X0.0500*%
%ADD612R,0.0014X0.0515*%
%ADD613R,0.0014X0.0158*%
%ADD614R,0.0014X0.0515*%
%ADD615R,0.0014X0.0258*%
%ADD616R,0.0014X0.0228*%
%ADD617R,0.0014X0.0529*%
%ADD618R,0.0014X0.0228*%
%ADD619R,0.0014X0.0529*%
%ADD620R,0.0014X0.0171*%
%ADD621R,0.0014X0.0171*%
%ADD622R,0.0014X0.0543*%
%ADD623R,0.0014X0.0071*%
%ADD624R,0.0014X0.0543*%
%ADD625R,0.0014X0.0328*%
%ADD626R,0.0014X0.0272*%
%ADD627R,0.0014X0.0471*%
%ADD628R,0.0014X0.0472*%
%ADD629R,0.0014X0.0186*%
%ADD630R,0.0014X0.0128*%
%ADD631R,0.0014X0.0014*%
%ADD632R,0.0014X0.0357*%
%ADD633R,0.0014X0.0357*%
%ADD634R,0.0014X0.0015*%
%ADD635R,0.0014X0.0028*%
%ADD636R,0.0014X0.0028*%
%ADD637R,0.0014X0.0528*%
%ADD638R,0.0014X0.0371*%
%ADD639R,0.0014X0.0371*%
%ADD640R,0.0014X0.0372*%
%ADD641R,0.0014X0.0586*%
%ADD642R,0.0014X0.0329*%
%ADD643R,0.0014X0.0200*%
%ADD644R,0.0014X0.0114*%
%ADD645R,0.0014X0.0572*%
%ADD646R,0.0014X0.0014*%
%ADD647R,0.0014X0.0572*%
%ADD648R,0.0014X0.0015*%
%ADD649R,0.0014X0.0342*%
%ADD650R,0.0014X0.0385*%
%ADD651R,0.0014X0.0342*%
%ADD652R,0.0014X0.0314*%
%ADD653R,0.0014X0.0514*%
%ADD654R,0.0014X0.0371*%
%ADD655R,0.0014X0.0342*%
%ADD656R,0.0014X0.0471*%
%ADD657R,0.0014X0.0471*%
%ADD658R,0.0014X0.0414*%
D10*
X009238Y022012D02*
X009381Y022012D01*
X009453Y022084D01*
X009453Y022227D01*
X009381Y022299D01*
X009238Y022299D01*
X009166Y022227D01*
X009166Y022155D01*
X009453Y022155D01*
X009627Y022227D02*
X009627Y022012D01*
X009627Y022227D02*
X009698Y022299D01*
X009914Y022299D01*
X009914Y022012D01*
X010087Y022084D02*
X010087Y022227D01*
X010159Y022299D01*
X010302Y022299D01*
X010374Y022227D01*
X010374Y022084D01*
X010302Y022012D01*
X010159Y022012D01*
X010087Y022084D01*
X010547Y022084D02*
X010619Y022012D01*
X010763Y022012D01*
X010834Y022084D01*
X010834Y022370D01*
X010763Y022442D01*
X010619Y022442D01*
X010547Y022370D01*
X010547Y022227D02*
X010691Y022227D01*
X010547Y022227D02*
X010547Y022084D01*
X011008Y022227D02*
X011295Y022227D01*
X011468Y022299D02*
X011540Y022227D01*
X011755Y022227D01*
X011929Y022227D02*
X012216Y022227D01*
X012389Y022155D02*
X012389Y022442D01*
X012389Y022155D02*
X012533Y022012D01*
X012676Y022155D01*
X012676Y022442D01*
X012849Y022442D02*
X013136Y022442D01*
X012993Y022442D02*
X012993Y022012D01*
X011755Y022012D02*
X011540Y022012D01*
X011468Y022084D01*
X011468Y022155D01*
X011540Y022227D01*
X011468Y022299D02*
X011468Y022370D01*
X011540Y022442D01*
X011755Y022442D01*
X011755Y022012D01*
X031902Y008734D02*
X031902Y008663D01*
X031974Y008591D01*
X031902Y008519D01*
X031902Y008447D01*
X031974Y008376D01*
X032118Y008376D01*
X032189Y008447D01*
X032363Y008447D02*
X032363Y008734D01*
X032434Y008806D01*
X032650Y008806D01*
X032650Y008376D01*
X032434Y008376D01*
X032363Y008447D01*
X032189Y008734D02*
X032118Y008806D01*
X031974Y008806D01*
X031902Y008734D01*
X031974Y008591D02*
X032046Y008591D01*
X032823Y008806D02*
X033110Y008806D01*
X033110Y008376D01*
X032823Y008376D01*
X032967Y008591D02*
X033110Y008591D01*
X033284Y008376D02*
X033570Y008376D01*
X033570Y008806D01*
X033370Y004075D02*
X033083Y004075D01*
X032910Y004075D02*
X032695Y004075D01*
X032623Y004003D01*
X032623Y003716D01*
X032695Y003644D01*
X032910Y003644D01*
X032910Y004075D01*
X033227Y003859D02*
X033370Y003859D01*
X033370Y003644D02*
X033083Y003644D01*
X033370Y003644D02*
X033370Y004075D01*
X033831Y004075D02*
X033831Y003644D01*
X033544Y003644D01*
X032449Y003859D02*
X032162Y003859D01*
X032234Y003644D02*
X032234Y004075D01*
X032449Y003859D01*
X032333Y015081D02*
X032620Y015081D01*
X032333Y015368D01*
X032333Y015440D01*
X032405Y015512D01*
X032548Y015512D01*
X032620Y015440D01*
X032793Y015440D02*
X032865Y015512D01*
X033080Y015512D01*
X033080Y015081D01*
X032865Y015081D01*
X032793Y015153D01*
X032793Y015440D01*
X033254Y015512D02*
X033541Y015512D01*
X033541Y015081D01*
X033254Y015081D01*
X033397Y015297D02*
X033541Y015297D01*
X033714Y015081D02*
X034001Y015081D01*
X034001Y015512D01*
X033874Y019646D02*
X033587Y019646D01*
X033414Y019646D02*
X033127Y019646D01*
X032953Y019646D02*
X032738Y019646D01*
X032666Y019718D01*
X032666Y020005D01*
X032738Y020076D01*
X032953Y020076D01*
X032953Y019646D01*
X033270Y019861D02*
X033414Y019861D01*
X033414Y020076D02*
X033414Y019646D01*
X033874Y019646D02*
X033874Y020076D01*
X033414Y020076D02*
X033127Y020076D01*
X032493Y019933D02*
X032350Y020076D01*
X032350Y019646D01*
X032493Y019646D02*
X032206Y019646D01*
D11*
X005824Y015507D02*
X005711Y015507D01*
X005654Y015564D01*
X005654Y015620D01*
X005711Y015677D01*
X005768Y015677D01*
X005711Y015677D02*
X005654Y015734D01*
X005654Y015790D01*
X005711Y015847D01*
X005824Y015847D01*
X005881Y015790D01*
X005881Y015564D02*
X005824Y015507D01*
X006022Y015507D02*
X006249Y015507D01*
X006136Y015507D02*
X006136Y015847D01*
X006249Y015734D01*
X006391Y015790D02*
X006391Y015564D01*
X006447Y015507D01*
X006561Y015507D01*
X006618Y015564D01*
X006391Y015790D01*
X006447Y015847D01*
X006561Y015847D01*
X006618Y015790D01*
X006618Y015564D01*
X006759Y015507D02*
X006986Y015507D01*
X006759Y015734D01*
X006759Y015790D01*
X006816Y015847D01*
X006929Y015847D01*
X006986Y015790D01*
X007496Y015677D02*
X007496Y015507D01*
X007666Y015507D01*
X007723Y015564D01*
X007666Y015620D01*
X007496Y015620D01*
X007496Y015677D02*
X007552Y015734D01*
X007666Y015734D01*
X007911Y015847D02*
X007911Y015507D01*
X007855Y015507D02*
X007968Y015507D01*
X008110Y015620D02*
X008336Y015620D01*
X008336Y015564D02*
X008336Y015677D01*
X008280Y015734D01*
X008166Y015734D01*
X008110Y015677D01*
X008110Y015620D01*
X008166Y015507D02*
X008280Y015507D01*
X008336Y015564D01*
X008478Y015734D02*
X008591Y015507D01*
X008705Y015734D01*
X008846Y015677D02*
X008903Y015734D01*
X009016Y015734D01*
X009073Y015677D01*
X009073Y015564D01*
X009016Y015507D01*
X008903Y015507D01*
X008846Y015564D01*
X008846Y015677D01*
X009214Y015507D02*
X009214Y015847D01*
X009441Y015847D02*
X009214Y015507D01*
X009441Y015507D02*
X009441Y015847D01*
X007968Y015847D02*
X007911Y015847D01*
X007935Y021507D02*
X007935Y021677D01*
X007992Y021734D01*
X008049Y021677D01*
X008049Y021507D01*
X008162Y021507D02*
X008162Y021734D01*
X008105Y021734D01*
X008049Y021677D01*
X007794Y021564D02*
X007737Y021507D01*
X007567Y021507D01*
X007567Y021677D01*
X007624Y021734D01*
X007737Y021734D01*
X007737Y021620D02*
X007567Y021620D01*
X007426Y021620D02*
X007255Y021507D01*
X007119Y021564D02*
X007119Y021677D01*
X007062Y021734D01*
X006948Y021734D01*
X006892Y021677D01*
X006892Y021620D01*
X007119Y021620D01*
X007119Y021564D02*
X007062Y021507D01*
X006948Y021507D01*
X006750Y021507D02*
X006523Y021847D01*
X006382Y021734D02*
X006269Y021734D01*
X006325Y021790D02*
X006325Y021564D01*
X006269Y021507D01*
X006023Y021507D02*
X005910Y021734D01*
X005768Y021734D02*
X005598Y021734D01*
X005541Y021677D01*
X005541Y021564D01*
X005598Y021507D01*
X005768Y021507D01*
X005768Y021847D01*
X006136Y021734D02*
X006023Y021507D01*
X005400Y021564D02*
X005343Y021507D01*
X005173Y021507D01*
X005173Y021450D02*
X005173Y021734D01*
X005343Y021734D01*
X005400Y021677D01*
X005400Y021564D01*
X005286Y021393D02*
X005230Y021393D01*
X005173Y021450D01*
X005032Y021564D02*
X004975Y021507D01*
X004861Y021507D01*
X004805Y021564D01*
X004805Y021677D01*
X004861Y021734D01*
X004975Y021734D01*
X005032Y021677D01*
X005032Y021564D01*
X004663Y021507D02*
X004663Y021734D01*
X004493Y021734D01*
X004436Y021677D01*
X004436Y021507D01*
X004295Y021564D02*
X004295Y021677D01*
X004238Y021734D01*
X004125Y021734D01*
X004068Y021677D01*
X004068Y021620D01*
X004295Y021620D01*
X004295Y021564D02*
X004238Y021507D01*
X004125Y021507D01*
X007255Y021734D02*
X007426Y021620D01*
X007426Y021507D02*
X007426Y021847D01*
X007394Y022007D02*
X007621Y022007D01*
X007394Y022234D01*
X007394Y022290D01*
X007450Y022347D01*
X007564Y022347D01*
X007621Y022290D01*
X007748Y022064D02*
X007748Y022007D01*
X007805Y022007D01*
X007805Y022064D01*
X007748Y022064D01*
X007946Y022007D02*
X008173Y022007D01*
X008060Y022007D02*
X008060Y022347D01*
X008173Y022234D01*
X008314Y022234D02*
X008428Y022007D01*
X008541Y022234D01*
X008304Y021847D02*
X008530Y021507D01*
X008663Y021507D02*
X008719Y021564D01*
X008719Y021790D01*
X008776Y021734D02*
X008663Y021734D01*
X008917Y021677D02*
X008917Y021620D01*
X009144Y021620D01*
X009144Y021564D02*
X009144Y021677D01*
X009088Y021734D01*
X008974Y021734D01*
X008917Y021677D01*
X008974Y021507D02*
X009088Y021507D01*
X009144Y021564D01*
X009286Y021507D02*
X009286Y021677D01*
X009343Y021734D01*
X009513Y021734D01*
X009513Y021507D01*
X009640Y021507D02*
X009640Y021564D01*
X009697Y021564D01*
X009697Y021507D01*
X009640Y021507D01*
X009838Y021507D02*
X010008Y021507D01*
X010065Y021564D01*
X010008Y021620D01*
X009838Y021620D01*
X009838Y021677D02*
X009838Y021507D01*
X009838Y021677D02*
X009895Y021734D01*
X010008Y021734D01*
X010207Y021734D02*
X010377Y021734D01*
X010433Y021677D01*
X010433Y021564D01*
X010377Y021507D01*
X010207Y021507D01*
X010207Y021847D01*
X010575Y021677D02*
X010575Y021507D01*
X010745Y021507D01*
X010802Y021564D01*
X010745Y021620D01*
X010575Y021620D01*
X010575Y021677D02*
X010632Y021734D01*
X010745Y021734D01*
X010943Y021734D02*
X010943Y021450D01*
X011000Y021393D01*
X011057Y021393D01*
X011113Y021507D02*
X010943Y021507D01*
X011113Y021507D02*
X011170Y021564D01*
X011170Y021734D01*
X011312Y021734D02*
X011482Y021734D01*
X011538Y021677D01*
X011538Y021564D01*
X011482Y021507D01*
X011312Y021507D01*
X011312Y021847D01*
X011680Y021677D02*
X011680Y021507D01*
X011850Y021507D01*
X011907Y021564D01*
X011850Y021620D01*
X011680Y021620D01*
X011680Y021677D02*
X011737Y021734D01*
X011850Y021734D01*
X012096Y021847D02*
X012096Y021507D01*
X012152Y021507D02*
X012039Y021507D01*
X012280Y021507D02*
X012280Y021564D01*
X012336Y021564D01*
X012336Y021507D01*
X012280Y021507D01*
X012478Y021564D02*
X012478Y021734D01*
X012478Y021564D02*
X012535Y021507D01*
X012591Y021564D01*
X012648Y021507D01*
X012705Y021564D01*
X012705Y021734D01*
X012846Y021734D02*
X012846Y021564D01*
X012903Y021507D01*
X012960Y021564D01*
X013016Y021507D01*
X013073Y021564D01*
X013073Y021734D01*
X013214Y021734D02*
X013214Y021564D01*
X013271Y021507D01*
X013328Y021564D01*
X013385Y021507D01*
X013441Y021564D01*
X013441Y021734D01*
X012152Y021847D02*
X012096Y021847D01*
X007794Y021564D02*
X007737Y021620D01*
D12*
X026967Y012693D03*
X027517Y012893D03*
X027583Y012976D03*
X028567Y012193D03*
X029633Y012243D03*
X030283Y012026D03*
X029567Y010443D03*
X027033Y009643D03*
X029533Y008443D03*
X029533Y008143D03*
X029533Y008026D03*
X029517Y007393D03*
X029517Y006943D03*
X029533Y006626D03*
X027033Y004376D03*
X028483Y003393D03*
X028817Y003426D03*
X028833Y003476D03*
X028833Y003576D03*
X028783Y003576D03*
X028833Y003626D03*
X029033Y003676D03*
X027283Y003193D03*
D13*
X027333Y003234D03*
X027467Y003334D03*
X027633Y003251D03*
X027533Y003084D03*
X027117Y003501D03*
X028567Y003417D03*
X028683Y003434D03*
X028833Y003417D03*
X028867Y003484D03*
X028983Y003667D03*
X029017Y003667D03*
X029417Y003634D03*
X028217Y004851D03*
X028183Y004851D03*
X028167Y004851D03*
X028117Y004867D03*
X028083Y004867D03*
X028483Y005201D03*
X028533Y005184D03*
X028683Y005484D03*
X028717Y005467D03*
X028633Y005517D03*
X028617Y005534D03*
X028533Y005584D03*
X028217Y005367D03*
X028083Y005467D03*
X028783Y006167D03*
X028817Y006401D03*
X028783Y006434D03*
X028717Y006467D03*
X028683Y006501D03*
X028617Y006534D03*
X028817Y006834D03*
X028183Y006934D03*
X028083Y006867D03*
X028217Y007534D03*
X028167Y007551D03*
X028133Y007551D03*
X028117Y007567D03*
X029517Y007467D03*
X029533Y007384D03*
X029533Y007317D03*
X029533Y007651D03*
X029517Y007934D03*
X029533Y007951D03*
X029433Y008117D03*
X029533Y008317D03*
X029517Y008634D03*
X029517Y008701D03*
X029517Y008767D03*
X028183Y009467D03*
X028767Y010251D03*
X028217Y010534D03*
X028117Y010601D03*
X028017Y010667D03*
X027033Y010951D03*
X027217Y012167D03*
X027083Y012401D03*
X027083Y012634D03*
X026933Y012684D03*
X026917Y012701D03*
X027383Y013001D03*
X027417Y013001D03*
X027467Y013001D03*
X027483Y013001D03*
X027517Y013001D03*
X027567Y012984D03*
X027717Y013067D03*
X027583Y012801D03*
X027583Y012734D03*
X027833Y012784D03*
X027867Y012784D03*
X027983Y012901D03*
X028017Y012901D03*
X028033Y012917D03*
X028117Y013167D03*
X027833Y013484D03*
X028683Y013967D03*
X029017Y012967D03*
X028367Y012717D03*
X030267Y012017D03*
X029767Y011117D03*
X027083Y009701D03*
X029517Y007001D03*
X029483Y006834D03*
X027033Y006551D03*
X027033Y005684D03*
X027033Y005351D03*
X027033Y005184D03*
X027033Y005117D03*
X027033Y004551D03*
D14*
X027050Y005601D03*
X028050Y006167D03*
X028600Y006551D03*
X028700Y006484D03*
X028800Y006417D03*
X028850Y006801D03*
X028750Y006867D03*
X028650Y006934D03*
X028150Y007551D03*
X029450Y008101D03*
X029500Y008084D03*
X027050Y009567D03*
X027050Y009634D03*
X028050Y010234D03*
X028150Y010567D03*
X029550Y010434D03*
X029600Y011084D03*
X030250Y012001D03*
X027900Y012784D03*
X027750Y013067D03*
X027650Y013001D03*
X027500Y013001D03*
X027400Y013001D03*
X027350Y012867D03*
X027250Y012167D03*
X028550Y005567D03*
X028650Y005501D03*
X028500Y005184D03*
X028200Y004851D03*
X028400Y003917D03*
X028800Y003584D03*
X028700Y003451D03*
X028650Y003434D03*
X028550Y003401D03*
X028500Y003451D03*
X029150Y003767D03*
X029450Y003634D03*
X029400Y003551D03*
X029500Y003717D03*
X027650Y003267D03*
X027150Y003401D03*
D15*
X027133Y003393D03*
X027183Y003426D03*
X028467Y003426D03*
X029217Y003726D03*
X028183Y005393D03*
X028117Y005443D03*
X028517Y005593D03*
X028767Y006443D03*
X028717Y006893D03*
X028633Y006943D03*
X028167Y006926D03*
X028117Y006893D03*
X028183Y007543D03*
X028083Y007576D03*
X028067Y007576D03*
X028383Y007893D03*
X028417Y007893D03*
X029417Y008076D03*
X028167Y009476D03*
X028133Y010593D03*
X028083Y010626D03*
X027983Y010693D03*
X029567Y010693D03*
X030233Y011993D03*
X028067Y012243D03*
X027617Y012993D03*
X027533Y012993D03*
X029533Y006543D03*
D16*
X028883Y006784D03*
X028733Y006884D03*
X028667Y006934D03*
X028633Y006534D03*
X029533Y007734D03*
X028467Y008934D03*
X028433Y008934D03*
X028367Y008934D03*
X027083Y009784D03*
X028033Y010234D03*
X028233Y010534D03*
X028067Y010634D03*
X030217Y011984D03*
X027717Y012984D03*
X027683Y012984D03*
X028133Y005434D03*
X028067Y004884D03*
X029483Y003684D03*
X028667Y003434D03*
X028633Y003434D03*
D17*
X028400Y005218D03*
X028000Y005551D03*
X027950Y007701D03*
X028600Y007918D03*
X028250Y008401D03*
X028800Y010251D03*
X028400Y011118D03*
X028350Y011101D03*
X028250Y011601D03*
X028300Y011818D03*
X028200Y011818D03*
X028100Y012251D03*
X028250Y012301D03*
X027850Y012901D03*
X027100Y012451D03*
X030200Y011951D03*
D18*
X030183Y011943D03*
X028283Y012026D03*
X028267Y012026D03*
X028217Y012026D03*
X028283Y012293D03*
X028283Y011593D03*
X028217Y011326D03*
X028233Y011093D03*
X028267Y011093D03*
X028417Y011126D03*
X028433Y011126D03*
X028183Y008893D03*
X028617Y007926D03*
X028633Y007926D03*
D19*
X028667Y007934D03*
X029433Y008334D03*
X029517Y007284D03*
X027967Y006701D03*
X027033Y006767D03*
X028783Y005451D03*
X028367Y005234D03*
X028317Y005251D03*
X029467Y003667D03*
X027967Y009701D03*
X028817Y010251D03*
X028467Y011134D03*
X028367Y011367D03*
X028317Y011351D03*
X028183Y011334D03*
X028183Y011584D03*
X028267Y011601D03*
X028317Y011584D03*
X028333Y011567D03*
X028383Y011534D03*
X028417Y011517D03*
X028433Y011501D03*
X028483Y011467D03*
X028517Y011451D03*
X028533Y011434D03*
X028617Y011384D03*
X028217Y011084D03*
X028167Y012034D03*
X028133Y012067D03*
X028117Y012084D03*
X028083Y012084D03*
X028067Y012101D03*
X028033Y012134D03*
X028017Y012151D03*
X027967Y012167D03*
X027883Y012217D03*
X027867Y012234D03*
X028117Y012251D03*
X028183Y012284D03*
X028233Y012301D03*
X028267Y012301D03*
X028433Y012167D03*
X028367Y012834D03*
X028383Y012851D03*
X028517Y012851D03*
X027433Y012834D03*
X030167Y011934D03*
D20*
X030150Y011917D03*
X028550Y011417D03*
X028450Y011484D03*
X028350Y011551D03*
X028200Y011601D03*
X028050Y011451D03*
X028300Y011334D03*
X028300Y011101D03*
X028450Y011117D03*
X028300Y012034D03*
X028200Y012034D03*
X028150Y012051D03*
X028050Y012117D03*
X027950Y012184D03*
X027850Y012251D03*
X028200Y012301D03*
X028350Y012851D03*
X028400Y012851D03*
X028600Y012834D03*
X027800Y012934D03*
X027250Y012317D03*
X027050Y010984D03*
X028250Y009917D03*
X028200Y008901D03*
X028150Y008884D03*
X027050Y008884D03*
X027050Y008717D03*
X029450Y008217D03*
X027950Y006684D03*
X028250Y006484D03*
X028250Y005851D03*
X027950Y005651D03*
X028350Y005251D03*
X027950Y005017D03*
D21*
X028333Y005243D03*
X028167Y008893D03*
X028183Y011076D03*
X028483Y011126D03*
X028367Y011543D03*
X027933Y012193D03*
X028167Y012276D03*
X028467Y012843D03*
X030117Y011893D03*
X030133Y011893D03*
D22*
X030117Y011284D03*
X029733Y011134D03*
X029583Y010684D03*
X028583Y010584D03*
X028067Y010234D03*
X028233Y009934D03*
X028583Y009884D03*
X027017Y009984D03*
X027017Y010384D03*
X027033Y010834D03*
X027017Y010984D03*
X027017Y011084D03*
X027017Y011184D03*
X027617Y011984D03*
X027233Y012134D03*
X027017Y012084D03*
X027017Y012184D03*
X027017Y012284D03*
X027017Y012384D03*
X027083Y012584D03*
X027767Y012834D03*
X027783Y012884D03*
X027817Y012784D03*
X027817Y012984D03*
X027867Y013134D03*
X027817Y013484D03*
X028333Y013634D03*
X029667Y012534D03*
X028883Y011884D03*
X028867Y011834D03*
X028433Y011734D03*
X028433Y011634D03*
X028417Y011384D03*
X028033Y011434D03*
X028167Y011934D03*
X028567Y012234D03*
X028633Y012234D03*
X028617Y012284D03*
X027017Y009084D03*
X027017Y008784D03*
X028233Y008434D03*
X028583Y008384D03*
X029433Y008434D03*
X029517Y008384D03*
X029533Y007234D03*
X029533Y007034D03*
X029483Y006984D03*
X029483Y006884D03*
X029517Y006884D03*
X028583Y006484D03*
X028583Y005884D03*
X028583Y005784D03*
X028233Y005834D03*
X028517Y005184D03*
X027033Y005034D03*
X027033Y004934D03*
X027033Y004734D03*
X027033Y004634D03*
X027033Y004434D03*
X027033Y004334D03*
X027033Y003634D03*
X026917Y003484D03*
X027117Y003384D03*
X027817Y003384D03*
X028183Y003384D03*
X028517Y003384D03*
X028533Y003434D03*
X028817Y003484D03*
X028817Y003584D03*
X029033Y003634D03*
X029083Y003684D03*
X029067Y003434D03*
X029417Y003584D03*
X028283Y003984D03*
X027417Y002984D03*
X027033Y005434D03*
X027033Y006634D03*
X027033Y006934D03*
D23*
X028000Y006168D03*
X028550Y005851D03*
X028550Y008418D03*
X029500Y008701D03*
X028550Y009351D03*
X028300Y009351D03*
X028550Y009918D03*
X028100Y011868D03*
X030100Y011868D03*
D24*
X030083Y011851D03*
X028383Y011751D03*
X028367Y011768D03*
X028067Y011901D03*
X028067Y011468D03*
X028133Y011068D03*
X028117Y011051D03*
X028233Y009368D03*
X028283Y009351D03*
X028317Y009351D03*
X028517Y009351D03*
X028533Y009351D03*
X028567Y006501D03*
X028267Y006501D03*
X028833Y006168D03*
X028267Y005268D03*
X028283Y004118D03*
D25*
X028233Y005276D03*
X028283Y009926D03*
X028267Y010576D03*
X028583Y011143D03*
X030067Y011843D03*
D26*
X030050Y011834D03*
X028600Y011151D03*
X028100Y011051D03*
X029500Y007517D03*
X029500Y007051D03*
X029300Y006351D03*
X028850Y006167D03*
X028550Y006501D03*
D27*
X028283Y006501D03*
X027983Y006167D03*
X028283Y005834D03*
X029467Y006784D03*
X029517Y007767D03*
X028733Y007951D03*
X028283Y008401D03*
X028083Y008867D03*
X028617Y009367D03*
X028533Y009917D03*
X028833Y010251D03*
X028533Y010584D03*
X028283Y010584D03*
X027967Y010184D03*
X027083Y009534D03*
X028083Y011467D03*
X030017Y011801D03*
X030033Y011817D03*
D28*
X030000Y011784D03*
X029950Y011734D03*
X028500Y010584D03*
X028050Y011034D03*
X028700Y009384D03*
X028500Y006484D03*
D29*
X028483Y006501D03*
X028317Y006501D03*
X028333Y008418D03*
X028717Y009401D03*
X028333Y009918D03*
X029967Y011751D03*
X029983Y011768D03*
X028383Y012601D03*
X028317Y004068D03*
D30*
X028367Y005834D03*
X027967Y006167D03*
X028367Y006501D03*
X028383Y006484D03*
X028417Y006484D03*
X028433Y006501D03*
X028467Y006501D03*
X029483Y007184D03*
X028483Y008417D03*
X028417Y008417D03*
X028383Y008417D03*
X028367Y008417D03*
X028033Y008867D03*
X028733Y009401D03*
X028417Y009917D03*
X028383Y009917D03*
X028383Y010584D03*
X028367Y010584D03*
X028417Y010584D03*
X028467Y010584D03*
X028017Y011017D03*
X028033Y011034D03*
X029917Y011717D03*
X029933Y011734D03*
X028517Y012584D03*
X027983Y012584D03*
D31*
X027900Y012551D03*
X028600Y012551D03*
X029900Y011701D03*
X028750Y009401D03*
D32*
X029883Y011676D03*
X027933Y012576D03*
X028417Y005826D03*
X028167Y003576D03*
X028117Y003576D03*
X028083Y003576D03*
D33*
X028467Y005801D03*
X028433Y005818D03*
X028833Y007968D03*
X028767Y009401D03*
X029867Y011668D03*
X028133Y012668D03*
X028117Y012651D03*
D34*
X029850Y011651D03*
X028000Y011001D03*
X028450Y005818D03*
D35*
X027983Y010993D03*
X029833Y011643D03*
D36*
X029583Y011818D03*
X029567Y012168D03*
X029533Y012568D03*
X029067Y012968D03*
X029033Y012968D03*
X028967Y012968D03*
X028933Y012968D03*
X028917Y012968D03*
X028867Y012968D03*
X028633Y012968D03*
X028583Y012968D03*
X028567Y012968D03*
X028517Y012951D03*
X028467Y012968D03*
X028433Y012968D03*
X028417Y012968D03*
X028133Y012901D03*
X028133Y013101D03*
X027767Y013068D03*
X027733Y012868D03*
X027367Y013001D03*
X027333Y013001D03*
X027267Y013001D03*
X027233Y013001D03*
X027183Y013018D03*
X027217Y012851D03*
X027067Y012668D03*
X027033Y012568D03*
X027017Y012451D03*
X027017Y012418D03*
X027017Y012351D03*
X027017Y012318D03*
X027017Y012251D03*
X027017Y012218D03*
X027017Y012151D03*
X027017Y012118D03*
X027017Y012051D03*
X027017Y012018D03*
X027233Y012168D03*
X027233Y012201D03*
X027217Y012218D03*
X027083Y012351D03*
X027083Y012451D03*
X026883Y012718D03*
X028167Y012168D03*
X028167Y011901D03*
X028317Y011718D03*
X028433Y011701D03*
X028433Y011668D03*
X028433Y011768D03*
X028417Y011818D03*
X028583Y012218D03*
X028667Y012201D03*
X028733Y012168D03*
X028633Y012301D03*
X028867Y011701D03*
X028867Y011668D03*
X028433Y011401D03*
X028317Y011451D03*
X028033Y011468D03*
X028033Y011501D03*
X027633Y011601D03*
X027017Y011151D03*
X027017Y011051D03*
X027033Y010868D03*
X027017Y010351D03*
X027017Y010318D03*
X027017Y010051D03*
X027017Y010018D03*
X027033Y009601D03*
X027033Y009568D03*
X027033Y009501D03*
X027033Y009401D03*
X027017Y009051D03*
X027017Y008751D03*
X027033Y008001D03*
X027017Y007218D03*
X027017Y007118D03*
X027033Y006968D03*
X027033Y006901D03*
X027033Y006868D03*
X027033Y006668D03*
X027033Y005768D03*
X027017Y005551D03*
X027033Y005501D03*
X027033Y005301D03*
X027033Y005268D03*
X027033Y005068D03*
X027033Y005001D03*
X027033Y004968D03*
X027033Y004901D03*
X027033Y004868D03*
X027033Y004768D03*
X027033Y004701D03*
X027033Y004601D03*
X027033Y004501D03*
X027033Y004468D03*
X027033Y004301D03*
X027017Y003751D03*
X026933Y003501D03*
X027017Y003251D03*
X027267Y003201D03*
X027283Y003418D03*
X027217Y003451D03*
X027483Y003351D03*
X027567Y003268D03*
X027567Y003101D03*
X027633Y003001D03*
X028483Y003451D03*
X028517Y003451D03*
X028517Y003418D03*
X028533Y003401D03*
X028633Y003501D03*
X028717Y003451D03*
X028767Y003501D03*
X028767Y003568D03*
X028817Y003618D03*
X028867Y003568D03*
X029067Y003468D03*
X029083Y003451D03*
X029133Y003668D03*
X029183Y003651D03*
X029367Y003568D03*
X029383Y003551D03*
X029383Y003618D03*
X029517Y003718D03*
X029517Y003751D03*
X029533Y003768D03*
X028883Y004318D03*
X028417Y003918D03*
X028633Y003168D03*
X028567Y005168D03*
X027967Y005701D03*
X027967Y005968D03*
X028067Y006168D03*
X027967Y006368D03*
X028233Y006468D03*
X028233Y006501D03*
X028583Y006451D03*
X028767Y006168D03*
X028583Y005851D03*
X028583Y005818D03*
X028233Y005801D03*
X028233Y005868D03*
X029483Y006651D03*
X029533Y006668D03*
X029533Y006701D03*
X029517Y006718D03*
X029483Y006951D03*
X029533Y007201D03*
X029533Y007468D03*
X029517Y008051D03*
X029533Y008101D03*
X029517Y008151D03*
X029483Y008118D03*
X029483Y008218D03*
X029533Y008268D03*
X029483Y008318D03*
X029483Y008351D03*
X029517Y008351D03*
X029533Y008368D03*
X029517Y008451D03*
X029517Y008518D03*
X029533Y008568D03*
X029533Y008768D03*
X028883Y008318D03*
X028583Y008418D03*
X028583Y008451D03*
X028233Y008401D03*
X027883Y007818D03*
X028233Y009901D03*
X028583Y009918D03*
X028583Y009951D03*
X028883Y010018D03*
X028883Y009851D03*
X028583Y010551D03*
X028583Y010618D03*
X028867Y010701D03*
X028233Y010601D03*
X029733Y011101D03*
X029783Y011118D03*
X029833Y011168D03*
X028333Y013668D03*
X028517Y013851D03*
X028433Y013968D03*
D37*
X028333Y012684D03*
X028267Y012684D03*
X028183Y012684D03*
X028167Y012684D03*
X029817Y011634D03*
X028717Y011167D03*
X028683Y011201D03*
X028667Y011217D03*
X028633Y011217D03*
X028883Y010267D03*
X028867Y006184D03*
X028883Y005534D03*
X028617Y003734D03*
D38*
X028900Y003601D03*
X029150Y003651D03*
X029250Y003718D03*
X029250Y003751D03*
X029300Y003568D03*
X029350Y003501D03*
X029500Y003668D03*
X029450Y003718D03*
X028800Y003268D03*
X028500Y003401D03*
X028400Y003401D03*
X027650Y003018D03*
X027400Y003001D03*
X027300Y003201D03*
X027450Y003318D03*
X027550Y003351D03*
X027100Y003501D03*
X027600Y004968D03*
X027600Y005001D03*
X027600Y005068D03*
X027600Y005101D03*
X027950Y005551D03*
X027950Y005751D03*
X027950Y005918D03*
X027950Y006418D03*
X028850Y006318D03*
X028850Y006018D03*
X029550Y005118D03*
X028900Y004368D03*
X027050Y005551D03*
X027600Y007601D03*
X027600Y007668D03*
X027600Y007701D03*
X027600Y007768D03*
X027600Y007801D03*
X028600Y007568D03*
X029500Y008468D03*
X027950Y009851D03*
X027950Y010018D03*
X027600Y010601D03*
X027600Y010668D03*
X027600Y010701D03*
X027600Y010768D03*
X027600Y010801D03*
X027600Y011868D03*
X028050Y011851D03*
X028050Y011918D03*
X028050Y011951D03*
X028500Y012268D03*
X028600Y012301D03*
X028750Y012151D03*
X029550Y012051D03*
X029650Y012251D03*
X029650Y012518D03*
X029800Y011901D03*
X029750Y011118D03*
X029050Y012968D03*
X029000Y012968D03*
X028950Y012968D03*
X028900Y012968D03*
X028800Y012968D03*
X028700Y012968D03*
X028700Y013068D03*
X028600Y012968D03*
X028550Y012968D03*
X028500Y012968D03*
X028400Y012968D03*
X028200Y012968D03*
X028050Y012918D03*
X028000Y012801D03*
X027850Y013001D03*
X027750Y012918D03*
X027650Y012951D03*
X027700Y013068D03*
X028000Y013101D03*
X028100Y013168D03*
X027800Y013468D03*
X028350Y013651D03*
X028650Y013951D03*
X029300Y013268D03*
X029100Y013068D03*
X027350Y013001D03*
X027300Y013001D03*
X027050Y012618D03*
X026900Y012501D03*
X027250Y012218D03*
X027350Y012251D03*
D39*
X028750Y011168D03*
X029800Y011601D03*
X028800Y009401D03*
D40*
X027950Y009184D03*
X028250Y008484D03*
X027950Y007784D03*
X027900Y007734D03*
X027600Y007734D03*
X027600Y007634D03*
X027600Y007834D03*
X027950Y006584D03*
X027900Y005034D03*
X027600Y005034D03*
X027600Y004934D03*
X027050Y003684D03*
X027500Y003334D03*
X027650Y003384D03*
X028650Y003384D03*
X028850Y003584D03*
X029150Y003684D03*
X029400Y003634D03*
X029550Y005084D03*
X029500Y008034D03*
X029500Y008134D03*
X027050Y009784D03*
X027600Y010634D03*
X027600Y010734D03*
X027600Y010834D03*
X027600Y011734D03*
X028050Y011884D03*
X028050Y011984D03*
X028500Y012734D03*
X028200Y012934D03*
X028150Y012884D03*
X027850Y012784D03*
X027250Y012884D03*
X026950Y012684D03*
X028500Y014034D03*
X029700Y011934D03*
X029800Y011134D03*
D41*
X029783Y011592D03*
X028433Y012676D03*
X028217Y012709D03*
X028817Y009409D03*
X028617Y004226D03*
D42*
X028417Y003634D03*
X028317Y003634D03*
X029767Y011584D03*
X027483Y012634D03*
D43*
X029750Y011568D03*
X028850Y007968D03*
D44*
X027883Y010993D03*
X029717Y011543D03*
X029733Y011543D03*
D45*
X029700Y011518D03*
X027800Y011051D03*
X027750Y011101D03*
D46*
X027733Y011118D03*
X027783Y011068D03*
X028783Y011168D03*
X029683Y011501D03*
X027767Y012518D03*
X028833Y009418D03*
X027967Y008851D03*
X028283Y003668D03*
D47*
X028317Y007259D03*
X028383Y007276D03*
X028417Y007276D03*
X028483Y007276D03*
X029667Y011492D03*
X028633Y012626D03*
D48*
X029650Y011484D03*
X028600Y007234D03*
D49*
X028583Y007251D03*
X028533Y007268D03*
X028517Y007268D03*
X028467Y007268D03*
X028433Y007268D03*
X028367Y007268D03*
X028333Y007268D03*
X028283Y007251D03*
X028283Y004568D03*
X029617Y011451D03*
X029633Y011468D03*
X027283Y012551D03*
D50*
X027250Y013009D03*
X027200Y013009D03*
X027450Y013009D03*
X028700Y013959D03*
X029600Y011809D03*
D51*
X029600Y011443D03*
X027700Y011143D03*
D52*
X027617Y011268D03*
X027683Y012501D03*
X028767Y012551D03*
X029583Y011401D03*
X027033Y009018D03*
X028817Y004001D03*
D53*
X028883Y003934D03*
X029567Y011384D03*
D54*
X029550Y011376D03*
D55*
X029550Y010684D03*
X028100Y009534D03*
X028400Y008934D03*
X029500Y008534D03*
X028000Y007634D03*
X028100Y006884D03*
X028050Y006834D03*
X028800Y006834D03*
X028850Y006384D03*
X028600Y005534D03*
X028000Y004934D03*
X028600Y003434D03*
X027200Y003434D03*
X027250Y012084D03*
X027600Y012834D03*
D56*
X029533Y011701D03*
D57*
X028833Y012484D03*
X027617Y012434D03*
X029533Y010417D03*
D58*
X029533Y009384D03*
D59*
X029533Y008668D03*
X029433Y008201D03*
X028483Y007901D03*
X028467Y007901D03*
X028433Y007901D03*
X028367Y007901D03*
X028333Y007901D03*
X028317Y007901D03*
X028017Y007618D03*
X028033Y007601D03*
X027983Y007651D03*
X028133Y006901D03*
X028617Y006951D03*
X028683Y006918D03*
X028767Y006868D03*
X028783Y006851D03*
X028867Y006801D03*
X028583Y006551D03*
X028667Y006501D03*
X028733Y006468D03*
X028833Y006401D03*
X029533Y006768D03*
X028033Y006168D03*
X028483Y005618D03*
X028583Y005551D03*
X028667Y005501D03*
X028733Y005468D03*
X028467Y005201D03*
X028417Y005218D03*
X028167Y005401D03*
X027983Y004951D03*
X028017Y004918D03*
X028033Y004901D03*
X028583Y003418D03*
X027033Y006468D03*
X028283Y008918D03*
X028317Y008918D03*
X028333Y008918D03*
X028383Y008918D03*
X028417Y008918D03*
X028483Y008918D03*
X028517Y008918D03*
X028133Y009501D03*
X028117Y009518D03*
X028083Y009551D03*
X028017Y009618D03*
X028783Y010251D03*
X028167Y010568D03*
X028083Y012251D03*
X027967Y012901D03*
X027933Y012901D03*
X027917Y012901D03*
X027733Y012968D03*
X027633Y012968D03*
X027383Y012851D03*
X027083Y012518D03*
D60*
X027367Y012859D03*
X027733Y013059D03*
X028667Y013959D03*
X028033Y010659D03*
X028183Y010559D03*
X028217Y009459D03*
X029533Y008509D03*
X028833Y006809D03*
X028217Y006959D03*
X028567Y005559D03*
X028133Y004859D03*
X027033Y005559D03*
X029333Y003509D03*
X027167Y003409D03*
D61*
X029167Y003718D03*
X029433Y003618D03*
X029467Y003818D03*
X028433Y005218D03*
X028033Y005518D03*
X027983Y005601D03*
X027967Y005618D03*
X028033Y006818D03*
X028233Y007918D03*
X029533Y007851D03*
X029517Y007568D03*
X029517Y006801D03*
X029467Y008351D03*
X028583Y008901D03*
X028533Y008918D03*
X028233Y008901D03*
X028217Y008901D03*
X028067Y009551D03*
X027983Y009668D03*
X027067Y009451D03*
X028283Y011101D03*
X028317Y011101D03*
X028367Y011118D03*
X028267Y011318D03*
X028233Y011318D03*
X028383Y011368D03*
X028217Y011601D03*
X028233Y011818D03*
X028267Y011818D03*
X028317Y011801D03*
X028167Y011818D03*
X028233Y012018D03*
X028217Y012301D03*
X027817Y012901D03*
X027767Y012951D03*
D62*
X027783Y012959D03*
X027833Y012892D03*
X027867Y012892D03*
X027883Y012909D03*
X028183Y011809D03*
X028217Y011809D03*
X028283Y011809D03*
X028017Y010226D03*
X028267Y008909D03*
X028567Y008909D03*
X028567Y007909D03*
X028583Y007909D03*
X028533Y007909D03*
X028517Y007909D03*
X028283Y007909D03*
X028267Y007909D03*
X029533Y007559D03*
X029533Y007126D03*
X028067Y006859D03*
X028017Y006792D03*
X028017Y005542D03*
X028067Y005476D03*
X029483Y003809D03*
X029183Y003726D03*
X028617Y003426D03*
D63*
X027967Y004984D03*
X028383Y005234D03*
X027983Y006734D03*
X027967Y007684D03*
X029517Y007134D03*
X029533Y006884D03*
X029483Y006734D03*
X028033Y009584D03*
X028283Y011334D03*
X028183Y012034D03*
X027667Y012984D03*
X027417Y012834D03*
D64*
X029533Y005859D03*
D65*
X029533Y004501D03*
D66*
X029517Y011717D03*
D67*
X029517Y010568D03*
X028483Y012668D03*
X028433Y003651D03*
D68*
X027883Y004151D03*
X029517Y009551D03*
D69*
X028567Y009918D03*
X027983Y010201D03*
X028167Y011351D03*
X028167Y011551D03*
X028317Y012068D03*
X028417Y012168D03*
X028317Y012268D03*
X028133Y012251D03*
X028567Y008418D03*
X029517Y006601D03*
X028817Y006168D03*
X028567Y005851D03*
X028283Y005268D03*
X028433Y004018D03*
D70*
X028967Y004984D03*
X029517Y005134D03*
D71*
X029500Y010734D03*
D72*
X027050Y009693D03*
X029500Y008426D03*
X029500Y008343D03*
X029500Y006893D03*
X029050Y003676D03*
X028850Y003476D03*
X027550Y003076D03*
X027000Y003243D03*
X027050Y003643D03*
X026900Y012693D03*
X028450Y012976D03*
D73*
X028350Y012601D03*
X028500Y012551D03*
X028500Y009918D03*
X028050Y008868D03*
X028500Y008418D03*
X029500Y007818D03*
X028500Y005851D03*
X028850Y005501D03*
D74*
X029500Y007276D03*
X028500Y011126D03*
X028600Y011393D03*
X028400Y011526D03*
X028300Y011593D03*
X028350Y011376D03*
X028100Y012093D03*
X028300Y012276D03*
X028500Y012843D03*
D75*
X029500Y005301D03*
D76*
X029483Y010576D03*
D77*
X028767Y012159D03*
X028983Y012959D03*
X028533Y012959D03*
X027583Y012859D03*
X027433Y013009D03*
X027283Y013009D03*
X027033Y009709D03*
X027033Y009459D03*
X029483Y008459D03*
X029417Y008009D03*
X028917Y003609D03*
X027667Y003259D03*
X027133Y003509D03*
D78*
X028867Y005518D03*
X029483Y007801D03*
X028817Y007968D03*
X028867Y010251D03*
X028333Y012151D03*
X028017Y012601D03*
X028033Y012618D03*
X027917Y012568D03*
D79*
X028083Y011884D03*
X028533Y011134D03*
X028567Y011134D03*
X029483Y007484D03*
X028267Y005834D03*
X028817Y005484D03*
D80*
X029467Y005267D03*
X029483Y005251D03*
D81*
X029467Y010568D03*
X029433Y010601D03*
D82*
X028567Y010584D03*
X028517Y011134D03*
X028167Y011084D03*
X028467Y011484D03*
X027283Y012134D03*
X027567Y012784D03*
X028133Y008884D03*
X028683Y007934D03*
X029467Y008184D03*
D83*
X029467Y007484D03*
D84*
X029450Y011751D03*
D85*
X029450Y009701D03*
D86*
X029450Y008534D03*
X027950Y009734D03*
X028200Y011084D03*
X028550Y012834D03*
X027550Y012784D03*
D87*
X027900Y012901D03*
X027950Y012901D03*
X028000Y012901D03*
X027100Y012668D03*
X027100Y012568D03*
X028200Y009468D03*
X028350Y008918D03*
X028450Y008918D03*
X028550Y008918D03*
X028600Y008901D03*
X029450Y008351D03*
X028500Y007901D03*
X028400Y007901D03*
X028300Y007901D03*
X028100Y007568D03*
X028700Y006901D03*
X028650Y006518D03*
X028500Y005601D03*
X028750Y005451D03*
X028450Y005218D03*
X028150Y005418D03*
X028100Y004868D03*
X028450Y003418D03*
D88*
X029450Y007234D03*
D89*
X029450Y005067D03*
D90*
X029433Y007451D03*
D91*
X029433Y005268D03*
D92*
X029417Y010443D03*
D93*
X029417Y005834D03*
D94*
X029400Y010534D03*
D95*
X029400Y005984D03*
D96*
X029383Y008234D03*
D97*
X029367Y008251D03*
D98*
X029350Y008268D03*
D99*
X029333Y008267D03*
D100*
X029317Y009676D03*
X029133Y009743D03*
D101*
X029317Y005076D03*
X028933Y004976D03*
D102*
X029300Y009676D03*
X029250Y009693D03*
D103*
X027900Y006318D03*
X029300Y004951D03*
D104*
X029283Y009551D03*
D105*
X027883Y009101D03*
X027867Y009118D03*
X029117Y004968D03*
X029283Y004951D03*
D106*
X029267Y009684D03*
D107*
X029267Y004909D03*
D108*
X029250Y004959D03*
D109*
X029233Y009709D03*
D110*
X029233Y004926D03*
D111*
X029217Y009717D03*
X029183Y009717D03*
X029167Y009734D03*
D112*
X029217Y004968D03*
D113*
X029200Y009718D03*
D114*
X029200Y004943D03*
D115*
X029183Y004992D03*
D116*
X029167Y005001D03*
X027867Y006368D03*
X027833Y006368D03*
X027817Y006368D03*
X027783Y006368D03*
X027767Y006368D03*
X027733Y006368D03*
X027717Y006368D03*
X027683Y006368D03*
X027667Y006368D03*
X027633Y006368D03*
X027617Y006368D03*
D117*
X029150Y009743D03*
D118*
X029150Y005426D03*
D119*
X029150Y004218D03*
D120*
X029133Y004976D03*
D121*
X029117Y009759D03*
D122*
X029100Y009751D03*
D123*
X027850Y009126D03*
X029100Y004976D03*
D124*
X029083Y009768D03*
D125*
X027833Y009134D03*
X027817Y009134D03*
X027917Y006284D03*
X029083Y004984D03*
D126*
X029067Y009776D03*
D127*
X029067Y005368D03*
D128*
X029067Y004051D03*
D129*
X029050Y009784D03*
D130*
X029050Y005001D03*
D131*
X029033Y009784D03*
D132*
X027717Y009159D03*
X029033Y005009D03*
D133*
X029017Y009793D03*
D134*
X027767Y009151D03*
X029017Y005001D03*
D135*
X029000Y009793D03*
D136*
X029000Y004968D03*
D137*
X028983Y009801D03*
D138*
X027733Y009168D03*
X027933Y006268D03*
X028983Y005018D03*
D139*
X028967Y009801D03*
D140*
X028950Y009809D03*
D141*
X028950Y004984D03*
D142*
X028933Y009809D03*
X028917Y009826D03*
D143*
X028917Y005001D03*
D144*
X028900Y009818D03*
D145*
X028900Y005384D03*
D146*
X028900Y003984D03*
D147*
X028883Y012418D03*
D148*
X028883Y011201D03*
D149*
X027667Y012484D03*
X028883Y009434D03*
D150*
X028883Y007967D03*
X028267Y007251D03*
X028233Y007251D03*
X028333Y004551D03*
X028817Y011167D03*
X027683Y011167D03*
X027667Y011184D03*
X027733Y012517D03*
X027317Y012567D03*
X028683Y012601D03*
D151*
X028733Y011168D03*
X027983Y008851D03*
X028883Y006151D03*
D152*
X028633Y004001D03*
X028867Y012434D03*
D153*
X028867Y011184D03*
X028667Y003984D03*
D154*
X028867Y009426D03*
D155*
X028867Y007984D03*
X027767Y011084D03*
X027717Y011134D03*
X027217Y012534D03*
X028617Y012634D03*
X028367Y003684D03*
D156*
X028867Y003959D03*
X028783Y004009D03*
D157*
X028850Y012484D03*
D158*
X027650Y012484D03*
X028850Y011184D03*
X028350Y003784D03*
D159*
X028300Y006501D03*
X028850Y010251D03*
D160*
X028850Y009418D03*
X028800Y011168D03*
X027800Y012501D03*
X028650Y012618D03*
X028500Y007268D03*
X028400Y007268D03*
X028300Y007268D03*
X028250Y007251D03*
X028300Y004568D03*
D161*
X028850Y003984D03*
D162*
X028433Y004501D03*
X028833Y011167D03*
D163*
X028517Y009918D03*
X028067Y008868D03*
X028317Y008418D03*
X028517Y008418D03*
X028533Y006501D03*
X028517Y005851D03*
X028833Y005501D03*
X027033Y006268D03*
X027783Y012351D03*
D164*
X028733Y012568D03*
X028833Y004001D03*
D165*
X028817Y012509D03*
D166*
X028800Y012518D03*
D167*
X028550Y012551D03*
X027200Y012634D03*
X028350Y010584D03*
X028450Y010584D03*
X028450Y009917D03*
X028350Y009917D03*
X028350Y008417D03*
X028450Y008417D03*
X028800Y007967D03*
X028400Y006501D03*
X028450Y006484D03*
D168*
X028800Y006176D03*
X028650Y007926D03*
X028000Y009643D03*
X028250Y011093D03*
X028250Y011326D03*
X028200Y011326D03*
X028250Y012026D03*
D169*
X028150Y011859D03*
X028550Y011142D03*
X028500Y009342D03*
X028450Y009342D03*
X028400Y009342D03*
X028350Y009342D03*
X028700Y007942D03*
X028800Y005476D03*
X028250Y005276D03*
D170*
X028800Y004009D03*
D171*
X027267Y012476D03*
X028783Y012526D03*
D172*
X028783Y009409D03*
D173*
X028317Y009926D03*
X028767Y007959D03*
X028783Y007959D03*
X028517Y006492D03*
X028317Y005842D03*
X028383Y012159D03*
X027783Y012659D03*
D174*
X027817Y011051D03*
X027833Y011034D03*
X027867Y011001D03*
X027917Y010984D03*
X027933Y010967D03*
X028767Y011167D03*
X027083Y009084D03*
X027033Y004001D03*
X028267Y003667D03*
X028383Y003684D03*
D175*
X028767Y005459D03*
X028017Y006159D03*
X028333Y011109D03*
X028383Y011109D03*
X028233Y011609D03*
D176*
X028767Y004009D03*
D177*
X028750Y012559D03*
D178*
X028600Y009359D03*
X028250Y009359D03*
X028750Y007959D03*
D179*
X028750Y006459D03*
X028100Y005459D03*
X028150Y004859D03*
X028100Y010609D03*
D180*
X027600Y011284D03*
X028750Y003967D03*
X028300Y003801D03*
D181*
X028733Y003968D03*
D182*
X027633Y011234D03*
X028717Y012584D03*
D183*
X028333Y011776D03*
X028133Y011859D03*
X028117Y011859D03*
X028333Y011376D03*
X028267Y009926D03*
X028333Y009342D03*
X028367Y009342D03*
X028383Y009342D03*
X028417Y009342D03*
X028433Y009342D03*
X028467Y009342D03*
X028483Y009342D03*
X028117Y008876D03*
X028267Y008409D03*
X028717Y007942D03*
D184*
X028267Y004418D03*
X028683Y003968D03*
X028717Y003968D03*
D185*
X027950Y008834D03*
X028700Y012584D03*
D186*
X028300Y012684D03*
X028200Y012684D03*
X027250Y012634D03*
X028700Y011184D03*
X028000Y008851D03*
X027950Y006167D03*
X028400Y003651D03*
D187*
X028050Y004893D03*
X028200Y005376D03*
X028050Y005493D03*
X028700Y005476D03*
X028200Y006943D03*
X028150Y006926D03*
X028200Y007543D03*
X028050Y007593D03*
X028350Y007893D03*
X028450Y007893D03*
X028150Y009493D03*
X028200Y010543D03*
X028050Y010643D03*
X028000Y010676D03*
X027600Y012726D03*
X027600Y012976D03*
X027550Y012993D03*
X027700Y012976D03*
X027750Y012976D03*
D188*
X028250Y004418D03*
X028400Y004418D03*
X028700Y003968D03*
D189*
X028683Y009384D03*
X028517Y010584D03*
X028317Y010584D03*
X028067Y011034D03*
D190*
X027717Y012509D03*
X028667Y012609D03*
X028567Y007259D03*
X028317Y004559D03*
D191*
X028533Y005843D03*
X027033Y005976D03*
X028633Y009376D03*
X028667Y009376D03*
X028083Y011043D03*
X028617Y011143D03*
D192*
X028650Y011226D03*
D193*
X028650Y009376D03*
D194*
X028650Y003984D03*
D195*
X028600Y004201D03*
D196*
X027967Y010943D03*
X027817Y012476D03*
X028567Y012643D03*
X028583Y012643D03*
D197*
X027983Y012159D03*
X027917Y012209D03*
X028417Y011709D03*
X028567Y011409D03*
X028583Y011409D03*
D198*
X028367Y012559D03*
X028267Y009359D03*
X028567Y009359D03*
X028583Y009359D03*
D199*
X028583Y004193D03*
D200*
X028567Y004184D03*
X028533Y004184D03*
D201*
X028550Y010584D03*
X028400Y011734D03*
D202*
X028250Y011809D03*
X028400Y011376D03*
X027400Y012842D03*
X028050Y009576D03*
X028250Y008909D03*
X028300Y008909D03*
X028500Y008926D03*
X028550Y007909D03*
X028250Y007909D03*
X028000Y006776D03*
X027050Y009459D03*
D203*
X028550Y007259D03*
D204*
X028550Y004201D03*
D205*
X028533Y012659D03*
D206*
X028533Y008409D03*
D207*
X028517Y004192D03*
X028467Y004176D03*
D208*
X028000Y010209D03*
X028500Y011459D03*
X027900Y012209D03*
D209*
X028500Y004184D03*
D210*
X028483Y005843D03*
X028333Y005843D03*
X028333Y006493D03*
X028483Y009926D03*
X028483Y010593D03*
D211*
X028483Y004184D03*
D212*
X028333Y010584D03*
X028467Y012584D03*
D213*
X028467Y009926D03*
X028433Y009926D03*
X028367Y009926D03*
X028217Y003593D03*
X028183Y003593D03*
X028017Y003593D03*
X027983Y003593D03*
D214*
X028433Y008409D03*
X028467Y008409D03*
X028017Y008859D03*
X028133Y011459D03*
D215*
X028450Y012676D03*
D216*
X028450Y007276D03*
X028350Y007276D03*
D217*
X028450Y004184D03*
D218*
X028133Y003584D03*
X028067Y003584D03*
X028033Y003584D03*
X027967Y003584D03*
X028383Y005834D03*
X028433Y010584D03*
X027033Y011184D03*
X027883Y012534D03*
X027967Y012584D03*
X028083Y012634D03*
D219*
X028417Y012684D03*
D220*
X028417Y004426D03*
D221*
X028350Y005843D03*
X028350Y006493D03*
X028400Y012593D03*
D222*
X028400Y012159D03*
D223*
X027850Y012534D03*
X028400Y010584D03*
X028200Y003584D03*
X028050Y003584D03*
X028000Y003584D03*
D224*
X027950Y003593D03*
X028400Y009926D03*
X027950Y012576D03*
X028000Y012593D03*
X028050Y012626D03*
D225*
X028150Y011459D03*
X028400Y008409D03*
D226*
X027050Y009176D03*
X028400Y005826D03*
X028150Y003576D03*
X028100Y003576D03*
X028100Y012642D03*
X028150Y012659D03*
D227*
X028383Y004442D03*
D228*
X028117Y011459D03*
X028367Y012159D03*
D229*
X028367Y004434D03*
D230*
X028350Y012159D03*
D231*
X028150Y012251D03*
X028000Y012151D03*
X028350Y011768D03*
X028150Y011068D03*
X028250Y010568D03*
X028300Y005251D03*
D232*
X028350Y004543D03*
D233*
X028333Y003793D03*
D234*
X028317Y012693D03*
X028283Y012693D03*
X028233Y012693D03*
D235*
X028300Y010584D03*
X027950Y010184D03*
X028300Y009934D03*
X028300Y005834D03*
D236*
X028300Y008409D03*
X028100Y011459D03*
D237*
X028250Y012693D03*
D238*
X027850Y011017D03*
X027900Y010984D03*
X027950Y010951D03*
X028250Y003651D03*
D239*
X028233Y004134D03*
X027867Y004134D03*
X027767Y004134D03*
X027733Y004134D03*
X027633Y004134D03*
D240*
X028100Y008876D03*
X027450Y012793D03*
D241*
X027867Y012534D03*
X028067Y012634D03*
D242*
X027633Y009201D03*
X027933Y009001D03*
D243*
X027933Y004151D03*
D244*
X027917Y009026D03*
X027683Y009176D03*
D245*
X027917Y004143D03*
D246*
X027900Y009059D03*
X027750Y009159D03*
D247*
X027900Y004134D03*
D248*
X027883Y006359D03*
D249*
X027850Y006376D03*
D250*
X027850Y004134D03*
X027050Y011834D03*
D251*
X027833Y012459D03*
D252*
X027833Y004126D03*
X027667Y004126D03*
D253*
X027817Y004159D03*
D254*
X027800Y009134D03*
D255*
X027800Y006368D03*
X027750Y006368D03*
X027700Y006368D03*
X027650Y006368D03*
D256*
X027750Y004142D03*
X027800Y004126D03*
X027700Y004126D03*
D257*
X027783Y009143D03*
D258*
X027783Y004134D03*
X027717Y004134D03*
X027683Y004134D03*
X027617Y004134D03*
D259*
X027750Y012534D03*
D260*
X027700Y012501D03*
X027650Y011218D03*
D261*
X027700Y009168D03*
D262*
X027667Y009184D03*
D263*
X027650Y009193D03*
D264*
X027650Y004167D03*
D265*
X027633Y012434D03*
D266*
X027617Y009193D03*
D267*
X027600Y012284D03*
D268*
X027600Y009218D03*
D269*
X027600Y006351D03*
D270*
X027600Y004134D03*
D271*
X027583Y008009D03*
D272*
X027567Y008018D03*
D273*
X027550Y008018D03*
D274*
X027533Y008143D03*
D275*
X027517Y008118D03*
X027333Y008151D03*
D276*
X027500Y008134D03*
D277*
X027483Y007868D03*
D278*
X027467Y008151D03*
D279*
X027450Y008026D03*
D280*
X027433Y008067D03*
D281*
X027417Y008076D03*
X027383Y008093D03*
D282*
X027400Y008084D03*
D283*
X027367Y008084D03*
D284*
X027350Y012534D03*
D285*
X027350Y007818D03*
D286*
X027317Y007818D03*
D287*
X027300Y008151D03*
D288*
X027283Y007734D03*
D289*
X027267Y007743D03*
D290*
X027250Y007734D03*
D291*
X027033Y008334D03*
X027233Y012534D03*
D292*
X027217Y007801D03*
X027233Y007784D03*
D293*
X027200Y007967D03*
D294*
X027183Y008151D03*
X027167Y008151D03*
D295*
X027150Y008151D03*
D296*
X027133Y008151D03*
D297*
X027117Y011134D03*
D298*
X027117Y006551D03*
D299*
X027100Y011084D03*
D300*
X027100Y006684D03*
D301*
X027083Y011084D03*
D302*
X027083Y006201D03*
D303*
X027067Y011784D03*
D304*
X027067Y010218D03*
D305*
X027067Y006501D03*
D306*
X027050Y004251D03*
X027050Y010351D03*
D307*
X027050Y007134D03*
D308*
X027050Y005168D03*
D309*
X027033Y011967D03*
D310*
X027033Y010309D03*
D311*
X027033Y007484D03*
D312*
X026169Y016883D03*
X026169Y016983D03*
X025569Y017869D03*
X028869Y017869D03*
X028969Y017869D03*
X029069Y017869D03*
X029069Y017969D03*
X028969Y017969D03*
X028969Y018083D03*
X029069Y018083D03*
X028969Y018183D03*
X028869Y018183D03*
X029369Y018026D03*
X029769Y017240D03*
X030769Y018283D03*
X029769Y018812D03*
D313*
X029469Y019105D03*
X030769Y017805D03*
X029469Y016948D03*
X026669Y017505D03*
X026569Y016948D03*
X026669Y018548D03*
D314*
X025384Y018026D03*
X029855Y017369D03*
X029884Y017426D03*
X030055Y018026D03*
X030655Y017569D03*
X030755Y018283D03*
X029884Y018626D03*
X029855Y018683D03*
D315*
X030755Y017805D03*
X028384Y016648D03*
X028355Y016648D03*
X028284Y016648D03*
X028255Y016648D03*
X028184Y016648D03*
X028155Y016648D03*
X028084Y016648D03*
X028055Y016648D03*
X027984Y016648D03*
X027955Y016648D03*
X027755Y016648D03*
X027684Y016648D03*
X027655Y016648D03*
X025655Y017805D03*
X025884Y018391D03*
X027655Y019605D03*
X027684Y019605D03*
X027755Y019605D03*
D316*
X025898Y018419D03*
X026126Y016933D03*
X026141Y016933D03*
X029226Y014833D03*
X029512Y017633D03*
X029526Y017633D03*
X029526Y018019D03*
X029541Y018019D03*
X030741Y017819D03*
X030741Y018276D03*
X029226Y021219D03*
D317*
X028712Y019619D03*
X029498Y018419D03*
X029641Y018019D03*
X030726Y018276D03*
X028712Y016433D03*
X026941Y017033D03*
X026941Y019019D03*
D318*
X026641Y018598D03*
X026598Y018555D03*
X026126Y018341D03*
X026598Y017498D03*
X026641Y017455D03*
X030598Y018041D03*
X030612Y018041D03*
X030626Y018041D03*
X030641Y018041D03*
X030698Y018041D03*
X030712Y018041D03*
X030726Y018041D03*
X030726Y018112D03*
X030712Y018112D03*
X030698Y018112D03*
X030641Y018112D03*
X030626Y018112D03*
X030612Y018112D03*
X030598Y018112D03*
D319*
X030598Y017969D03*
X030612Y017969D03*
X030626Y017969D03*
X030641Y017969D03*
X030698Y017969D03*
X030712Y017969D03*
X030726Y017969D03*
X029141Y017483D03*
X029141Y018569D03*
X026626Y018583D03*
X026612Y018569D03*
X025641Y017869D03*
X026126Y017769D03*
X026612Y017483D03*
X026626Y017469D03*
D320*
X026912Y017040D03*
X026926Y017040D03*
X026612Y017012D03*
X026526Y016997D03*
X026498Y016769D03*
X025898Y017126D03*
X026112Y017526D03*
X025398Y018026D03*
X026112Y018526D03*
X025898Y018926D03*
X026498Y019283D03*
X026912Y019012D03*
X026926Y019012D03*
X029512Y018412D03*
X029526Y018412D03*
X029498Y017626D03*
X030726Y017812D03*
D321*
X030712Y018283D03*
X029112Y019569D03*
X029098Y019569D03*
X029041Y019583D03*
X029026Y019583D03*
X027141Y019569D03*
X026526Y019283D03*
X026512Y019283D03*
X026512Y016769D03*
X026526Y016769D03*
X027141Y016483D03*
X029026Y016469D03*
X029041Y016469D03*
X029098Y016483D03*
X029112Y016483D03*
D322*
X028598Y015705D03*
X025912Y017605D03*
X028598Y020348D03*
X030712Y017805D03*
D323*
X030598Y017791D03*
X030598Y018291D03*
X030698Y018291D03*
X029626Y018019D03*
X029612Y018019D03*
X028241Y018062D03*
X028226Y018062D03*
X028212Y018062D03*
X028198Y018062D03*
X028141Y018062D03*
X028126Y018062D03*
X028112Y018062D03*
X027926Y019234D03*
X027912Y019234D03*
X027898Y019234D03*
X027841Y019234D03*
X027826Y019234D03*
X027812Y019234D03*
X027798Y019234D03*
X027126Y019562D03*
X027112Y019562D03*
X027026Y019534D03*
X027012Y019534D03*
X026998Y019519D03*
X026941Y019505D03*
X026912Y019491D03*
X026541Y019291D03*
X028541Y020362D03*
X028626Y020362D03*
X028912Y019605D03*
X029012Y019591D03*
X029126Y019562D03*
X029141Y019562D03*
X029198Y019548D03*
X029212Y019534D03*
X029226Y019534D03*
X029241Y019534D03*
X029298Y019505D03*
X029326Y019491D03*
X029341Y019491D03*
X029398Y019462D03*
X029426Y019448D03*
X028241Y017019D03*
X028226Y017019D03*
X028212Y017019D03*
X028198Y017019D03*
X028141Y017019D03*
X028126Y017019D03*
X028112Y017019D03*
X027126Y016491D03*
X027112Y016491D03*
X027026Y016519D03*
X027012Y016519D03*
X026998Y016534D03*
X026941Y016548D03*
X026912Y016562D03*
X026541Y016762D03*
X028541Y015691D03*
X028626Y015691D03*
X028912Y016448D03*
X029012Y016462D03*
X029126Y016491D03*
X029141Y016491D03*
X029198Y016505D03*
X029212Y016519D03*
X029226Y016519D03*
X029241Y016519D03*
X029298Y016548D03*
X029326Y016562D03*
X029341Y016562D03*
X029398Y016591D03*
X029426Y016605D03*
D324*
X028998Y016455D03*
X028941Y016455D03*
X028926Y016455D03*
X028898Y016441D03*
X028841Y016441D03*
X028826Y016441D03*
X028812Y016441D03*
X028798Y016441D03*
X028741Y016441D03*
X028726Y016441D03*
X028612Y015698D03*
X027098Y016498D03*
X027041Y016512D03*
X029598Y018012D03*
X030698Y017798D03*
X028998Y019598D03*
X028941Y019598D03*
X028926Y019598D03*
X028898Y019612D03*
X028841Y019612D03*
X028826Y019612D03*
X028812Y019612D03*
X028798Y019612D03*
X028741Y019612D03*
X028726Y019612D03*
X028612Y020355D03*
X027098Y019555D03*
X027041Y019541D03*
X025912Y018441D03*
D325*
X026555Y019298D03*
X026755Y019412D03*
X029484Y019412D03*
X030684Y018298D03*
X029484Y016641D03*
X026755Y016641D03*
X026555Y016755D03*
D326*
X026684Y016912D03*
X026184Y017712D03*
X026155Y017741D03*
X026184Y018341D03*
X026584Y018598D03*
X026684Y019141D03*
X030355Y018598D03*
X030555Y018112D03*
X030584Y018112D03*
X030655Y018112D03*
X030684Y018112D03*
X030684Y018041D03*
X030655Y018041D03*
X030584Y018041D03*
X030555Y018041D03*
X030355Y017455D03*
D327*
X030584Y017469D03*
X030584Y017969D03*
X030555Y017969D03*
X030655Y017969D03*
X030684Y017969D03*
X030584Y018583D03*
X026355Y018569D03*
X026355Y017483D03*
D328*
X026984Y017019D03*
X026955Y016548D03*
X026984Y016534D03*
X027055Y016505D03*
X027084Y016505D03*
X028155Y017019D03*
X028184Y017019D03*
X028255Y017019D03*
X029184Y016505D03*
X029255Y016534D03*
X029284Y016548D03*
X030684Y017791D03*
X029284Y019505D03*
X029255Y019519D03*
X029184Y019548D03*
X027884Y019234D03*
X027855Y019234D03*
X027784Y019234D03*
X027084Y019548D03*
X027055Y019548D03*
X026984Y019519D03*
X026955Y019505D03*
X026984Y019034D03*
X026184Y018034D03*
X028155Y018062D03*
X028184Y018062D03*
X028255Y018062D03*
D329*
X030669Y018305D03*
D330*
X030669Y018112D03*
X030669Y018041D03*
X030569Y018041D03*
X030569Y018112D03*
X026569Y018541D03*
X026169Y018298D03*
X026169Y017755D03*
X026569Y017512D03*
X026669Y016898D03*
X026669Y019155D03*
D331*
X030569Y017969D03*
X030669Y017969D03*
D332*
X030669Y017784D03*
X028369Y019669D03*
X028269Y019669D03*
X028169Y019669D03*
X028069Y019669D03*
X027969Y019669D03*
X027869Y019669D03*
X026869Y019469D03*
X026869Y016584D03*
D333*
X026255Y017655D03*
X028784Y018298D03*
X028855Y018298D03*
X028884Y018298D03*
X028955Y018298D03*
X028955Y018398D03*
X028884Y018398D03*
X028855Y018398D03*
X028784Y018398D03*
X028884Y017755D03*
X028955Y017755D03*
X028984Y017755D03*
X029084Y017755D03*
X028984Y017655D03*
X028955Y017655D03*
X028884Y017655D03*
X030655Y018498D03*
D334*
X030655Y018305D03*
X026655Y019348D03*
X026584Y019305D03*
X026684Y017105D03*
X026584Y016748D03*
X026655Y016705D03*
D335*
X026855Y016584D03*
X029355Y016569D03*
X029384Y016584D03*
X030655Y017784D03*
X029384Y019469D03*
X029355Y019484D03*
X028384Y019669D03*
X028355Y019669D03*
X028284Y019669D03*
X028255Y019669D03*
X028184Y019669D03*
X028155Y019669D03*
X028084Y019669D03*
X028055Y019669D03*
X027984Y019669D03*
X027955Y019669D03*
X027884Y019669D03*
X027855Y019669D03*
X027784Y019669D03*
X026855Y019469D03*
D336*
X026841Y019012D03*
X026712Y017440D03*
X026841Y017040D03*
X030641Y018512D03*
D337*
X030641Y018305D03*
X030626Y018305D03*
X029441Y018905D03*
X029598Y019348D03*
X029512Y019405D03*
X026741Y019405D03*
X029441Y017148D03*
X029598Y016705D03*
X029512Y016648D03*
X026741Y016648D03*
D338*
X026898Y016569D03*
X025926Y017584D03*
X026341Y017784D03*
X026341Y018269D03*
X026898Y019484D03*
X027798Y019669D03*
X027812Y019669D03*
X027826Y019669D03*
X027841Y019669D03*
X027898Y019669D03*
X027912Y019669D03*
X027926Y019669D03*
X027941Y019669D03*
X027998Y019669D03*
X028012Y019669D03*
X028026Y019669D03*
X028041Y019669D03*
X028098Y019669D03*
X028112Y019669D03*
X028126Y019669D03*
X028141Y019669D03*
X028198Y019669D03*
X028212Y019669D03*
X028226Y019669D03*
X028241Y019669D03*
X028298Y019669D03*
X028312Y019669D03*
X028326Y019669D03*
X028341Y019669D03*
X028398Y019669D03*
X028412Y019669D03*
X028426Y019669D03*
X028526Y020369D03*
X028641Y020369D03*
X029541Y019384D03*
X030612Y017784D03*
X030626Y017784D03*
X030641Y017784D03*
X029541Y016669D03*
X028641Y015684D03*
X028526Y015684D03*
D339*
X028598Y015455D03*
X028612Y015441D03*
X028641Y015412D03*
X028698Y015355D03*
X028712Y015341D03*
X028741Y015312D03*
X028798Y015255D03*
X028812Y015241D03*
X028841Y015212D03*
X028898Y015155D03*
X028912Y015141D03*
X028941Y015112D03*
X028998Y015055D03*
X029012Y015041D03*
X029041Y015012D03*
X028541Y015441D03*
X028512Y015412D03*
X028498Y015398D03*
X028212Y015098D03*
X028198Y015084D03*
X028126Y015012D03*
X028112Y014998D03*
X028098Y014984D03*
X028026Y014912D03*
X028012Y014898D03*
X027998Y014884D03*
X026426Y016798D03*
X026126Y017498D03*
X026312Y017541D03*
X026312Y018512D03*
X026126Y018555D03*
X026426Y019255D03*
X027612Y018869D03*
X027626Y018869D03*
X027641Y018869D03*
X027698Y018869D03*
X027712Y018869D03*
X027726Y018869D03*
X027741Y018869D03*
X027798Y018869D03*
X027812Y018869D03*
X027826Y018869D03*
X027841Y018869D03*
X027898Y018869D03*
X027912Y018869D03*
X027926Y018869D03*
X027941Y018869D03*
X027998Y018869D03*
X028012Y018869D03*
X028026Y018869D03*
X028041Y018869D03*
X028098Y018869D03*
X028298Y018869D03*
X028312Y018869D03*
X028326Y018869D03*
X028341Y018869D03*
X028398Y018869D03*
X028412Y018869D03*
X028426Y018869D03*
X029941Y018498D03*
X030541Y018284D03*
X030641Y017555D03*
X029941Y017555D03*
X028426Y017698D03*
X028412Y017698D03*
X028398Y017698D03*
X028341Y017698D03*
X028326Y017698D03*
X028312Y017698D03*
X028298Y017698D03*
X028241Y017698D03*
X028226Y017698D03*
X028212Y017698D03*
X028198Y017698D03*
X028141Y017698D03*
X028126Y017698D03*
X028112Y017698D03*
X028098Y017698D03*
X028041Y017698D03*
X028026Y017698D03*
X028012Y017698D03*
X027998Y017698D03*
X027941Y017698D03*
X027926Y017698D03*
X027912Y017698D03*
X027898Y017698D03*
X027841Y017698D03*
X027826Y017698D03*
X027812Y017698D03*
X027798Y017698D03*
X027741Y017698D03*
X027726Y017698D03*
X027712Y017698D03*
X027698Y017698D03*
X027641Y017698D03*
X027626Y017698D03*
X027612Y017698D03*
X027612Y017384D03*
X027626Y017384D03*
X027641Y017384D03*
X027698Y017384D03*
X027712Y017384D03*
X027726Y017384D03*
X027741Y017384D03*
X027941Y017384D03*
X027998Y017384D03*
X028012Y017384D03*
X028026Y017384D03*
X028041Y017384D03*
X028098Y017384D03*
X028112Y017384D03*
X028126Y017384D03*
X028141Y017384D03*
X028198Y017384D03*
X028212Y017384D03*
X028226Y017384D03*
X028241Y017384D03*
X028298Y017384D03*
X028312Y017384D03*
X028326Y017384D03*
X028341Y017384D03*
X028398Y017384D03*
X028412Y017384D03*
X028426Y017384D03*
X028598Y020598D03*
X028612Y020612D03*
X028641Y020641D03*
X028698Y020698D03*
X028712Y020712D03*
X028741Y020741D03*
X028798Y020798D03*
X028812Y020812D03*
X028841Y020841D03*
X028898Y020898D03*
X028912Y020912D03*
X028941Y020941D03*
X028998Y020998D03*
X029012Y021012D03*
X029041Y021041D03*
X028541Y020612D03*
X028512Y020641D03*
X028498Y020655D03*
X028212Y020955D03*
X028198Y020969D03*
X028126Y021041D03*
X028112Y021055D03*
X028098Y021069D03*
X028026Y021141D03*
X028012Y021155D03*
X027998Y021169D03*
D340*
X028712Y019341D03*
X028726Y019341D03*
X028741Y019341D03*
X028798Y019341D03*
X028812Y019341D03*
X028826Y019341D03*
X028841Y019341D03*
X028998Y019312D03*
X029012Y019312D03*
X029041Y019298D03*
X029198Y019255D03*
X029212Y019241D03*
X029226Y019241D03*
X029298Y019212D03*
X029312Y019198D03*
X029326Y019198D03*
X029398Y019155D03*
X029412Y019141D03*
X030626Y018555D03*
X029326Y018141D03*
X029341Y017941D03*
X030626Y017498D03*
X029412Y016912D03*
X029398Y016898D03*
X029326Y016855D03*
X029312Y016855D03*
X029298Y016841D03*
X029226Y016812D03*
X029212Y016812D03*
X029198Y016798D03*
X029041Y016755D03*
X029012Y016741D03*
X028998Y016741D03*
X028841Y016712D03*
X028826Y016712D03*
X028812Y016712D03*
X028798Y016712D03*
X028741Y016712D03*
X028726Y016712D03*
X028712Y016712D03*
X027041Y016798D03*
X027026Y016812D03*
X027012Y016812D03*
X026941Y016855D03*
X026926Y016855D03*
X026826Y016912D03*
X026712Y016955D03*
X026312Y017798D03*
X026226Y018655D03*
X026041Y018698D03*
X026026Y018712D03*
X026712Y019098D03*
X026826Y019141D03*
X026926Y019198D03*
X026941Y019198D03*
X027012Y019241D03*
X027026Y019241D03*
X027041Y019255D03*
D341*
X027098Y019269D03*
X027112Y019269D03*
X027126Y019284D03*
X027141Y019284D03*
X026912Y019184D03*
X026898Y019184D03*
X026112Y018784D03*
X025598Y017784D03*
X026098Y016984D03*
X026898Y016869D03*
X026912Y016869D03*
X027098Y016784D03*
X027112Y016784D03*
X027126Y016769D03*
X027141Y016769D03*
X029098Y016769D03*
X029112Y016769D03*
X029126Y016769D03*
X029141Y016784D03*
X029341Y016869D03*
X029498Y016969D03*
X030612Y017484D03*
X030612Y018569D03*
X029498Y019084D03*
X029341Y019184D03*
X029141Y019269D03*
X029126Y019284D03*
X029112Y019284D03*
X029098Y019284D03*
D342*
X029312Y019498D03*
X029412Y019455D03*
X029441Y019441D03*
X029498Y019412D03*
X030612Y018298D03*
X029498Y016641D03*
X029441Y016612D03*
X029412Y016598D03*
X029312Y016555D03*
X026926Y016555D03*
X026841Y016598D03*
X026826Y016598D03*
X026812Y016612D03*
X026798Y016612D03*
X026726Y016655D03*
X026641Y017255D03*
X026098Y017555D03*
X026098Y018498D03*
X026726Y019398D03*
X026798Y019441D03*
X026812Y019441D03*
X026826Y019455D03*
X026841Y019455D03*
X026926Y019498D03*
D343*
X026241Y018376D03*
X026241Y017676D03*
X029226Y017676D03*
X029312Y017876D03*
X029312Y018176D03*
X029226Y018376D03*
X030598Y018576D03*
X030598Y017476D03*
D344*
X030584Y018283D03*
X029055Y019583D03*
X027184Y019583D03*
X027155Y019569D03*
X027155Y016483D03*
X027184Y016469D03*
X029055Y016469D03*
D345*
X028984Y016455D03*
X028955Y016455D03*
X028884Y016441D03*
X028855Y016441D03*
X028784Y016441D03*
X028755Y016441D03*
X029155Y016498D03*
X028555Y015698D03*
X026655Y017241D03*
X028755Y019612D03*
X028784Y019612D03*
X028855Y019612D03*
X028884Y019612D03*
X028955Y019598D03*
X028984Y019598D03*
X029155Y019555D03*
X028555Y020355D03*
X030584Y017798D03*
D346*
X030569Y017462D03*
X030469Y017462D03*
X030369Y017462D03*
X029169Y017548D03*
X029169Y016791D03*
X028969Y016734D03*
X028869Y016719D03*
X029169Y018505D03*
X029169Y019262D03*
X028969Y019319D03*
X028869Y019334D03*
X030369Y018591D03*
X030469Y018591D03*
X030569Y018591D03*
X026669Y018662D03*
X026569Y018591D03*
X026469Y018605D03*
X026269Y018648D03*
X026069Y017762D03*
X025969Y017762D03*
X025869Y017762D03*
X025769Y017762D03*
D347*
X029569Y018019D03*
X030569Y018276D03*
D348*
X030569Y017805D03*
X028569Y015705D03*
X028569Y020348D03*
D349*
X028884Y019334D03*
X029084Y019291D03*
X029155Y018548D03*
X029255Y018305D03*
X029284Y017805D03*
X029255Y017748D03*
X029155Y017505D03*
X029084Y016762D03*
X028884Y016719D03*
X030384Y017462D03*
X030455Y017462D03*
X030484Y017462D03*
X030555Y017462D03*
X030555Y018591D03*
X030484Y018591D03*
X030455Y018591D03*
X030384Y018591D03*
X026684Y018691D03*
X026555Y018591D03*
X026484Y018605D03*
X026455Y018605D03*
X026384Y018619D03*
X026255Y018648D03*
X026155Y018319D03*
X026084Y017762D03*
X026055Y017762D03*
X025984Y017762D03*
X025955Y017762D03*
X025884Y017762D03*
X025855Y017762D03*
X025784Y017762D03*
X026655Y017434D03*
X026684Y017362D03*
X026284Y017005D03*
X026184Y016991D03*
D350*
X026255Y017840D03*
X028984Y018240D03*
X029555Y018012D03*
X029655Y018012D03*
X029484Y017626D03*
X030555Y017812D03*
X030555Y018269D03*
X028584Y020340D03*
X028584Y015712D03*
D351*
X029026Y016748D03*
X029198Y017605D03*
X029212Y017648D03*
X029241Y017705D03*
X029298Y017848D03*
X029326Y017905D03*
X029341Y018105D03*
X029298Y018205D03*
X029241Y018348D03*
X029212Y018405D03*
X029198Y018448D03*
X029026Y019305D03*
X030398Y018591D03*
X030412Y018591D03*
X030426Y018591D03*
X030441Y018591D03*
X030498Y018591D03*
X030512Y018591D03*
X030526Y018591D03*
X030541Y018591D03*
X030541Y017462D03*
X030526Y017462D03*
X030512Y017462D03*
X030498Y017462D03*
X030441Y017462D03*
X030426Y017462D03*
X030412Y017462D03*
X030398Y017462D03*
X026812Y016919D03*
X026741Y016905D03*
X026698Y016919D03*
X026341Y016834D03*
X026641Y017519D03*
X026198Y017719D03*
X026112Y017762D03*
X026098Y017762D03*
X026041Y017762D03*
X026026Y017762D03*
X026012Y017762D03*
X025998Y017762D03*
X025941Y017762D03*
X025926Y017762D03*
X025912Y017762D03*
X025898Y017762D03*
X025841Y017762D03*
X025826Y017762D03*
X025812Y017762D03*
X025798Y017762D03*
X026198Y018334D03*
X026298Y018634D03*
X026312Y018634D03*
X026326Y018634D03*
X026341Y018634D03*
X026398Y018619D03*
X026412Y018619D03*
X026426Y018619D03*
X026498Y018605D03*
X026512Y018605D03*
X026541Y018591D03*
X026641Y018534D03*
X026641Y018691D03*
X026241Y018648D03*
X026026Y018791D03*
X026341Y019219D03*
X026698Y019134D03*
X026741Y019148D03*
X026812Y019134D03*
D352*
X026841Y018805D03*
X026926Y018791D03*
X026941Y018791D03*
X027098Y018762D03*
X027112Y018762D03*
X027126Y018762D03*
X026441Y019262D03*
X028398Y020762D03*
X028412Y020748D03*
X028312Y020848D03*
X028298Y020862D03*
X029098Y021105D03*
X029141Y021148D03*
X029198Y021205D03*
X030541Y017805D03*
X027126Y017291D03*
X027112Y017291D03*
X027098Y017291D03*
X026941Y017262D03*
X026926Y017262D03*
X026841Y017248D03*
X026741Y017362D03*
X026441Y016791D03*
X028398Y015291D03*
X028412Y015305D03*
X028312Y015205D03*
X028298Y015191D03*
X029098Y014948D03*
X029141Y014905D03*
X029198Y014848D03*
D353*
X026141Y017483D03*
X026141Y018569D03*
X030526Y018283D03*
D354*
X030526Y017805D03*
X029841Y017347D03*
X029826Y017319D03*
X029812Y017305D03*
X029841Y018705D03*
X029826Y018733D03*
X029812Y018747D03*
X028098Y019305D03*
X028041Y019305D03*
X028026Y019305D03*
X028012Y019305D03*
X027998Y019305D03*
X027941Y019305D03*
X026712Y018790D03*
X026598Y018676D03*
X026541Y018676D03*
X026512Y018690D03*
X026498Y018690D03*
X026426Y018705D03*
X026412Y018705D03*
X026398Y018705D03*
X026341Y018719D03*
X026326Y018719D03*
X026312Y018719D03*
X026298Y018719D03*
X026326Y018533D03*
X026698Y018590D03*
X026398Y019247D03*
X026141Y017847D03*
X026126Y017847D03*
X026112Y017847D03*
X026098Y017847D03*
X026041Y017847D03*
X026026Y017847D03*
X026012Y017847D03*
X025998Y017847D03*
X025941Y017847D03*
X025926Y017847D03*
X025912Y017847D03*
X025898Y017847D03*
X025841Y017847D03*
X025826Y017847D03*
X025812Y017847D03*
X025798Y017847D03*
X026326Y017519D03*
X026698Y017462D03*
X026712Y017262D03*
X026698Y017076D03*
X026641Y017062D03*
X026626Y017062D03*
X026541Y017047D03*
X026512Y017033D03*
X026498Y017033D03*
X026426Y017019D03*
X026412Y017019D03*
X026398Y017019D03*
X026341Y017005D03*
X026326Y017005D03*
X026312Y017005D03*
X026398Y016805D03*
X027941Y016947D03*
X027998Y016947D03*
X028012Y016947D03*
X028026Y016947D03*
X028041Y016947D03*
X028098Y016947D03*
D355*
X028712Y017476D03*
X028726Y017476D03*
X028741Y017476D03*
X028798Y017476D03*
X028812Y017476D03*
X028826Y017476D03*
X028841Y017476D03*
X028898Y017476D03*
X028912Y017476D03*
X028926Y017476D03*
X028941Y017476D03*
X028998Y017476D03*
X029012Y017476D03*
X029026Y017476D03*
X029041Y017476D03*
X029098Y017476D03*
X029112Y017476D03*
X029126Y017476D03*
X029541Y017819D03*
X029126Y018576D03*
X029112Y018576D03*
X029098Y018576D03*
X029041Y018576D03*
X029026Y018576D03*
X029012Y018576D03*
X028998Y018576D03*
X028941Y018576D03*
X028926Y018576D03*
X028912Y018576D03*
X028898Y018576D03*
X028841Y018576D03*
X028826Y018576D03*
X028812Y018576D03*
X028798Y018576D03*
X028741Y018576D03*
X028726Y018576D03*
X028712Y018576D03*
X030512Y018276D03*
X026612Y018519D03*
X026212Y018733D03*
X026112Y018333D03*
X026141Y017776D03*
X026126Y017719D03*
X026112Y017719D03*
X026612Y017533D03*
X026326Y016833D03*
X026326Y019219D03*
D356*
X026598Y018605D03*
X025741Y017848D03*
X026698Y017148D03*
X029541Y018205D03*
X030512Y017805D03*
D357*
X030412Y018026D03*
X029526Y017226D03*
X029512Y017212D03*
X029698Y016783D03*
X029641Y016740D03*
X029626Y016726D03*
X028498Y015669D03*
X026641Y016712D03*
X026626Y016726D03*
X026612Y016726D03*
X026598Y016740D03*
X026626Y017269D03*
X025941Y017569D03*
X026598Y019312D03*
X026612Y019326D03*
X026626Y019326D03*
X026641Y019340D03*
X028498Y020383D03*
X029626Y019326D03*
X029641Y019312D03*
X029698Y019269D03*
X029512Y018840D03*
X029526Y018826D03*
D358*
X030398Y018026D03*
X026041Y017126D03*
D359*
X027784Y018283D03*
X027855Y018283D03*
X027884Y018283D03*
X030384Y018026D03*
D360*
X030369Y018026D03*
D361*
X030355Y018026D03*
D362*
X030341Y018026D03*
X029441Y018026D03*
X029426Y018026D03*
D363*
X030326Y018026D03*
D364*
X030312Y018026D03*
X029041Y015726D03*
X029041Y020326D03*
D365*
X030298Y018026D03*
D366*
X030284Y018026D03*
D367*
X030269Y018026D03*
D368*
X030255Y018026D03*
D369*
X030241Y018026D03*
D370*
X030226Y018026D03*
D371*
X030212Y018026D03*
D372*
X030198Y018026D03*
D373*
X030184Y017526D03*
X030184Y018526D03*
D374*
X030169Y018591D03*
X028869Y018948D03*
X028769Y018948D03*
X030169Y017462D03*
X028869Y017105D03*
X028769Y017105D03*
D375*
X029055Y017126D03*
X029084Y017126D03*
X029584Y017426D03*
X030155Y017412D03*
X030155Y018640D03*
X029084Y018926D03*
X029055Y018926D03*
X028184Y020540D03*
X028184Y015512D03*
D376*
X027926Y017176D03*
X027912Y017176D03*
X027898Y017176D03*
X027841Y017176D03*
X027826Y017176D03*
X027812Y017176D03*
X027798Y017176D03*
X030141Y017376D03*
X030141Y018676D03*
X028241Y019076D03*
X028226Y019076D03*
X028212Y019076D03*
X028198Y019076D03*
X028141Y019076D03*
X028126Y019076D03*
X028112Y019076D03*
D377*
X029626Y018619D03*
X030126Y018719D03*
X030126Y017333D03*
D378*
X030112Y017305D03*
X029626Y017419D03*
X029698Y018547D03*
X030112Y018747D03*
X027126Y018390D03*
X027112Y018390D03*
X027098Y018390D03*
X027098Y017662D03*
X027112Y017662D03*
X027126Y017662D03*
D379*
X027141Y017669D03*
X027141Y018383D03*
X025526Y018026D03*
X025512Y018026D03*
X026012Y017126D03*
X026026Y017126D03*
X028298Y015569D03*
X030098Y017269D03*
X029712Y018526D03*
X030098Y018783D03*
X028298Y020483D03*
D380*
X030084Y018805D03*
X030084Y017248D03*
D381*
X030069Y017219D03*
X029669Y017448D03*
X030069Y018834D03*
D382*
X030055Y018862D03*
X029655Y018619D03*
X029755Y018491D03*
X030055Y017191D03*
X026755Y017691D03*
X026755Y018362D03*
X026055Y018962D03*
D383*
X026212Y018983D03*
X030041Y018883D03*
X030041Y017169D03*
D384*
X030012Y017126D03*
X030041Y018026D03*
X029341Y018426D03*
X030012Y018926D03*
X026726Y018340D03*
X026526Y018340D03*
X026398Y018340D03*
X026098Y018112D03*
X026041Y018112D03*
X026026Y018112D03*
X026012Y018112D03*
X025998Y018112D03*
X025941Y018112D03*
X025926Y018112D03*
X025912Y018112D03*
X025898Y018112D03*
X025841Y018112D03*
X025826Y018112D03*
X025812Y018112D03*
X025798Y018112D03*
X025641Y018112D03*
X026398Y017712D03*
X026526Y017712D03*
X026726Y017712D03*
X026641Y018926D03*
X026626Y018926D03*
X026598Y018940D03*
X026541Y018940D03*
X026526Y018955D03*
X026512Y018955D03*
X026498Y018955D03*
X026441Y018969D03*
X026426Y018969D03*
X026412Y018969D03*
X026398Y018969D03*
X026341Y018983D03*
X026326Y018983D03*
X026312Y018983D03*
X026298Y018983D03*
X026126Y019012D03*
D385*
X026498Y018348D03*
X026512Y018348D03*
X026512Y017705D03*
X026498Y017705D03*
X026741Y017705D03*
X030026Y017148D03*
X030026Y018905D03*
D386*
X030026Y018026D03*
X029598Y017426D03*
X028212Y015526D03*
X025726Y018026D03*
X025712Y018026D03*
X025698Y018026D03*
X026141Y018926D03*
X028212Y020526D03*
D387*
X028098Y020583D03*
X029241Y018812D03*
X027926Y018283D03*
X027912Y018283D03*
X027898Y018283D03*
X027841Y018283D03*
X027826Y018283D03*
X027812Y018283D03*
X027798Y018283D03*
X029241Y017240D03*
X030012Y018026D03*
X028098Y015469D03*
D388*
X029998Y017105D03*
X029998Y018948D03*
X026126Y018105D03*
X026112Y018105D03*
X026298Y017248D03*
D389*
X026712Y016662D03*
X025926Y018462D03*
X026712Y019391D03*
X027941Y018491D03*
X027998Y018491D03*
X028012Y018491D03*
X028026Y018491D03*
X028041Y018491D03*
X028098Y018491D03*
X028112Y018491D03*
X028126Y018491D03*
X028141Y018491D03*
X028198Y018491D03*
X028212Y018491D03*
X028226Y018491D03*
X028241Y018491D03*
X028298Y018491D03*
X028312Y018491D03*
X028326Y018491D03*
X028341Y018491D03*
X028398Y018491D03*
X028412Y018491D03*
X028426Y018491D03*
X029526Y019391D03*
X029998Y018291D03*
X029998Y017762D03*
X029526Y016662D03*
D390*
X029384Y017162D03*
X029784Y017576D03*
X029984Y017076D03*
X029384Y018319D03*
X029384Y018890D03*
X029984Y018976D03*
X026184Y017219D03*
X025455Y018019D03*
D391*
X027655Y015962D03*
X027684Y015962D03*
X027755Y015962D03*
X027784Y015962D03*
X027855Y015962D03*
X027884Y015962D03*
X027955Y015962D03*
X027984Y015962D03*
X028055Y015962D03*
X028084Y015962D03*
X028155Y015962D03*
X028184Y015962D03*
X028255Y015962D03*
X028284Y015962D03*
X028355Y015962D03*
X028384Y015962D03*
X029984Y017690D03*
X029984Y018362D03*
X028384Y020090D03*
X028355Y020090D03*
X028284Y020090D03*
X028255Y020090D03*
X028184Y020090D03*
X028155Y020090D03*
X028084Y020090D03*
X028055Y020090D03*
X027984Y020090D03*
X027955Y020090D03*
X027884Y020090D03*
X027855Y020090D03*
X027784Y020090D03*
X027755Y020090D03*
X027684Y020090D03*
X027655Y020090D03*
X027584Y020090D03*
X027555Y020090D03*
X027484Y020090D03*
D392*
X029969Y018990D03*
X029969Y017062D03*
D393*
X029969Y017641D03*
X029969Y018412D03*
X026669Y017212D03*
D394*
X029955Y017041D03*
X029955Y019012D03*
D395*
X029955Y018462D03*
X029955Y017591D03*
X027184Y017305D03*
X027084Y017291D03*
X026955Y017262D03*
X026884Y017248D03*
X026855Y017248D03*
X026455Y016791D03*
X028455Y015348D03*
X028355Y015248D03*
X028255Y015148D03*
X029084Y014962D03*
X029155Y014891D03*
X029184Y014862D03*
X027184Y018748D03*
X027084Y018762D03*
X026955Y018791D03*
X026884Y018805D03*
X026855Y018805D03*
X026455Y019262D03*
X028455Y020705D03*
X028355Y020805D03*
X028255Y020905D03*
X029084Y021091D03*
X029155Y021162D03*
X029184Y021191D03*
D396*
X029655Y019312D03*
X029684Y019283D03*
X029455Y018883D03*
X029955Y018026D03*
X029455Y017169D03*
X029684Y016769D03*
X029655Y016740D03*
X027055Y017012D03*
X026684Y016683D03*
X027055Y019040D03*
X026684Y019369D03*
D397*
X026698Y018326D03*
X026698Y017726D03*
X026512Y017283D03*
X026498Y017283D03*
X026426Y017269D03*
X026412Y017269D03*
X026398Y017269D03*
X026141Y017226D03*
X026126Y017226D03*
X028412Y015626D03*
X029941Y017026D03*
X029941Y019026D03*
X028412Y020426D03*
D398*
X025998Y018926D03*
X025498Y018026D03*
X025998Y017126D03*
X026598Y017226D03*
X029641Y017426D03*
X029726Y017526D03*
X029941Y018026D03*
D399*
X029798Y017591D03*
X029398Y017162D03*
X029912Y016991D03*
X029926Y017005D03*
X028712Y015662D03*
X029398Y018891D03*
X029912Y019062D03*
X029926Y019048D03*
X026012Y018991D03*
D400*
X026712Y018619D03*
X029698Y018019D03*
X029712Y018019D03*
X029926Y017519D03*
X029926Y018533D03*
D401*
X029598Y018612D03*
X029041Y018926D03*
X029926Y018026D03*
X029041Y017126D03*
D402*
X028426Y016648D03*
X028412Y016648D03*
X028398Y016648D03*
X028341Y016648D03*
X028326Y016648D03*
X028312Y016648D03*
X028298Y016648D03*
X028241Y016648D03*
X028226Y016648D03*
X028212Y016648D03*
X028198Y016648D03*
X028141Y016648D03*
X028126Y016648D03*
X028112Y016648D03*
X028098Y016648D03*
X028041Y016648D03*
X028026Y016648D03*
X028012Y016648D03*
X027998Y016648D03*
X027941Y016648D03*
X027741Y016648D03*
X027726Y016648D03*
X027712Y016648D03*
X027698Y016648D03*
X027641Y016648D03*
X027626Y016648D03*
X027612Y016648D03*
X026726Y017405D03*
X026241Y017791D03*
X026212Y018162D03*
X026241Y018262D03*
X026726Y018648D03*
X027612Y019605D03*
X027626Y019605D03*
X027641Y019605D03*
X027698Y019605D03*
X027712Y019605D03*
X027726Y019605D03*
X027741Y019605D03*
X029912Y018562D03*
X029512Y017848D03*
X029912Y017491D03*
D403*
X029912Y018026D03*
D404*
X029312Y017584D03*
X029898Y016969D03*
X028441Y015641D03*
X026641Y017741D03*
X026626Y017741D03*
X026626Y018312D03*
X026641Y018312D03*
X026012Y018498D03*
X025998Y018498D03*
X026026Y018998D03*
X026041Y019012D03*
X028441Y020412D03*
X028698Y020398D03*
X029898Y019084D03*
X029312Y018469D03*
D405*
X029898Y018598D03*
X029898Y017455D03*
X028098Y017998D03*
X028041Y017998D03*
X028026Y017998D03*
X028012Y017998D03*
X027998Y017998D03*
X027941Y017998D03*
X026412Y016798D03*
X026198Y016898D03*
X026212Y017898D03*
X026126Y018698D03*
X026412Y019255D03*
D406*
X027998Y020640D03*
X029898Y018026D03*
X027998Y015412D03*
D407*
X027155Y017012D03*
X026655Y017741D03*
X026155Y018084D03*
X025955Y018498D03*
X026655Y018312D03*
X027155Y019041D03*
X025984Y017541D03*
X029555Y018484D03*
X029884Y019098D03*
X029884Y016955D03*
D408*
X029884Y018026D03*
D409*
X029569Y017555D03*
X029369Y017712D03*
X029369Y018341D03*
X029869Y019112D03*
X029869Y016941D03*
D410*
X029869Y017398D03*
X029869Y018655D03*
X028069Y017998D03*
X027969Y017998D03*
D411*
X029869Y018026D03*
D412*
X029855Y016919D03*
X029855Y019133D03*
D413*
X029855Y018026D03*
X027584Y018126D03*
X027555Y018126D03*
X027484Y018126D03*
X027484Y019297D03*
X027555Y019297D03*
X027584Y019297D03*
D414*
X027112Y019040D03*
X027098Y019040D03*
X029412Y018912D03*
X029841Y019140D03*
X029412Y017140D03*
X029841Y016912D03*
X027112Y017012D03*
X027098Y017012D03*
D415*
X027912Y015269D03*
X029841Y018026D03*
X027912Y020783D03*
D416*
X029826Y019155D03*
X029826Y016898D03*
X026041Y017555D03*
X026026Y017555D03*
D417*
X029826Y018026D03*
D418*
X029541Y017569D03*
X029812Y016883D03*
X029798Y016869D03*
X029812Y019169D03*
X029798Y019183D03*
X026612Y017283D03*
X025926Y017126D03*
X025426Y018026D03*
X025941Y018483D03*
X025926Y018926D03*
D419*
X029812Y018026D03*
D420*
X029526Y017469D03*
X029798Y017283D03*
X029726Y017183D03*
X029712Y017169D03*
X029041Y017869D03*
X029026Y017869D03*
X029012Y017869D03*
X028998Y017869D03*
X028941Y017869D03*
X028926Y017869D03*
X028912Y017869D03*
X028898Y017869D03*
X028898Y017969D03*
X028912Y017969D03*
X028926Y017969D03*
X028941Y017969D03*
X028998Y017969D03*
X029012Y017969D03*
X029026Y017969D03*
X029041Y017969D03*
X029041Y018083D03*
X029026Y018083D03*
X029012Y018083D03*
X028998Y018083D03*
X028941Y018083D03*
X028926Y018083D03*
X028912Y018083D03*
X028898Y018083D03*
X028898Y018183D03*
X028912Y018183D03*
X028926Y018183D03*
X028941Y018183D03*
X028841Y018183D03*
X028826Y018183D03*
X028812Y018183D03*
X028798Y018183D03*
X029526Y018583D03*
X029798Y018769D03*
X029726Y018869D03*
X029712Y018883D03*
X026098Y018783D03*
X026012Y018726D03*
X025626Y017869D03*
X025612Y017869D03*
X025641Y017783D03*
X026112Y016983D03*
X026298Y016912D03*
D421*
X029798Y018212D03*
D422*
X029484Y018855D03*
X029784Y019198D03*
X029484Y017198D03*
X029784Y016855D03*
D423*
X029784Y017262D03*
X028084Y016947D03*
X028055Y016947D03*
X027984Y016947D03*
X027955Y016947D03*
X026655Y017062D03*
X026584Y017047D03*
X026555Y017047D03*
X026484Y017033D03*
X026455Y017033D03*
X026384Y017019D03*
X026184Y016890D03*
X026084Y016905D03*
X026084Y017847D03*
X026055Y017847D03*
X025984Y017847D03*
X025955Y017847D03*
X025884Y017847D03*
X025855Y017847D03*
X025784Y017847D03*
X026155Y017847D03*
X026255Y018390D03*
X026384Y018705D03*
X026355Y018719D03*
X026255Y018733D03*
X026084Y018790D03*
X026484Y018690D03*
X026555Y018676D03*
X026584Y018676D03*
X027955Y019305D03*
X027984Y019305D03*
X028055Y019305D03*
X028084Y019305D03*
X029784Y018790D03*
D424*
X029784Y018469D03*
X028384Y020440D03*
X026655Y018926D03*
X026584Y018940D03*
X026555Y018940D03*
X026484Y018955D03*
X026384Y018969D03*
X026355Y018983D03*
X026284Y018997D03*
X026255Y018997D03*
X026084Y018112D03*
X026055Y018112D03*
X025984Y018112D03*
X025955Y018112D03*
X025884Y018112D03*
X025855Y018112D03*
X025784Y018112D03*
X026284Y017240D03*
X028384Y015612D03*
D425*
X029784Y018012D03*
D426*
X029769Y016840D03*
X029769Y019212D03*
D427*
X029769Y018483D03*
D428*
X029769Y018012D03*
X026469Y017698D03*
X026469Y018355D03*
D429*
X026069Y018112D03*
X025969Y018112D03*
X025869Y018112D03*
X025769Y018112D03*
X025969Y018926D03*
X026269Y018997D03*
X026469Y018955D03*
X026569Y018940D03*
X026269Y017226D03*
X025969Y017126D03*
X029369Y017169D03*
X029769Y017555D03*
X029369Y018883D03*
D430*
X029755Y019219D03*
X029355Y018347D03*
X029055Y018290D03*
X028855Y017976D03*
X028784Y017976D03*
X029355Y017705D03*
X029755Y016833D03*
X028684Y015662D03*
X028484Y015662D03*
X026355Y017762D03*
X026084Y017562D03*
X026055Y017562D03*
X026355Y018290D03*
X026084Y018490D03*
X028484Y020390D03*
X028684Y020390D03*
D431*
X029684Y018912D03*
X029755Y018826D03*
X029055Y018083D03*
X028984Y018083D03*
X028955Y018083D03*
X028884Y018083D03*
X028884Y018183D03*
X028855Y018183D03*
X028784Y018183D03*
X028955Y018183D03*
X028955Y017969D03*
X028984Y017969D03*
X029055Y017969D03*
X029055Y017869D03*
X028984Y017869D03*
X028955Y017869D03*
X028884Y017869D03*
X028884Y017969D03*
X029755Y017226D03*
X029684Y017140D03*
X026684Y017483D03*
X026455Y016926D03*
X026384Y016812D03*
X026155Y016883D03*
X026155Y016983D03*
X026684Y018569D03*
X026384Y019240D03*
D432*
X026784Y018919D03*
X026784Y017133D03*
X029755Y018019D03*
D433*
X029755Y017548D03*
X026484Y017705D03*
X025755Y018105D03*
X026484Y018348D03*
D434*
X026298Y018019D03*
X026726Y017105D03*
X028798Y017976D03*
X028812Y017976D03*
X028826Y017976D03*
X028841Y017976D03*
X028998Y018290D03*
X029012Y018290D03*
X029026Y018290D03*
X029041Y018290D03*
X029498Y018847D03*
X029741Y019233D03*
X029726Y019247D03*
X029712Y019262D03*
X029498Y017205D03*
X029741Y016819D03*
X029726Y016805D03*
X029712Y016790D03*
X026726Y018947D03*
D435*
X026112Y018698D03*
X026226Y018298D03*
X026226Y017755D03*
X026098Y016898D03*
X028798Y018298D03*
X028812Y018298D03*
X028826Y018298D03*
X028841Y018298D03*
X028898Y018298D03*
X028912Y018298D03*
X028926Y018298D03*
X028941Y018298D03*
X028941Y018398D03*
X028926Y018398D03*
X028912Y018398D03*
X028898Y018398D03*
X028841Y018398D03*
X028826Y018398D03*
X028812Y018398D03*
X028798Y018398D03*
X029526Y018198D03*
X029112Y017755D03*
X029098Y017755D03*
X028941Y017755D03*
X028926Y017755D03*
X028912Y017755D03*
X028898Y017755D03*
X028898Y017655D03*
X028912Y017655D03*
X028926Y017655D03*
X028941Y017655D03*
X029698Y017155D03*
X029741Y017198D03*
X029741Y018855D03*
X029698Y018898D03*
D436*
X029298Y018898D03*
X029741Y018512D03*
X029712Y017512D03*
X029298Y017155D03*
D437*
X029341Y017619D03*
X029741Y018019D03*
X028398Y015619D03*
X026712Y017719D03*
X026541Y017719D03*
X026541Y018333D03*
X026712Y018333D03*
X025541Y018090D03*
X028398Y020433D03*
D438*
X028341Y020462D03*
X028741Y020391D03*
X029312Y018905D03*
X029741Y017534D03*
X029312Y017148D03*
X028741Y015662D03*
X028341Y015591D03*
D439*
X028312Y015576D03*
X029726Y018519D03*
X029641Y018619D03*
X028312Y020476D03*
D440*
X026112Y019012D03*
X025626Y018112D03*
X025612Y018112D03*
X026098Y017212D03*
X029726Y018012D03*
D441*
X029698Y017498D03*
D442*
X029684Y018569D03*
X028755Y020383D03*
X027184Y018383D03*
X027155Y018383D03*
X027155Y017669D03*
X027184Y017669D03*
X028755Y015669D03*
D443*
X029684Y018019D03*
D444*
X029684Y017476D03*
D445*
X029669Y016755D03*
X029669Y019298D03*
D446*
X029569Y019033D03*
X029669Y018933D03*
X029669Y017119D03*
X029569Y017019D03*
X026469Y016933D03*
X026369Y016819D03*
X026369Y019233D03*
D447*
X029669Y018598D03*
D448*
X029669Y018019D03*
D449*
X029655Y017105D03*
X029655Y018948D03*
X026584Y016948D03*
X026555Y016948D03*
X026355Y016905D03*
X025755Y017848D03*
D450*
X025484Y018026D03*
X025984Y017126D03*
X025984Y018926D03*
X029655Y017426D03*
D451*
X029641Y017091D03*
X029612Y017062D03*
X029526Y016991D03*
X026826Y017291D03*
X026641Y016962D03*
X026626Y016962D03*
X026112Y016891D03*
X026212Y018662D03*
X026098Y018691D03*
X026041Y018791D03*
X026826Y018762D03*
X029526Y019062D03*
X029612Y018991D03*
X029641Y018962D03*
D452*
X029626Y018976D03*
X029512Y019076D03*
X029426Y019133D03*
X029241Y019233D03*
X029526Y017833D03*
X029626Y017076D03*
X029512Y016976D03*
X029426Y016919D03*
X029241Y016819D03*
X026698Y017319D03*
X026212Y017733D03*
X026198Y017819D03*
X026312Y018019D03*
X026198Y018233D03*
X026212Y018319D03*
X026226Y018733D03*
X026626Y018676D03*
X026698Y018733D03*
X025741Y017776D03*
X025626Y017776D03*
X025612Y017776D03*
X026398Y016919D03*
X026412Y016919D03*
X026426Y016919D03*
X026498Y016933D03*
X026512Y016933D03*
D453*
X026698Y016676D03*
X027012Y017019D03*
X027026Y017019D03*
X027041Y017019D03*
X026226Y018033D03*
X027012Y019033D03*
X027026Y019033D03*
X027041Y019033D03*
X026698Y019376D03*
X028512Y020376D03*
X029612Y019333D03*
X029426Y018919D03*
X029541Y018819D03*
X029541Y017233D03*
X029426Y017133D03*
X029612Y016719D03*
X028512Y015676D03*
D454*
X028226Y015534D03*
X026812Y017634D03*
X026812Y018419D03*
X028226Y020519D03*
X029612Y018619D03*
D455*
X029612Y017426D03*
X027598Y016126D03*
X027541Y016126D03*
X027526Y016126D03*
X027512Y016126D03*
X027498Y016126D03*
D456*
X026841Y016905D03*
X026598Y016948D03*
X026541Y016948D03*
X026341Y016905D03*
X026326Y016905D03*
X026312Y016905D03*
X026298Y017005D03*
X026341Y017505D03*
X025541Y017805D03*
X026312Y018248D03*
X026341Y018548D03*
X026841Y019148D03*
X029541Y019048D03*
X029598Y019005D03*
X029598Y017048D03*
X029541Y017005D03*
D457*
X029584Y016698D03*
X026684Y018955D03*
X029584Y019355D03*
D458*
X029355Y019176D03*
X029555Y019033D03*
X029584Y019019D03*
X029584Y017033D03*
X029555Y017019D03*
X029355Y016876D03*
X026755Y016933D03*
X026484Y016933D03*
X026384Y016919D03*
X025884Y017119D03*
X025884Y018933D03*
X026755Y019119D03*
D459*
X028984Y018933D03*
X029584Y018619D03*
X028984Y017119D03*
D460*
X029584Y018019D03*
X029484Y018419D03*
D461*
X028369Y018491D03*
X028269Y018491D03*
X028169Y018491D03*
X028069Y018491D03*
X027969Y018491D03*
X026669Y019362D03*
X029569Y019362D03*
X029569Y016691D03*
X026669Y016691D03*
D462*
X026569Y016755D03*
X026969Y016541D03*
X029569Y017241D03*
X029569Y018812D03*
X026969Y019512D03*
X026569Y019298D03*
D463*
X027169Y019048D03*
X029569Y018491D03*
X027169Y017005D03*
D464*
X028655Y015676D03*
X029555Y016676D03*
X029555Y017233D03*
X029555Y018819D03*
X029555Y019376D03*
X028655Y020376D03*
D465*
X028455Y020405D03*
X029555Y017562D03*
X028455Y015648D03*
X025955Y017548D03*
D466*
X029541Y018476D03*
D467*
X029298Y018491D03*
X029512Y018091D03*
X029298Y017562D03*
X027141Y017005D03*
X027126Y017005D03*
X026012Y017548D03*
X025998Y017548D03*
X026026Y018491D03*
X026041Y018491D03*
X027126Y019048D03*
X027141Y019048D03*
X028698Y015662D03*
D468*
X029498Y018012D03*
X026241Y018940D03*
D469*
X026084Y018691D03*
X025555Y017791D03*
X026655Y016962D03*
X029384Y016891D03*
X029484Y016962D03*
X029484Y019091D03*
X029384Y019162D03*
D470*
X029484Y018019D03*
D471*
X029469Y016626D03*
X029469Y019426D03*
D472*
X029469Y018869D03*
X029469Y017183D03*
X026169Y018069D03*
X026069Y018483D03*
D473*
X028969Y020326D03*
X029469Y018026D03*
X028969Y015726D03*
D474*
X029455Y016626D03*
X026784Y016626D03*
X026784Y019426D03*
X029455Y019426D03*
D475*
X029284Y019212D03*
X029184Y019255D03*
X029055Y019298D03*
X028984Y019312D03*
X028855Y019341D03*
X028784Y019341D03*
X028755Y019341D03*
X029455Y019112D03*
X029284Y018241D03*
X029455Y016941D03*
X029284Y016841D03*
X029184Y016798D03*
X029055Y016755D03*
X028984Y016741D03*
X028855Y016712D03*
X028784Y016712D03*
X028755Y016712D03*
X027184Y016755D03*
X027055Y016798D03*
X026955Y016841D03*
X026855Y016898D03*
X026655Y017512D03*
X026655Y018541D03*
X026055Y018698D03*
X026855Y019155D03*
X026955Y019212D03*
X027055Y019255D03*
X027184Y019298D03*
D476*
X029455Y018026D03*
D477*
X029441Y016926D03*
X028941Y016726D03*
X028926Y016726D03*
X028912Y016726D03*
X028898Y016726D03*
X026998Y016826D03*
X026998Y019226D03*
X028898Y019326D03*
X028912Y019326D03*
X028926Y019326D03*
X028941Y019326D03*
X029441Y019126D03*
D478*
X029412Y018305D03*
X029412Y017748D03*
D479*
X029398Y017741D03*
X029341Y017155D03*
X029326Y017155D03*
X029398Y018312D03*
X029341Y018898D03*
X029326Y018898D03*
X026741Y018355D03*
X026441Y018355D03*
X026426Y018355D03*
X026412Y018355D03*
X025741Y018098D03*
X026412Y017698D03*
X026426Y017698D03*
X026441Y017698D03*
X026198Y017212D03*
D480*
X028755Y017476D03*
X028784Y017476D03*
X028855Y017476D03*
X028884Y017476D03*
X028955Y017476D03*
X028984Y017476D03*
X029055Y017476D03*
X029084Y017476D03*
X029384Y018019D03*
X029084Y018576D03*
X029055Y018576D03*
X028984Y018576D03*
X028955Y018576D03*
X028884Y018576D03*
X028855Y018576D03*
X028784Y018576D03*
X028755Y018576D03*
D481*
X029384Y017726D03*
X026555Y017726D03*
X026384Y017726D03*
X026455Y017283D03*
X026484Y017283D03*
X026384Y017269D03*
X026155Y017226D03*
X025955Y017126D03*
X026384Y018326D03*
X026555Y018326D03*
X025955Y018926D03*
D482*
X027169Y019576D03*
X029069Y019576D03*
X029369Y019476D03*
X029369Y016576D03*
X029069Y016476D03*
X027169Y016476D03*
D483*
X026669Y016969D03*
X025869Y017684D03*
X025569Y017784D03*
X029369Y016884D03*
X029369Y019169D03*
D484*
X029355Y018890D03*
X029355Y017162D03*
D485*
X029355Y017469D03*
X029155Y016784D03*
X027155Y016769D03*
X027084Y016784D03*
X026884Y016884D03*
X026155Y017469D03*
X025755Y017769D03*
X025584Y017784D03*
X025555Y017869D03*
X026155Y018584D03*
X026884Y019169D03*
X027084Y019269D03*
X027155Y019284D03*
X029155Y019269D03*
X029355Y018584D03*
D486*
X029184Y018476D03*
X029355Y018076D03*
X029355Y017976D03*
X029184Y017576D03*
X026184Y017776D03*
X026184Y018276D03*
D487*
X029326Y020512D03*
X029326Y015540D03*
D488*
X029326Y017598D03*
X029326Y018455D03*
X028712Y020398D03*
X026141Y018098D03*
X026526Y017298D03*
X026541Y017298D03*
X026341Y017255D03*
X026326Y017255D03*
X026312Y017255D03*
D489*
X029312Y015533D03*
X029312Y020519D03*
D490*
X029298Y020526D03*
X029298Y015526D03*
D491*
X029284Y015533D03*
X029284Y020519D03*
D492*
X029284Y018755D03*
X029284Y017298D03*
D493*
X029269Y015540D03*
X029269Y020512D03*
D494*
X029169Y019548D03*
X029269Y019519D03*
X027869Y019234D03*
X027069Y019548D03*
X028169Y018062D03*
X028169Y017019D03*
X029169Y016505D03*
X029269Y016534D03*
X027069Y016505D03*
D495*
X029269Y016826D03*
X029269Y019226D03*
D496*
X029269Y018769D03*
X029269Y017284D03*
D497*
X029269Y017776D03*
X029269Y018276D03*
D498*
X029255Y020512D03*
X029255Y015541D03*
D499*
X028955Y016726D03*
X029255Y016826D03*
X026984Y016826D03*
X026355Y016826D03*
X026355Y018626D03*
X026355Y019226D03*
X026984Y019226D03*
X028955Y019326D03*
X029255Y019226D03*
D500*
X029255Y018791D03*
X028855Y020362D03*
X028055Y020605D03*
X029255Y017262D03*
X028855Y015691D03*
X028055Y015448D03*
D501*
X029241Y015548D03*
X029241Y020505D03*
D502*
X028112Y020576D03*
X029226Y018833D03*
X029226Y017219D03*
X028112Y015476D03*
D503*
X028341Y015234D03*
X028326Y015219D03*
X028241Y015134D03*
X028226Y015119D03*
X028426Y015319D03*
X028441Y015334D03*
X027941Y014834D03*
X029112Y014934D03*
X029126Y014919D03*
X029212Y014834D03*
X028441Y020719D03*
X028426Y020734D03*
X028341Y020819D03*
X028326Y020834D03*
X028241Y020919D03*
X028226Y020934D03*
X027941Y021219D03*
X029112Y021119D03*
X029126Y021134D03*
X029212Y021219D03*
D504*
X028141Y020562D03*
X028741Y018948D03*
X028798Y018948D03*
X028812Y018948D03*
X028826Y018948D03*
X028841Y018948D03*
X029212Y018848D03*
X029212Y017205D03*
X028841Y017105D03*
X028826Y017105D03*
X028812Y017105D03*
X028798Y017105D03*
X028741Y017105D03*
X028141Y015491D03*
D505*
X028998Y017119D03*
X029012Y017119D03*
X029026Y017119D03*
X029198Y017176D03*
X029198Y018876D03*
X029026Y018933D03*
X029012Y018933D03*
X028998Y018933D03*
D506*
X029184Y020376D03*
X029184Y015676D03*
D507*
X029184Y017162D03*
X029184Y018890D03*
D508*
X029069Y021076D03*
X029169Y021176D03*
X029069Y014976D03*
X029169Y014876D03*
D509*
X029169Y015676D03*
X029169Y020376D03*
D510*
X029169Y018905D03*
X029169Y017148D03*
D511*
X029155Y015683D03*
X029155Y020369D03*
D512*
X029155Y018912D03*
X029155Y017141D03*
X026255Y017141D03*
D513*
X029141Y015690D03*
X029141Y020362D03*
D514*
X029141Y018912D03*
X029141Y017141D03*
X026241Y017141D03*
X026226Y017141D03*
D515*
X029126Y015698D03*
X029126Y020355D03*
D516*
X028798Y020376D03*
X028198Y020533D03*
X029098Y018919D03*
X029112Y018919D03*
X029126Y018919D03*
X029126Y017133D03*
X029112Y017133D03*
X029098Y017133D03*
X028798Y015676D03*
X028198Y015519D03*
X026441Y017176D03*
X026212Y017133D03*
X026198Y018919D03*
D517*
X029112Y020355D03*
X029112Y015698D03*
D518*
X029098Y015705D03*
X029098Y020348D03*
D519*
X029084Y020341D03*
X029084Y015712D03*
D520*
X029084Y016476D03*
X026884Y016576D03*
X026884Y019476D03*
X029084Y019576D03*
D521*
X029069Y020333D03*
X029069Y015719D03*
D522*
X029069Y016755D03*
X028769Y016712D03*
X027169Y016755D03*
X027069Y016798D03*
X026969Y016841D03*
X026669Y017398D03*
X026969Y019212D03*
X027069Y019255D03*
X027169Y019298D03*
X028769Y019341D03*
X029069Y019298D03*
D523*
X029069Y018926D03*
X029069Y017126D03*
D524*
X029069Y017476D03*
X028969Y017476D03*
X028869Y017476D03*
X028769Y017476D03*
X028769Y018576D03*
X028869Y018576D03*
X028969Y018576D03*
X029069Y018576D03*
D525*
X029069Y018290D03*
X026069Y017562D03*
D526*
X029069Y017705D03*
D527*
X028384Y017698D03*
X028355Y017698D03*
X028284Y017698D03*
X028255Y017698D03*
X028184Y017698D03*
X028155Y017698D03*
X028084Y017698D03*
X028055Y017698D03*
X027984Y017698D03*
X027955Y017698D03*
X027884Y017698D03*
X027855Y017698D03*
X027784Y017698D03*
X027755Y017698D03*
X027684Y017698D03*
X027655Y017698D03*
X027655Y017384D03*
X027684Y017384D03*
X027755Y017384D03*
X027955Y017384D03*
X027984Y017384D03*
X028055Y017384D03*
X028084Y017384D03*
X028155Y017384D03*
X028184Y017384D03*
X028255Y017384D03*
X028284Y017384D03*
X028355Y017384D03*
X028384Y017384D03*
X026855Y017055D03*
X026855Y018998D03*
X027655Y018869D03*
X027684Y018869D03*
X027755Y018869D03*
X027784Y018869D03*
X027855Y018869D03*
X027884Y018869D03*
X027955Y018869D03*
X027984Y018869D03*
X028055Y018869D03*
X028084Y018869D03*
X028284Y018869D03*
X028355Y018869D03*
X028384Y018869D03*
X028584Y020584D03*
X028555Y020598D03*
X028484Y020669D03*
X028655Y020655D03*
X028684Y020684D03*
X028755Y020755D03*
X028784Y020784D03*
X028855Y020855D03*
X028884Y020884D03*
X028955Y020955D03*
X028984Y020984D03*
X029055Y021055D03*
X028184Y020984D03*
X028155Y021012D03*
X028084Y021084D03*
X028055Y021112D03*
X027984Y021184D03*
X027955Y021212D03*
X028584Y015469D03*
X028555Y015455D03*
X028484Y015384D03*
X028655Y015398D03*
X028684Y015369D03*
X028755Y015298D03*
X028784Y015269D03*
X028855Y015198D03*
X028884Y015169D03*
X028955Y015098D03*
X028984Y015069D03*
X029055Y014998D03*
X028184Y015069D03*
X028155Y015041D03*
X028084Y014969D03*
X028055Y014941D03*
X027984Y014869D03*
X027955Y014841D03*
D528*
X029055Y015726D03*
X029055Y020326D03*
D529*
X026255Y018205D03*
X028784Y017705D03*
X028855Y017705D03*
X029055Y017705D03*
D530*
X029041Y017705D03*
X029026Y017705D03*
X029012Y017705D03*
X028998Y017705D03*
X028841Y017705D03*
X028826Y017705D03*
X028812Y017705D03*
X028798Y017705D03*
X026326Y017805D03*
X026326Y018248D03*
D531*
X027612Y018426D03*
X027626Y018426D03*
X027641Y018426D03*
X027698Y018426D03*
X027712Y018426D03*
X027726Y018426D03*
X027741Y018426D03*
X027941Y016326D03*
X027998Y016326D03*
X028012Y016326D03*
X028026Y016326D03*
X028041Y016326D03*
X028098Y016326D03*
X028112Y016326D03*
X028126Y016326D03*
X028141Y016326D03*
X028198Y016326D03*
X028212Y016326D03*
X028226Y016326D03*
X028241Y016326D03*
X028526Y015426D03*
X028626Y015426D03*
X028726Y015326D03*
X028826Y015226D03*
X028926Y015126D03*
X029026Y015026D03*
X028141Y015026D03*
X028041Y014926D03*
X028526Y020626D03*
X028626Y020626D03*
X028726Y020726D03*
X028826Y020826D03*
X028926Y020926D03*
X029026Y021026D03*
X028141Y021026D03*
X028041Y021126D03*
D532*
X029026Y020319D03*
X029026Y015734D03*
D533*
X029012Y015733D03*
X029012Y020319D03*
D534*
X028998Y020319D03*
X027898Y020790D03*
X028998Y015733D03*
X027898Y015262D03*
D535*
X028984Y015726D03*
X028984Y020326D03*
D536*
X028669Y020669D03*
X028569Y020584D03*
X028769Y020769D03*
X028869Y020869D03*
X028969Y020969D03*
X028169Y020998D03*
X028069Y021098D03*
X027969Y021198D03*
X027969Y018869D03*
X027869Y018869D03*
X027769Y018869D03*
X027669Y018869D03*
X028069Y018869D03*
X028269Y018869D03*
X028369Y018869D03*
X028369Y017698D03*
X028269Y017698D03*
X028169Y017698D03*
X028069Y017698D03*
X027969Y017698D03*
X027869Y017698D03*
X027769Y017698D03*
X027669Y017698D03*
X027669Y017384D03*
X027769Y017384D03*
X027969Y017384D03*
X028069Y017384D03*
X028169Y017384D03*
X028269Y017384D03*
X028369Y017384D03*
X028569Y015469D03*
X028669Y015384D03*
X028769Y015284D03*
X028869Y015184D03*
X028969Y015084D03*
X028169Y015055D03*
X028069Y014955D03*
X027969Y014855D03*
D537*
X028769Y016441D03*
X028869Y016441D03*
X028969Y016455D03*
X028969Y019598D03*
X028869Y019612D03*
X028769Y019612D03*
D538*
X028969Y018941D03*
X028969Y017112D03*
D539*
X028969Y017655D03*
X028869Y017655D03*
X028969Y017755D03*
X028969Y018298D03*
X028869Y018298D03*
X028869Y018398D03*
X028969Y018398D03*
D540*
X028955Y020333D03*
X028955Y015719D03*
D541*
X028155Y015498D03*
X028955Y017112D03*
X028955Y018941D03*
X028155Y020555D03*
D542*
X028941Y020341D03*
X028941Y015712D03*
D543*
X028941Y017112D03*
X028926Y017112D03*
X028912Y017112D03*
X028898Y017112D03*
X028898Y018941D03*
X028912Y018941D03*
X028926Y018941D03*
X028941Y018941D03*
D544*
X028926Y020340D03*
X028926Y015712D03*
D545*
X028912Y015705D03*
X028912Y020348D03*
D546*
X028898Y020348D03*
X028898Y015705D03*
D547*
X028884Y015697D03*
X028884Y020355D03*
D548*
X028884Y018948D03*
X028855Y018948D03*
X028784Y018948D03*
X028755Y018948D03*
X028755Y017105D03*
X028784Y017105D03*
X028855Y017105D03*
X028884Y017105D03*
D549*
X028869Y015698D03*
X028869Y020355D03*
D550*
X028069Y019305D03*
X027969Y019305D03*
X026569Y018676D03*
X026469Y018690D03*
X026269Y018733D03*
X026069Y018790D03*
X026069Y017847D03*
X025969Y017847D03*
X025869Y017847D03*
X025769Y017847D03*
X026469Y017033D03*
X026569Y017047D03*
X026669Y017062D03*
X027969Y016947D03*
X028069Y016947D03*
X028869Y017976D03*
D551*
X028841Y015690D03*
X028841Y020362D03*
D552*
X028826Y020369D03*
X028126Y020569D03*
X028826Y015684D03*
X028126Y015484D03*
D553*
X028812Y015683D03*
X028812Y020369D03*
D554*
X028784Y020376D03*
X028255Y019076D03*
X028184Y019076D03*
X028155Y019076D03*
X027884Y017176D03*
X027855Y017176D03*
X027784Y017176D03*
X028784Y015676D03*
D555*
X028769Y015669D03*
X028769Y020383D03*
D556*
X028726Y020390D03*
X026226Y018990D03*
X028726Y015662D03*
D557*
X028726Y017098D03*
X028712Y017098D03*
X028712Y018955D03*
X028726Y018955D03*
D558*
X027069Y019040D03*
X028669Y020383D03*
X027069Y017012D03*
X028669Y015669D03*
D559*
X028641Y018026D03*
X028626Y018026D03*
X028612Y018026D03*
X028598Y018026D03*
X028526Y018026D03*
X028512Y018026D03*
X028498Y018026D03*
X028441Y018026D03*
X027441Y018026D03*
X027426Y018026D03*
X027412Y018026D03*
X027398Y018026D03*
X027326Y018026D03*
X027312Y018026D03*
X027298Y018026D03*
D560*
X027284Y018026D03*
X027255Y018026D03*
X027384Y018026D03*
X027455Y018026D03*
X028455Y018026D03*
X028484Y018026D03*
X028584Y018026D03*
D561*
X027169Y017305D03*
X026969Y017262D03*
X026869Y017248D03*
X026869Y017048D03*
X026269Y017648D03*
X026269Y018405D03*
X026869Y018805D03*
X026969Y018791D03*
X027169Y018748D03*
X026869Y019005D03*
X028469Y020691D03*
X028369Y020791D03*
X028269Y020891D03*
X028469Y015362D03*
X028369Y015262D03*
X028269Y015162D03*
D562*
X028469Y015655D03*
X028469Y020398D03*
D563*
X028469Y018026D03*
X027369Y018026D03*
X027269Y018026D03*
D564*
X026612Y017734D03*
X026598Y017734D03*
X026112Y017219D03*
X026598Y018319D03*
X026612Y018319D03*
X026098Y019019D03*
X028426Y020419D03*
X028426Y015634D03*
D565*
X028426Y015962D03*
X028412Y015962D03*
X028398Y015962D03*
X028341Y015962D03*
X028326Y015962D03*
X028312Y015962D03*
X028298Y015962D03*
X028241Y015962D03*
X028226Y015962D03*
X028212Y015962D03*
X028198Y015962D03*
X028141Y015962D03*
X028126Y015962D03*
X028112Y015962D03*
X028098Y015962D03*
X028041Y015962D03*
X028026Y015962D03*
X028012Y015962D03*
X027998Y015962D03*
X027941Y015962D03*
X027926Y015962D03*
X027912Y015962D03*
X027898Y015962D03*
X027841Y015962D03*
X027826Y015962D03*
X027812Y015962D03*
X027798Y015962D03*
X027741Y015962D03*
X027726Y015962D03*
X027712Y015962D03*
X027698Y015962D03*
X027641Y015962D03*
X027626Y015962D03*
X027612Y015962D03*
X027612Y020090D03*
X027598Y020090D03*
X027626Y020090D03*
X027641Y020090D03*
X027698Y020090D03*
X027712Y020090D03*
X027726Y020090D03*
X027741Y020090D03*
X027798Y020090D03*
X027812Y020090D03*
X027826Y020090D03*
X027841Y020090D03*
X027898Y020090D03*
X027912Y020090D03*
X027926Y020090D03*
X027941Y020090D03*
X027998Y020090D03*
X028012Y020090D03*
X028026Y020090D03*
X028041Y020090D03*
X028098Y020090D03*
X028112Y020090D03*
X028126Y020090D03*
X028141Y020090D03*
X028198Y020090D03*
X028212Y020090D03*
X028226Y020090D03*
X028241Y020090D03*
X028298Y020090D03*
X028312Y020090D03*
X028326Y020090D03*
X028341Y020090D03*
X028398Y020090D03*
X028412Y020090D03*
X028426Y020090D03*
X027541Y020090D03*
X027526Y020090D03*
X027512Y020090D03*
X027498Y020090D03*
D566*
X028384Y020776D03*
X028284Y020876D03*
X027055Y018776D03*
X028384Y015276D03*
X028284Y015176D03*
D567*
X028284Y018491D03*
X028255Y018491D03*
X028184Y018491D03*
X028155Y018491D03*
X028084Y018491D03*
X028055Y018491D03*
X027984Y018491D03*
X027955Y018491D03*
X028355Y018491D03*
X028384Y018491D03*
D568*
X028369Y020448D03*
X028369Y015605D03*
D569*
X028369Y015962D03*
X028269Y015962D03*
X028169Y015962D03*
X028069Y015962D03*
X027969Y015962D03*
X027869Y015962D03*
X027769Y015962D03*
X027669Y015962D03*
X027669Y020090D03*
X027569Y020090D03*
X027469Y020090D03*
X027769Y020090D03*
X027869Y020090D03*
X027969Y020090D03*
X028069Y020090D03*
X028169Y020090D03*
X028269Y020090D03*
X028369Y020090D03*
D570*
X027769Y019605D03*
X027669Y019605D03*
X027669Y016648D03*
X027769Y016648D03*
X027969Y016648D03*
X028069Y016648D03*
X028169Y016648D03*
X028269Y016648D03*
X028369Y016648D03*
D571*
X028355Y015598D03*
X026455Y017698D03*
X026284Y018012D03*
X026455Y018355D03*
X025655Y018098D03*
X028355Y020455D03*
D572*
X028326Y020469D03*
X027926Y016484D03*
X027912Y016484D03*
X027898Y016484D03*
X027841Y016484D03*
X027826Y016484D03*
X027812Y016484D03*
X027798Y016484D03*
X028326Y015584D03*
D573*
X028284Y015562D03*
X026355Y017205D03*
X026784Y017662D03*
X027084Y017662D03*
X027084Y018390D03*
X026784Y018390D03*
X028284Y020490D03*
D574*
X028269Y020498D03*
X028269Y015555D03*
D575*
X028255Y015548D03*
X026955Y017648D03*
X026955Y018405D03*
X026455Y018905D03*
X028255Y020505D03*
D576*
X027755Y018426D03*
X027684Y018426D03*
X027655Y018426D03*
X027955Y016326D03*
X027984Y016326D03*
X028055Y016326D03*
X028084Y016326D03*
X028155Y016326D03*
X028184Y016326D03*
X028255Y016326D03*
D577*
X028241Y015541D03*
X026898Y017641D03*
X026841Y017641D03*
X026826Y017641D03*
X026798Y017641D03*
X026798Y018412D03*
X026826Y018412D03*
X026841Y018412D03*
X026898Y018412D03*
X028241Y020512D03*
D578*
X028169Y020548D03*
X028169Y015505D03*
D579*
X027869Y017176D03*
X028169Y019076D03*
D580*
X027769Y018426D03*
X027669Y018426D03*
X026269Y016926D03*
X027969Y016326D03*
X028069Y016326D03*
X028169Y016326D03*
D581*
X028084Y015462D03*
X028084Y020590D03*
D582*
X028084Y017998D03*
X028055Y017998D03*
X027984Y017998D03*
X027955Y017998D03*
X025884Y017655D03*
D583*
X028069Y015455D03*
X028069Y020598D03*
D584*
X028041Y020612D03*
X028041Y015441D03*
D585*
X028026Y015426D03*
X028026Y020626D03*
D586*
X028012Y020633D03*
X028012Y015419D03*
D587*
X027984Y015405D03*
X027984Y020648D03*
D588*
X027926Y020776D03*
X027926Y015276D03*
D589*
X027884Y015255D03*
X027884Y020798D03*
D590*
X027884Y016484D03*
X027855Y016484D03*
X027784Y016484D03*
D591*
X027869Y015248D03*
X027869Y020805D03*
D592*
X027869Y018283D03*
D593*
X027869Y016484D03*
D594*
X027855Y015241D03*
X027855Y020812D03*
D595*
X027841Y020812D03*
X027841Y015241D03*
D596*
X027598Y018126D03*
X027541Y018126D03*
X027526Y018126D03*
X027512Y018126D03*
X027498Y018126D03*
X027498Y019297D03*
X027512Y019297D03*
X027526Y019297D03*
X027541Y019297D03*
X027598Y019297D03*
D597*
X027598Y017019D03*
X027541Y017019D03*
X027526Y017019D03*
X027512Y017019D03*
X027498Y017019D03*
D598*
X027484Y017019D03*
X027555Y017019D03*
X027584Y017019D03*
D599*
X027584Y016126D03*
X027555Y016126D03*
X027484Y016126D03*
D600*
X027469Y018126D03*
X027569Y018126D03*
X027569Y019297D03*
X027469Y019297D03*
D601*
X027469Y017019D03*
X027569Y017019D03*
D602*
X027569Y016126D03*
X027469Y016126D03*
X026069Y017126D03*
D603*
X026584Y017291D03*
X027184Y017005D03*
X025984Y018505D03*
X027184Y019048D03*
D604*
X026984Y018783D03*
X026984Y018026D03*
X026955Y018026D03*
X026884Y018026D03*
X026855Y018026D03*
X026784Y018026D03*
X026755Y018026D03*
X026684Y018026D03*
X026655Y018026D03*
X026584Y018026D03*
X026555Y018026D03*
X026484Y018026D03*
X026455Y018026D03*
X026384Y018026D03*
X026355Y018026D03*
X027055Y018026D03*
X027084Y018026D03*
X027155Y018026D03*
X027184Y018026D03*
X027055Y017283D03*
X026984Y017269D03*
D605*
X027169Y017669D03*
X027169Y018383D03*
D606*
X027069Y018769D03*
X026469Y019269D03*
X026469Y018026D03*
X026369Y018026D03*
X026569Y018026D03*
X026669Y018026D03*
X026769Y018026D03*
X026869Y018026D03*
X026969Y018026D03*
X027069Y018026D03*
X027169Y018026D03*
X027069Y017283D03*
X026469Y016783D03*
D607*
X027155Y017298D03*
X027155Y018755D03*
X026284Y018698D03*
D608*
X026526Y018655D03*
X026898Y018798D03*
X026912Y018798D03*
X026812Y018955D03*
X027141Y018755D03*
X027141Y017298D03*
X026912Y017255D03*
X026898Y017255D03*
X026812Y017098D03*
D609*
X026998Y017269D03*
X026998Y018026D03*
X027012Y018026D03*
X027026Y018026D03*
X027041Y018026D03*
X027098Y018026D03*
X027112Y018026D03*
X027126Y018026D03*
X027141Y018026D03*
X026941Y018026D03*
X026926Y018026D03*
X026912Y018026D03*
X026898Y018026D03*
X026841Y018026D03*
X026826Y018026D03*
X026812Y018026D03*
X026798Y018026D03*
X026741Y018026D03*
X026726Y018026D03*
X026712Y018026D03*
X026698Y018026D03*
X026641Y018026D03*
X026626Y018026D03*
X026612Y018026D03*
X026598Y018026D03*
X026541Y018026D03*
X026526Y018026D03*
X026512Y018026D03*
X026498Y018026D03*
X026441Y018026D03*
X026426Y018026D03*
X026412Y018026D03*
X026398Y018026D03*
X026341Y018026D03*
X025898Y017626D03*
X026441Y018669D03*
X026741Y018683D03*
D610*
X027084Y019040D03*
X027084Y017012D03*
D611*
X027069Y017662D03*
X026269Y018019D03*
X027069Y018390D03*
D612*
X027055Y018398D03*
X026984Y018398D03*
X026984Y017655D03*
X027055Y017655D03*
D613*
X027041Y017276D03*
X027026Y017276D03*
X027012Y017276D03*
X026298Y017576D03*
X026298Y018476D03*
X026998Y018776D03*
X027012Y018776D03*
X027026Y018776D03*
X027041Y018776D03*
D614*
X027041Y018398D03*
X027026Y018398D03*
X027012Y018398D03*
X026998Y018398D03*
X026998Y017655D03*
X027012Y017655D03*
X027026Y017655D03*
X027041Y017655D03*
D615*
X026998Y017026D03*
X025912Y017126D03*
X025412Y018026D03*
X025912Y018926D03*
X026998Y019026D03*
D616*
X026969Y019026D03*
X026969Y017026D03*
D617*
X026969Y017648D03*
X026969Y018405D03*
D618*
X026955Y019026D03*
X026955Y017026D03*
D619*
X026941Y017648D03*
X026926Y017648D03*
X026912Y017648D03*
X026912Y018405D03*
X026926Y018405D03*
X026941Y018405D03*
D620*
X026898Y019012D03*
X026898Y017041D03*
D621*
X026884Y017041D03*
X026284Y017612D03*
X026284Y018441D03*
X026884Y019012D03*
D622*
X026884Y018412D03*
X026855Y018412D03*
X026855Y017641D03*
X026884Y017641D03*
D623*
X026169Y017862D03*
X025869Y018362D03*
X026069Y018691D03*
X026869Y019162D03*
X026869Y016891D03*
D624*
X026869Y017641D03*
X026869Y018412D03*
D625*
X026798Y018933D03*
X026798Y017119D03*
D626*
X026769Y016633D03*
X026769Y019419D03*
D627*
X026769Y018905D03*
X026769Y017148D03*
D628*
X026769Y017676D03*
X026769Y018376D03*
D629*
X026755Y018733D03*
X026484Y019276D03*
X026755Y017319D03*
X026484Y016776D03*
D630*
X026741Y017076D03*
X026741Y018976D03*
X026698Y018976D03*
D631*
X026726Y019162D03*
X026726Y016890D03*
D632*
X026684Y017734D03*
X026584Y017734D03*
X026584Y018319D03*
X026684Y018319D03*
D633*
X026669Y018319D03*
X026569Y018319D03*
X026669Y018934D03*
X026669Y017734D03*
X026569Y017734D03*
X025969Y017534D03*
D634*
X026555Y017505D03*
X026584Y017505D03*
X026584Y018548D03*
X026555Y018548D03*
X026655Y018705D03*
D635*
X026655Y018626D03*
D636*
X026626Y018526D03*
X026141Y018326D03*
X026141Y017726D03*
X026626Y017526D03*
D637*
X026612Y018876D03*
D638*
X026569Y017298D03*
D639*
X026555Y017298D03*
X025555Y018098D03*
D640*
X026469Y017283D03*
X026369Y017269D03*
X026169Y017226D03*
D641*
X026369Y018890D03*
D642*
X026369Y018305D03*
X026369Y017748D03*
D643*
X026369Y016969D03*
D644*
X026284Y016912D03*
D645*
X025684Y018026D03*
X026155Y018926D03*
X026184Y018926D03*
D646*
X026184Y017890D03*
D647*
X025669Y018026D03*
X026169Y018926D03*
D648*
X026169Y018605D03*
X026169Y017705D03*
X026169Y017448D03*
D649*
X026084Y019026D03*
D650*
X026084Y017205D03*
D651*
X026069Y019026D03*
D652*
X026055Y018483D03*
D653*
X026055Y017126D03*
D654*
X025569Y018112D03*
X025969Y018512D03*
D655*
X025941Y018926D03*
X025441Y018026D03*
X025941Y017126D03*
D656*
X025598Y018062D03*
D657*
X025584Y018062D03*
D658*
X025469Y018019D03*
M02*
