G75*
G70*
%OFA0B0*%
%FSLAX24Y24*%
%IPPOS*%
%LPD*%
%AMOC8*
5,1,8,0,0,1.08239X$1,22.5*
%
%ADD10C,0.0000*%
%ADD11C,0.0039*%
%ADD12C,0.0520*%
%ADD13OC8,0.0660*%
%ADD14C,0.0600*%
%ADD15C,0.0660*%
%ADD16OC8,0.0630*%
%ADD17C,0.0630*%
%ADD18OC8,0.0600*%
%ADD19R,0.2000X0.0650*%
%ADD20OC8,0.0700*%
%ADD21OC8,0.0760*%
%ADD22C,0.0400*%
%ADD23R,0.0396X0.0396*%
D10*
X001105Y011765D02*
X001107Y011815D01*
X001113Y011865D01*
X001123Y011914D01*
X001137Y011962D01*
X001154Y012009D01*
X001175Y012054D01*
X001200Y012098D01*
X001228Y012139D01*
X001260Y012178D01*
X001294Y012215D01*
X001331Y012249D01*
X001371Y012279D01*
X001413Y012306D01*
X001457Y012330D01*
X001503Y012351D01*
X001550Y012367D01*
X001598Y012380D01*
X001648Y012389D01*
X001697Y012394D01*
X001748Y012395D01*
X001798Y012392D01*
X001847Y012385D01*
X001896Y012374D01*
X001944Y012359D01*
X001990Y012341D01*
X002035Y012319D01*
X002078Y012293D01*
X002119Y012264D01*
X002158Y012232D01*
X002194Y012197D01*
X002226Y012159D01*
X002256Y012119D01*
X002283Y012076D01*
X002306Y012032D01*
X002325Y011986D01*
X002341Y011938D01*
X002353Y011889D01*
X002361Y011840D01*
X002365Y011790D01*
X002365Y011740D01*
X002361Y011690D01*
X002353Y011641D01*
X002341Y011592D01*
X002325Y011544D01*
X002306Y011498D01*
X002283Y011454D01*
X002256Y011411D01*
X002226Y011371D01*
X002194Y011333D01*
X002158Y011298D01*
X002119Y011266D01*
X002078Y011237D01*
X002035Y011211D01*
X001990Y011189D01*
X001944Y011171D01*
X001896Y011156D01*
X001847Y011145D01*
X001798Y011138D01*
X001748Y011135D01*
X001697Y011136D01*
X001648Y011141D01*
X001598Y011150D01*
X001550Y011163D01*
X001503Y011179D01*
X001457Y011200D01*
X001413Y011224D01*
X001371Y011251D01*
X001331Y011281D01*
X001294Y011315D01*
X001260Y011352D01*
X001228Y011391D01*
X001200Y011432D01*
X001175Y011476D01*
X001154Y011521D01*
X001137Y011568D01*
X001123Y011616D01*
X001113Y011665D01*
X001107Y011715D01*
X001105Y011765D01*
D11*
X001798Y001756D02*
X001841Y001719D01*
X001890Y001677D01*
X001945Y001631D01*
X002006Y001581D01*
X002074Y001526D01*
X002148Y001467D01*
X002228Y001405D01*
X002315Y001341D01*
X002406Y001275D01*
X002502Y001208D01*
X002603Y001141D01*
X002707Y001075D01*
X002815Y001011D01*
X002926Y000949D01*
X003039Y000891D01*
X003156Y000835D01*
X003275Y000783D01*
X003397Y000734D01*
X003521Y000689D01*
X003649Y000647D01*
X003779Y000609D01*
X003911Y000574D01*
X004046Y000541D01*
X004183Y000510D01*
X004322Y000482D01*
X004462Y000456D01*
X004602Y000431D01*
X004742Y000408D01*
X004880Y000386D01*
X005017Y000365D01*
X005150Y000346D01*
X005281Y000328D01*
X005407Y000311D01*
X005530Y000296D01*
X005649Y000281D01*
X005763Y000268D01*
X005874Y000256D01*
X005982Y000244D01*
X006087Y000234D01*
X006191Y000225D01*
X006293Y000216D01*
X006395Y000209D01*
X006496Y000202D01*
X006598Y000196D01*
X006699Y000191D01*
X006801Y000186D01*
X006903Y000182D01*
X007005Y000178D01*
X007105Y000175D01*
X007204Y000172D01*
X007300Y000169D01*
X007393Y000167D01*
X007482Y000165D01*
X007567Y000163D01*
X007646Y000162D01*
X007720Y000160D01*
X007788Y000159D01*
X007850Y000158D01*
X007906Y000157D01*
X007957Y000157D01*
X008002Y000156D01*
X008042Y000155D01*
X008078Y000155D01*
X008110Y000155D01*
X008139Y000154D01*
X008165Y000154D01*
X008189Y000154D01*
X008212Y000153D01*
X008235Y000153D01*
X008258Y000153D01*
X008281Y000153D01*
X008306Y000152D01*
X008331Y000152D01*
X008359Y000152D01*
X008387Y000151D01*
X008418Y000151D01*
X008449Y000151D01*
X008482Y000150D01*
X008515Y000150D01*
X008548Y000149D01*
X008582Y000149D01*
X008616Y000149D01*
X008649Y000148D01*
X008682Y000148D01*
X008715Y000148D01*
X008748Y000147D01*
X008782Y000147D01*
X008818Y000146D01*
X008855Y000146D01*
X008895Y000145D01*
X008939Y000145D01*
X008987Y000144D01*
X009039Y000144D01*
X009097Y000143D01*
X009161Y000142D01*
X009231Y000142D01*
X009306Y000141D01*
X009388Y000140D01*
X009475Y000139D01*
X009566Y000138D01*
X009663Y000137D01*
X009763Y000136D01*
X009867Y000134D01*
X009973Y000133D01*
X010081Y000132D01*
X010191Y000131D01*
X010302Y000130D01*
X010413Y000129D01*
X010525Y000128D01*
X010637Y000126D01*
X010749Y000126D01*
X010861Y000125D01*
X010973Y000124D01*
X011084Y000123D01*
X011195Y000122D01*
X011306Y000122D01*
X011417Y000121D01*
X011527Y000121D01*
X011637Y000121D01*
X011747Y000120D01*
X011857Y000120D01*
X011967Y000120D01*
X012076Y000120D01*
X012186Y000120D01*
X012295Y000120D01*
X012404Y000120D01*
X012512Y000120D01*
X012621Y000120D01*
X012729Y000120D01*
X012836Y000121D01*
X012942Y000121D01*
X013048Y000121D01*
X013153Y000122D01*
X013258Y000123D01*
X013361Y000123D01*
X013463Y000124D01*
X013565Y000125D01*
X013666Y000126D01*
X013765Y000127D01*
X013864Y000129D01*
X013962Y000130D01*
X014059Y000132D01*
X014155Y000134D01*
X014250Y000135D01*
X014345Y000137D01*
X014438Y000139D01*
X014531Y000142D01*
X014622Y000144D01*
X014713Y000146D01*
X014802Y000148D01*
X014890Y000151D01*
X014977Y000153D01*
X015062Y000155D01*
X015147Y000158D01*
X015230Y000160D01*
X015313Y000162D01*
X015395Y000164D01*
X015476Y000166D01*
X015558Y000168D01*
X015640Y000170D01*
X015722Y000172D01*
X015805Y000174D01*
X015890Y000176D01*
X015976Y000177D01*
X016064Y000178D01*
X016153Y000180D01*
X016244Y000181D01*
X016337Y000182D01*
X016432Y000183D01*
X016528Y000184D01*
X016626Y000185D01*
X016724Y000185D01*
X016822Y000186D01*
X016921Y000187D01*
X017018Y000187D01*
X017114Y000188D01*
X017209Y000188D01*
X017300Y000189D01*
X017389Y000189D01*
X017473Y000190D01*
X017554Y000190D01*
X017629Y000191D01*
X017698Y000191D01*
X017762Y000191D01*
X017820Y000191D01*
X017872Y000192D01*
X017919Y000192D01*
X017959Y000192D01*
X017994Y000192D01*
X018023Y000192D01*
X018048Y000193D01*
X018069Y000193D01*
X018086Y000193D01*
X018100Y000193D01*
X018112Y000193D01*
X018121Y000193D01*
X018129Y000193D01*
X018135Y000193D01*
X018141Y000193D01*
X018146Y000193D01*
X018150Y000193D01*
X018154Y000193D01*
X018158Y000193D01*
X018161Y000193D01*
X018164Y000193D01*
X018168Y000193D01*
X018171Y000193D01*
X018174Y000193D01*
X018178Y000193D01*
X018181Y000193D01*
X018185Y000193D01*
X018189Y000193D01*
X018193Y000193D01*
X018199Y000193D01*
X018205Y000193D01*
X018213Y000193D01*
X018224Y000193D01*
X018236Y000194D01*
X018252Y000194D01*
X018271Y000194D01*
X018294Y000194D01*
X018321Y000194D01*
X018353Y000194D01*
X018389Y000194D01*
X018429Y000195D01*
X018474Y000195D01*
X018523Y000195D01*
X018575Y000195D01*
X018629Y000196D01*
X018685Y000196D01*
X018742Y000196D01*
X018798Y000197D01*
X018854Y000197D01*
X018907Y000197D01*
X018958Y000198D01*
X019006Y000198D01*
X019051Y000198D01*
X019092Y000198D01*
X019129Y000199D01*
X019164Y000199D01*
X019195Y000199D01*
X019224Y000199D01*
X019252Y000199D01*
X019278Y000200D01*
X019304Y000200D01*
X019329Y000200D01*
X019355Y000200D01*
X019381Y000200D01*
X019409Y000201D01*
X019437Y000201D01*
X019467Y000201D01*
X019497Y000201D01*
X019529Y000202D01*
X019562Y000202D01*
X019595Y000202D01*
X019629Y000203D01*
X019663Y000203D01*
X019697Y000203D01*
X019731Y000204D01*
X019765Y000204D01*
X019799Y000205D01*
X019832Y000205D01*
X019865Y000205D01*
X019897Y000206D01*
X019928Y000206D01*
X019959Y000207D01*
X019988Y000207D01*
X020017Y000208D01*
X020045Y000208D01*
X020072Y000209D01*
X020097Y000209D01*
X020122Y000210D01*
X020145Y000210D01*
X020167Y000210D01*
X020188Y000211D01*
X020208Y000211D01*
X020227Y000212D01*
X020244Y000212D01*
X020261Y000212D01*
X020276Y000213D01*
X020291Y000213D01*
X020304Y000213D01*
X020317Y000213D01*
X020330Y000214D01*
X020341Y000214D01*
X020353Y000214D01*
X020364Y000214D01*
X020375Y000214D01*
X020385Y000214D01*
X020396Y000215D01*
X020406Y000215D01*
X020416Y000215D01*
X020426Y000215D01*
X020437Y000215D01*
X020447Y000215D01*
X020457Y000215D01*
X020468Y000215D01*
X020478Y000215D01*
X020489Y000215D01*
X020500Y000215D01*
X020512Y000215D01*
X020523Y000215D01*
X020535Y000215D01*
X020548Y000215D01*
X020561Y000215D01*
X020574Y000215D01*
X020588Y000215D01*
X020602Y000215D01*
X020616Y000215D01*
X020631Y000215D01*
X020646Y000215D01*
X020662Y000215D01*
X020677Y000215D01*
X020693Y000215D01*
X020710Y000215D01*
X020726Y000215D01*
X020743Y000215D01*
X020760Y000214D01*
X020777Y000214D01*
X020793Y000214D01*
X020810Y000214D01*
X020827Y000214D01*
X020844Y000214D01*
X020861Y000213D01*
X020879Y000213D01*
X020896Y000213D01*
X020913Y000213D01*
X020930Y000213D01*
X020947Y000212D01*
X020964Y000212D01*
X020981Y000212D01*
X020998Y000212D01*
X021016Y000211D01*
X021033Y000211D01*
X021050Y000211D01*
X021067Y000211D01*
X021085Y000210D01*
X021102Y000210D01*
X021120Y000210D01*
X021137Y000210D01*
X021155Y000209D01*
X021172Y000209D01*
X021190Y000209D01*
X021207Y000209D01*
X021225Y000208D01*
X021242Y000208D01*
X021260Y000208D01*
X021278Y000208D01*
X021295Y000208D01*
X021313Y000207D01*
X021331Y000207D01*
X021348Y000207D01*
X021366Y000207D01*
X021384Y000207D01*
X021402Y000206D01*
X021420Y000206D01*
X021438Y000206D01*
X021456Y000206D01*
X021474Y000206D01*
X021493Y000206D01*
X021511Y000206D01*
X021530Y000206D01*
X021550Y000206D01*
X021569Y000206D01*
X021589Y000206D01*
X021609Y000206D01*
X021630Y000206D01*
X021650Y000206D01*
X021671Y000206D01*
X021693Y000206D01*
X021714Y000206D01*
X021736Y000206D01*
X021757Y000206D01*
X021779Y000206D01*
X021801Y000206D01*
X021823Y000207D01*
X021844Y000207D01*
X021866Y000207D01*
X021887Y000207D01*
X021908Y000208D01*
X021930Y000208D01*
X021951Y000209D01*
X021972Y000209D01*
X021994Y000210D01*
X022016Y000210D01*
X022039Y000211D01*
X022063Y000212D01*
X022088Y000213D01*
X022115Y000214D01*
X022145Y000215D01*
X022176Y000217D01*
X022211Y000218D01*
X022248Y000220D01*
X022290Y000222D01*
X022335Y000224D01*
X022383Y000227D01*
X022435Y000229D01*
X022491Y000232D01*
X022550Y000235D01*
X022612Y000239D01*
X022675Y000242D01*
X022741Y000246D01*
X022807Y000250D01*
X022874Y000254D01*
X022940Y000258D01*
X023005Y000263D01*
X023069Y000267D01*
X023130Y000271D01*
X023190Y000276D01*
X023247Y000280D01*
X023302Y000285D01*
X023354Y000289D01*
X023404Y000294D01*
X023452Y000299D01*
X023498Y000303D01*
X023542Y000308D01*
X023586Y000312D01*
X023628Y000317D01*
X023669Y000322D01*
X023709Y000326D01*
X023748Y000331D01*
X023787Y000336D01*
X023825Y000340D01*
X023862Y000345D01*
X023898Y000349D01*
X023934Y000353D01*
X023968Y000358D01*
X024002Y000362D01*
X024035Y000366D01*
X024067Y000370D01*
X024098Y000373D01*
X024128Y000377D01*
X024157Y000381D01*
X024186Y000384D01*
X024214Y000387D01*
X024242Y000391D01*
X024270Y000394D01*
X024298Y000398D01*
X024326Y000401D01*
X024355Y000404D01*
X024384Y000408D01*
X024413Y000411D01*
X024444Y000414D01*
X024475Y000418D01*
X024507Y000421D01*
X024540Y000425D01*
X024575Y000429D01*
X024611Y000432D01*
X024648Y000436D01*
X024686Y000440D01*
X024725Y000444D01*
X024766Y000448D01*
X024809Y000453D01*
X024852Y000457D01*
X024897Y000462D01*
X024944Y000467D01*
X024991Y000473D01*
X025040Y000479D01*
X025090Y000485D01*
X025141Y000493D01*
X025193Y000501D01*
X025246Y000510D01*
X025300Y000520D01*
X025355Y000531D01*
X025411Y000544D01*
X025468Y000557D01*
X025524Y000573D01*
X025582Y000589D01*
X025639Y000607D01*
X025696Y000626D01*
X025753Y000645D01*
X025810Y000666D01*
X025865Y000688D01*
X025920Y000710D01*
X025974Y000733D01*
X026027Y000756D01*
X026079Y000779D01*
X026129Y000802D01*
X026179Y000826D01*
X026227Y000849D01*
X026275Y000873D01*
X026322Y000896D01*
X026368Y000920D01*
X026415Y000943D01*
X026461Y000968D01*
X026508Y000992D01*
X026555Y001017D01*
X026603Y001042D01*
X026651Y001068D01*
X026699Y001095D01*
X026749Y001122D01*
X026798Y001150D01*
X026847Y001178D01*
X026897Y001207D01*
X026946Y001236D01*
X026994Y001265D01*
X027041Y001295D01*
X027086Y001324D01*
X027131Y001354D01*
X027173Y001384D01*
X027214Y001413D01*
X027252Y001443D01*
X027289Y001472D01*
X027323Y001502D01*
X027355Y001531D01*
X027384Y001560D01*
X027412Y001588D01*
X027438Y001616D01*
X027461Y001644D01*
X027482Y001671D01*
X027502Y001697D01*
X027519Y001722D01*
X027535Y001746D01*
X027550Y001769D01*
X027562Y001790D01*
X027573Y001809D01*
X027583Y001827D01*
X027592Y001843D01*
X027599Y001856D01*
X027605Y001868D01*
X027610Y001878D01*
X027615Y001886D01*
X027618Y001892D01*
X027621Y001897D01*
X027623Y001900D01*
X027625Y001902D01*
X027626Y001903D01*
X027627Y001903D01*
X027628Y001902D01*
X027628Y001901D01*
X027628Y001899D01*
X027629Y001897D01*
X027629Y001894D01*
X027628Y001891D01*
X027628Y001888D01*
X027628Y001885D01*
X027627Y001880D01*
X027627Y001876D01*
X027626Y001871D01*
X027625Y001864D01*
X027623Y001857D01*
X027622Y001849D01*
X027619Y001839D01*
X027617Y001827D01*
X027614Y001813D01*
X027611Y001797D01*
X027607Y001779D01*
X027604Y001759D01*
X027600Y001735D01*
X027596Y001709D01*
X027593Y001681D01*
X027590Y001650D01*
X027588Y001616D01*
X027588Y001579D01*
X027588Y001540D01*
X027590Y001500D01*
X027594Y001457D01*
X027599Y001412D01*
X027607Y001367D01*
X027616Y001320D01*
X027627Y001273D01*
X027639Y001226D01*
X027653Y001180D01*
X027668Y001134D01*
X027683Y001089D01*
X027699Y001046D01*
X027716Y001005D01*
X027732Y000965D01*
X027748Y000929D01*
X027763Y000895D01*
X027778Y000863D01*
X027792Y000835D01*
X027805Y000809D01*
X027817Y000786D01*
X027828Y000765D01*
X027838Y000747D01*
X027848Y000731D01*
X027858Y000717D01*
X027867Y000705D01*
X027877Y000694D01*
X027888Y000684D01*
X027900Y000676D01*
X027914Y000668D01*
X027929Y000660D01*
X027947Y000653D01*
X027968Y000646D01*
X027991Y000639D01*
X028016Y000632D01*
X028045Y000624D01*
X028076Y000616D01*
X028109Y000608D01*
X028144Y000599D01*
X028180Y000590D01*
X028217Y000582D01*
X028254Y000573D01*
X028290Y000564D01*
X028325Y000556D01*
X028358Y000548D01*
X028390Y000541D01*
X028418Y000534D01*
X028445Y000528D01*
X028468Y000523D01*
X028488Y000518D01*
X028506Y000514D01*
X028521Y000511D01*
X028533Y000508D01*
X028544Y000505D01*
X028553Y000503D01*
X028561Y000502D01*
X028568Y000500D01*
X028574Y000499D01*
X028580Y000498D01*
X028586Y000496D01*
X028592Y000495D01*
X028598Y000494D01*
X028604Y000492D01*
X028610Y000490D01*
X028617Y000489D01*
X028624Y000487D01*
X028631Y000485D01*
X028639Y000482D01*
X028647Y000480D01*
X028655Y000477D01*
X028663Y000475D01*
X028671Y000472D01*
X028679Y000469D01*
X028687Y000466D01*
X028695Y000463D01*
X028703Y000460D01*
X028711Y000457D01*
X028718Y000454D01*
X028725Y000451D01*
X028732Y000448D01*
X028738Y000446D01*
X028744Y000443D01*
X028751Y000441D01*
X028757Y000438D01*
X028763Y000436D01*
X028770Y000434D01*
X028778Y000432D01*
X028787Y000430D01*
X028798Y000428D01*
X028810Y000426D01*
X028825Y000424D01*
X028842Y000422D01*
X028862Y000420D01*
X028886Y000417D01*
X028912Y000415D01*
X028942Y000412D01*
X028975Y000409D01*
X029010Y000406D01*
X029048Y000402D01*
X029087Y000399D01*
X029128Y000395D01*
X029169Y000392D01*
X029210Y000388D01*
X029250Y000385D01*
X029288Y000382D01*
X029324Y000379D01*
X029357Y000376D01*
X029388Y000373D01*
X029415Y000371D01*
X029439Y000369D01*
X029460Y000367D01*
X029477Y000366D01*
X029493Y000365D01*
X029506Y000364D01*
X029518Y000364D01*
X029529Y000363D01*
X029540Y000364D01*
X029551Y000364D01*
X029565Y000365D01*
X029580Y000367D01*
X029598Y000369D01*
X029620Y000371D01*
X029646Y000374D01*
X029677Y000378D01*
X029712Y000382D01*
X029752Y000387D01*
X029796Y000392D01*
X029844Y000398D01*
X029896Y000404D01*
X029951Y000410D01*
X030008Y000417D01*
X030066Y000424D01*
X030123Y000431D01*
X030180Y000437D01*
X030235Y000444D01*
X030287Y000450D01*
X030336Y000456D01*
X030380Y000461D01*
X030421Y000466D01*
X030457Y000470D01*
X030488Y000473D01*
X030515Y000476D01*
X030538Y000479D01*
X030558Y000481D01*
X030574Y000482D01*
X030588Y000483D01*
X030600Y000484D01*
X030610Y000484D01*
X030619Y000485D01*
X030627Y000485D01*
X030635Y000485D01*
X030643Y000485D01*
X030650Y000485D01*
X030657Y000484D01*
X030665Y000484D01*
X030672Y000484D01*
X030680Y000484D01*
X030688Y000483D01*
X030696Y000483D01*
X030704Y000483D01*
X030712Y000483D01*
X030720Y000482D01*
X030728Y000482D01*
X030736Y000482D01*
X030745Y000482D01*
X030753Y000482D01*
X030762Y000482D01*
X030771Y000481D01*
X030780Y000481D01*
X030789Y000481D01*
X030799Y000481D01*
X030810Y000481D01*
X030821Y000481D01*
X030833Y000481D01*
X030846Y000481D01*
X030860Y000481D01*
X030874Y000481D01*
X030889Y000481D01*
X030905Y000481D01*
X030921Y000482D01*
X030939Y000482D01*
X030957Y000482D01*
X030976Y000483D01*
X030995Y000483D01*
X031014Y000484D01*
X031034Y000485D01*
X031054Y000486D01*
X031074Y000487D01*
X031095Y000488D01*
X031115Y000490D01*
X031136Y000492D01*
X031156Y000494D01*
X031176Y000496D01*
X031197Y000498D01*
X031217Y000500D01*
X031237Y000503D01*
X031256Y000506D01*
X031276Y000509D01*
X031295Y000511D01*
X031313Y000515D01*
X031331Y000518D01*
X031348Y000521D01*
X031365Y000524D01*
X031381Y000527D01*
X031396Y000530D01*
X031411Y000532D01*
X031426Y000535D01*
X031440Y000538D01*
X031454Y000541D01*
X031468Y000544D01*
X031483Y000547D01*
X031498Y000550D01*
X031515Y000554D01*
X031533Y000558D01*
X031553Y000562D01*
X031575Y000567D01*
X031599Y000572D01*
X031625Y000577D01*
X031652Y000583D01*
X031681Y000589D01*
X031711Y000596D01*
X031743Y000602D01*
X031774Y000609D01*
X031805Y000616D01*
X031836Y000622D01*
X031865Y000629D01*
X031893Y000634D01*
X031919Y000640D01*
X031943Y000645D01*
X031964Y000650D01*
X031982Y000654D01*
X031998Y000657D01*
X032012Y000661D01*
X032023Y000664D01*
X032032Y000666D01*
X032039Y000669D01*
X032044Y000673D01*
X032049Y000677D01*
X032052Y000682D01*
X032055Y000688D01*
X032057Y000695D01*
X032058Y000705D01*
X032059Y000716D01*
X032061Y000730D01*
X032062Y000747D01*
X032064Y000766D01*
X032065Y000788D01*
X032067Y000812D01*
X032068Y000839D01*
X032070Y000868D01*
X032072Y000898D01*
X032075Y000929D01*
X032077Y000962D01*
X032079Y000994D01*
X032081Y001026D01*
X032083Y001057D01*
X032085Y001087D01*
X032087Y001115D01*
X032089Y001141D01*
X032090Y001165D01*
X032092Y001186D01*
X032093Y001205D01*
X032094Y001223D01*
X032095Y001238D01*
X032096Y001252D01*
X032097Y001264D01*
X032097Y001276D01*
X032098Y001287D01*
X032099Y001297D01*
X032099Y001307D01*
X032100Y001317D01*
X032100Y001328D01*
X032100Y001338D01*
X032100Y001349D01*
X032101Y001360D01*
X032101Y001372D01*
X032101Y001383D01*
X032100Y001395D01*
X032100Y001407D01*
X032100Y001419D01*
X032099Y001431D01*
X032099Y001443D01*
X032098Y001454D01*
X032097Y001466D01*
X032096Y001477D01*
X032095Y001488D01*
X032094Y001499D01*
X032093Y001509D01*
X032091Y001520D01*
X032090Y001529D01*
X032089Y001539D01*
X032088Y001547D01*
X032087Y001556D01*
X032086Y001564D01*
X032085Y001571D01*
X032084Y001578D01*
X032083Y001584D01*
X032082Y001590D01*
X032082Y001595D01*
X032081Y001600D01*
X032081Y001605D01*
X032081Y001609D01*
X032082Y001613D01*
X032083Y001617D01*
X032084Y001620D01*
X032085Y001624D01*
X032086Y001628D01*
X032088Y001632D01*
X032090Y001636D01*
X032092Y001640D01*
X032095Y001644D01*
X032097Y001648D01*
X032100Y001653D01*
X032103Y001657D01*
X032105Y001662D01*
X032108Y001666D01*
X032111Y001670D01*
X032113Y001674D01*
X032115Y001677D01*
X032117Y001680D01*
X032119Y001683D01*
X032121Y001686D01*
X032122Y001688D01*
X032123Y001690D01*
X032124Y001692D01*
X032125Y001694D01*
X032125Y001695D01*
X032125Y001697D01*
X032126Y001699D01*
X032126Y001702D01*
X032125Y001705D01*
X032125Y001709D01*
X032125Y001713D01*
X032124Y001719D01*
X032123Y001726D01*
X032122Y001734D01*
X032121Y001743D01*
X032120Y001753D01*
X032118Y001765D01*
X032117Y001778D01*
X032115Y001792D01*
X032113Y001806D01*
X032111Y001822D01*
X032109Y001837D01*
X032107Y001853D01*
X032105Y001868D01*
X032103Y001883D01*
X032102Y001898D01*
X032100Y001912D01*
X032098Y001925D01*
X032097Y001937D01*
X032095Y001949D01*
X032094Y001961D01*
X032092Y001972D01*
X032091Y001983D01*
X032090Y001995D01*
X032088Y002007D01*
X032087Y002019D01*
X032085Y002033D01*
X032084Y002048D01*
X032082Y002065D01*
X032081Y002084D01*
X032079Y002105D01*
X032077Y002128D01*
X032075Y002153D01*
X032073Y002181D01*
X032071Y002212D01*
X032069Y002246D01*
X032067Y002282D01*
X032066Y002320D01*
X032064Y002362D01*
X032062Y002405D01*
X032060Y002451D01*
X032059Y002499D01*
X032057Y002548D01*
X032056Y002599D01*
X032056Y002651D01*
X032056Y002704D01*
X032056Y002757D01*
X032057Y002810D01*
X032059Y002863D01*
X032062Y002914D01*
X032066Y002965D01*
X032071Y003013D01*
X032078Y003059D01*
X032086Y003103D01*
X032096Y003143D01*
X032108Y003181D01*
X032122Y003215D01*
X032137Y003246D01*
X032154Y003274D01*
X032173Y003298D01*
X032192Y003318D01*
X032213Y003336D01*
X032235Y003351D01*
X032257Y003363D01*
X032280Y003373D01*
X032303Y003382D01*
X032325Y003388D01*
X032347Y003393D01*
X032369Y003397D01*
X032389Y003401D01*
X032409Y003403D01*
X032428Y003406D01*
X032446Y003408D01*
X032463Y003409D01*
X032478Y003411D01*
X032493Y003412D01*
X032507Y003413D01*
X032520Y003414D01*
X032532Y003415D01*
X032543Y003416D01*
X032554Y003417D01*
X032564Y003418D01*
X032573Y003419D01*
X032581Y003420D01*
X032589Y003421D01*
X032596Y003421D01*
X032602Y003422D01*
X032608Y003423D01*
X032613Y003423D01*
X032618Y003424D01*
X032622Y003424D01*
X032626Y003424D01*
X032630Y003425D01*
X032633Y003425D01*
X032636Y003425D01*
X032638Y003426D01*
X032641Y003426D01*
X032643Y003426D01*
X032645Y003426D01*
X032646Y003427D01*
X032648Y003427D01*
X032649Y003427D01*
X032651Y003427D01*
X032652Y003427D01*
X032653Y003427D01*
X032655Y003427D01*
X032656Y003427D01*
X032657Y003428D01*
X032658Y003428D01*
X032659Y003428D01*
X032660Y003428D01*
X032662Y003428D01*
X032663Y003428D01*
X032665Y003428D01*
X032666Y003428D01*
X032668Y003428D01*
X032670Y003428D01*
X032672Y003428D01*
X032674Y003428D01*
X032677Y003428D01*
X032680Y003428D01*
X032683Y003428D01*
X032686Y003427D01*
X032690Y003427D01*
X032693Y003427D01*
X032697Y003427D01*
X032702Y003426D01*
X032706Y003426D01*
X032711Y003425D01*
X032716Y003425D01*
X032721Y003424D01*
X032727Y003424D01*
X032733Y003423D01*
X032739Y003423D01*
X032745Y003422D01*
X032753Y003421D01*
X032760Y003420D01*
X032768Y003419D01*
X032777Y003419D01*
X032786Y003418D01*
X032796Y003417D01*
X032806Y003416D01*
X032817Y003414D01*
X032829Y003413D01*
X032841Y003412D01*
X032855Y003411D01*
X032869Y003410D01*
X032884Y003408D01*
X032901Y003407D01*
X032919Y003406D01*
X032938Y003405D01*
X032958Y003404D01*
X032980Y003403D01*
X033004Y003402D01*
X033029Y003402D01*
X033057Y003401D01*
X033086Y003401D01*
X033117Y003401D01*
X033151Y003401D01*
X033186Y003402D01*
X033224Y003402D01*
X033263Y003403D01*
X033304Y003403D01*
X033348Y003404D01*
X033392Y003405D01*
X033438Y003406D01*
X033486Y003406D01*
X033534Y003407D01*
X033582Y003407D01*
X033630Y003408D01*
X033678Y003408D01*
X033726Y003408D01*
X033772Y003408D01*
X033816Y003408D01*
X033858Y003407D01*
X033898Y003407D01*
X033936Y003406D01*
X033971Y003406D01*
X034003Y003406D01*
X034032Y003405D01*
X034059Y003405D01*
X034084Y003404D01*
X034106Y003404D01*
X034127Y003403D01*
X034147Y003403D01*
X034166Y003402D01*
X034185Y003402D01*
X034221Y003401D01*
X034240Y003401D01*
X034258Y003400D01*
X034277Y003400D01*
X034296Y003400D01*
X034315Y003399D01*
X034333Y003399D01*
X034351Y003398D01*
X034368Y003398D01*
X034384Y003398D01*
X034399Y003397D01*
X034413Y003397D01*
X034425Y003397D01*
X034435Y003397D01*
X034445Y003397D01*
X034453Y003398D01*
X034460Y003399D01*
X034466Y003400D01*
X034471Y003403D01*
X034477Y003406D01*
X034482Y003411D01*
X034488Y003418D01*
X034495Y003427D01*
X034504Y003439D01*
X034514Y003454D01*
X034526Y003473D01*
X034540Y003496D01*
X034557Y003522D01*
X034577Y003553D01*
X034599Y003588D01*
X034624Y003628D01*
X034651Y003670D01*
X034680Y003717D01*
X034710Y003765D01*
X034742Y003816D01*
X034775Y003867D01*
X034807Y003919D01*
X034839Y003970D01*
X034870Y004019D01*
X034900Y004066D01*
X034927Y004110D01*
X034953Y004151D01*
X034976Y004188D01*
X034997Y004222D01*
X035015Y004252D01*
X035031Y004278D01*
X035045Y004301D01*
X035058Y004322D01*
X035068Y004340D01*
X035077Y004357D01*
X035086Y004372D01*
X035093Y004387D01*
X035100Y004401D01*
X035107Y004415D01*
X035113Y004429D01*
X035119Y004443D01*
X035125Y004457D01*
X035130Y004472D01*
X035136Y004488D01*
X035141Y004504D01*
X035146Y004520D01*
X035151Y004536D01*
X035155Y004553D01*
X035159Y004569D01*
X035162Y004586D01*
X035165Y004603D01*
X035168Y004620D01*
X035170Y004637D01*
X035172Y004653D01*
X035173Y004670D01*
X035175Y004687D01*
X035175Y004703D01*
X035176Y004720D01*
X035177Y004737D01*
X035178Y004754D01*
X035178Y004771D01*
X035179Y004788D01*
X035180Y004806D01*
X035181Y004824D01*
X035182Y004843D01*
X035184Y004861D01*
X035186Y004881D01*
X035188Y004900D01*
X035190Y004921D01*
X035193Y004941D01*
X035196Y004962D01*
X035198Y004984D01*
X035201Y005006D01*
X035204Y005028D01*
X035207Y005051D01*
X035210Y005074D01*
X035212Y005097D01*
X035215Y005120D01*
X035216Y005144D01*
X035218Y005167D01*
X035219Y005191D01*
X035220Y005215D01*
X035221Y005238D01*
X035221Y005262D01*
X035221Y005285D01*
X035220Y005308D01*
X035219Y005331D01*
X035218Y005353D01*
X035216Y005374D01*
X035215Y005395D01*
X035213Y005415D01*
X035211Y005434D01*
X035209Y005453D01*
X035207Y005472D01*
X035206Y005489D01*
X035204Y005507D01*
X035202Y005526D01*
X035201Y005545D01*
X035199Y005566D01*
X035198Y005588D01*
X035197Y005613D01*
X035196Y005641D01*
X035195Y005672D01*
X035194Y005708D01*
X035194Y005748D01*
X035193Y005792D01*
X035192Y005840D01*
X035192Y005892D01*
X035192Y005947D01*
X035191Y006005D01*
X035191Y006064D01*
X035190Y006125D01*
X035190Y006185D01*
X035189Y006245D01*
X035189Y006302D01*
X035189Y006356D01*
X035188Y006407D01*
X035188Y006454D01*
X035187Y006496D01*
X035187Y006534D01*
X035186Y006567D01*
X035185Y006596D01*
X035185Y006621D01*
X035184Y006642D01*
X035183Y006661D01*
X035181Y006677D01*
X035180Y006691D01*
X035178Y006704D01*
X035177Y006716D01*
X035175Y006727D01*
X035173Y006738D01*
X035171Y006748D01*
X035168Y006759D01*
X035166Y006769D01*
X035163Y006780D01*
X035160Y006791D01*
X035157Y006801D01*
X035155Y006812D01*
X035152Y006822D01*
X035149Y006833D01*
X035146Y006843D01*
X035143Y006852D01*
X035140Y006862D01*
X035137Y006871D01*
X035134Y006880D01*
X035131Y006888D01*
X035128Y006896D01*
X035126Y006904D01*
X035123Y006911D01*
X035121Y006918D01*
X035118Y006924D01*
X035116Y006931D01*
X035114Y006937D01*
X035112Y006943D01*
X035110Y006949D01*
X035109Y006955D01*
X035107Y006961D01*
X035106Y006969D01*
X035104Y006977D01*
X035103Y006986D01*
X035102Y006997D01*
X035100Y007010D01*
X035099Y007026D01*
X035097Y007043D01*
X035096Y007063D01*
X035094Y007086D01*
X035092Y007112D01*
X035090Y007140D01*
X035088Y007170D01*
X035086Y007202D01*
X035084Y007235D01*
X035081Y007269D01*
X035079Y007304D01*
X035077Y007338D01*
X035075Y007371D01*
X035073Y007403D01*
X035071Y007432D01*
X035069Y007460D01*
X035067Y007485D01*
X035066Y007507D01*
X035064Y007526D01*
X035063Y007543D01*
X035061Y007556D01*
X035060Y007568D01*
X035058Y007577D01*
X035055Y007584D01*
X035052Y007590D01*
X035048Y007594D01*
X035042Y007598D01*
X035035Y007600D01*
X035026Y007602D01*
X035015Y007604D01*
X035001Y007606D01*
X034984Y007607D01*
X034964Y007609D01*
X034941Y007611D01*
X034915Y007613D01*
X034887Y007615D01*
X034856Y007617D01*
X034822Y007620D01*
X034787Y007622D01*
X034751Y007625D01*
X034713Y007628D01*
X034676Y007631D01*
X034639Y007633D01*
X034602Y007636D01*
X034567Y007639D01*
X034533Y007641D01*
X034499Y007644D01*
X034467Y007646D01*
X034436Y007648D01*
X034405Y007651D01*
X034373Y007653D01*
X034342Y007655D01*
X034309Y007658D01*
X034274Y007660D01*
X034238Y007663D01*
X034199Y007665D01*
X034158Y007668D01*
X034114Y007671D01*
X034069Y007673D01*
X034021Y007676D01*
X033972Y007679D01*
X033922Y007681D01*
X033871Y007683D01*
X033820Y007685D01*
X033770Y007687D01*
X033720Y007688D01*
X033672Y007689D01*
X033625Y007690D01*
X033579Y007690D01*
X033536Y007690D01*
X033494Y007690D01*
X033454Y007689D01*
X033416Y007688D01*
X033379Y007687D01*
X033343Y007686D01*
X033309Y007685D01*
X033275Y007684D01*
X033243Y007683D01*
X033211Y007683D01*
X033180Y007682D01*
X033150Y007681D01*
X033121Y007680D01*
X033093Y007680D01*
X033065Y007679D01*
X033038Y007679D01*
X033013Y007679D01*
X032988Y007679D01*
X032964Y007678D01*
X032941Y007678D01*
X032920Y007678D01*
X032899Y007678D01*
X032879Y007677D01*
X032860Y007677D01*
X032842Y007676D01*
X032824Y007676D01*
X032808Y007675D01*
X032792Y007675D01*
X032776Y007674D01*
X032761Y007673D01*
X032746Y007673D01*
X032732Y007672D01*
X032718Y007671D01*
X032705Y007670D01*
X032691Y007669D01*
X032678Y007668D01*
X032665Y007667D01*
X032652Y007666D01*
X032639Y007664D01*
X032626Y007663D01*
X032613Y007662D01*
X032601Y007661D01*
X032588Y007660D01*
X032575Y007659D01*
X032563Y007658D01*
X032550Y007656D01*
X032537Y007655D01*
X032524Y007654D01*
X032511Y007653D01*
X032498Y007652D01*
X032485Y007650D01*
X032472Y007649D01*
X032459Y007648D01*
X032446Y007647D01*
X032433Y007646D01*
X032419Y007645D01*
X032406Y007643D01*
X032392Y007642D01*
X032378Y007641D01*
X032363Y007640D01*
X032348Y007639D01*
X032333Y007638D01*
X032318Y007637D01*
X032302Y007636D01*
X032286Y007635D01*
X032269Y007634D01*
X032252Y007634D01*
X032235Y007633D01*
X032218Y007633D01*
X032200Y007632D01*
X032183Y007632D01*
X032166Y007631D01*
X032149Y007631D01*
X032133Y007631D01*
X032117Y007631D01*
X032103Y007630D01*
X032089Y007630D01*
X032076Y007630D01*
X032064Y007630D01*
X032054Y007630D01*
X032044Y007630D01*
X032035Y007630D01*
X032028Y007630D01*
X032021Y007630D01*
X032015Y007630D01*
X032010Y007630D01*
X032005Y007630D01*
X032001Y007630D01*
X031997Y007630D01*
X031994Y007630D01*
X031990Y007630D01*
X031987Y007630D01*
X031984Y007630D01*
X031981Y007630D01*
X031978Y007630D01*
X031976Y007630D01*
X031973Y007630D01*
X031970Y007630D01*
X031968Y007630D01*
X031965Y007630D01*
X031963Y007631D01*
X031960Y007631D01*
X031958Y007631D01*
X031956Y007632D01*
X031954Y007632D01*
X031952Y007633D01*
X031950Y007635D01*
X031948Y007637D01*
X031947Y007640D01*
X031945Y007645D01*
X031944Y007650D01*
X031943Y007657D01*
X031941Y007665D01*
X031940Y007675D01*
X031939Y007687D01*
X031938Y007702D01*
X031936Y007718D01*
X031935Y007736D01*
X031934Y007755D01*
X031932Y007777D01*
X031931Y007799D01*
X031929Y007823D01*
X031928Y007847D01*
X031926Y007871D01*
X031925Y007895D01*
X031924Y007918D01*
X031922Y007940D01*
X031921Y007960D01*
X031920Y007979D01*
X031920Y007996D01*
X031919Y008011D01*
X031919Y008024D01*
X031919Y008035D01*
X031919Y008044D01*
X031919Y008052D01*
X031920Y008057D01*
X031921Y008062D01*
X031922Y008065D01*
X031923Y008068D01*
X031925Y008069D01*
X031927Y008070D01*
X031929Y008071D01*
X031931Y008071D01*
X031934Y008071D01*
X031936Y008071D01*
X031939Y008070D01*
X031942Y008070D01*
X031945Y008070D01*
X031947Y008069D01*
X031951Y008069D01*
X031954Y008068D01*
X031957Y008068D01*
X031960Y008067D01*
X031963Y008067D01*
X031967Y008067D01*
X031970Y008066D01*
X031974Y008066D01*
X031977Y008065D01*
X031981Y008065D01*
X031985Y008064D01*
X031989Y008064D01*
X031994Y008063D01*
X031998Y008063D01*
X032004Y008062D01*
X032009Y008062D01*
X032015Y008061D01*
X032022Y008060D01*
X032029Y008060D01*
X032037Y008059D01*
X032046Y008058D01*
X032055Y008057D01*
X032065Y008056D01*
X032076Y008055D01*
X032088Y008054D01*
X032100Y008052D01*
X032113Y008051D01*
X032127Y008050D01*
X032143Y008048D01*
X032159Y008047D01*
X032175Y008045D01*
X032193Y008043D01*
X032212Y008042D01*
X032232Y008040D01*
X032253Y008038D01*
X032275Y008036D01*
X032297Y008034D01*
X032320Y008032D01*
X032344Y008030D01*
X032369Y008028D01*
X032394Y008025D01*
X032418Y008023D01*
X032443Y008021D01*
X032467Y008019D01*
X032491Y008017D01*
X032514Y008015D01*
X032536Y008013D01*
X032557Y008011D01*
X032577Y008009D01*
X032595Y008008D01*
X032612Y008006D01*
X032627Y008005D01*
X032642Y008004D01*
X032655Y008002D01*
X032668Y008001D01*
X032680Y008000D01*
X032691Y007999D01*
X032703Y007998D01*
X032714Y007997D01*
X032725Y007996D01*
X032737Y007994D01*
X032749Y007993D01*
X032761Y007992D01*
X032773Y007991D01*
X032785Y007989D01*
X032797Y007988D01*
X032809Y007987D01*
X032820Y007985D01*
X032830Y007984D01*
X032840Y007983D01*
X032849Y007982D01*
X032858Y007981D01*
X032865Y007981D01*
X032871Y007980D01*
X032877Y007979D01*
X032881Y007979D01*
X032885Y007979D01*
X032888Y007979D01*
X032891Y007979D01*
X032894Y007979D01*
X032896Y007980D01*
X032899Y007981D01*
X032902Y007982D01*
X032905Y007983D01*
X032909Y007985D01*
X032914Y007988D01*
X032919Y007990D01*
X032926Y007994D01*
X032933Y007998D01*
X032941Y008002D01*
X032949Y008006D01*
X032959Y008011D01*
X032969Y008017D01*
X032980Y008022D01*
X032990Y008028D01*
X033001Y008034D01*
X033012Y008040D01*
X033023Y008045D01*
X033033Y008051D01*
X033043Y008056D01*
X033052Y008061D01*
X033060Y008065D01*
X033067Y008069D01*
X033074Y008072D01*
X033081Y008075D01*
X033086Y008078D01*
X033092Y008081D01*
X033097Y008083D01*
X033101Y008085D01*
X033106Y008087D01*
X033111Y008089D01*
X033116Y008090D01*
X033122Y008092D01*
X033128Y008093D01*
X033134Y008095D01*
X033142Y008097D01*
X033150Y008098D01*
X033158Y008100D01*
X033168Y008102D01*
X033178Y008104D01*
X033190Y008105D01*
X033201Y008107D01*
X033214Y008109D01*
X033227Y008110D01*
X033240Y008112D01*
X033254Y008113D01*
X033269Y008115D01*
X033283Y008116D01*
X033298Y008118D01*
X033312Y008119D01*
X033327Y008120D01*
X033342Y008121D01*
X033357Y008123D01*
X033372Y008124D01*
X033387Y008125D01*
X033402Y008126D01*
X033417Y008127D01*
X033433Y008129D01*
X033449Y008130D01*
X033465Y008131D01*
X033482Y008133D01*
X033499Y008134D01*
X033516Y008135D01*
X033534Y008137D01*
X033553Y008138D01*
X033572Y008140D01*
X033591Y008141D01*
X033611Y008143D01*
X033632Y008145D01*
X033652Y008147D01*
X033673Y008148D01*
X033695Y008150D01*
X033717Y008153D01*
X033738Y008155D01*
X033760Y008158D01*
X033783Y008160D01*
X033805Y008163D01*
X033827Y008166D01*
X033849Y008170D01*
X033871Y008173D01*
X033892Y008177D01*
X033914Y008181D01*
X033934Y008185D01*
X033954Y008189D01*
X033974Y008193D01*
X033992Y008198D01*
X034010Y008202D01*
X034026Y008206D01*
X034042Y008210D01*
X034057Y008214D01*
X034071Y008218D01*
X034084Y008221D01*
X034097Y008225D01*
X034109Y008228D01*
X034122Y008232D01*
X034134Y008236D01*
X034147Y008239D01*
X034161Y008243D01*
X034175Y008248D01*
X034190Y008252D01*
X034206Y008257D01*
X034223Y008262D01*
X034241Y008267D01*
X034260Y008273D01*
X034279Y008278D01*
X034298Y008284D01*
X034318Y008290D01*
X034337Y008296D01*
X034355Y008301D01*
X034373Y008306D01*
X034389Y008311D01*
X034404Y008316D01*
X034418Y008320D01*
X034430Y008324D01*
X034441Y008327D01*
X034450Y008330D01*
X034458Y008333D01*
X034464Y008336D01*
X034470Y008340D01*
X034475Y008344D01*
X034480Y008350D01*
X034485Y008356D01*
X034491Y008365D01*
X034497Y008376D01*
X034504Y008391D01*
X034513Y008408D01*
X034523Y008430D01*
X034535Y008455D01*
X034549Y008485D01*
X034565Y008520D01*
X034583Y008559D01*
X034603Y008601D01*
X034624Y008648D01*
X034647Y008697D01*
X034671Y008749D01*
X034696Y008803D01*
X034721Y008857D01*
X034745Y008910D01*
X034770Y008963D01*
X034793Y009013D01*
X034814Y009060D01*
X034834Y009104D01*
X034852Y009143D01*
X034868Y009179D01*
X034883Y009210D01*
X034895Y009237D01*
X034905Y009260D01*
X034913Y009280D01*
X034921Y009296D01*
X034926Y009310D01*
X034932Y009323D01*
X034936Y009334D01*
X034940Y009345D01*
X034944Y009357D01*
X034949Y009369D01*
X034954Y009384D01*
X034960Y009401D01*
X034966Y009420D01*
X034974Y009443D01*
X034983Y009469D01*
X034993Y009498D01*
X035004Y009530D01*
X035016Y009566D01*
X035029Y009603D01*
X035043Y009643D01*
X035057Y009684D01*
X035071Y009725D01*
X035085Y009767D01*
X035099Y009807D01*
X035113Y009847D01*
X035125Y009883D01*
X035137Y009918D01*
X035148Y009949D01*
X035158Y009977D01*
X035166Y010002D01*
X035173Y010023D01*
X035179Y010041D01*
X035184Y010056D01*
X035188Y010069D01*
X035191Y010080D01*
X035194Y010089D01*
X035195Y010097D01*
X035196Y010105D01*
X035196Y010113D01*
X035196Y010121D01*
X035195Y010130D01*
X035194Y010141D01*
X035193Y010154D01*
X035191Y010169D01*
X035189Y010185D01*
X035187Y010204D01*
X035184Y010226D01*
X035181Y010249D01*
X035178Y010274D01*
X035174Y010301D01*
X035171Y010328D01*
X035167Y010356D01*
X035163Y010384D01*
X035160Y010412D01*
X035156Y010439D01*
X035153Y010465D01*
X035150Y010488D01*
X035147Y010510D01*
X035144Y010530D01*
X035142Y010547D01*
X035140Y010563D01*
X035138Y010576D01*
X035137Y010587D01*
X035136Y010597D01*
X035135Y010606D01*
X035134Y010615D01*
X035134Y010623D01*
X035134Y010632D01*
X035134Y010642D01*
X035134Y010654D01*
X035134Y010669D01*
X035134Y010686D01*
X035135Y010707D01*
X035136Y010731D01*
X035136Y010759D01*
X035137Y010792D01*
X035138Y010828D01*
X035139Y010869D01*
X035140Y010912D01*
X035142Y010958D01*
X035143Y011006D01*
X035144Y011056D01*
X035146Y011106D01*
X035147Y011155D01*
X035148Y011203D01*
X035150Y011249D01*
X035151Y011292D01*
X035152Y011331D01*
X035153Y011367D01*
X035154Y011399D01*
X035154Y011427D01*
X035155Y011450D01*
X035155Y011470D01*
X035156Y011487D01*
X035156Y011500D01*
X035156Y011510D01*
X035156Y011518D01*
X035156Y011525D01*
X035155Y011530D01*
X035155Y011534D01*
X035154Y011538D01*
X035152Y011541D01*
X035151Y011544D01*
X035149Y011548D01*
X035147Y011551D01*
X035145Y011556D01*
X035142Y011560D01*
X035139Y011565D01*
X035135Y011571D01*
X035132Y011577D01*
X035128Y011583D01*
X035124Y011589D01*
X035120Y011596D01*
X035116Y011602D01*
X035112Y011609D01*
X035108Y011615D01*
X035105Y011621D01*
X035101Y011627D01*
X035097Y011633D01*
X035094Y011638D01*
X035091Y011644D01*
X035088Y011649D01*
X035085Y011654D01*
X035081Y011659D01*
X035078Y011665D01*
X035075Y011670D01*
X035071Y011676D01*
X035067Y011682D01*
X035063Y011689D01*
X035058Y011696D01*
X035053Y011704D01*
X035048Y011712D01*
X035042Y011720D01*
X035036Y011729D01*
X035030Y011738D01*
X035023Y011747D01*
X035017Y011756D01*
X035010Y011765D01*
X035003Y011775D01*
X034995Y011784D01*
X034988Y011793D01*
X034981Y011802D01*
X034974Y011811D01*
X034967Y011819D01*
X034960Y011827D01*
X034953Y011835D01*
X034946Y011843D01*
X034940Y011850D01*
X034933Y011857D01*
X034927Y011864D01*
X034922Y011870D01*
X034916Y011876D01*
X034911Y011882D01*
X034906Y011887D01*
X034902Y011893D01*
X034898Y011898D01*
X034894Y011903D01*
X034890Y011909D01*
X034887Y011914D01*
X034883Y011921D01*
X034880Y011928D01*
X034877Y011936D01*
X034874Y011945D01*
X034871Y011956D01*
X034867Y011968D01*
X034864Y011982D01*
X034860Y011997D01*
X034856Y012014D01*
X034852Y012033D01*
X034847Y012053D01*
X034843Y012074D01*
X034838Y012096D01*
X034833Y012118D01*
X034828Y012141D01*
X034823Y012163D01*
X034819Y012184D01*
X034814Y012205D01*
X034810Y012224D01*
X034806Y012241D01*
X034803Y012257D01*
X034800Y012271D01*
X034797Y012284D01*
X034795Y012294D01*
X034793Y012303D01*
X034791Y012310D01*
X034790Y012315D01*
X034789Y012320D01*
X034788Y012323D01*
X034787Y012326D01*
X034786Y012328D01*
X034785Y012329D01*
X034784Y012330D01*
X034783Y012331D01*
X034782Y012331D01*
X034780Y012332D01*
X034779Y012332D01*
X034777Y012333D01*
X034774Y012333D01*
X034772Y012334D01*
X034769Y012334D01*
X034766Y012335D01*
X034763Y012335D01*
X034760Y012336D01*
X034757Y012336D01*
X034754Y012337D01*
X034751Y012338D01*
X034748Y012338D01*
X034745Y012339D01*
X034743Y012339D01*
X034740Y012340D01*
X034738Y012340D01*
X034736Y012340D01*
X034734Y012341D01*
X034733Y012341D01*
X034731Y012341D01*
X034728Y012342D01*
X034726Y012342D01*
X034722Y012343D01*
X034718Y012344D01*
X034712Y012345D01*
X034705Y012347D01*
X034695Y012349D01*
X034683Y012351D01*
X034669Y012354D01*
X034651Y012358D01*
X034631Y012362D01*
X034607Y012367D01*
X034580Y012373D01*
X034550Y012379D01*
X034518Y012386D01*
X034483Y012394D01*
X034446Y012401D01*
X034408Y012409D01*
X034369Y012418D01*
X034331Y012426D01*
X034293Y012434D01*
X034256Y012441D01*
X034221Y012449D01*
X034189Y012455D01*
X034159Y012461D01*
X034132Y012467D01*
X034109Y012472D01*
X034088Y012476D01*
X034069Y012479D01*
X034054Y012482D01*
X034041Y012485D01*
X034029Y012487D01*
X034020Y012488D01*
X034011Y012489D01*
X034004Y012490D01*
X033997Y012491D01*
X033990Y012491D01*
X033984Y012491D01*
X033978Y012492D01*
X033972Y012492D01*
X033966Y012492D01*
X033960Y012492D01*
X033954Y012492D01*
X033948Y012492D01*
X033941Y012492D01*
X033935Y012492D01*
X033929Y012492D01*
X033922Y012492D01*
X033916Y012492D01*
X033910Y012492D01*
X033904Y012492D01*
X033897Y012492D01*
X033891Y012492D01*
X033885Y012492D01*
X033879Y012492D01*
X033873Y012492D01*
X033866Y012492D01*
X033860Y012492D01*
X033853Y012492D01*
X033846Y012492D01*
X033839Y012492D01*
X033832Y012492D01*
X033824Y012492D01*
X033816Y012492D01*
X033808Y012492D01*
X033800Y012492D01*
X033791Y012492D01*
X033782Y012492D01*
X033773Y012492D01*
X033764Y012492D01*
X033755Y012492D01*
X033746Y012492D01*
X033737Y012492D01*
X033728Y012492D01*
X033719Y012492D01*
X033711Y012492D01*
X033702Y012492D01*
X033694Y012492D01*
X033686Y012491D01*
X033678Y012491D01*
X033671Y012491D01*
X033664Y012491D01*
X033657Y012491D01*
X033650Y012491D01*
X033643Y012490D01*
X033636Y012490D01*
X033630Y012490D01*
X033623Y012490D01*
X033617Y012490D01*
X033610Y012489D01*
X033604Y012489D01*
X033597Y012489D01*
X033590Y012488D01*
X033583Y012488D01*
X033575Y012488D01*
X033568Y012487D01*
X033560Y012487D01*
X033552Y012486D01*
X033543Y012486D01*
X033535Y012485D01*
X033526Y012484D01*
X033517Y012483D01*
X033508Y012482D01*
X033499Y012481D01*
X033491Y012480D01*
X033482Y012479D01*
X033473Y012478D01*
X033464Y012476D01*
X033455Y012475D01*
X033446Y012473D01*
X033437Y012472D01*
X033429Y012470D01*
X033420Y012468D01*
X033412Y012466D01*
X033403Y012465D01*
X033395Y012463D01*
X033386Y012461D01*
X033378Y012459D01*
X033370Y012457D01*
X033362Y012455D01*
X033353Y012454D01*
X033345Y012452D01*
X033337Y012451D01*
X033329Y012450D01*
X033320Y012449D01*
X033312Y012448D01*
X033304Y012447D01*
X033295Y012447D01*
X033287Y012447D01*
X033278Y012446D01*
X033269Y012447D01*
X033261Y012447D01*
X033252Y012447D01*
X033243Y012447D01*
X033234Y012448D01*
X033225Y012449D01*
X033216Y012449D01*
X033207Y012450D01*
X033198Y012451D01*
X033189Y012452D01*
X033180Y012453D01*
X033171Y012453D01*
X033161Y012454D01*
X033152Y012455D01*
X033143Y012456D01*
X033133Y012457D01*
X033123Y012458D01*
X033114Y012459D01*
X033104Y012460D01*
X033093Y012461D01*
X033083Y012462D01*
X033073Y012463D01*
X033062Y012464D01*
X033051Y012465D01*
X033039Y012467D01*
X033028Y012468D01*
X033016Y012469D01*
X033004Y012470D01*
X032992Y012471D01*
X032979Y012472D01*
X032967Y012474D01*
X032954Y012475D01*
X032941Y012476D01*
X032928Y012477D01*
X032914Y012479D01*
X032901Y012480D01*
X032887Y012481D01*
X032874Y012482D01*
X032860Y012483D01*
X032846Y012484D01*
X032832Y012485D01*
X032819Y012486D01*
X032805Y012487D01*
X032791Y012488D01*
X032778Y012489D01*
X032765Y012490D01*
X032752Y012491D01*
X032740Y012492D01*
X032727Y012493D01*
X032716Y012493D01*
X032705Y012494D01*
X032695Y012495D01*
X032685Y012495D01*
X032676Y012496D01*
X032668Y012496D01*
X032661Y012497D01*
X032655Y012497D01*
X032649Y012498D01*
X032644Y012498D01*
X032640Y012499D01*
X032637Y012499D01*
X032634Y012500D01*
X032631Y012501D01*
X032629Y012502D01*
X032628Y012502D01*
X032626Y012503D01*
X032625Y012504D01*
X032624Y012505D01*
X032623Y012507D01*
X032622Y012508D01*
X032622Y012509D01*
X032621Y012511D01*
X032621Y012512D01*
X032621Y012514D01*
X032620Y012516D01*
X032621Y012519D01*
X032621Y012522D01*
X032622Y012526D01*
X032623Y012531D01*
X032624Y012536D01*
X032626Y012543D01*
X032629Y012551D01*
X032632Y012560D01*
X032635Y012570D01*
X032639Y012583D01*
X032644Y012596D01*
X032649Y012612D01*
X032654Y012629D01*
X032660Y012647D01*
X032665Y012666D01*
X032671Y012687D01*
X032677Y012709D01*
X032682Y012732D01*
X032688Y012755D01*
X032692Y012779D01*
X032696Y012803D01*
X032700Y012828D01*
X032703Y012853D01*
X032705Y012878D01*
X032706Y012903D01*
X032706Y012928D01*
X032705Y012953D01*
X032704Y012977D01*
X032701Y013002D01*
X032698Y013026D01*
X032694Y013050D01*
X032689Y013073D01*
X032684Y013096D01*
X032679Y013118D01*
X032673Y013140D01*
X032667Y013160D01*
X032661Y013179D01*
X032655Y013198D01*
X032649Y013214D01*
X032644Y013230D01*
X032639Y013244D01*
X032634Y013256D01*
X032630Y013267D01*
X032626Y013277D01*
X032623Y013285D01*
X032621Y013292D01*
X032618Y013297D01*
X032616Y013302D01*
X032615Y013306D01*
X032614Y013308D01*
X032613Y013311D01*
X032612Y013312D01*
X032612Y013314D01*
X032611Y013315D01*
X032611Y013316D01*
X032611Y013316D01*
X032610Y013317D01*
X032610Y013318D01*
X032610Y013318D01*
X032610Y013318D01*
X032610Y013319D01*
X032610Y013319D01*
X032610Y013319D01*
X032609Y013319D01*
X032609Y013319D01*
X032609Y013320D01*
X032609Y013320D01*
X032609Y013320D01*
X032609Y013320D01*
X032609Y013320D01*
X032609Y013320D01*
X032609Y013320D01*
X032609Y013320D01*
X032609Y013320D01*
X032609Y013320D01*
X032609Y013320D01*
X032609Y013320D01*
X032609Y013320D01*
X032609Y013320D01*
X032609Y013320D01*
X032609Y013320D01*
X032609Y013320D01*
X032609Y013320D01*
X032609Y013320D01*
X032609Y013320D01*
X032609Y013320D01*
X032609Y013320D01*
X032609Y013320D01*
X032609Y013320D01*
X032609Y013320D01*
X032609Y013320D01*
X032609Y013320D01*
X032609Y013320D01*
X032609Y013320D01*
X032609Y013321D01*
X032609Y013322D01*
X032609Y013323D01*
X032609Y013324D01*
X032609Y013326D01*
X032608Y013328D01*
X032608Y013331D01*
X032607Y013335D01*
X032607Y013340D01*
X032606Y013346D01*
X032605Y013353D01*
X032604Y013362D01*
X032603Y013371D01*
X032602Y013382D01*
X032600Y013394D01*
X032599Y013407D01*
X032597Y013422D01*
X032596Y013437D01*
X032594Y013454D01*
X032593Y013471D01*
X032591Y013488D01*
X032590Y013506D01*
X032589Y013525D01*
X032588Y013543D01*
X032587Y013562D01*
X032586Y013580D01*
X032586Y013598D01*
X032585Y013617D01*
X032585Y013635D01*
X032585Y013653D01*
X032586Y013671D01*
X032586Y013688D01*
X032587Y013706D01*
X032587Y013724D01*
X032588Y013741D01*
X032589Y013759D01*
X032590Y013776D01*
X032590Y013794D01*
X032591Y013811D01*
X032592Y013829D01*
X032593Y013846D01*
X032594Y013864D01*
X032595Y013881D01*
X032596Y013898D01*
X032597Y013916D01*
X032598Y013933D01*
X032599Y013950D01*
X032600Y013968D01*
X032601Y013985D01*
X032602Y014002D01*
X032602Y014019D01*
X032603Y014037D01*
X032604Y014054D01*
X032605Y014072D01*
X032606Y014090D01*
X032606Y014107D01*
X032607Y014125D01*
X032608Y014144D01*
X032608Y014162D01*
X032609Y014181D01*
X032610Y014200D01*
X032611Y014218D01*
X032613Y014237D01*
X032615Y014256D01*
X032618Y014275D01*
X032622Y014294D01*
X032628Y014313D01*
X032635Y014331D01*
X032644Y014348D01*
X032655Y014365D01*
X032669Y014381D01*
X032686Y014396D01*
X032706Y014410D01*
X032729Y014424D01*
X032755Y014436D01*
X032785Y014447D01*
X032818Y014457D01*
X032854Y014466D01*
X032893Y014474D01*
X032935Y014480D01*
X032979Y014486D01*
X033026Y014492D01*
X033075Y014496D01*
X033127Y014500D01*
X033180Y014504D01*
X033234Y014507D01*
X033290Y014510D01*
X033347Y014513D01*
X033406Y014515D01*
X033465Y014517D01*
X033525Y014519D01*
X033586Y014521D01*
X033648Y014522D01*
X033710Y014524D01*
X033772Y014525D01*
X033833Y014526D01*
X033894Y014527D01*
X033953Y014528D01*
X034011Y014529D01*
X034067Y014529D01*
X034120Y014530D01*
X034171Y014530D01*
X034218Y014531D01*
X034263Y014531D01*
X034304Y014531D01*
X034342Y014532D01*
X034377Y014532D01*
X034409Y014532D01*
X034440Y014532D01*
X034468Y014532D01*
X034496Y014532D01*
X034523Y014532D01*
X034549Y014532D01*
X034576Y014532D01*
X034603Y014532D01*
X034631Y014532D01*
X034660Y014532D01*
X034689Y014533D01*
X034718Y014533D01*
X034747Y014533D01*
X034776Y014533D01*
X034804Y014533D01*
X034831Y014533D01*
X034856Y014533D01*
X034880Y014533D01*
X034902Y014533D01*
X034921Y014533D01*
X034938Y014533D01*
X034953Y014533D01*
X034965Y014534D01*
X034976Y014534D01*
X034984Y014534D01*
X034991Y014535D01*
X034996Y014536D01*
X035001Y014537D01*
X035004Y014539D01*
X035007Y014541D01*
X035010Y014544D01*
X035012Y014548D01*
X035015Y014553D01*
X035017Y014559D01*
X035020Y014565D01*
X035024Y014573D01*
X035027Y014582D01*
X035031Y014593D01*
X035036Y014604D01*
X035040Y014616D01*
X035046Y014629D01*
X035051Y014642D01*
X035056Y014655D01*
X035062Y014669D01*
X035067Y014682D01*
X035072Y014696D01*
X035077Y014708D01*
X035082Y014719D01*
X035086Y014730D01*
X035090Y014740D01*
X035093Y014748D01*
X035096Y014756D01*
X035099Y014763D01*
X035101Y014769D01*
X035103Y014774D01*
X035106Y014780D01*
X035108Y014786D01*
X035110Y014792D01*
X035113Y014799D01*
X035116Y014808D01*
X035121Y014820D01*
X035126Y014834D01*
X035132Y014851D01*
X035140Y014871D01*
X035149Y014896D01*
X035160Y014924D01*
X035173Y014957D01*
X035187Y014994D01*
X035202Y015035D01*
X035219Y015079D01*
X035236Y015126D01*
X035255Y015175D01*
X035274Y015226D01*
X035293Y015277D01*
X035313Y015327D01*
X035331Y015377D01*
X035349Y015424D01*
X035366Y015469D01*
X035382Y015510D01*
X035396Y015548D01*
X035409Y015582D01*
X035421Y015612D01*
X035431Y015638D01*
X035440Y015661D01*
X035447Y015681D01*
X035454Y015698D01*
X035459Y015713D01*
X035464Y015727D01*
X035468Y015740D01*
X035472Y015752D01*
X035475Y015765D01*
X035478Y015779D01*
X035480Y015793D01*
X035482Y015809D01*
X035484Y015827D01*
X035485Y015847D01*
X035486Y015868D01*
X035487Y015891D01*
X035487Y015916D01*
X035486Y015942D01*
X035486Y015969D01*
X035485Y015996D01*
X035483Y016024D01*
X035482Y016051D01*
X035480Y016077D01*
X035478Y016102D01*
X035477Y016124D01*
X035475Y016145D01*
X035473Y016164D01*
X035472Y016180D01*
X035471Y016195D01*
X035470Y016208D01*
X035470Y016221D01*
X035471Y016236D01*
X035473Y016254D01*
X035476Y016277D01*
X035481Y016310D01*
X035488Y016354D01*
X035497Y016413D01*
X035509Y016485D01*
X035523Y016568D01*
X035538Y016653D01*
X035550Y016725D01*
X035555Y016757D01*
X035545Y016824D01*
X035523Y016977D01*
X035496Y017159D01*
X035470Y017337D01*
X035448Y017493D01*
X035431Y017618D01*
X035418Y017713D01*
X035409Y017782D01*
X035403Y017831D01*
X035400Y017866D01*
X035399Y017891D01*
X035398Y017910D01*
X035399Y017925D01*
X035400Y017938D01*
X035401Y017950D01*
X035402Y017962D01*
X035402Y017974D01*
X035403Y017986D01*
X035404Y017998D01*
X035404Y018010D01*
X035405Y018022D01*
X035405Y018034D01*
X035404Y018045D01*
X035404Y018057D01*
X035404Y018067D01*
X035403Y018078D01*
X035403Y018088D01*
X035402Y018098D01*
X035401Y018107D01*
X035400Y018116D01*
X035398Y018125D01*
X035397Y018134D01*
X035395Y018142D01*
X035393Y018151D01*
X035391Y018160D01*
X035388Y018169D01*
X035384Y018179D01*
X035380Y018191D01*
X035374Y018204D01*
X035368Y018219D01*
X035360Y018236D01*
X035350Y018256D01*
X035339Y018278D01*
X035327Y018303D01*
X035313Y018331D01*
X035298Y018362D01*
X035282Y018394D01*
X035264Y018429D01*
X035246Y018465D01*
X035227Y018502D01*
X035208Y018539D01*
X035189Y018576D01*
X035171Y018612D01*
X035154Y018647D01*
X035137Y018679D01*
X035122Y018709D01*
X035108Y018736D01*
X035096Y018759D01*
X035085Y018780D01*
X035076Y018798D01*
X035068Y018813D01*
X035061Y018826D01*
X035055Y018836D01*
X035049Y018844D01*
X035044Y018850D01*
X035039Y018855D01*
X035034Y018859D01*
X035028Y018862D01*
X035021Y018864D01*
X035012Y018867D01*
X035002Y018869D01*
X034991Y018872D01*
X034977Y018874D01*
X034962Y018877D01*
X034945Y018880D01*
X034925Y018884D01*
X034905Y018887D01*
X034882Y018891D01*
X034859Y018896D01*
X034835Y018900D01*
X034811Y018904D01*
X034786Y018909D01*
X034762Y018913D01*
X034739Y018917D01*
X034718Y018921D01*
X034697Y018925D01*
X034678Y018928D01*
X034661Y018931D01*
X034646Y018934D01*
X034632Y018937D01*
X034620Y018939D01*
X034609Y018941D01*
X034600Y018943D01*
X034591Y018944D01*
X034584Y018946D01*
X034577Y018947D01*
X034570Y018948D01*
X034564Y018950D01*
X034557Y018951D01*
X034551Y018952D01*
X034545Y018953D01*
X034538Y018955D01*
X034531Y018956D01*
X034525Y018957D01*
X034518Y018958D01*
X034510Y018959D01*
X034503Y018960D01*
X034495Y018961D01*
X034488Y018962D01*
X034480Y018963D01*
X034472Y018964D01*
X034465Y018965D01*
X034457Y018966D01*
X034449Y018967D01*
X034440Y018967D01*
X034432Y018968D01*
X034424Y018968D01*
X034415Y018969D01*
X034407Y018969D01*
X034398Y018969D01*
X034389Y018969D01*
X034380Y018969D01*
X034370Y018970D01*
X034360Y018970D01*
X034350Y018970D01*
X034340Y018970D01*
X034329Y018970D01*
X034318Y018969D01*
X034307Y018969D01*
X034295Y018969D01*
X034283Y018968D01*
X034272Y018968D01*
X034260Y018967D01*
X034248Y018966D01*
X034236Y018965D01*
X034224Y018964D01*
X034212Y018963D01*
X034200Y018962D01*
X034188Y018961D01*
X034176Y018959D01*
X034165Y018957D01*
X034154Y018956D01*
X034142Y018954D01*
X034132Y018952D01*
X034121Y018950D01*
X034111Y018948D01*
X034101Y018947D01*
X034091Y018945D01*
X034081Y018943D01*
X034072Y018941D01*
X034064Y018939D01*
X034055Y018938D01*
X034047Y018936D01*
X034040Y018934D01*
X034032Y018933D01*
X034025Y018932D01*
X034019Y018930D01*
X034013Y018929D01*
X034007Y018928D01*
X034001Y018927D01*
X033996Y018926D01*
X033991Y018925D01*
X033986Y018924D01*
X033982Y018923D01*
X033977Y018922D01*
X033973Y018921D01*
X033969Y018920D01*
X033965Y018919D01*
X033960Y018919D01*
X033956Y018918D01*
X033952Y018917D01*
X033948Y018916D01*
X033944Y018916D01*
X033939Y018915D01*
X033935Y018914D01*
X033930Y018914D01*
X033924Y018913D01*
X033917Y018912D01*
X033909Y018912D01*
X033900Y018911D01*
X033890Y018910D01*
X033877Y018910D01*
X033863Y018909D01*
X033846Y018908D01*
X033827Y018907D01*
X033806Y018906D01*
X033782Y018905D01*
X033756Y018903D01*
X033727Y018902D01*
X033697Y018900D01*
X033664Y018899D01*
X033629Y018897D01*
X033594Y018895D01*
X033557Y018894D01*
X033519Y018892D01*
X033481Y018890D01*
X033443Y018888D01*
X033405Y018886D01*
X033367Y018884D01*
X033329Y018882D01*
X033293Y018881D01*
X033257Y018879D01*
X033221Y018877D01*
X033187Y018875D01*
X033153Y018873D01*
X033120Y018872D01*
X033088Y018870D01*
X033057Y018868D01*
X033026Y018867D01*
X032997Y018865D01*
X032968Y018864D01*
X032940Y018862D01*
X032912Y018861D01*
X032886Y018859D01*
X032860Y018858D01*
X032835Y018857D01*
X032811Y018855D01*
X032787Y018854D01*
X032764Y018853D01*
X032743Y018852D01*
X032721Y018851D01*
X032701Y018850D01*
X032681Y018849D01*
X032661Y018848D01*
X032642Y018846D01*
X032624Y018846D01*
X032606Y018845D01*
X032588Y018844D01*
X032570Y018843D01*
X032553Y018842D01*
X032536Y018841D01*
X032519Y018840D01*
X032503Y018839D01*
X032486Y018839D01*
X032470Y018838D01*
X032454Y018838D01*
X032439Y018838D01*
X032423Y018838D01*
X032408Y018839D01*
X032394Y018840D01*
X032380Y018841D01*
X032366Y018844D01*
X032353Y018847D01*
X032341Y018850D01*
X032330Y018855D01*
X032319Y018860D01*
X032310Y018866D01*
X032301Y018874D01*
X032293Y018882D01*
X032287Y018891D01*
X032281Y018901D01*
X032275Y018912D01*
X032271Y018923D01*
X032267Y018935D01*
X032264Y018948D01*
X032261Y018961D01*
X032259Y018974D01*
X032257Y018988D01*
X032255Y019002D01*
X032254Y019016D01*
X032252Y019030D01*
X032251Y019044D01*
X032251Y019058D01*
X032250Y019073D01*
X032250Y019087D01*
X032250Y019100D01*
X032251Y019114D01*
X032252Y019127D01*
X032254Y019140D01*
X032257Y019153D01*
X032262Y019165D01*
X032267Y019177D01*
X032274Y019188D01*
X032283Y019199D01*
X032293Y019209D01*
X032305Y019218D01*
X032319Y019227D01*
X032335Y019235D01*
X032353Y019242D01*
X032372Y019248D01*
X032393Y019253D01*
X032415Y019258D01*
X032439Y019263D01*
X032464Y019266D01*
X032489Y019269D01*
X032515Y019272D01*
X032542Y019274D01*
X032569Y019276D01*
X032596Y019277D01*
X032623Y019279D01*
X032650Y019280D01*
X032677Y019281D01*
X032705Y019281D01*
X032733Y019282D01*
X032761Y019282D01*
X032789Y019283D01*
X032817Y019283D01*
X032846Y019284D01*
X032875Y019284D01*
X032904Y019284D01*
X032933Y019285D01*
X032962Y019285D01*
X032991Y019285D01*
X033020Y019285D01*
X033048Y019286D01*
X033075Y019286D01*
X033102Y019286D01*
X033128Y019286D01*
X033153Y019287D01*
X033177Y019287D01*
X033200Y019287D01*
X033222Y019287D01*
X033244Y019287D01*
X033264Y019288D01*
X033284Y019288D01*
X033304Y019288D01*
X033323Y019288D01*
X033341Y019288D01*
X033360Y019289D01*
X033378Y019289D01*
X033397Y019289D01*
X033415Y019289D01*
X033434Y019289D01*
X033453Y019290D01*
X033472Y019290D01*
X033491Y019290D01*
X033510Y019290D01*
X033529Y019290D01*
X033548Y019291D01*
X033566Y019291D01*
X033585Y019291D01*
X033603Y019291D01*
X033620Y019292D01*
X033637Y019292D01*
X033654Y019292D01*
X033669Y019292D01*
X033684Y019292D01*
X033699Y019293D01*
X033713Y019293D01*
X033727Y019293D01*
X033741Y019293D01*
X033755Y019293D01*
X033770Y019294D01*
X033786Y019294D01*
X033803Y019294D01*
X033821Y019294D01*
X033841Y019295D01*
X033862Y019295D01*
X033885Y019295D01*
X033909Y019295D01*
X033934Y019296D01*
X033961Y019296D01*
X033987Y019297D01*
X034014Y019297D01*
X034040Y019297D01*
X034066Y019298D01*
X034090Y019298D01*
X034113Y019298D01*
X034134Y019299D01*
X034153Y019299D01*
X034170Y019299D01*
X034185Y019300D01*
X034198Y019300D01*
X034208Y019300D01*
X034217Y019301D01*
X034224Y019302D01*
X034230Y019303D01*
X034235Y019305D01*
X034239Y019308D01*
X034243Y019311D01*
X034246Y019315D01*
X034250Y019321D01*
X034254Y019328D01*
X034258Y019336D01*
X034263Y019347D01*
X034269Y019359D01*
X034275Y019372D01*
X034282Y019388D01*
X034290Y019405D01*
X034299Y019424D01*
X034308Y019444D01*
X034318Y019465D01*
X034328Y019487D01*
X034338Y019509D01*
X034348Y019531D01*
X034357Y019552D01*
X034367Y019573D01*
X034376Y019592D01*
X034384Y019610D01*
X034391Y019626D01*
X034398Y019641D01*
X034404Y019653D01*
X034409Y019665D01*
X034413Y019674D01*
X034417Y019683D01*
X034420Y019690D01*
X034423Y019697D01*
X034426Y019704D01*
X034429Y019711D01*
X034433Y019719D01*
X034437Y019728D01*
X034441Y019740D01*
X034447Y019753D01*
X034453Y019769D01*
X034461Y019789D01*
X034471Y019811D01*
X034481Y019838D01*
X034494Y019868D01*
X034507Y019901D01*
X034522Y019937D01*
X034538Y019976D01*
X034554Y020017D01*
X034572Y020059D01*
X034589Y020102D01*
X034607Y020146D01*
X034624Y020188D01*
X034641Y020229D01*
X034657Y020268D01*
X034671Y020304D01*
X034685Y020337D01*
X034697Y020366D01*
X034708Y020393D01*
X034717Y020415D01*
X034725Y020435D01*
X034732Y020451D01*
X034737Y020464D01*
X034742Y020475D01*
X034745Y020483D01*
X034748Y020490D01*
X034751Y020495D01*
X034752Y020500D01*
X034754Y020503D01*
X034755Y020506D01*
X034757Y020508D01*
X034758Y020510D01*
X034759Y020512D01*
X034760Y020514D01*
X034761Y020515D01*
X034762Y020517D01*
X034763Y020519D01*
X034764Y020521D01*
X034765Y020523D01*
X034767Y020525D01*
X034768Y020527D01*
X034769Y020528D01*
X034770Y020530D01*
X034771Y020532D01*
X034772Y020534D01*
X034773Y020536D01*
X034774Y020538D01*
X034775Y020540D01*
X034776Y020541D01*
X034777Y020543D01*
X034778Y020545D01*
X034779Y020546D01*
X034780Y020548D01*
X034781Y020550D01*
X034783Y020552D01*
X034784Y020555D01*
X034785Y020557D01*
X034787Y020561D01*
X034789Y020565D01*
X034792Y020569D01*
X034795Y020575D01*
X034799Y020581D01*
X034803Y020589D01*
X034808Y020598D01*
X034813Y020608D01*
X034820Y020619D01*
X034826Y020631D01*
X034834Y020644D01*
X034842Y020659D01*
X034850Y020673D01*
X034858Y020688D01*
X034867Y020704D01*
X034875Y020719D01*
X034883Y020734D01*
X034891Y020748D01*
X034899Y020761D01*
X034905Y020773D01*
X034912Y020785D01*
X034917Y020795D01*
X034922Y020803D01*
X034926Y020811D01*
X034929Y020817D01*
X034932Y020823D01*
X034934Y020827D01*
X034936Y020831D01*
X034937Y020835D01*
X034937Y020839D01*
X034937Y020843D01*
X034937Y020847D01*
X034936Y020851D01*
X034935Y020857D01*
X034933Y020864D01*
X034932Y020872D01*
X034929Y020881D01*
X034926Y020891D01*
X034923Y020903D01*
X034920Y020916D01*
X034916Y020930D01*
X034912Y020946D01*
X034907Y020962D01*
X034903Y020979D01*
X034898Y020995D01*
X034894Y021012D01*
X034889Y021029D01*
X034885Y021045D01*
X034881Y021060D01*
X034877Y021075D01*
X034874Y021088D01*
X034870Y021100D01*
X034868Y021111D01*
X034865Y021120D01*
X034863Y021129D01*
X034861Y021136D01*
X034859Y021143D01*
X034857Y021149D01*
X034856Y021154D01*
X034855Y021159D01*
X034853Y021164D01*
X034852Y021168D01*
X034851Y021172D01*
X034850Y021177D01*
X034849Y021181D01*
X034849Y021185D01*
X034848Y021189D01*
X034847Y021194D01*
X034846Y021198D01*
X034846Y021203D01*
X034846Y021208D01*
X034845Y021213D01*
X034845Y021218D01*
X034846Y021223D01*
X034846Y021229D01*
X034847Y021236D01*
X034848Y021243D01*
X034849Y021250D01*
X034850Y021258D01*
X034852Y021267D01*
X034854Y021277D01*
X034856Y021287D01*
X034858Y021298D01*
X034861Y021310D01*
X034864Y021323D01*
X034866Y021336D01*
X034869Y021349D01*
X034873Y021363D01*
X034876Y021377D01*
X034879Y021391D01*
X034882Y021406D01*
X034886Y021421D01*
X034889Y021436D01*
X034893Y021451D01*
X034896Y021466D01*
X034899Y021482D01*
X034903Y021497D01*
X034906Y021513D01*
X034910Y021529D01*
X034913Y021545D01*
X034917Y021561D01*
X034920Y021578D01*
X034924Y021595D01*
X034927Y021613D01*
X034930Y021630D01*
X034933Y021648D01*
X034936Y021667D01*
X034939Y021686D01*
X034942Y021705D01*
X034945Y021724D01*
X034947Y021744D01*
X034950Y021763D01*
X034952Y021783D01*
X034955Y021803D01*
X034957Y021823D01*
X034959Y021843D01*
X034962Y021862D01*
X034964Y021882D01*
X034967Y021901D01*
X034970Y021919D01*
X034972Y021938D01*
X034975Y021956D01*
X034978Y021973D01*
X034981Y021990D01*
X034984Y022007D01*
X034987Y022023D01*
X034990Y022038D01*
X034993Y022054D01*
X034996Y022069D01*
X034999Y022083D01*
X035002Y022097D01*
X035004Y022111D01*
X035007Y022125D01*
X035009Y022138D01*
X035011Y022151D01*
X035012Y022164D01*
X035014Y022176D01*
X035015Y022188D01*
X035017Y022199D01*
X035018Y022211D01*
X035019Y022221D01*
X035019Y022232D01*
X035020Y022241D01*
X035021Y022251D01*
X035021Y022260D01*
X035022Y022269D01*
X035022Y022277D01*
X035022Y022286D01*
X035022Y022295D01*
X035021Y022304D01*
X035020Y022314D01*
X035019Y022326D01*
X035017Y022339D01*
X035015Y022354D01*
X035012Y022372D01*
X035008Y022394D01*
X035003Y022418D01*
X034998Y022447D01*
X034991Y022480D01*
X034984Y022516D01*
X034975Y022557D01*
X034966Y022601D01*
X034956Y022648D01*
X034946Y022698D01*
X034935Y022749D01*
X034925Y022802D01*
X034914Y022854D01*
X034903Y022905D01*
X034893Y022955D01*
X034883Y023002D01*
X034874Y023045D01*
X034865Y023085D01*
X034857Y023121D01*
X034851Y023153D01*
X034845Y023180D01*
X034840Y023204D01*
X034835Y023223D01*
X034832Y023239D01*
X034828Y023252D01*
X034826Y023262D01*
X034824Y023270D01*
X034822Y023276D01*
X034820Y023281D01*
X034818Y023285D01*
X034817Y023288D01*
X034815Y023290D01*
X034814Y023293D01*
X034813Y023295D01*
X034811Y023296D01*
X034810Y023298D01*
X034808Y023300D01*
X034807Y023302D01*
X034805Y023304D01*
X034803Y023306D01*
X034802Y023308D01*
X034800Y023310D01*
X034798Y023312D01*
X034797Y023314D01*
X034795Y023316D01*
X034793Y023319D01*
X034791Y023321D01*
X034788Y023324D01*
X034785Y023328D01*
X034782Y023332D01*
X034779Y023336D01*
X034775Y023341D01*
X034770Y023347D01*
X034765Y023353D01*
X034758Y023361D01*
X034751Y023369D01*
X034743Y023379D01*
X034735Y023390D01*
X034724Y023402D01*
X034713Y023415D01*
X034701Y023430D01*
X034687Y023447D01*
X034672Y023464D01*
X034656Y023483D01*
X034638Y023504D01*
X034618Y023525D01*
X034598Y023548D01*
X034575Y023571D01*
X034551Y023595D01*
X034526Y023620D01*
X034499Y023644D01*
X034470Y023668D01*
X034440Y023692D01*
X034408Y023714D01*
X034375Y023736D01*
X034340Y023756D01*
X034305Y023775D01*
X034269Y023792D01*
X034232Y023807D01*
X034195Y023821D01*
X034158Y023832D01*
X034122Y023842D01*
X034086Y023850D01*
X034051Y023857D01*
X034018Y023862D01*
X033986Y023866D01*
X033957Y023870D01*
X033930Y023872D01*
X033905Y023874D01*
X033882Y023875D01*
X033861Y023876D01*
X033843Y023876D01*
X033827Y023876D01*
X033813Y023876D01*
X033800Y023876D01*
X033789Y023876D01*
X033779Y023876D01*
X033770Y023876D01*
X033762Y023875D01*
X033755Y023875D01*
X033748Y023875D01*
X033741Y023874D01*
X033735Y023874D01*
X033728Y023873D01*
X033721Y023873D01*
X033714Y023872D01*
X033707Y023871D01*
X033699Y023871D01*
X033690Y023870D01*
X033681Y023869D01*
X033670Y023868D01*
X033657Y023868D01*
X033643Y023867D01*
X033627Y023866D01*
X033609Y023865D01*
X033589Y023864D01*
X033567Y023863D01*
X033542Y023863D01*
X033515Y023862D01*
X033485Y023861D01*
X033453Y023860D01*
X033419Y023859D01*
X033382Y023858D01*
X033344Y023857D01*
X033304Y023856D01*
X033262Y023855D01*
X033219Y023854D01*
X033175Y023852D01*
X033130Y023851D01*
X033084Y023850D01*
X033038Y023849D01*
X032991Y023847D01*
X032943Y023846D01*
X032896Y023845D01*
X032848Y023843D01*
X032800Y023842D01*
X032751Y023840D01*
X032702Y023839D01*
X032653Y023837D01*
X032603Y023836D01*
X032553Y023834D01*
X032502Y023833D01*
X032451Y023831D01*
X032398Y023829D01*
X032344Y023828D01*
X032289Y023826D01*
X032233Y023824D01*
X032176Y023822D01*
X032117Y023821D01*
X032057Y023819D01*
X031996Y023817D01*
X031933Y023815D01*
X031869Y023813D01*
X031804Y023811D01*
X031738Y023809D01*
X031671Y023807D01*
X031603Y023805D01*
X031535Y023803D01*
X031466Y023801D01*
X031397Y023799D01*
X031327Y023797D01*
X031258Y023795D01*
X031188Y023793D01*
X031119Y023791D01*
X031050Y023790D01*
X030981Y023788D01*
X030912Y023787D01*
X030844Y023786D01*
X030777Y023784D01*
X030710Y023783D01*
X030645Y023783D01*
X030580Y023782D01*
X030516Y023781D01*
X030454Y023781D01*
X030392Y023780D01*
X030332Y023780D01*
X030273Y023780D01*
X030216Y023780D01*
X030160Y023780D01*
X030106Y023780D01*
X030053Y023780D01*
X030001Y023780D01*
X029951Y023780D01*
X029902Y023780D01*
X029854Y023780D01*
X029808Y023781D01*
X029762Y023781D01*
X029718Y023782D01*
X029674Y023782D01*
X029632Y023783D01*
X029590Y023784D01*
X029549Y023785D01*
X029509Y023786D01*
X029470Y023787D01*
X029432Y023788D01*
X029394Y023789D01*
X029357Y023790D01*
X029321Y023792D01*
X029286Y023793D01*
X029253Y023795D01*
X029220Y023796D01*
X029189Y023798D01*
X029159Y023799D01*
X029131Y023801D01*
X029105Y023802D01*
X029080Y023804D01*
X029058Y023805D01*
X029037Y023806D01*
X029018Y023807D01*
X029000Y023808D01*
X028984Y023809D01*
X028969Y023810D01*
X028956Y023811D01*
X028943Y023812D01*
X028931Y023813D01*
X028919Y023814D01*
X028907Y023814D01*
X028896Y023815D01*
X028884Y023816D01*
X028872Y023817D01*
X028859Y023818D01*
X028847Y023818D01*
X028834Y023819D01*
X028821Y023820D01*
X028809Y023821D01*
X028797Y023822D01*
X028785Y023823D01*
X028774Y023823D01*
X028763Y023824D01*
X028754Y023825D01*
X028745Y023825D01*
X028738Y023826D01*
X028731Y023826D01*
X028726Y023826D01*
X028721Y023827D01*
X028717Y023827D01*
X028714Y023827D01*
X028711Y023826D01*
X028708Y023826D01*
X028705Y023825D01*
X028703Y023824D01*
X028700Y023823D01*
X028696Y023821D01*
X028692Y023819D01*
X028688Y023817D01*
X028682Y023814D01*
X028676Y023810D01*
X028669Y023806D01*
X028661Y023802D01*
X028652Y023797D01*
X028642Y023791D01*
X028632Y023786D01*
X028621Y023780D01*
X028610Y023774D01*
X028599Y023767D01*
X028588Y023761D01*
X028576Y023754D01*
X028564Y023748D01*
X028552Y023741D01*
X028540Y023734D01*
X028528Y023727D01*
X028514Y023720D01*
X028500Y023712D01*
X028485Y023703D01*
X028468Y023693D01*
X028450Y023682D01*
X028429Y023670D01*
X028406Y023656D01*
X028381Y023641D01*
X028353Y023623D01*
X028323Y023604D01*
X028291Y023582D01*
X028256Y023558D01*
X028220Y023532D01*
X028183Y023503D01*
X028144Y023472D01*
X028105Y023439D01*
X028066Y023404D01*
X028027Y023367D01*
X027989Y023328D01*
X027952Y023288D01*
X027917Y023245D01*
X027883Y023201D01*
X027852Y023155D01*
X027822Y023109D01*
X027795Y023061D01*
X027770Y023012D01*
X027747Y022962D01*
X027727Y022913D01*
X027709Y022863D01*
X027693Y022813D01*
X027679Y022765D01*
X027667Y022717D01*
X027657Y022670D01*
X027648Y022626D01*
X027641Y022583D01*
X027634Y022544D01*
X027629Y022506D01*
X027625Y022472D01*
X027621Y022441D01*
X027617Y022414D01*
X027614Y022389D01*
X027612Y022367D01*
X027609Y022349D01*
X027607Y022333D01*
X027604Y022320D01*
X027602Y022308D01*
X027600Y022299D01*
X027598Y022291D01*
X027595Y022285D01*
X027593Y022280D01*
X027591Y022276D01*
X027589Y022272D01*
X027587Y022268D01*
X027584Y022265D01*
X027582Y022263D01*
X027580Y022260D01*
X027578Y022257D01*
X027576Y022255D01*
X027574Y022253D01*
X027572Y022251D01*
X027570Y022248D01*
X027568Y022246D01*
X027566Y022245D01*
X027564Y022243D01*
X027562Y022241D01*
X027560Y022240D01*
X027558Y022239D01*
X027556Y022238D01*
X027555Y022238D01*
X027553Y022237D01*
X027552Y022237D01*
X027550Y022238D01*
X027549Y022238D01*
X027548Y022239D01*
X027546Y022240D01*
X027545Y022241D01*
X027544Y022242D01*
X027543Y022244D01*
X027542Y022245D01*
X027541Y022247D01*
X027540Y022249D01*
X027539Y022250D01*
X027537Y022252D01*
X027536Y022254D01*
X027535Y022256D01*
X027534Y022259D01*
X027532Y022261D01*
X027531Y022264D01*
X027529Y022268D01*
X027527Y022272D01*
X027524Y022277D01*
X027522Y022282D01*
X027518Y022289D01*
X027514Y022297D01*
X027510Y022306D01*
X027504Y022317D01*
X027498Y022330D01*
X027491Y022344D01*
X027482Y022360D01*
X027473Y022378D01*
X027463Y022397D01*
X027451Y022418D01*
X027439Y022440D01*
X027425Y022464D01*
X027410Y022489D01*
X027395Y022514D01*
X027378Y022540D01*
X027360Y022567D01*
X027342Y022594D01*
X027322Y022621D01*
X027302Y022647D01*
X027282Y022674D01*
X027261Y022700D01*
X027240Y022725D01*
X027218Y022750D01*
X027196Y022774D01*
X027175Y022797D01*
X027153Y022820D01*
X027132Y022842D01*
X027111Y022863D01*
X027091Y022883D01*
X027071Y022903D01*
X027052Y022922D01*
X027034Y022940D01*
X027016Y022957D01*
X026999Y022973D01*
X026983Y022988D01*
X026968Y023003D01*
X026954Y023017D01*
X026940Y023029D01*
X026928Y023041D01*
X026916Y023053D01*
X026905Y023064D01*
X026894Y023074D01*
X026884Y023083D01*
X026874Y023093D01*
X026865Y023101D01*
X026856Y023110D01*
X026848Y023118D01*
X026839Y023126D01*
X026831Y023134D01*
X026823Y023142D01*
X026815Y023150D01*
X026808Y023157D01*
X026800Y023165D01*
X026793Y023172D01*
X026786Y023179D01*
X026779Y023186D01*
X026772Y023193D01*
X026766Y023200D01*
X026760Y023206D01*
X026755Y023212D01*
X026750Y023217D01*
X026745Y023222D01*
X026741Y023228D01*
X026737Y023232D01*
X026733Y023237D01*
X026729Y023242D01*
X026725Y023247D01*
X026720Y023252D01*
X026715Y023259D01*
X026710Y023266D01*
X026704Y023274D01*
X026696Y023283D01*
X026688Y023294D01*
X026678Y023307D01*
X026666Y023322D01*
X026653Y023339D01*
X026638Y023358D01*
X026622Y023380D01*
X026604Y023403D01*
X026585Y023428D01*
X026565Y023454D01*
X026544Y023481D01*
X026522Y023508D01*
X026501Y023536D01*
X026480Y023563D01*
X026460Y023589D01*
X026441Y023614D01*
X026423Y023637D01*
X026407Y023658D01*
X026392Y023677D01*
X026379Y023694D01*
X026368Y023708D01*
X026358Y023721D01*
X026351Y023731D01*
X026344Y023739D01*
X026339Y023746D01*
X026335Y023751D01*
X026332Y023755D01*
X026330Y023759D01*
X026328Y023761D01*
X026326Y023764D01*
X026325Y023766D01*
X026324Y023768D01*
X026324Y023770D01*
X026323Y023772D01*
X026322Y023775D01*
X026321Y023777D01*
X026320Y023781D01*
X026319Y023784D01*
X026317Y023788D01*
X026316Y023791D01*
X026315Y023796D01*
X026313Y023800D01*
X026312Y023804D01*
X026311Y023808D01*
X026309Y023812D01*
X026308Y023816D01*
X026307Y023819D01*
X026306Y023823D01*
X026305Y023826D01*
X026304Y023828D01*
X026303Y023831D01*
X026302Y023833D01*
X026301Y023834D01*
X026300Y023836D01*
X026299Y023837D01*
X026298Y023838D01*
X026296Y023839D01*
X026294Y023841D01*
X026290Y023842D01*
X026286Y023844D01*
X026281Y023846D01*
X026275Y023848D01*
X026267Y023851D01*
X026258Y023854D01*
X026248Y023858D01*
X026235Y023862D01*
X026221Y023867D01*
X026206Y023872D01*
X026189Y023878D01*
X026171Y023884D01*
X026152Y023891D01*
X026133Y023898D01*
X026113Y023905D01*
X026094Y023911D01*
X026074Y023918D01*
X026055Y023925D01*
X026037Y023931D01*
X026020Y023937D01*
X026004Y023943D01*
X025989Y023948D01*
X025975Y023953D01*
X025961Y023958D01*
X025949Y023962D01*
X025936Y023967D01*
X025924Y023971D01*
X025912Y023975D01*
X025899Y023980D01*
X025886Y023984D01*
X025872Y023989D01*
X025858Y023994D01*
X025842Y024000D01*
X025826Y024006D01*
X025809Y024012D01*
X025790Y024019D01*
X025772Y024025D01*
X025752Y024033D01*
X025732Y024040D01*
X025711Y024048D01*
X025689Y024056D01*
X025668Y024064D01*
X025646Y024072D01*
X025623Y024081D01*
X025600Y024090D01*
X025577Y024098D01*
X025553Y024108D01*
X025529Y024117D01*
X025504Y024127D01*
X025478Y024137D01*
X025450Y024148D01*
X025421Y024159D01*
X025390Y024171D01*
X025357Y024184D01*
X025322Y024198D01*
X025284Y024213D01*
X025242Y024229D01*
X025198Y024246D01*
X025150Y024265D01*
X025098Y024285D01*
X025042Y024307D01*
X024983Y024330D01*
X024920Y024354D01*
X024853Y024380D01*
X024783Y024407D01*
X024710Y024436D01*
X024634Y024465D01*
X024554Y024495D01*
X024473Y024525D01*
X024389Y024556D01*
X024303Y024587D01*
X024215Y024617D01*
X024125Y024647D01*
X024034Y024677D01*
X023942Y024705D01*
X023849Y024732D01*
X023755Y024757D01*
X023661Y024781D01*
X023567Y024802D01*
X023473Y024822D01*
X023381Y024839D01*
X023289Y024855D01*
X023200Y024868D01*
X023113Y024880D01*
X023029Y024890D01*
X022948Y024897D01*
X022873Y024904D01*
X022801Y024909D01*
X022735Y024913D01*
X022675Y024916D01*
X022620Y024918D01*
X022570Y024919D01*
X022526Y024921D01*
X022488Y024921D01*
X022454Y024922D01*
X022425Y024922D01*
X022400Y024922D01*
X022379Y024922D01*
X022361Y024922D01*
X022346Y024922D01*
X022333Y024922D01*
X022321Y024922D01*
X022311Y024922D01*
X022302Y024922D01*
X022293Y024921D01*
X022285Y024921D01*
X022277Y024921D01*
X022269Y024921D01*
X022261Y024921D01*
X022252Y024920D01*
X022244Y024920D01*
X022234Y024920D01*
X022224Y024919D01*
X022214Y024919D01*
X022202Y024918D01*
X022190Y024918D01*
X022176Y024917D01*
X022161Y024916D01*
X022145Y024915D01*
X022127Y024914D01*
X022108Y024913D01*
X022087Y024912D01*
X022065Y024910D01*
X022042Y024908D01*
X022017Y024906D01*
X021992Y024903D01*
X021965Y024901D01*
X021938Y024898D01*
X021910Y024894D01*
X021881Y024890D01*
X021852Y024886D01*
X021822Y024882D01*
X021792Y024877D01*
X021763Y024872D01*
X021733Y024866D01*
X021703Y024861D01*
X021673Y024855D01*
X021643Y024849D01*
X021614Y024843D01*
X021585Y024836D01*
X021556Y024830D01*
X021527Y024823D01*
X021499Y024817D01*
X021472Y024810D01*
X021445Y024804D01*
X021419Y024798D01*
X021393Y024792D01*
X021368Y024786D01*
X021344Y024780D01*
X021321Y024775D01*
X021299Y024770D01*
X021277Y024764D01*
X021257Y024760D01*
X021237Y024755D01*
X021218Y024750D01*
X021200Y024746D01*
X021182Y024742D01*
X021165Y024738D01*
X021149Y024734D01*
X021133Y024730D01*
X021118Y024727D01*
X021103Y024723D01*
X021088Y024720D01*
X021073Y024716D01*
X021059Y024713D01*
X021044Y024710D01*
X021030Y024707D01*
X021015Y024704D01*
X021000Y024700D01*
X020984Y024697D01*
X020968Y024694D01*
X020950Y024690D01*
X020932Y024687D01*
X020911Y024683D01*
X020889Y024679D01*
X020865Y024674D01*
X020839Y024670D01*
X020809Y024664D01*
X020777Y024659D01*
X020743Y024652D01*
X020705Y024645D01*
X020664Y024638D01*
X020621Y024630D01*
X020576Y024621D01*
X020528Y024612D01*
X020478Y024602D01*
X020427Y024592D01*
X020375Y024581D01*
X020323Y024570D01*
X020270Y024558D01*
X020217Y024545D01*
X020164Y024533D01*
X020112Y024519D01*
X020061Y024506D01*
X020010Y024492D01*
X019960Y024477D01*
X019911Y024462D01*
X019862Y024447D01*
X019813Y024431D01*
X019765Y024414D01*
X019717Y024397D01*
X019669Y024380D01*
X019621Y024362D01*
X019573Y024344D01*
X019525Y024326D01*
X019477Y024307D01*
X019430Y024288D01*
X019383Y024270D01*
X019336Y024251D01*
X019289Y024232D01*
X019244Y024213D01*
X019198Y024195D01*
X019154Y024177D01*
X019110Y024159D01*
X019067Y024141D01*
X019024Y024123D01*
X018982Y024105D01*
X018941Y024088D01*
X018899Y024070D01*
X018859Y024053D01*
X018818Y024035D01*
X018778Y024018D01*
X018738Y024000D01*
X018699Y023982D01*
X018660Y023964D01*
X018621Y023945D01*
X018582Y023927D01*
X018544Y023908D01*
X018507Y023889D01*
X018470Y023869D01*
X018434Y023850D01*
X018398Y023830D01*
X018364Y023811D01*
X018330Y023791D01*
X018298Y023771D01*
X018267Y023752D01*
X018236Y023732D01*
X018207Y023713D01*
X018179Y023694D01*
X018152Y023676D01*
X018126Y023658D01*
X018102Y023640D01*
X018078Y023623D01*
X018056Y023606D01*
X018034Y023590D01*
X018013Y023574D01*
X017994Y023559D01*
X017975Y023544D01*
X017957Y023529D01*
X017939Y023514D01*
X017923Y023500D01*
X017906Y023486D01*
X017891Y023472D01*
X017876Y023458D01*
X017861Y023444D01*
X017847Y023430D01*
X017834Y023417D01*
X017821Y023403D01*
X017808Y023390D01*
X017796Y023377D01*
X017784Y023364D01*
X017772Y023351D01*
X017761Y023339D01*
X017750Y023327D01*
X017740Y023315D01*
X017730Y023304D01*
X017720Y023293D01*
X017711Y023283D01*
X017703Y023274D01*
X017695Y023265D01*
X017687Y023256D01*
X017681Y023249D01*
X017674Y023241D01*
X017668Y023235D01*
X017663Y023228D01*
X017658Y023223D01*
X017653Y023218D01*
X017649Y023213D01*
X017645Y023208D01*
X017642Y023204D01*
X017638Y023201D01*
X017635Y023197D01*
X017632Y023194D01*
X017629Y023190D01*
X017626Y023187D01*
X017624Y023184D01*
X017621Y023182D01*
X017619Y023179D01*
X017616Y023176D01*
X017614Y023173D01*
X017611Y023171D01*
X017609Y023168D01*
X017607Y023166D01*
X017604Y023163D01*
X017602Y023161D01*
X017600Y023159D01*
X017598Y023157D01*
X017596Y023155D01*
X017594Y023153D01*
X017592Y023151D01*
X017590Y023150D01*
X017587Y023149D01*
X017584Y023148D01*
X017581Y023148D01*
X017577Y023147D01*
X017573Y023148D01*
X017567Y023148D01*
X017561Y023149D01*
X017553Y023151D01*
X017545Y023152D01*
X017535Y023154D01*
X017525Y023157D01*
X017513Y023160D01*
X017500Y023163D01*
X017487Y023166D01*
X017472Y023170D01*
X017458Y023173D01*
X017443Y023177D01*
X017428Y023181D01*
X017414Y023185D01*
X017400Y023188D01*
X017387Y023192D01*
X017374Y023195D01*
X017362Y023198D01*
X017351Y023201D01*
X017340Y023203D01*
X017330Y023206D01*
X017321Y023208D01*
X017312Y023210D01*
X017303Y023213D01*
X017293Y023215D01*
X017284Y023217D01*
X017274Y023219D01*
X017263Y023222D01*
X017252Y023224D01*
X017240Y023227D01*
X017227Y023229D01*
X017213Y023232D01*
X017198Y023234D01*
X017181Y023237D01*
X017164Y023239D01*
X017146Y023242D01*
X017126Y023244D01*
X017105Y023246D01*
X017083Y023249D01*
X017060Y023251D01*
X017036Y023253D01*
X017010Y023255D01*
X016983Y023257D01*
X016955Y023258D01*
X016926Y023260D01*
X016895Y023262D01*
X016864Y023263D01*
X016832Y023265D01*
X016799Y023266D01*
X016766Y023267D01*
X016733Y023269D01*
X016700Y023270D01*
X016668Y023271D01*
X016637Y023272D01*
X016607Y023274D01*
X016578Y023275D01*
X016551Y023276D01*
X016525Y023277D01*
X016501Y023277D01*
X016479Y023278D01*
X016458Y023279D01*
X016439Y023280D01*
X016422Y023280D01*
X016406Y023281D01*
X016392Y023281D01*
X016379Y023282D01*
X016366Y023282D01*
X016355Y023283D01*
X016344Y023283D01*
X016334Y023283D01*
X016324Y023284D01*
X016315Y023284D01*
X016306Y023284D01*
X016298Y023285D01*
X016290Y023285D01*
X016282Y023285D01*
X016275Y023286D01*
X016268Y023286D01*
X016262Y023286D01*
X016256Y023287D01*
X016250Y023287D01*
X016245Y023287D01*
X016240Y023287D01*
X016236Y023288D01*
X016232Y023288D01*
X016228Y023288D01*
X016224Y023288D01*
X016221Y023289D01*
X016218Y023289D01*
X016215Y023289D01*
X016212Y023289D01*
X016209Y023289D01*
X016206Y023290D01*
X016203Y023290D01*
X016199Y023290D01*
X016196Y023290D01*
X016192Y023291D01*
X016188Y023291D01*
X016183Y023291D01*
X016179Y023292D01*
X016174Y023292D01*
X016169Y023292D01*
X016165Y023293D01*
X016160Y023293D01*
X016155Y023293D01*
X016151Y023294D01*
X016147Y023294D01*
X016143Y023294D01*
X016140Y023295D01*
X016137Y023295D01*
X016134Y023295D01*
X016132Y023295D01*
X016130Y023295D01*
X016128Y023295D01*
X016127Y023295D01*
X016125Y023295D01*
X016124Y023295D01*
X016123Y023295D01*
X016122Y023295D01*
X016121Y023295D01*
X016120Y023295D01*
X016118Y023295D01*
X016116Y023294D01*
X016114Y023294D01*
X016111Y023294D01*
X016108Y023293D01*
X016105Y023293D01*
X016101Y023292D01*
X016097Y023292D01*
X016093Y023291D01*
X016088Y023290D01*
X016084Y023289D01*
X016079Y023289D01*
X016074Y023288D01*
X016069Y023287D01*
X016064Y023286D01*
X016059Y023286D01*
X016054Y023285D01*
X016048Y023284D01*
X016043Y023283D01*
X016037Y023282D01*
X016031Y023281D01*
X016024Y023280D01*
X016016Y023279D01*
X016008Y023278D01*
X015998Y023276D01*
X015987Y023275D01*
X015975Y023273D01*
X015961Y023271D01*
X015946Y023269D01*
X015929Y023267D01*
X015910Y023265D01*
X015890Y023263D01*
X015868Y023260D01*
X015844Y023258D01*
X015819Y023255D01*
X015792Y023253D01*
X015763Y023251D01*
X015733Y023248D01*
X015702Y023246D01*
X015669Y023244D01*
X015634Y023242D01*
X015598Y023240D01*
X015561Y023239D01*
X015522Y023237D01*
X015482Y023236D01*
X015441Y023235D01*
X015398Y023233D01*
X015353Y023233D01*
X015307Y023232D01*
X015260Y023231D01*
X015211Y023231D01*
X015160Y023230D01*
X015107Y023230D01*
X015053Y023229D01*
X014996Y023229D01*
X014938Y023229D01*
X014878Y023229D01*
X014816Y023229D01*
X014752Y023230D01*
X014686Y023230D01*
X014619Y023231D01*
X014549Y023231D01*
X014478Y023232D01*
X014405Y023233D01*
X014330Y023235D01*
X014254Y023236D01*
X014176Y023238D01*
X014097Y023240D01*
X014017Y023242D01*
X013936Y023244D01*
X013854Y023247D01*
X013771Y023250D01*
X013688Y023252D01*
X013604Y023255D01*
X013519Y023259D01*
X013435Y023262D01*
X013350Y023265D01*
X013265Y023269D01*
X013181Y023272D01*
X013097Y023276D01*
X013013Y023279D01*
X012929Y023283D01*
X012846Y023286D01*
X012764Y023290D01*
X012682Y023293D01*
X012601Y023297D01*
X012521Y023300D01*
X012441Y023304D01*
X012362Y023307D01*
X012284Y023310D01*
X012207Y023314D01*
X012130Y023317D01*
X012054Y023320D01*
X011979Y023323D01*
X011904Y023326D01*
X011831Y023329D01*
X011758Y023332D01*
X011686Y023335D01*
X011614Y023338D01*
X011544Y023341D01*
X011474Y023344D01*
X011406Y023346D01*
X011339Y023349D01*
X011273Y023351D01*
X011208Y023353D01*
X011145Y023355D01*
X011084Y023356D01*
X011025Y023358D01*
X010968Y023359D01*
X010913Y023361D01*
X010860Y023362D01*
X010810Y023362D01*
X010763Y023363D01*
X010719Y023364D01*
X010677Y023364D01*
X010638Y023364D01*
X010603Y023365D01*
X010570Y023365D01*
X010540Y023365D01*
X010513Y023365D01*
X010489Y023365D01*
X010467Y023365D01*
X010447Y023365D01*
X010429Y023365D01*
X010413Y023365D01*
X010399Y023365D01*
X010386Y023365D01*
X010373Y023365D01*
X010362Y023365D01*
X010351Y023365D01*
X010341Y023365D01*
X010331Y023365D01*
X010322Y023365D01*
X010312Y023365D01*
X010303Y023364D01*
X010294Y023364D01*
X010284Y023364D01*
X010275Y023364D01*
X010265Y023364D01*
X010254Y023364D01*
X010243Y023363D01*
X010232Y023363D01*
X010220Y023363D01*
X010207Y023363D01*
X010193Y023362D01*
X010179Y023362D01*
X010164Y023362D01*
X010147Y023361D01*
X010130Y023361D01*
X010112Y023360D01*
X010093Y023360D01*
X010074Y023359D01*
X010054Y023359D01*
X010033Y023358D01*
X010012Y023358D01*
X009991Y023357D01*
X009970Y023357D01*
X009949Y023356D01*
X009928Y023356D01*
X009907Y023356D01*
X009887Y023355D01*
X009867Y023355D01*
X009847Y023354D01*
X009828Y023354D01*
X009810Y023354D01*
X009791Y023354D01*
X009773Y023353D01*
X009756Y023353D01*
X009738Y023353D01*
X009721Y023353D01*
X009704Y023353D01*
X009687Y023353D01*
X009670Y023353D01*
X009653Y023353D01*
X009636Y023353D01*
X009618Y023353D01*
X009601Y023353D01*
X009583Y023353D01*
X009566Y023353D01*
X009548Y023353D01*
X009530Y023353D01*
X009512Y023353D01*
X009494Y023353D01*
X009476Y023353D01*
X009459Y023353D01*
X009441Y023353D01*
X009424Y023354D01*
X009407Y023354D01*
X009390Y023354D01*
X009374Y023355D01*
X009358Y023355D01*
X009342Y023355D01*
X009326Y023356D01*
X009311Y023356D01*
X009296Y023357D01*
X009280Y023358D01*
X009265Y023358D01*
X009250Y023359D01*
X009234Y023360D01*
X009219Y023360D01*
X009203Y023361D01*
X009187Y023362D01*
X009170Y023362D01*
X009154Y023363D01*
X009137Y023364D01*
X009120Y023365D01*
X009102Y023366D01*
X009084Y023367D01*
X009066Y023367D01*
X009048Y023368D01*
X009029Y023369D01*
X009010Y023370D01*
X008991Y023371D01*
X008971Y023372D01*
X008951Y023373D01*
X008930Y023374D01*
X008909Y023375D01*
X008887Y023376D01*
X008865Y023377D01*
X008842Y023378D01*
X008818Y023379D01*
X008793Y023380D01*
X008767Y023381D01*
X008741Y023382D01*
X008713Y023383D01*
X008685Y023384D01*
X008655Y023385D01*
X008625Y023386D01*
X008594Y023387D01*
X008562Y023388D01*
X008531Y023388D01*
X008499Y023389D01*
X008467Y023390D01*
X008436Y023391D01*
X008406Y023391D01*
X008377Y023392D01*
X008350Y023393D01*
X008324Y023393D01*
X008300Y023394D01*
X008277Y023394D01*
X008257Y023394D01*
X008238Y023395D01*
X008222Y023395D01*
X008207Y023395D01*
X008194Y023396D01*
X008182Y023396D01*
X008171Y023396D01*
X008162Y023396D01*
X008154Y023396D01*
X008146Y023396D01*
X008139Y023396D01*
X008132Y023396D01*
X008125Y023397D01*
X008118Y023397D01*
X008111Y023397D01*
X008103Y023397D01*
X008095Y023397D01*
X008084Y023397D01*
X008073Y023397D01*
X008059Y023397D01*
X008042Y023397D01*
X008021Y023397D01*
X007997Y023397D01*
X007968Y023397D01*
X007933Y023396D01*
X007893Y023396D01*
X007846Y023395D01*
X007793Y023395D01*
X007733Y023393D01*
X007666Y023392D01*
X007592Y023390D01*
X007512Y023387D01*
X007425Y023383D01*
X007333Y023378D01*
X007235Y023373D01*
X007133Y023366D01*
X007027Y023358D01*
X006918Y023348D01*
X006806Y023337D01*
X006692Y023325D01*
X006577Y023311D01*
X006461Y023296D01*
X006345Y023280D01*
X006229Y023262D01*
X006113Y023243D01*
X005999Y023224D01*
X005886Y023203D01*
X005774Y023182D01*
X005665Y023161D01*
X005558Y023139D01*
X005454Y023118D01*
X005354Y023096D01*
X005258Y023076D01*
X005166Y023056D01*
X005080Y023036D01*
X004999Y023018D01*
X004924Y023001D01*
X004855Y022986D01*
X004793Y022971D01*
X004736Y022958D01*
X004686Y022947D01*
X004641Y022936D01*
X004602Y022927D01*
X004568Y022919D01*
X004537Y022912D01*
X004511Y022906D01*
X004487Y022900D01*
X004466Y022895D01*
X004447Y022891D01*
X004429Y022887D01*
X004412Y022883D01*
X004396Y022879D01*
X004380Y022875D01*
X004365Y022872D01*
X004350Y022868D01*
X004335Y022865D01*
X004321Y022861D01*
X004308Y022858D01*
X004296Y022855D01*
X004285Y022853D01*
X004275Y022850D01*
X004266Y022848D01*
X004258Y022846D01*
X004251Y022845D01*
X004245Y022843D01*
X004240Y022842D01*
X004236Y022841D01*
X004233Y022840D01*
X004231Y022839D01*
X004229Y022839D01*
X004227Y022838D01*
X004226Y022837D01*
X004224Y022836D01*
X004223Y022835D01*
X004222Y022833D01*
X004220Y022831D01*
X004218Y022829D01*
X004216Y022827D01*
X004214Y022824D01*
X004212Y022822D01*
X004209Y022818D01*
X004206Y022815D01*
X004204Y022811D01*
X004200Y022808D01*
X004197Y022804D01*
X004194Y022800D01*
X004191Y022796D01*
X004188Y022793D01*
X004185Y022789D01*
X004181Y022786D01*
X004178Y022783D01*
X004175Y022781D01*
X004172Y022778D01*
X004169Y022776D01*
X004165Y022774D01*
X004162Y022773D01*
X004158Y022772D01*
X004153Y022770D01*
X004148Y022769D01*
X004143Y022768D01*
X004137Y022768D01*
X004130Y022767D01*
X004123Y022766D01*
X004115Y022765D01*
X004106Y022764D01*
X004097Y022764D01*
X004088Y022763D01*
X004078Y022762D01*
X004067Y022761D01*
X004056Y022759D01*
X004044Y022758D01*
X004032Y022757D01*
X004020Y022755D01*
X004007Y022753D01*
X003994Y022751D01*
X003981Y022749D01*
X003967Y022747D01*
X003953Y022744D01*
X003938Y022741D01*
X003923Y022737D01*
X003906Y022733D01*
X003889Y022729D01*
X003871Y022724D01*
X003852Y022718D01*
X003831Y022712D01*
X003809Y022705D01*
X003785Y022697D01*
X003759Y022689D01*
X003731Y022679D01*
X003701Y022668D01*
X003669Y022656D01*
X003635Y022643D01*
X003599Y022629D01*
X003561Y022613D01*
X003520Y022595D01*
X003479Y022576D01*
X003435Y022556D01*
X003390Y022534D01*
X003344Y022510D01*
X003297Y022484D01*
X003249Y022457D01*
X003200Y022429D01*
X003151Y022399D01*
X003101Y022368D01*
X003051Y022335D01*
X003001Y022302D01*
X002951Y022268D01*
X002901Y022233D01*
X002851Y022197D01*
X002801Y022161D01*
X002752Y022124D01*
X002702Y022087D01*
X002653Y022050D01*
X002604Y022013D01*
X002556Y021976D01*
X002507Y021938D01*
X002459Y021901D01*
X002411Y021863D01*
X002363Y021826D01*
X002315Y021789D01*
X002268Y021751D01*
X002221Y021714D01*
X002176Y021678D01*
X002131Y021641D01*
X002087Y021605D01*
X002044Y021570D01*
X002002Y021535D01*
X001962Y021501D01*
X001924Y021467D01*
X001888Y021434D01*
X001853Y021401D01*
X001820Y021368D01*
X001789Y021336D01*
X001760Y021303D01*
X001731Y021270D01*
X001704Y021236D01*
X001678Y021201D01*
X001653Y021164D01*
X001628Y021126D01*
X001604Y021086D01*
X001579Y021043D01*
X001555Y020998D01*
X001530Y020951D01*
X001504Y020901D01*
X001478Y020848D01*
X001452Y020792D01*
X001424Y020734D01*
X001396Y020672D01*
X001368Y020608D01*
X001338Y020541D01*
X001308Y020470D01*
X001278Y020397D01*
X001247Y020320D01*
X001216Y020239D01*
X001185Y020155D01*
X001153Y020066D01*
X001122Y019974D01*
X001091Y019877D01*
X001060Y019777D01*
X001030Y019673D01*
X001000Y019564D01*
X000971Y019453D01*
X000943Y019339D01*
X000916Y019222D01*
X000890Y019104D01*
X000865Y018986D01*
X000842Y018867D01*
X000819Y018749D01*
X000798Y018634D01*
X000779Y018521D01*
X000761Y018411D01*
X000744Y018305D01*
X000729Y018204D01*
X000715Y018109D01*
X000703Y018019D01*
X000692Y017934D01*
X000682Y017856D01*
X000673Y017784D01*
X000665Y017717D01*
X000659Y017657D01*
X000653Y017602D01*
X000647Y017553D01*
X000643Y017508D01*
X000639Y017469D01*
X000635Y017433D01*
X000632Y017402D01*
X000630Y017374D01*
X000627Y017349D01*
X000625Y017326D01*
X000623Y017306D01*
X000622Y017288D01*
X000620Y017271D01*
X000619Y017256D01*
X000617Y017242D01*
X000616Y017228D01*
X000615Y017215D01*
X000613Y017203D01*
X000612Y017190D01*
X000611Y017179D01*
X000610Y017167D01*
X000609Y017155D01*
X000608Y017143D01*
X000606Y017132D01*
X000605Y017120D01*
X000604Y017108D01*
X000603Y017097D01*
X000601Y017085D01*
X000600Y017073D01*
X000599Y017060D01*
X000598Y017048D01*
X000596Y017035D01*
X000595Y017023D01*
X000594Y017010D01*
X000592Y016996D01*
X000591Y016983D01*
X000590Y016969D01*
X000588Y016956D01*
X000587Y016942D01*
X000585Y016928D01*
X000584Y016914D01*
X000582Y016900D01*
X000581Y016885D01*
X000580Y016871D01*
X000578Y016856D01*
X000577Y016841D01*
X000575Y016827D01*
X000574Y016812D01*
X000572Y016796D01*
X000571Y016781D01*
X000569Y016765D01*
X000568Y016749D01*
X000567Y016733D01*
X000565Y016717D01*
X000564Y016701D01*
X000562Y016685D01*
X000561Y016668D01*
X000559Y016652D01*
X000558Y016635D01*
X000556Y016619D01*
X000555Y016603D01*
X000554Y016587D01*
X000552Y016571D01*
X000551Y016555D01*
X000549Y016539D01*
X000548Y016524D01*
X000546Y016509D01*
X000544Y016494D01*
X000543Y016479D01*
X000541Y016464D01*
X000539Y016449D01*
X000537Y016435D01*
X000534Y016420D01*
X000532Y016405D01*
X000529Y016390D01*
X000527Y016375D01*
X000524Y016360D01*
X000521Y016345D01*
X000518Y016330D01*
X000515Y016314D01*
X000512Y016299D01*
X000508Y016283D01*
X000505Y016267D01*
X000501Y016251D01*
X000498Y016234D01*
X000494Y016218D01*
X000491Y016201D01*
X000487Y016184D01*
X000483Y016167D01*
X000479Y016149D01*
X000475Y016131D01*
X000471Y016113D01*
X000467Y016094D01*
X000463Y016076D01*
X000459Y016056D01*
X000454Y016037D01*
X000450Y016017D01*
X000445Y015997D01*
X000441Y015977D01*
X000436Y015956D01*
X000432Y015936D01*
X000427Y015915D01*
X000423Y015894D01*
X000418Y015872D01*
X000414Y015851D01*
X000410Y015829D01*
X000405Y015807D01*
X000401Y015785D01*
X000397Y015763D01*
X000393Y015741D01*
X000390Y015719D01*
X000386Y015697D01*
X000383Y015674D01*
X000380Y015652D01*
X000377Y015630D01*
X000374Y015607D01*
X000372Y015585D01*
X000369Y015563D01*
X000367Y015541D01*
X000365Y015519D01*
X000364Y015498D01*
X000362Y015476D01*
X000360Y015455D01*
X000359Y015434D01*
X000358Y015414D01*
X000357Y015394D01*
X000356Y015374D01*
X000355Y015355D01*
X000354Y015336D01*
X000353Y015317D01*
X000353Y015298D01*
X000353Y015280D01*
X000352Y015262D01*
X000352Y015244D01*
X000352Y015227D01*
X000353Y015210D01*
X000353Y015193D01*
X000353Y015176D01*
X000354Y015159D01*
X000354Y015143D01*
X000355Y015127D01*
X000356Y015111D01*
X000357Y015095D01*
X000357Y015079D01*
X000358Y015064D01*
X000359Y015049D01*
X000360Y015035D01*
X000361Y015021D01*
X000362Y015007D01*
X000362Y014993D01*
X000363Y014980D01*
X000364Y014967D01*
X000365Y014954D01*
X000365Y014942D01*
X000366Y014931D01*
X000367Y014919D01*
X000368Y014908D01*
X000368Y014897D01*
X000369Y014887D01*
X000369Y014877D01*
X000370Y014867D01*
X000371Y014857D01*
X000371Y014847D01*
X000372Y014838D01*
X000372Y014828D01*
X000373Y014819D01*
X000373Y014810D01*
X000374Y014802D01*
X000374Y014793D01*
X000374Y014785D01*
X000374Y014776D01*
X000375Y014768D01*
X000375Y014760D01*
X000375Y014752D01*
X000375Y014744D01*
X000375Y014736D01*
X000375Y014728D01*
X000374Y014720D01*
X000374Y014711D01*
X000374Y014702D01*
X000373Y014693D01*
X000372Y014683D01*
X000372Y014673D01*
X000371Y014662D01*
X000370Y014650D01*
X000369Y014638D01*
X000367Y014625D01*
X000366Y014612D01*
X000364Y014598D01*
X000363Y014583D01*
X000360Y014568D01*
X000358Y014552D01*
X000356Y014535D01*
X000353Y014519D01*
X000350Y014502D01*
X000347Y014484D01*
X000344Y014466D01*
X000341Y014448D01*
X000337Y014430D01*
X000333Y014412D01*
X000330Y014393D01*
X000326Y014374D01*
X000322Y014355D01*
X000317Y014336D01*
X000313Y014317D01*
X000309Y014297D01*
X000304Y014277D01*
X000300Y014258D01*
X000295Y014238D01*
X000291Y014218D01*
X000286Y014197D01*
X000281Y014177D01*
X000276Y014157D01*
X000272Y014136D01*
X000267Y014115D01*
X000262Y014094D01*
X000257Y014073D01*
X000252Y014052D01*
X000247Y014030D01*
X000242Y014009D01*
X000238Y013987D01*
X000233Y013965D01*
X000228Y013943D01*
X000223Y013921D01*
X000218Y013899D01*
X000213Y013877D01*
X000208Y013855D01*
X000203Y013832D01*
X000199Y013809D01*
X000194Y013787D01*
X000190Y013764D01*
X000186Y013740D01*
X000181Y013717D01*
X000177Y013693D01*
X000174Y013670D01*
X000170Y013646D01*
X000166Y013621D01*
X000163Y013596D01*
X000159Y013571D01*
X000156Y013545D01*
X000153Y013519D01*
X000150Y013492D01*
X000147Y013463D01*
X000144Y013434D01*
X000142Y013403D01*
X000139Y013371D01*
X000136Y013337D01*
X000134Y013301D01*
X000132Y013262D01*
X000130Y013220D01*
X000128Y013175D01*
X000126Y013127D01*
X000124Y013075D01*
X000123Y013019D01*
X000122Y012959D01*
X000121Y012895D01*
X000120Y012826D01*
X000120Y012753D01*
X000120Y012676D01*
X000120Y012594D01*
X000120Y012508D01*
X000120Y012419D01*
X000121Y012326D01*
X000122Y012230D01*
X000122Y012131D01*
X000123Y012030D01*
X000124Y011928D01*
X000126Y011825D01*
X000127Y011723D01*
X000128Y011621D01*
X000129Y011520D01*
X000130Y011421D01*
X000131Y011325D01*
X000132Y011231D01*
X000133Y011141D01*
X000134Y011055D01*
X000135Y010972D01*
X000136Y010893D01*
X000137Y010818D01*
X000138Y010746D01*
X000139Y010678D01*
X000140Y010613D01*
X000140Y010551D01*
X000141Y010491D01*
X000142Y010434D01*
X000142Y010379D01*
X000143Y010327D01*
X000143Y010276D01*
X000144Y010228D01*
X000144Y010181D01*
X000144Y010136D01*
X000145Y010094D01*
X000145Y010053D01*
X000145Y010013D01*
X000145Y009975D01*
X000145Y009939D01*
X000145Y009903D01*
X000144Y009869D01*
X000144Y009834D01*
X000143Y009800D01*
X000143Y009765D01*
X000142Y009729D01*
X000142Y009692D01*
X000141Y009653D01*
X000140Y009612D01*
X000139Y009569D01*
X000139Y009524D01*
X000139Y009477D01*
X000139Y009428D01*
X000139Y009376D01*
X000140Y009323D01*
X000141Y009268D01*
X000142Y009211D01*
X000144Y009153D01*
X000147Y009095D01*
X000150Y009035D01*
X000154Y008976D01*
X000158Y008916D01*
X000163Y008856D01*
X000168Y008796D01*
X000174Y008737D01*
X000180Y008678D01*
X000186Y008619D01*
X000193Y008561D01*
X000199Y008504D01*
X000206Y008447D01*
X000213Y008391D01*
X000220Y008336D01*
X000227Y008281D01*
X000234Y008228D01*
X000241Y008175D01*
X000248Y008123D01*
X000255Y008072D01*
X000261Y008022D01*
X000268Y007972D01*
X000274Y007923D01*
X000281Y007876D01*
X000287Y007829D01*
X000293Y007782D01*
X000299Y007737D01*
X000305Y007692D01*
X000311Y007648D01*
X000317Y007604D01*
X000322Y007561D01*
X000327Y007518D01*
X000333Y007476D01*
X000338Y007435D01*
X000342Y007394D01*
X000347Y007354D01*
X000351Y007314D01*
X000355Y007275D01*
X000359Y007237D01*
X000362Y007200D01*
X000364Y007163D01*
X000367Y007128D01*
X000369Y007093D01*
X000370Y007060D01*
X000371Y007028D01*
X000372Y006997D01*
X000372Y006967D01*
X000372Y006939D01*
X000372Y006912D01*
X000372Y006886D01*
X000371Y006862D01*
X000371Y006839D01*
X000370Y006818D01*
X000369Y006797D01*
X000368Y006778D01*
X000368Y006760D01*
X000367Y006743D01*
X000367Y006726D01*
X000366Y006710D01*
X000366Y006694D01*
X000366Y006678D01*
X000366Y006662D01*
X000367Y006647D01*
X000368Y006631D01*
X000369Y006614D01*
X000370Y006598D01*
X000372Y006581D01*
X000375Y006564D01*
X000378Y006546D01*
X000381Y006528D01*
X000385Y006509D01*
X000390Y006490D01*
X000395Y006471D01*
X000400Y006451D01*
X000407Y006431D01*
X000413Y006410D01*
X000420Y006389D01*
X000427Y006367D01*
X000434Y006344D01*
X000441Y006321D01*
X000448Y006298D01*
X000455Y006274D01*
X000462Y006249D01*
X000468Y006223D01*
X000474Y006197D01*
X000480Y006171D01*
X000485Y006144D01*
X000490Y006117D01*
X000495Y006089D01*
X000500Y006062D01*
X000504Y006034D01*
X000507Y006006D01*
X000511Y005978D01*
X000514Y005951D01*
X000517Y005924D01*
X000519Y005896D01*
X000521Y005870D01*
X000523Y005843D01*
X000525Y005817D01*
X000526Y005791D01*
X000527Y005766D01*
X000528Y005741D01*
X000528Y005717D01*
X000528Y005693D01*
X000528Y005670D01*
X000528Y005648D01*
X000527Y005626D01*
X000527Y005606D01*
X000526Y005587D01*
X000525Y005569D01*
X000524Y005551D01*
X000522Y005536D01*
X000521Y005521D01*
X000520Y005507D01*
X000519Y005495D01*
X000518Y005483D01*
X000517Y005472D01*
X000516Y005461D01*
X000515Y005451D01*
X000514Y005441D01*
X000513Y005431D01*
X000512Y005420D01*
X000510Y005410D01*
X000509Y005399D01*
X000508Y005387D01*
X000507Y005375D01*
X000506Y005363D01*
X000504Y005351D01*
X000503Y005339D01*
X000502Y005327D01*
X000501Y005316D01*
X000498Y005295D01*
X000497Y005285D01*
X000496Y005277D01*
X000496Y005269D01*
X000495Y005263D01*
X000494Y005257D01*
X000494Y005252D01*
X000494Y005248D01*
X000494Y005245D01*
X000494Y005242D01*
X000494Y005239D01*
X000494Y005236D01*
X000495Y005234D01*
X000496Y005231D01*
X000497Y005228D01*
X000498Y005224D01*
X000500Y005220D01*
X000503Y005214D01*
X000505Y005208D01*
X000509Y005202D01*
X000512Y005194D01*
X000516Y005185D01*
X000520Y005176D01*
X000525Y005166D01*
X000530Y005156D01*
X000535Y005145D01*
X000540Y005134D01*
X000545Y005123D01*
X000550Y005113D01*
X000554Y005102D01*
X000559Y005092D01*
X000564Y005082D01*
X000568Y005073D01*
X000572Y005065D01*
X000575Y005056D01*
X000579Y005048D01*
X000583Y005041D01*
X000586Y005033D01*
X000589Y005026D01*
X000593Y005018D01*
X000596Y005010D01*
X000600Y005001D01*
X000604Y004992D01*
X000608Y004982D01*
X000612Y004972D01*
X000616Y004960D01*
X000621Y004948D01*
X000625Y004935D01*
X000630Y004921D01*
X000635Y004906D01*
X000640Y004891D01*
X000645Y004875D01*
X000649Y004858D01*
X000654Y004841D01*
X000659Y004823D01*
X000663Y004805D01*
X000668Y004786D01*
X000672Y004767D01*
X000676Y004748D01*
X000680Y004728D01*
X000684Y004708D01*
X000688Y004689D01*
X000692Y004669D01*
X000696Y004649D01*
X000700Y004629D01*
X000703Y004610D01*
X000707Y004591D01*
X000710Y004572D01*
X000714Y004553D01*
X000717Y004535D01*
X000721Y004517D01*
X000724Y004500D01*
X000727Y004483D01*
X000730Y004467D01*
X000733Y004451D01*
X000736Y004435D01*
X000739Y004420D01*
X000741Y004405D01*
X000744Y004391D01*
X000747Y004376D01*
X000749Y004362D01*
X000752Y004348D01*
X000754Y004335D01*
X000757Y004321D01*
X000760Y004308D01*
X000762Y004294D01*
X000765Y004281D01*
X000768Y004267D01*
X000770Y004254D01*
X000773Y004240D01*
X000776Y004226D01*
X000779Y004213D01*
X000782Y004199D01*
X000785Y004185D01*
X000788Y004171D01*
X000791Y004158D01*
X000794Y004144D01*
X000798Y004130D01*
X000801Y004115D01*
X000804Y004101D01*
X000808Y004087D01*
X000811Y004073D01*
X000815Y004059D01*
X000818Y004044D01*
X000822Y004030D01*
X000825Y004016D01*
X000829Y004001D01*
X000833Y003987D01*
X000836Y003973D01*
X000840Y003958D01*
X000844Y003944D01*
X000847Y003930D01*
X000851Y003916D01*
X000855Y003902D01*
X000859Y003888D01*
X000863Y003873D01*
X000867Y003859D01*
X000871Y003845D01*
X000875Y003832D01*
X000879Y003818D01*
X000883Y003804D01*
X000887Y003790D01*
X000891Y003775D01*
X000895Y003761D01*
X000899Y003747D01*
X000903Y003732D01*
X000908Y003717D01*
X000912Y003702D01*
X000917Y003687D01*
X000921Y003671D01*
X000926Y003654D01*
X000931Y003638D01*
X000936Y003620D01*
X000941Y003603D01*
X000946Y003585D01*
X000952Y003566D01*
X000957Y003548D01*
X000963Y003529D01*
X000968Y003509D01*
X000974Y003489D01*
X000980Y003470D01*
X000985Y003450D01*
X000991Y003430D01*
X000997Y003410D01*
X001002Y003390D01*
X001008Y003370D01*
X001013Y003350D01*
X001018Y003330D01*
X001023Y003310D01*
X001028Y003291D01*
X001033Y003272D01*
X001037Y003253D01*
X001041Y003235D01*
X001045Y003217D01*
X001048Y003200D01*
X001052Y003183D01*
X001055Y003167D01*
X001057Y003152D01*
X001060Y003137D01*
X001062Y003124D01*
X001064Y003110D01*
X001066Y003097D01*
X001068Y003085D01*
X001070Y003072D01*
X001072Y003060D01*
X001073Y003047D01*
X001075Y003033D01*
X001077Y003019D01*
X001079Y003003D01*
X001081Y002985D01*
X001084Y002966D01*
X001086Y002945D01*
X001089Y002923D01*
X001092Y002898D01*
X001095Y002872D01*
X001099Y002845D01*
X001102Y002817D01*
X001106Y002789D01*
X001110Y002760D01*
X001113Y002732D01*
X001117Y002705D01*
X001120Y002680D01*
X001123Y002656D01*
X001126Y002634D01*
X001128Y002614D01*
X001130Y002597D01*
X001132Y002582D01*
X001134Y002569D01*
X001136Y002558D01*
X001137Y002549D01*
X001139Y002542D01*
X001140Y002537D01*
X001142Y002532D01*
X001144Y002529D01*
X001146Y002526D01*
X001150Y002524D01*
X001153Y002522D01*
X001158Y002520D01*
X001164Y002518D01*
X001171Y002516D01*
X001179Y002513D01*
X001188Y002511D01*
X001198Y002508D01*
X001209Y002505D01*
X001221Y002502D01*
X001234Y002498D01*
X001248Y002494D01*
X001262Y002490D01*
X001276Y002487D01*
X001290Y002483D01*
X001303Y002479D01*
X001316Y002476D01*
X001328Y002472D01*
X001339Y002469D01*
X001349Y002466D01*
X001358Y002464D01*
X001366Y002461D01*
X001372Y002459D01*
X001378Y002458D01*
X001383Y002456D01*
X001386Y002455D01*
X001389Y002454D01*
X001391Y002453D01*
X001393Y002452D01*
X001394Y002451D01*
X001395Y002450D01*
X001396Y002449D01*
X001396Y002448D01*
X001397Y002447D01*
X001397Y002446D01*
X001397Y002445D01*
X001397Y002444D01*
X001397Y002443D01*
X001397Y002442D01*
X001397Y002441D01*
X001397Y002440D01*
X001398Y002440D01*
X001398Y002439D01*
X001398Y002438D01*
X001398Y002437D01*
X001398Y002436D01*
X001398Y002435D01*
X001398Y002434D01*
X001398Y002433D01*
X001398Y002432D01*
X001398Y002431D01*
X001398Y002430D01*
X001398Y002429D01*
X001398Y002428D01*
X001398Y002426D01*
X001398Y002424D01*
X001399Y002421D01*
X001399Y002417D01*
X001399Y002413D01*
X001399Y002407D01*
X001400Y002401D01*
X001400Y002393D01*
X001400Y002383D01*
X001401Y002372D01*
X001402Y002360D01*
X001402Y002346D01*
X001403Y002331D01*
X001404Y002315D01*
X001405Y002298D01*
X001405Y002280D01*
X001406Y002262D01*
X001407Y002244D01*
X001408Y002226D01*
X001409Y002209D01*
X001410Y002193D01*
X001410Y002178D01*
X001411Y002164D01*
X001412Y002152D01*
X001412Y002141D01*
X001413Y002131D01*
X001413Y002123D01*
X001414Y002116D01*
X001415Y002111D01*
X001415Y002106D01*
X001416Y002102D01*
X001418Y002098D01*
X001419Y002095D01*
X001422Y002092D01*
X001425Y002088D01*
X001428Y002084D01*
X001433Y002080D01*
X001439Y002075D01*
X001445Y002069D01*
X001453Y002062D01*
X001462Y002054D01*
X001472Y002045D01*
X001483Y002035D01*
X001495Y002024D01*
X001507Y002013D01*
X001521Y002001D01*
X001535Y001989D01*
X001549Y001976D01*
X001564Y001962D01*
X001580Y001948D01*
X001596Y001934D01*
X001613Y001919D01*
X001631Y001902D01*
X001651Y001884D01*
X001674Y001865D01*
X001699Y001842D01*
X001727Y001817D01*
X001760Y001789D01*
X001798Y001756D01*
X001398Y002435D02*
X001398Y002435D01*
X001397Y002445D02*
X001397Y002445D01*
X001396Y002449D02*
X001396Y002449D01*
X032609Y013320D02*
X032609Y013320D01*
X032609Y013320D01*
X032609Y013320D01*
X032609Y013320D01*
X032609Y013320D01*
X032609Y013320D01*
X032609Y013320D01*
X032609Y013320D01*
X032609Y013320D01*
X032609Y013320D01*
X032609Y013320D01*
X032609Y013320D01*
X032609Y013320D01*
X032609Y013320D01*
X032609Y013320D01*
X032609Y013320D01*
X032610Y013317D02*
X032610Y013317D01*
D12*
X017589Y013383D02*
X017589Y012863D01*
X016589Y012863D02*
X016589Y013383D01*
X015589Y013383D02*
X015589Y012863D01*
X014589Y012863D02*
X014589Y013383D01*
X014589Y010383D02*
X014589Y009863D01*
X015589Y009863D02*
X015589Y010383D01*
X016589Y010383D02*
X016589Y009863D01*
X017589Y009863D02*
X017589Y010383D01*
X017089Y005883D02*
X017089Y005363D01*
X016089Y005363D02*
X016089Y005883D01*
X015089Y005883D02*
X015089Y005363D01*
D13*
X013839Y007373D03*
X013839Y008623D03*
X013339Y011123D03*
X013339Y012123D03*
X011339Y011873D03*
X008839Y009373D03*
X007339Y011873D03*
X006589Y006373D03*
X006589Y005373D03*
X008839Y005373D03*
X017839Y007373D03*
X017839Y008623D03*
D14*
X020509Y018733D02*
X021109Y018733D01*
X023069Y018733D02*
X023669Y018733D01*
X023669Y020513D02*
X023069Y020513D01*
X021109Y020513D02*
X020509Y020513D01*
D15*
X016839Y014623D03*
X015839Y014623D03*
X014839Y014623D03*
D16*
X011339Y014123D03*
D17*
X012339Y014123D03*
D18*
X019339Y013873D03*
X019839Y014623D03*
X020339Y013873D03*
X019839Y011873D03*
X019339Y011123D03*
X020339Y011123D03*
X019839Y009123D03*
X019339Y008373D03*
X020339Y008373D03*
X019839Y006623D03*
X019339Y005873D03*
X020339Y005873D03*
D19*
X033089Y009373D03*
X033089Y010373D03*
X033589Y005873D03*
X033589Y004873D03*
X033339Y016373D03*
X033339Y017373D03*
X033089Y020873D03*
X033089Y021873D03*
D20*
X011839Y008373D03*
X010839Y008373D03*
X010839Y007373D03*
X011839Y007373D03*
X011839Y006373D03*
X010839Y006373D03*
D21*
X006589Y010373D03*
X006589Y013873D03*
D22*
X007339Y011873D02*
X007839Y011873D01*
X008589Y011123D01*
X010839Y008873D01*
X010839Y008373D01*
X011839Y008373D02*
X011839Y009373D01*
X011589Y009623D01*
X010089Y011123D01*
X010089Y012623D01*
X010589Y013123D01*
X013339Y013123D01*
X014339Y012123D01*
X017089Y012123D01*
X017589Y012623D01*
X017589Y013123D01*
X017589Y014123D01*
X019089Y015623D01*
X019089Y017623D01*
X019089Y018123D01*
X019699Y018733D01*
X020809Y018733D01*
X023369Y018733D01*
X021089Y014623D02*
X019839Y014623D01*
X021089Y014623D02*
X021589Y014123D01*
X021589Y011623D01*
X021589Y011873D01*
X019839Y011873D01*
X021589Y011623D02*
X021589Y009123D01*
X019839Y009123D01*
X021589Y009123D02*
X021589Y007123D01*
X021089Y006623D01*
X019839Y006623D01*
X018589Y006623D01*
X017839Y007373D01*
X017089Y006623D01*
X017089Y005623D01*
X016089Y005623D02*
X016089Y006873D01*
X017839Y008623D01*
X015589Y010123D02*
X015589Y010623D01*
X015089Y011123D01*
X014339Y011123D01*
X013339Y010123D01*
X012839Y010123D01*
X012839Y006623D01*
X012589Y006373D01*
X011839Y006373D01*
X010839Y006373D02*
X010839Y004123D01*
X005589Y004123D01*
X004589Y005123D01*
X004589Y006373D01*
X006589Y006373D01*
X006589Y005373D02*
X008839Y005373D01*
X010839Y004123D02*
X015089Y004123D01*
X015089Y005623D01*
X013839Y005373D02*
X013839Y007373D01*
X012839Y010123D02*
X012589Y010123D01*
X011589Y011123D01*
X011339Y011373D01*
X011339Y011873D01*
X012339Y014123D02*
X012339Y015873D01*
X011589Y016623D01*
X005589Y016623D01*
X005089Y016123D01*
X005089Y011873D01*
X006589Y010373D01*
X004589Y008373D01*
X004589Y006373D01*
X015089Y004123D02*
X022589Y004123D01*
X024339Y005873D01*
X029589Y005873D01*
X029589Y010373D01*
X033089Y010373D01*
X029589Y010373D02*
X029589Y017373D01*
X033339Y017373D01*
X029589Y017373D02*
X029589Y021123D01*
X030339Y021873D01*
X033089Y021873D01*
X016839Y014623D02*
X016839Y013873D01*
X016589Y013623D01*
X016589Y013123D01*
X015589Y013123D02*
X015589Y013623D01*
X014839Y014373D01*
X014839Y014623D01*
X029589Y005873D02*
X033589Y005873D01*
D23*
X013839Y005373D03*
M02*
