%
M48
M72
T01C0.0236
T02C0.0320
T03C0.0354
T04C0.0400
T05C0.1260
%
T01
X13839Y5373
T02
X6589Y5373
X6589Y6373
X8839Y5373
X13839Y7373
X13839Y8623
X14589Y10123
X15589Y10123
X16589Y10123
X17589Y10123
X19339Y11123
X19839Y11873
X20339Y11123
X19839Y9123
X19339Y8373
X20339Y8373
X19839Y6623
X19339Y5873
X20339Y5873
X17839Y7373
X17839Y8623
X17089Y5623
X16089Y5623
X15089Y5623
X8839Y9373
X7339Y11873
X11339Y11873
X13339Y12123
X13339Y11123
X14589Y13123
X15589Y13123
X16589Y13123
X17589Y13123
X19339Y13873
X19839Y14623
X20339Y13873
X12339Y14123
X11339Y14123
T03
X14839Y14623
X15839Y14623
X16839Y14623
T04
X20809Y18733
X20809Y20513
X23369Y20513
X23369Y18733
X11839Y8373
X10839Y8373
X10839Y7373
X11839Y7373
X11839Y6373
X10839Y6373
X6589Y10373
X6589Y13873
T05
X1735Y11765
M30
