G75*
G70*
%OFA0B0*%
%FSLAX24Y24*%
%IPPOS*%
%LPD*%
%AMOC8*
5,1,8,0,0,1.08239X$1,22.5*
%
%ADD10R,0.0033X0.0017*%
%ADD11R,0.0050X0.0017*%
%ADD12R,0.0050X0.0017*%
%ADD13R,0.0067X0.0017*%
%ADD14R,0.0084X0.0017*%
%ADD15R,0.0117X0.0017*%
%ADD16R,0.0133X0.0017*%
%ADD17R,0.0150X0.0017*%
%ADD18R,0.0150X0.0017*%
%ADD19R,0.0167X0.0017*%
%ADD20R,0.0016X0.0017*%
%ADD21R,0.0217X0.0017*%
%ADD22R,0.0217X0.0017*%
%ADD23R,0.0233X0.0017*%
%ADD24R,0.0250X0.0017*%
%ADD25R,0.0250X0.0017*%
%ADD26R,0.0316X0.0017*%
%ADD27R,0.0317X0.0017*%
%ADD28R,0.0350X0.0017*%
%ADD29R,0.0383X0.0017*%
%ADD30R,0.0400X0.0017*%
%ADD31R,0.0417X0.0017*%
%ADD32R,0.0417X0.0017*%
%ADD33R,0.0433X0.0017*%
%ADD34R,0.0017X0.0017*%
%ADD35R,0.0450X0.0017*%
%ADD36R,0.0017X0.0017*%
%ADD37R,0.0483X0.0017*%
%ADD38R,0.0016X0.0017*%
%ADD39R,0.0500X0.0017*%
%ADD40R,0.0516X0.0017*%
%ADD41R,0.0517X0.0017*%
%ADD42R,0.0533X0.0017*%
%ADD43R,0.0583X0.0017*%
%ADD44R,0.0583X0.0017*%
%ADD45R,0.0600X0.0017*%
%ADD46R,0.0616X0.0017*%
%ADD47R,0.0617X0.0017*%
%ADD48R,0.0034X0.0017*%
%ADD49R,0.0633X0.0017*%
%ADD50R,0.0717X0.0017*%
%ADD51R,0.0716X0.0017*%
%ADD52R,0.0733X0.0017*%
%ADD53R,0.0084X0.0017*%
%ADD54R,0.1683X0.0017*%
%ADD55R,0.0850X0.0017*%
%ADD56R,0.1184X0.0017*%
%ADD57R,0.0083X0.0017*%
%ADD58R,0.0066X0.0017*%
%ADD59R,0.0117X0.0017*%
%ADD60R,0.0100X0.0017*%
%ADD61R,0.0116X0.0017*%
%ADD62R,0.1266X0.0017*%
%ADD63R,0.1417X0.0017*%
%ADD64R,0.1750X0.0017*%
%ADD65R,0.0517X0.0017*%
%ADD66R,0.1483X0.0017*%
%ADD67R,0.0183X0.0017*%
%ADD68R,0.2716X0.0017*%
%ADD69R,0.3816X0.0017*%
%ADD70R,0.0033X0.0017*%
%ADD71R,0.0317X0.0017*%
%ADD72R,0.0167X0.0017*%
%ADD73R,0.3083X0.0017*%
%ADD74R,0.4167X0.0017*%
%ADD75R,0.0034X0.0017*%
%ADD76R,0.0383X0.0017*%
%ADD77R,0.0216X0.0017*%
%ADD78R,0.2750X0.0017*%
%ADD79R,0.4283X0.0017*%
%ADD80R,0.0184X0.0017*%
%ADD81R,0.1116X0.0017*%
%ADD82R,0.1950X0.0017*%
%ADD83R,0.2117X0.0017*%
%ADD84R,0.0184X0.0017*%
%ADD85R,0.0083X0.0017*%
%ADD86R,0.1650X0.0017*%
%ADD87R,0.2650X0.0017*%
%ADD88R,0.1250X0.0017*%
%ADD89R,0.3083X0.0017*%
%ADD90R,0.4633X0.0017*%
%ADD91R,0.4250X0.0017*%
%ADD92R,0.4484X0.0017*%
%ADD93R,0.4584X0.0017*%
%ADD94R,0.9116X0.0017*%
%ADD95R,0.9117X0.0017*%
%ADD96R,0.9117X0.0017*%
%ADD97R,0.9150X0.0017*%
%ADD98R,0.6333X0.0017*%
%ADD99R,0.2767X0.0017*%
%ADD100R,0.6367X0.0017*%
%ADD101R,0.2517X0.0017*%
%ADD102R,0.6617X0.0017*%
%ADD103R,0.2517X0.0017*%
%ADD104R,0.6384X0.0017*%
%ADD105R,0.2466X0.0017*%
%ADD106R,0.2366X0.0017*%
%ADD107R,0.6366X0.0017*%
%ADD108R,0.2467X0.0017*%
%ADD109R,0.6350X0.0017*%
%ADD110R,0.2383X0.0017*%
%ADD111R,0.6383X0.0017*%
%ADD112R,0.2467X0.0017*%
%ADD113R,0.2400X0.0017*%
%ADD114R,0.2417X0.0017*%
%ADD115R,0.6333X0.0017*%
%ADD116R,0.1567X0.0017*%
%ADD117R,0.0817X0.0017*%
%ADD118R,0.2500X0.0017*%
%ADD119R,0.6334X0.0017*%
%ADD120R,0.6317X0.0017*%
%ADD121R,0.2533X0.0017*%
%ADD122R,0.6317X0.0017*%
%ADD123R,0.2550X0.0017*%
%ADD124R,0.6300X0.0017*%
%ADD125R,0.1817X0.0017*%
%ADD126R,0.0783X0.0017*%
%ADD127R,0.6284X0.0017*%
%ADD128R,0.2583X0.0017*%
%ADD129R,0.6284X0.0017*%
%ADD130R,0.2600X0.0017*%
%ADD131R,0.6267X0.0017*%
%ADD132R,0.2583X0.0017*%
%ADD133R,0.6267X0.0017*%
%ADD134R,0.2683X0.0017*%
%ADD135R,0.6250X0.0017*%
%ADD136R,0.2617X0.0017*%
%ADD137R,0.6217X0.0017*%
%ADD138R,0.6200X0.0017*%
%ADD139R,0.2750X0.0017*%
%ADD140R,0.6200X0.0017*%
%ADD141R,0.2717X0.0017*%
%ADD142R,0.6183X0.0017*%
%ADD143R,0.1984X0.0017*%
%ADD144R,0.0716X0.0017*%
%ADD145R,0.1017X0.0017*%
%ADD146R,0.1050X0.0017*%
%ADD147R,0.0784X0.0017*%
%ADD148R,0.0650X0.0017*%
%ADD149R,0.0483X0.0017*%
%ADD150R,0.0950X0.0017*%
%ADD151R,0.0916X0.0017*%
%ADD152R,0.0700X0.0017*%
%ADD153R,0.0584X0.0017*%
%ADD154R,0.0734X0.0017*%
%ADD155R,0.0884X0.0017*%
%ADD156R,0.0816X0.0017*%
%ADD157R,0.0283X0.0017*%
%ADD158R,0.0617X0.0017*%
%ADD159R,0.0684X0.0017*%
%ADD160R,0.0750X0.0017*%
%ADD161R,0.0283X0.0017*%
%ADD162R,0.0683X0.0017*%
%ADD163R,0.0800X0.0017*%
%ADD164R,0.0783X0.0017*%
%ADD165R,0.0350X0.0017*%
%ADD166R,0.0133X0.0017*%
%ADD167R,0.0200X0.0017*%
%ADD168R,0.0734X0.0017*%
%ADD169R,0.0767X0.0017*%
%ADD170R,0.0434X0.0017*%
%ADD171R,0.0300X0.0017*%
%ADD172R,0.0550X0.0017*%
%ADD173R,0.0134X0.0017*%
%ADD174R,0.0766X0.0017*%
%ADD175R,0.0700X0.0017*%
%ADD176R,0.0234X0.0017*%
%ADD177R,0.0066X0.0017*%
%ADD178R,0.0850X0.0017*%
%ADD179R,0.0883X0.0017*%
%ADD180R,0.0684X0.0017*%
%ADD181R,0.0200X0.0017*%
%ADD182R,0.0917X0.0017*%
%ADD183R,0.0650X0.0017*%
%ADD184R,0.0450X0.0017*%
%ADD185R,0.0067X0.0017*%
%ADD186R,0.0917X0.0017*%
%ADD187R,0.0284X0.0017*%
%ADD188R,0.0634X0.0017*%
%ADD189R,0.0267X0.0017*%
%ADD190R,0.0433X0.0017*%
%ADD191R,0.0267X0.0017*%
%ADD192R,0.0950X0.0017*%
%ADD193R,0.1350X0.0017*%
%ADD194R,0.0567X0.0017*%
%ADD195R,0.0166X0.0017*%
%ADD196R,0.0234X0.0017*%
%ADD197R,0.1367X0.0017*%
%ADD198R,0.1384X0.0017*%
%ADD199R,0.0216X0.0017*%
%ADD200R,0.0100X0.0017*%
%ADD201R,0.0634X0.0017*%
%ADD202R,0.1383X0.0017*%
%ADD203R,0.0534X0.0017*%
%ADD204R,0.0266X0.0017*%
%ADD205R,0.1400X0.0017*%
%ADD206R,0.0166X0.0017*%
%ADD207R,0.1384X0.0017*%
%ADD208R,0.0333X0.0017*%
%ADD209R,0.1416X0.0017*%
%ADD210R,0.0316X0.0017*%
%ADD211R,0.0367X0.0017*%
%ADD212R,0.0366X0.0017*%
%ADD213R,0.0500X0.0017*%
%ADD214R,0.0600X0.0017*%
%ADD215R,0.1416X0.0017*%
%ADD216R,0.0384X0.0017*%
%ADD217R,0.0484X0.0017*%
%ADD218R,0.0933X0.0017*%
%ADD219R,0.0333X0.0017*%
%ADD220R,0.0266X0.0017*%
%ADD221R,0.0384X0.0017*%
%ADD222R,0.0367X0.0017*%
%ADD223R,0.0366X0.0017*%
%ADD224R,0.0400X0.0017*%
%ADD225R,0.0900X0.0017*%
%ADD226R,0.0334X0.0017*%
%ADD227R,0.0884X0.0017*%
%ADD228R,0.0334X0.0017*%
%ADD229R,0.0183X0.0017*%
%ADD230R,0.0667X0.0017*%
%ADD231R,0.0833X0.0017*%
%ADD232R,0.0467X0.0017*%
%ADD233R,0.0284X0.0017*%
%ADD234R,0.0300X0.0017*%
%ADD235R,0.0467X0.0017*%
%ADD236R,0.0550X0.0017*%
%ADD237R,0.1484X0.0017*%
%ADD238R,0.0233X0.0017*%
%ADD239R,0.0416X0.0017*%
%ADD240R,0.2683X0.0017*%
%ADD241R,0.1450X0.0017*%
%ADD242R,0.2633X0.0017*%
%ADD243R,0.1467X0.0017*%
%ADD244R,0.2600X0.0017*%
%ADD245R,0.1484X0.0017*%
%ADD246R,0.2434X0.0017*%
%ADD247R,0.2400X0.0017*%
%ADD248R,0.1516X0.0017*%
%ADD249R,0.0566X0.0017*%
%ADD250R,0.1500X0.0017*%
%ADD251R,0.1466X0.0017*%
%ADD252R,0.2550X0.0017*%
%ADD253R,0.2417X0.0017*%
%ADD254R,0.1500X0.0017*%
%ADD255R,0.2567X0.0017*%
%ADD256R,0.1516X0.0017*%
%ADD257R,0.0584X0.0017*%
%ADD258R,0.0683X0.0017*%
%ADD259R,0.2617X0.0017*%
%ADD260R,0.2650X0.0017*%
%ADD261R,0.2667X0.0017*%
%ADD262R,0.1450X0.0017*%
%ADD263R,0.0816X0.0017*%
%ADD264R,0.2667X0.0017*%
%ADD265R,0.0784X0.0017*%
%ADD266R,0.2717X0.0017*%
%ADD267R,0.2450X0.0017*%
%ADD268R,0.1550X0.0017*%
%ADD269R,0.9300X0.0017*%
%ADD270R,0.9317X0.0017*%
%ADD271R,0.9283X0.0017*%
%ADD272R,0.9533X0.0017*%
%ADD273R,0.9483X0.0017*%
%ADD274R,0.9550X0.0017*%
%ADD275R,0.8983X0.0017*%
%ADD276R,0.9517X0.0017*%
%ADD277R,0.9267X0.0017*%
%ADD278R,0.9350X0.0017*%
%ADD279R,0.9367X0.0017*%
%ADD280R,0.9384X0.0017*%
%ADD281R,0.9384X0.0017*%
%ADD282R,0.0516X0.0017*%
%ADD283R,0.8817X0.0017*%
%ADD284R,0.8817X0.0017*%
%ADD285R,0.9450X0.0017*%
%ADD286R,0.8584X0.0017*%
%ADD287R,0.8667X0.0017*%
%ADD288R,0.8584X0.0017*%
%ADD289R,0.0616X0.0017*%
%ADD290R,0.8650X0.0017*%
%ADD291R,0.8950X0.0017*%
%ADD292R,0.9283X0.0017*%
%ADD293R,0.9217X0.0017*%
%ADD294R,0.9183X0.0017*%
%ADD295R,0.3184X0.0017*%
%ADD296R,0.5950X0.0017*%
%ADD297R,0.2584X0.0017*%
%ADD298R,0.6184X0.0017*%
%ADD299R,0.2484X0.0017*%
%ADD300R,0.5183X0.0017*%
%ADD301R,0.1716X0.0017*%
%ADD302R,0.1383X0.0017*%
%ADD303R,0.5750X0.0017*%
%ADD304R,0.1083X0.0017*%
%ADD305R,0.2984X0.0017*%
%ADD306R,0.0717X0.0017*%
%ADD307R,0.1150X0.0017*%
%ADD308R,0.0966X0.0017*%
%ADD309R,0.0984X0.0017*%
%ADD310C,0.0070*%
%ADD311C,0.0050*%
%ADD312C,0.0197*%
%ADD313C,0.0120*%
%ADD314C,0.0060*%
%ADD315R,0.0340X0.0240*%
%ADD316C,0.0100*%
%ADD317R,0.0250X0.1000*%
D10*
X028872Y009065D03*
X028822Y009265D03*
X028772Y009265D03*
X028772Y009315D03*
X028672Y009265D03*
X028622Y009281D03*
X028589Y009615D03*
X031822Y008565D03*
X032139Y008581D03*
X032589Y008581D03*
X033222Y008565D03*
X033339Y008565D03*
X033639Y008565D03*
X035639Y008531D03*
X037439Y008465D03*
X037222Y007815D03*
X037389Y009531D03*
X038172Y010515D03*
X038089Y010581D03*
X037889Y011131D03*
X034839Y011065D03*
X029572Y011065D03*
X028389Y010815D03*
D11*
X028430Y010765D03*
X028530Y010631D03*
X028280Y010565D03*
X028447Y010465D03*
X030063Y010015D03*
X030063Y009981D03*
X030047Y009931D03*
X030047Y009915D03*
X030047Y009881D03*
X030563Y009881D03*
X030663Y010015D03*
X030780Y009565D03*
X030730Y009481D03*
X030713Y009465D03*
X030680Y009415D03*
X030663Y009381D03*
X030380Y009565D03*
X030397Y009615D03*
X031363Y009315D03*
X031597Y009281D03*
X031630Y009315D03*
X031663Y009381D03*
X031697Y009415D03*
X031730Y009481D03*
X032030Y009281D03*
X032130Y009915D03*
X032063Y010015D03*
X032730Y009881D03*
X032747Y009931D03*
X032747Y009965D03*
X032763Y009981D03*
X034663Y009915D03*
X035730Y009881D03*
X035797Y009981D03*
X035863Y010081D03*
X037363Y010881D03*
X037597Y011015D03*
X037830Y011015D03*
X037880Y011165D03*
X037897Y011181D03*
X038197Y010715D03*
X038197Y010681D03*
X038197Y010631D03*
X038197Y010615D03*
X038197Y010581D03*
X038180Y010531D03*
X038263Y010381D03*
X037997Y010515D03*
X037930Y010515D03*
X037980Y010265D03*
X037980Y010231D03*
X038097Y010115D03*
X038097Y010081D03*
X038113Y010065D03*
X038363Y009981D03*
X038680Y010265D03*
X037913Y009731D03*
X039163Y009415D03*
X038163Y009081D03*
X036313Y008331D03*
X037213Y007831D03*
X033963Y008581D03*
X033897Y008581D03*
X033830Y008581D03*
X033513Y008565D03*
X033313Y008665D03*
X033147Y008565D03*
X033130Y008581D03*
X032847Y008565D03*
X032663Y008581D03*
X032580Y008565D03*
X032513Y008565D03*
X032197Y008581D03*
X032030Y008615D03*
X028863Y009081D03*
X028863Y009115D03*
X028680Y009231D03*
X028613Y009265D03*
X028630Y009415D03*
X028613Y009531D03*
X028830Y008681D03*
X035447Y009331D03*
X034897Y011015D03*
X036147Y011065D03*
X031747Y011065D03*
X030880Y011065D03*
X030547Y011065D03*
X030380Y011065D03*
X030313Y011065D03*
X029747Y011065D03*
X028697Y010981D03*
D12*
X028597Y010948D03*
X028463Y010448D03*
X030047Y009898D03*
X030380Y009598D03*
X030697Y009448D03*
X030763Y009548D03*
X031613Y009298D03*
X031680Y009398D03*
X031747Y009498D03*
X032130Y009448D03*
X032063Y009348D03*
X031997Y009248D03*
X031363Y010048D03*
X032747Y009948D03*
X035430Y010048D03*
X035763Y009948D03*
X037980Y010198D03*
X038263Y010348D03*
X038197Y010448D03*
X038197Y010598D03*
X038197Y010698D03*
X038063Y010748D03*
X037363Y010848D03*
X034830Y011048D03*
X034763Y011048D03*
X030797Y011048D03*
X029113Y009698D03*
X028647Y009598D03*
X028597Y009548D03*
X028630Y009448D03*
X028647Y009398D03*
X028780Y009298D03*
X028963Y008948D03*
X028747Y008698D03*
X028830Y008648D03*
X028913Y008598D03*
X033280Y008598D03*
X033297Y008648D03*
X035630Y008548D03*
X036280Y008498D03*
X037197Y007848D03*
D13*
X037189Y007865D03*
X035889Y008531D03*
X033272Y008681D03*
X031739Y008565D03*
X031639Y009331D03*
X032089Y009381D03*
X032139Y009465D03*
X033089Y009681D03*
X033089Y009715D03*
X032739Y009915D03*
X032772Y010015D03*
X032772Y010031D03*
X032122Y009931D03*
X032089Y009981D03*
X030789Y009581D03*
X030589Y009915D03*
X030639Y009981D03*
X028622Y009631D03*
X028922Y008881D03*
X034672Y009931D03*
X035789Y009965D03*
X035822Y010015D03*
X035889Y010115D03*
X037439Y010031D03*
X038189Y010481D03*
X038189Y010565D03*
X028622Y010915D03*
X028589Y010965D03*
D14*
X030080Y010031D03*
X030630Y009965D03*
X031730Y009465D03*
X032080Y009365D03*
X032130Y009431D03*
X031980Y009215D03*
X032930Y008565D03*
X034130Y009631D03*
X034130Y009665D03*
X034130Y009731D03*
X035430Y010065D03*
X035830Y010031D03*
X035730Y009865D03*
X038180Y010381D03*
X038180Y010415D03*
X034980Y011015D03*
X028630Y009465D03*
X028630Y009431D03*
X028880Y008615D03*
X037180Y007881D03*
D15*
X037147Y007898D03*
X035447Y009298D03*
X036314Y009698D03*
X036297Y009748D03*
X036797Y009848D03*
X037014Y009898D03*
X037014Y009798D03*
X037447Y009998D03*
X037497Y009848D03*
X038097Y010248D03*
X037647Y010998D03*
X033597Y009848D03*
X033114Y009498D03*
X032897Y010148D03*
X030747Y010098D03*
X030414Y009698D03*
D16*
X033122Y009481D03*
X033122Y009465D03*
X034089Y009915D03*
X036289Y009865D03*
X036289Y009831D03*
X036322Y009681D03*
X036322Y009665D03*
X036522Y009881D03*
X036789Y009815D03*
X037222Y009815D03*
X037222Y009831D03*
X037222Y009881D03*
X037489Y009815D03*
X037139Y007915D03*
D17*
X037130Y007931D03*
X033530Y008665D03*
X032480Y008581D03*
X030647Y009315D03*
X030430Y009731D03*
X030447Y009781D03*
X031897Y010131D03*
X033130Y009431D03*
X034897Y010131D03*
X036280Y009881D03*
X036530Y009915D03*
X036547Y009781D03*
X036563Y009731D03*
X036697Y009665D03*
X036713Y009681D03*
X036730Y009715D03*
X036763Y009765D03*
X036780Y009781D03*
X036797Y009831D03*
X036780Y009915D03*
X037230Y009931D03*
X037263Y009965D03*
X037280Y009981D03*
X037280Y010015D03*
X037297Y010031D03*
X037330Y010065D03*
X037347Y010081D03*
X037363Y010131D03*
X037413Y010215D03*
X037430Y010231D03*
X037447Y009981D03*
X037480Y009915D03*
X037497Y009865D03*
X037497Y009831D03*
X037363Y009665D03*
X038030Y009731D03*
X038047Y009715D03*
X038047Y009581D03*
X036663Y009615D03*
X036647Y009581D03*
X036630Y009565D03*
X036580Y009481D03*
X036330Y009631D03*
X035447Y009281D03*
X038030Y010665D03*
X031963Y011065D03*
X028863Y008631D03*
D18*
X030447Y009748D03*
X031047Y009848D03*
X030847Y010148D03*
X030213Y010148D03*
X031680Y009848D03*
X031880Y010148D03*
X034080Y009948D03*
X034097Y009898D03*
X035113Y009848D03*
X036297Y009798D03*
X036313Y009648D03*
X036530Y009798D03*
X036680Y009648D03*
X036747Y009748D03*
X036797Y009898D03*
X036647Y010048D03*
X037230Y009898D03*
X037247Y009948D03*
X037313Y010048D03*
X037380Y010148D03*
X037447Y010248D03*
X038130Y010298D03*
X037497Y009898D03*
X037230Y009798D03*
X036613Y009548D03*
X038030Y009498D03*
X038047Y009698D03*
X038047Y009748D03*
X037513Y010848D03*
X036180Y011048D03*
X034080Y011048D03*
X033913Y011048D03*
X033413Y008648D03*
X037113Y007948D03*
D19*
X037089Y007965D03*
X037089Y007981D03*
X036322Y009615D03*
X036739Y009731D03*
X036272Y009915D03*
X037389Y010165D03*
X037472Y009931D03*
X038039Y009631D03*
X034089Y009931D03*
X030439Y009765D03*
D20*
X030380Y009581D03*
X030980Y009515D03*
X031080Y009515D03*
X031680Y009515D03*
X031030Y009865D03*
X029180Y009815D03*
X028580Y009915D03*
X028580Y009581D03*
X028630Y009565D03*
X028680Y009281D03*
X028780Y009281D03*
X028830Y009065D03*
X028880Y009015D03*
X028630Y009031D03*
X028780Y008681D03*
X032080Y008615D03*
X032080Y008581D03*
X032180Y008615D03*
X032230Y008565D03*
X032430Y008565D03*
X033580Y008581D03*
X033630Y008665D03*
X035880Y008515D03*
X036330Y008365D03*
X036480Y007981D03*
X037730Y008431D03*
X037080Y009215D03*
X037030Y009231D03*
X037430Y009465D03*
X037480Y009481D03*
X037430Y009531D03*
X036930Y009665D03*
X036830Y009665D03*
X036580Y009681D03*
X037130Y009931D03*
X036630Y010065D03*
X037180Y010481D03*
X037330Y010865D03*
X037780Y011015D03*
X037580Y011081D03*
X037480Y011081D03*
X037380Y011081D03*
X037280Y011081D03*
X036380Y011081D03*
X036280Y011081D03*
X036180Y011081D03*
X036030Y011065D03*
X035580Y011081D03*
X035180Y011081D03*
X034280Y011081D03*
X033980Y011081D03*
X032130Y011065D03*
X031830Y011065D03*
X030630Y011065D03*
X030230Y011065D03*
X030130Y011065D03*
X029930Y011065D03*
X029830Y011065D03*
X029630Y011065D03*
X029530Y011065D03*
X028830Y011065D03*
X028680Y011181D03*
X028580Y010981D03*
X028180Y010681D03*
X028580Y010281D03*
X033580Y009515D03*
X033630Y009865D03*
X035080Y009515D03*
X035780Y009515D03*
X035130Y009865D03*
X035430Y010031D03*
X037980Y010281D03*
X038030Y010331D03*
X038080Y010315D03*
X038180Y010281D03*
X038330Y010231D03*
X038680Y010281D03*
X038830Y009765D03*
D21*
X037064Y009998D03*
X035114Y009548D03*
X034547Y009548D03*
X034547Y009798D03*
X033614Y009548D03*
X031364Y010098D03*
X031047Y009548D03*
X033897Y008598D03*
X037064Y007998D03*
D22*
X037047Y008015D03*
X034547Y009565D03*
X034547Y009581D03*
X034547Y009781D03*
X034547Y009815D03*
X034564Y009865D03*
X036247Y009981D03*
X036264Y009965D03*
X036664Y010031D03*
X037097Y010031D03*
X036964Y009731D03*
X036947Y009715D03*
X031697Y009831D03*
X031697Y009531D03*
X031364Y009265D03*
X030464Y009831D03*
X029314Y009815D03*
D23*
X030472Y009865D03*
X035122Y009815D03*
X035772Y009831D03*
X036339Y009515D03*
X037039Y008031D03*
D24*
X037030Y008048D03*
X032713Y008598D03*
X032247Y008598D03*
X031547Y008798D03*
X031363Y009248D03*
X031697Y009548D03*
X036247Y009998D03*
X036347Y009498D03*
D25*
X035780Y009565D03*
X035113Y009565D03*
X035447Y009265D03*
X034563Y009481D03*
X033597Y009815D03*
X034063Y010015D03*
X035380Y010131D03*
X035780Y009815D03*
X036663Y010015D03*
X034730Y011015D03*
X031697Y009815D03*
X031363Y010115D03*
X031030Y009815D03*
X033147Y009365D03*
X032963Y008581D03*
X031980Y008631D03*
X036997Y008081D03*
X037013Y008065D03*
D26*
X036980Y008098D03*
X036930Y008148D03*
X034580Y009398D03*
X035780Y009598D03*
X036230Y010048D03*
X031680Y009598D03*
D27*
X031697Y009615D03*
X031697Y009781D03*
X033614Y009765D03*
X034597Y009381D03*
X035114Y009765D03*
X037797Y009715D03*
X036947Y008131D03*
X036964Y008115D03*
X029264Y009781D03*
D28*
X031030Y009731D03*
X031680Y009715D03*
X031697Y009731D03*
X031680Y009681D03*
X031697Y009665D03*
X031697Y009631D03*
X031363Y010131D03*
X033613Y009731D03*
X033613Y009715D03*
X033613Y009681D03*
X033613Y009615D03*
X034597Y009365D03*
X035113Y009681D03*
X035113Y009715D03*
X035780Y009715D03*
X035780Y009731D03*
X035780Y009681D03*
X035780Y009631D03*
X036213Y010081D03*
X036230Y010065D03*
X037780Y010115D03*
X037780Y009581D03*
X034063Y010065D03*
X032380Y008615D03*
X036913Y008181D03*
X036930Y008165D03*
D29*
X036897Y008198D03*
X034597Y009348D03*
X037747Y009498D03*
X037747Y010198D03*
D30*
X037772Y010165D03*
X036872Y008215D03*
X031022Y009681D03*
X028772Y009931D03*
X028772Y009981D03*
X028772Y010015D03*
D31*
X030997Y009631D03*
X031014Y009665D03*
X033164Y009265D03*
X034597Y009331D03*
X036864Y008231D03*
X037864Y009965D03*
X037847Y009981D03*
D32*
X036197Y010098D03*
X031014Y009648D03*
X036847Y008248D03*
D33*
X036839Y008265D03*
X036189Y010115D03*
D34*
X036664Y010065D03*
X036697Y010065D03*
X037097Y009931D03*
X036914Y009781D03*
X036897Y009665D03*
X036864Y009665D03*
X036964Y009665D03*
X037014Y009681D03*
X036647Y009781D03*
X036597Y009665D03*
X035814Y009515D03*
X035747Y009515D03*
X035147Y009515D03*
X035114Y009515D03*
X035097Y009865D03*
X035797Y009865D03*
X035897Y009231D03*
X035214Y009215D03*
X035047Y009215D03*
X033647Y009515D03*
X033614Y009515D03*
X033597Y009865D03*
X033014Y010215D03*
X031697Y009865D03*
X031664Y009865D03*
X031364Y010031D03*
X031564Y010131D03*
X031164Y010131D03*
X030897Y010131D03*
X030997Y009865D03*
X031064Y009865D03*
X031047Y009515D03*
X031014Y009515D03*
X030364Y009531D03*
X031364Y009331D03*
X031647Y009515D03*
X033514Y009215D03*
X033514Y008615D03*
X033547Y008615D03*
X033547Y008581D03*
X033564Y008565D03*
X033647Y008581D03*
X033714Y008581D03*
X033764Y008565D03*
X033964Y008565D03*
X033464Y008565D03*
X033414Y008615D03*
X033347Y008581D03*
X033314Y008615D03*
X033297Y008565D03*
X033247Y008581D03*
X032664Y008565D03*
X032397Y008565D03*
X032147Y008615D03*
X031914Y008581D03*
X031897Y008565D03*
X031864Y008565D03*
X031847Y008615D03*
X029514Y009215D03*
X028864Y008965D03*
X028847Y008915D03*
X028764Y008731D03*
X028747Y008715D03*
X028814Y008715D03*
X028914Y008581D03*
X028947Y008581D03*
X028964Y008565D03*
X028647Y009015D03*
X028664Y009031D03*
X028764Y009231D03*
X028814Y009281D03*
X028764Y009331D03*
X028697Y009331D03*
X028647Y009381D03*
X028697Y009465D03*
X028647Y009581D03*
X028614Y009581D03*
X028597Y009565D03*
X028647Y009615D03*
X028364Y009465D03*
X029114Y009681D03*
X028197Y010465D03*
X028297Y010531D03*
X028464Y010531D03*
X028547Y010615D03*
X028614Y010815D03*
X028647Y010881D03*
X028397Y010831D03*
X028447Y011081D03*
X028697Y011165D03*
X028947Y011081D03*
X029497Y011065D03*
X029664Y011065D03*
X029697Y011065D03*
X029797Y011065D03*
X029897Y011065D03*
X029964Y011065D03*
X030064Y011065D03*
X030097Y011065D03*
X030164Y011065D03*
X030197Y011065D03*
X030264Y011065D03*
X030464Y011065D03*
X030497Y011065D03*
X030697Y011065D03*
X030747Y011081D03*
X030964Y011065D03*
X031864Y011065D03*
X032064Y011065D03*
X032097Y011065D03*
X032164Y011065D03*
X032314Y011081D03*
X032414Y011081D03*
X033197Y011065D03*
X033947Y011081D03*
X034247Y011081D03*
X034597Y011065D03*
X034697Y011065D03*
X034764Y011065D03*
X034797Y011065D03*
X035214Y011081D03*
X035247Y011081D03*
X035514Y011081D03*
X035547Y011081D03*
X036064Y011065D03*
X036247Y011081D03*
X036347Y011081D03*
X037214Y011081D03*
X037247Y011081D03*
X037314Y011081D03*
X037347Y011081D03*
X037414Y011081D03*
X037447Y011081D03*
X037514Y011081D03*
X037547Y011081D03*
X037547Y011015D03*
X037614Y011081D03*
X037647Y011081D03*
X037647Y011015D03*
X037764Y011065D03*
X037864Y011031D03*
X038047Y010881D03*
X038197Y010865D03*
X038197Y010831D03*
X038197Y010765D03*
X038197Y010731D03*
X038214Y010915D03*
X037914Y011215D03*
X037414Y010881D03*
X037397Y010865D03*
X037364Y010865D03*
X036797Y010465D03*
X037364Y009931D03*
X038097Y009965D03*
X038297Y009965D03*
X038164Y009681D03*
X038164Y009665D03*
X038164Y009631D03*
X038147Y009581D03*
X038164Y009531D03*
X038164Y009515D03*
X038164Y009465D03*
X038164Y009231D03*
X038164Y009181D03*
X038164Y009165D03*
X038164Y009131D03*
X038164Y009065D03*
X038164Y009031D03*
X036897Y009231D03*
X036864Y009231D03*
X037364Y009365D03*
X037397Y009431D03*
X037414Y009515D03*
X037497Y009465D03*
X038864Y009765D03*
X039047Y009581D03*
X039164Y009665D03*
X038264Y010331D03*
X038064Y010365D03*
X037764Y008565D03*
X037364Y008531D03*
X037014Y008515D03*
X036364Y008265D03*
X036314Y008315D03*
X036297Y008365D03*
D35*
X036830Y008281D03*
X035463Y009215D03*
X036363Y009381D03*
X036397Y009415D03*
X036413Y009431D03*
X036413Y009465D03*
X037880Y009765D03*
X037880Y009831D03*
X037880Y009915D03*
X037880Y009931D03*
X031380Y009231D03*
X030730Y009215D03*
X028930Y009481D03*
D36*
X028597Y009598D03*
X028597Y009698D03*
X028464Y009298D03*
X028797Y009198D03*
X028847Y008948D03*
X028914Y008848D03*
X028947Y008848D03*
X028764Y008798D03*
X028697Y008748D03*
X028864Y008598D03*
X028914Y008648D03*
X030314Y008548D03*
X029564Y009198D03*
X031214Y009248D03*
X031514Y009248D03*
X032764Y009498D03*
X031614Y010148D03*
X031114Y010148D03*
X030947Y010148D03*
X030747Y010148D03*
X030297Y010498D03*
X030264Y010498D03*
X030197Y010498D03*
X030164Y010498D03*
X028697Y010998D03*
X028397Y010798D03*
X028514Y010648D03*
X028547Y010548D03*
X028214Y010448D03*
X028197Y010698D03*
X030747Y011048D03*
X032797Y010498D03*
X032864Y010498D03*
X032897Y010498D03*
X032964Y010498D03*
X032997Y010498D03*
X035047Y010148D03*
X035214Y010148D03*
X035797Y010498D03*
X035864Y010498D03*
X035897Y010498D03*
X035964Y010498D03*
X035997Y010498D03*
X037064Y010498D03*
X037447Y010748D03*
X037414Y010848D03*
X037814Y011048D03*
X037697Y011198D03*
X038197Y010798D03*
X038197Y010748D03*
X038147Y010448D03*
X038114Y010348D03*
X038197Y010248D03*
X038264Y010398D03*
X038664Y010298D03*
X038297Y010098D03*
X038364Y009998D03*
X038164Y009898D03*
X038114Y010048D03*
X037997Y010098D03*
X037147Y010048D03*
X037114Y010048D03*
X037047Y010048D03*
X038164Y009698D03*
X038164Y009598D03*
X038164Y009548D03*
X038164Y009498D03*
X038164Y009398D03*
X038264Y009398D03*
X038164Y009298D03*
X038164Y009198D03*
X038164Y009148D03*
X038164Y009098D03*
X038164Y009048D03*
X038264Y008998D03*
X038464Y008798D03*
X037714Y008448D03*
X037447Y008448D03*
X037247Y008548D03*
X037097Y008298D03*
X036314Y008348D03*
X033664Y008598D03*
X037347Y009348D03*
X037497Y009498D03*
X037464Y009598D03*
X038847Y009748D03*
X039147Y009448D03*
D37*
X036364Y009348D03*
X034597Y009298D03*
X036797Y008298D03*
D38*
X037130Y008398D03*
X036330Y008298D03*
X033330Y008598D03*
X033230Y008598D03*
X030280Y008548D03*
X028880Y008948D03*
X028830Y008698D03*
X028780Y009248D03*
X028580Y009448D03*
X030230Y010198D03*
X030230Y010498D03*
X030130Y010498D03*
X028580Y010448D03*
X028530Y010598D03*
X028880Y011048D03*
X031780Y010148D03*
X032830Y010498D03*
X032930Y010498D03*
X033030Y010498D03*
X032930Y010198D03*
X032980Y010148D03*
X033680Y009848D03*
X034380Y010148D03*
X035830Y010498D03*
X035930Y010498D03*
X036030Y010498D03*
X036930Y010498D03*
X037980Y010248D03*
X038080Y009948D03*
X038130Y009898D03*
X037930Y009598D03*
X037180Y010048D03*
X037080Y010048D03*
X039230Y009598D03*
X038080Y010848D03*
X037880Y011148D03*
X034980Y011048D03*
D39*
X037905Y009881D03*
X037872Y009665D03*
X034605Y009281D03*
X036788Y008315D03*
X029422Y009481D03*
D40*
X028830Y009681D03*
X028830Y009781D03*
X036780Y008331D03*
X037830Y010615D03*
D41*
X033164Y009248D03*
X036764Y008348D03*
D42*
X036739Y008365D03*
X036739Y008381D03*
X036189Y010215D03*
D43*
X036247Y010298D03*
X036297Y010348D03*
X036714Y008398D03*
D44*
X036697Y008415D03*
X036364Y009315D03*
X034614Y009265D03*
X034047Y010131D03*
X036264Y010315D03*
X036314Y010365D03*
X037714Y010331D03*
X028864Y009815D03*
D45*
X032455Y009781D03*
X032472Y009715D03*
X032472Y009681D03*
X032472Y009615D03*
X036688Y008431D03*
X037822Y009465D03*
D46*
X036680Y008448D03*
X032430Y009498D03*
D47*
X032447Y009515D03*
X032464Y009565D03*
X032464Y009581D03*
X032464Y009631D03*
X032464Y009665D03*
X032464Y009731D03*
X032464Y009765D03*
X032447Y009815D03*
X029764Y009815D03*
X036647Y008481D03*
X036664Y008465D03*
X037747Y010815D03*
D48*
X038205Y010848D03*
X038205Y010898D03*
X038205Y010648D03*
X039155Y009398D03*
X037005Y008498D03*
D49*
X036639Y008498D03*
X036339Y010398D03*
D50*
X036464Y010481D03*
X037697Y010415D03*
X034214Y011065D03*
X037747Y009331D03*
X036597Y008515D03*
X029197Y009281D03*
D51*
X029130Y009215D03*
X036580Y008531D03*
D52*
X036572Y008548D03*
D53*
X035880Y008548D03*
X033730Y008598D03*
X032030Y009298D03*
X031580Y009248D03*
X030730Y009498D03*
X032030Y010048D03*
X032080Y009998D03*
X032830Y010098D03*
X034130Y009698D03*
X034730Y009998D03*
X037280Y010848D03*
X038030Y010498D03*
X030130Y010098D03*
X028630Y009498D03*
X028630Y010898D03*
D54*
X036897Y008565D03*
D55*
X035613Y008565D03*
X037680Y009265D03*
X037630Y010481D03*
D56*
X034580Y008565D03*
D57*
X033864Y008565D03*
X033397Y008665D03*
X031964Y008565D03*
X031997Y009231D03*
X032047Y009315D03*
X032064Y009331D03*
X032114Y009415D03*
X032147Y009481D03*
X031747Y009515D03*
X031697Y009431D03*
X031664Y009365D03*
X031597Y009265D03*
X030814Y009615D03*
X030747Y009515D03*
X030697Y009431D03*
X030664Y009365D03*
X030397Y009631D03*
X030414Y009681D03*
X030597Y009931D03*
X030147Y010115D03*
X030114Y010081D03*
X030097Y010065D03*
X031364Y010065D03*
X032097Y009965D03*
X032797Y010065D03*
X032814Y010081D03*
X032847Y010115D03*
X033097Y009781D03*
X033097Y009765D03*
X033097Y009731D03*
X033097Y009665D03*
X033097Y009631D03*
X033097Y009615D03*
X034114Y009615D03*
X034114Y009581D03*
X034114Y009681D03*
X034114Y009715D03*
X034114Y009765D03*
X034114Y009781D03*
X034114Y009815D03*
X034697Y009965D03*
X034714Y009981D03*
X034747Y010015D03*
X034814Y010081D03*
X035764Y009931D03*
X037447Y010015D03*
X038097Y010131D03*
X038097Y010165D03*
X038097Y010181D03*
X038164Y010365D03*
X038164Y010465D03*
X038047Y010715D03*
X037714Y011015D03*
X035447Y009315D03*
X031664Y011065D03*
X028614Y009515D03*
D58*
X030055Y009965D03*
X030755Y009531D03*
X032005Y009265D03*
X032155Y009881D03*
X034655Y009881D03*
X035755Y009915D03*
X035855Y010065D03*
X038055Y010731D03*
X038255Y010365D03*
X039155Y009431D03*
X033705Y008565D03*
X028705Y008765D03*
X028605Y010931D03*
X030755Y011065D03*
D59*
X030814Y010131D03*
X030797Y010115D03*
X030714Y010065D03*
X030414Y009665D03*
X032014Y010065D03*
X033114Y009865D03*
X034097Y009865D03*
X034097Y009881D03*
X034114Y009565D03*
X034097Y009515D03*
X034747Y010031D03*
X034864Y010115D03*
X036297Y009815D03*
X036297Y009781D03*
X036314Y009731D03*
X036514Y009831D03*
X036514Y009865D03*
X036564Y009715D03*
X036797Y009881D03*
X037014Y009865D03*
X037014Y009831D03*
X036997Y009781D03*
X037014Y009931D03*
X037214Y009865D03*
X037497Y009881D03*
X038097Y010281D03*
X038147Y010331D03*
X034647Y011031D03*
X028914Y008931D03*
X028814Y008665D03*
X029014Y008631D03*
X031997Y008581D03*
X032764Y008581D03*
X033047Y008565D03*
X033547Y008631D03*
D60*
X032755Y008565D03*
X032322Y008565D03*
X033105Y009515D03*
X033105Y009531D03*
X033105Y009565D03*
X033105Y009581D03*
X033105Y009815D03*
X033105Y009831D03*
X034105Y009831D03*
X034105Y009531D03*
X035422Y010081D03*
X037005Y009915D03*
X037005Y009881D03*
X037005Y009815D03*
X038088Y010231D03*
X038105Y010215D03*
X038088Y010265D03*
X038155Y010315D03*
X032055Y010031D03*
X031988Y010081D03*
X030738Y010081D03*
X030672Y010031D03*
X028622Y009481D03*
X028922Y008915D03*
X029005Y008615D03*
D61*
X031930Y008615D03*
X032080Y008565D03*
X032330Y008581D03*
X030430Y009715D03*
X030180Y010131D03*
X031930Y010115D03*
X032880Y010131D03*
X034780Y010065D03*
X036530Y009815D03*
X037230Y009915D03*
X038180Y010431D03*
X038030Y010681D03*
D62*
X031055Y008565D03*
D63*
X029697Y008565D03*
D64*
X036913Y008581D03*
D65*
X035764Y008581D03*
X037864Y009615D03*
X028847Y009665D03*
D66*
X029347Y010215D03*
X034747Y008581D03*
D67*
X035114Y009531D03*
X036547Y009931D03*
X036747Y009931D03*
X037264Y009781D03*
X037364Y009681D03*
X037464Y009781D03*
X037447Y009965D03*
X035397Y010115D03*
X033614Y009531D03*
X031364Y009281D03*
X031047Y009531D03*
X030464Y009815D03*
X029214Y009665D03*
X031797Y008581D03*
D68*
X030330Y008581D03*
X030180Y009131D03*
D69*
X035930Y008598D03*
D70*
X033622Y008598D03*
X033539Y008598D03*
X032089Y008598D03*
X028872Y009048D03*
X028672Y009248D03*
X028272Y010548D03*
X028439Y011098D03*
X028839Y011048D03*
X034889Y011048D03*
X037889Y011198D03*
X038172Y009648D03*
D71*
X037797Y009748D03*
X037747Y009598D03*
X035114Y009598D03*
X034064Y010048D03*
X033614Y009598D03*
X031047Y009598D03*
X030697Y009248D03*
X033014Y008598D03*
D72*
X032472Y008598D03*
X036322Y009598D03*
X036589Y009498D03*
X036722Y009698D03*
X036789Y009798D03*
X036572Y009748D03*
X037289Y009998D03*
X037472Y009798D03*
X038039Y009598D03*
D73*
X030497Y008598D03*
D74*
X035772Y008615D03*
D75*
X037355Y009331D03*
X038155Y009115D03*
X038155Y009565D03*
X038055Y010515D03*
X038205Y010665D03*
X038205Y010815D03*
X034905Y011065D03*
X034655Y011065D03*
X028705Y010965D03*
X028455Y010431D03*
X028805Y009181D03*
X033205Y008681D03*
X033655Y008615D03*
D76*
X032997Y008615D03*
X033164Y009281D03*
X035447Y009231D03*
X037347Y009765D03*
X037797Y010081D03*
X037814Y010065D03*
X037764Y010181D03*
X030714Y009231D03*
D77*
X030680Y009281D03*
X031030Y009831D03*
X032680Y008615D03*
X036330Y009531D03*
X036330Y009565D03*
X037080Y010015D03*
D78*
X030463Y008631D03*
X030447Y008615D03*
D79*
X035764Y008631D03*
X035797Y008665D03*
D80*
X033380Y008631D03*
X033130Y009415D03*
X034080Y009965D03*
X035780Y009531D03*
X036330Y009581D03*
X036680Y009631D03*
X036280Y009931D03*
X037980Y010531D03*
X037330Y010815D03*
D81*
X032680Y008631D03*
D82*
X036947Y008648D03*
D83*
X034897Y008648D03*
D84*
X033730Y008648D03*
X036280Y009898D03*
X034930Y010148D03*
X037980Y010548D03*
X038030Y009548D03*
D85*
X038097Y010098D03*
X038097Y010148D03*
X038097Y010198D03*
X037864Y010998D03*
X037764Y010998D03*
X034664Y009898D03*
X034114Y009748D03*
X034114Y009648D03*
X034114Y009548D03*
X034097Y009498D03*
X033097Y009598D03*
X033097Y009698D03*
X033097Y009798D03*
X032764Y009998D03*
X032097Y009398D03*
X031714Y009448D03*
X030797Y009598D03*
X030414Y009648D03*
X030614Y009948D03*
X030064Y009998D03*
X028614Y009648D03*
X030647Y009348D03*
X033547Y008648D03*
D86*
X032430Y008648D03*
D87*
X030263Y008648D03*
D88*
X032647Y008665D03*
D89*
X030464Y008665D03*
D90*
X035639Y008681D03*
D91*
X031030Y008681D03*
D92*
X035730Y008698D03*
D93*
X031180Y008698D03*
D94*
X033430Y008715D03*
D95*
X033447Y008731D03*
D96*
X033464Y008748D03*
D97*
X033463Y008765D03*
D98*
X034872Y008781D03*
X034939Y008965D03*
D99*
X030272Y008781D03*
X030172Y009165D03*
D100*
X034872Y008798D03*
X034889Y008848D03*
D101*
X031514Y010198D03*
X030147Y008798D03*
D102*
X034747Y008815D03*
D103*
X034297Y010215D03*
X034314Y010231D03*
X030164Y008981D03*
X030147Y008815D03*
D104*
X034880Y008831D03*
D105*
X030105Y008831D03*
D106*
X030155Y008848D03*
D107*
X034905Y008865D03*
D108*
X030122Y008865D03*
D109*
X034913Y008881D03*
X034913Y008915D03*
X034930Y008931D03*
D110*
X030164Y008881D03*
D111*
X034914Y008898D03*
D112*
X030139Y008898D03*
D113*
X030188Y008915D03*
D114*
X030197Y008931D03*
X031564Y010231D03*
X031564Y010265D03*
X031564Y010281D03*
X031564Y010315D03*
X031564Y010331D03*
X031564Y010365D03*
X031564Y010381D03*
X031564Y010415D03*
X031564Y010431D03*
X031564Y010465D03*
X031564Y010481D03*
D115*
X034939Y008948D03*
D116*
X030622Y008948D03*
D117*
X029414Y008948D03*
D118*
X030172Y008965D03*
D119*
X034955Y008981D03*
D120*
X034947Y008998D03*
D121*
X034322Y010248D03*
X030172Y008998D03*
D122*
X034964Y009015D03*
D123*
X031480Y010181D03*
X034330Y010265D03*
X034330Y010281D03*
X030180Y009015D03*
D124*
X034972Y009031D03*
D125*
X030564Y009031D03*
D126*
X029247Y009031D03*
D127*
X034980Y009048D03*
D128*
X030197Y009048D03*
D129*
X034980Y009065D03*
D130*
X034355Y010381D03*
X030205Y009065D03*
D131*
X034989Y009081D03*
D132*
X034347Y010331D03*
X030197Y009081D03*
D133*
X034989Y009098D03*
D134*
X030164Y009098D03*
D135*
X034997Y009115D03*
D136*
X031464Y010165D03*
X030214Y009115D03*
X034364Y010365D03*
D137*
X034997Y009131D03*
D138*
X035005Y009148D03*
D139*
X030180Y009148D03*
D140*
X035005Y009165D03*
X035022Y009181D03*
D141*
X030197Y009181D03*
D142*
X035014Y009198D03*
D143*
X030580Y009198D03*
D144*
X029180Y009198D03*
D145*
X037614Y009215D03*
D146*
X036397Y009215D03*
D147*
X034630Y009215D03*
X037680Y010431D03*
D148*
X037713Y010365D03*
X037763Y010781D03*
X036380Y010431D03*
X036363Y010415D03*
X037797Y009415D03*
X036363Y009281D03*
X033163Y009215D03*
X032447Y009831D03*
X032447Y009865D03*
X029747Y009765D03*
D149*
X031347Y009215D03*
X034047Y010115D03*
X036364Y009365D03*
D150*
X037630Y009231D03*
X029197Y009465D03*
D151*
X029180Y009431D03*
X036380Y009231D03*
D152*
X034622Y009231D03*
D153*
X033180Y009231D03*
X036280Y010331D03*
X036330Y010381D03*
X037730Y010881D03*
X037830Y009481D03*
X028880Y009731D03*
D154*
X029205Y009315D03*
X029155Y009231D03*
D155*
X037680Y009248D03*
D156*
X036380Y009248D03*
X037680Y010448D03*
X028980Y009748D03*
D157*
X031697Y009798D03*
X035447Y009248D03*
D158*
X034614Y009248D03*
X036364Y009298D03*
X037814Y009448D03*
X037697Y010298D03*
X032464Y009798D03*
X032447Y009848D03*
X032464Y009698D03*
X032464Y009598D03*
X029764Y009798D03*
D159*
X029180Y009248D03*
D160*
X029697Y009665D03*
X036363Y009265D03*
D161*
X035114Y009581D03*
X034064Y010031D03*
X033614Y009781D03*
X033614Y009581D03*
X031697Y009565D03*
X031047Y009581D03*
X030697Y009265D03*
X031464Y011065D03*
X037547Y010315D03*
D162*
X037764Y009365D03*
X029197Y009265D03*
D163*
X037705Y009281D03*
D164*
X037714Y009298D03*
D165*
X037747Y009548D03*
X035780Y009648D03*
X035780Y009748D03*
X035113Y009748D03*
X035113Y009648D03*
X033613Y009648D03*
X033613Y009748D03*
X033163Y009298D03*
X031697Y009698D03*
X031680Y009648D03*
X037830Y010898D03*
D166*
X034839Y010098D03*
X036289Y009848D03*
X036522Y009848D03*
X036522Y009898D03*
X037222Y009848D03*
X033122Y009448D03*
X031372Y009298D03*
D167*
X030672Y009298D03*
X030472Y009848D03*
X033138Y009398D03*
X034538Y009598D03*
X034538Y009648D03*
X034538Y009698D03*
X034538Y009748D03*
X036338Y009548D03*
X037055Y009948D03*
D168*
X029205Y009298D03*
D169*
X037722Y009315D03*
X037672Y010831D03*
D170*
X034605Y009315D03*
D171*
X033155Y009315D03*
X033155Y009331D03*
X031688Y009581D03*
X031038Y009781D03*
X035122Y009781D03*
X037355Y009715D03*
X037855Y010315D03*
D172*
X036247Y010281D03*
X036230Y010265D03*
X036197Y010231D03*
X036180Y010181D03*
X036163Y010165D03*
X036363Y009331D03*
X034280Y011015D03*
X029197Y011065D03*
X028863Y009831D03*
X028880Y009715D03*
D173*
X030655Y009331D03*
X031355Y010081D03*
X036305Y009765D03*
X036305Y009715D03*
X036805Y009865D03*
D174*
X029205Y009331D03*
D175*
X037755Y009348D03*
D176*
X034555Y009498D03*
X034555Y009848D03*
X033155Y009348D03*
D177*
X031655Y009348D03*
X030655Y009998D03*
X030055Y009948D03*
X035805Y009998D03*
D178*
X036480Y010498D03*
X029163Y009348D03*
X028997Y009798D03*
D179*
X029164Y009365D03*
D180*
X036430Y010465D03*
X037780Y009381D03*
D181*
X036972Y009765D03*
X036572Y009765D03*
X037055Y009965D03*
X037055Y009981D03*
X035122Y009831D03*
X034538Y009765D03*
X034538Y009731D03*
X034538Y009715D03*
X034538Y009681D03*
X034538Y009665D03*
X034538Y009631D03*
X034538Y009615D03*
X033605Y009831D03*
X034072Y009981D03*
X033138Y009381D03*
D182*
X029614Y009831D03*
X029164Y009415D03*
X029164Y009381D03*
D183*
X034030Y010148D03*
X037780Y009398D03*
D184*
X037880Y009798D03*
X037880Y009898D03*
X036380Y009398D03*
X034047Y010098D03*
X031363Y010148D03*
X028847Y009698D03*
X037830Y010848D03*
D185*
X037922Y010498D03*
X038172Y010498D03*
X038189Y010548D03*
X038172Y010398D03*
X038172Y010348D03*
X035872Y010098D03*
X035839Y010048D03*
X035739Y009898D03*
X034689Y009948D03*
X033089Y009748D03*
X033089Y009648D03*
X032739Y009898D03*
X032789Y010048D03*
X032139Y009898D03*
X032122Y009948D03*
X030689Y010048D03*
X030572Y009898D03*
X030089Y010048D03*
X030672Y009398D03*
D186*
X029614Y009698D03*
X029614Y009848D03*
X029164Y009398D03*
D187*
X034580Y009415D03*
X035780Y009581D03*
X035780Y009781D03*
X036230Y010031D03*
D188*
X037705Y010381D03*
X037805Y009431D03*
X032455Y009531D03*
X029755Y009781D03*
D189*
X031039Y009565D03*
X034572Y009465D03*
X034572Y009431D03*
X036239Y010015D03*
X036339Y009481D03*
X031172Y011065D03*
D190*
X036422Y009448D03*
D191*
X034572Y009448D03*
D192*
X029180Y009448D03*
D193*
X029397Y009498D03*
D194*
X036139Y010131D03*
X037672Y010281D03*
X037839Y009531D03*
X037839Y009515D03*
D195*
X036905Y009681D03*
X036605Y009531D03*
X036605Y009515D03*
X037355Y010115D03*
X037405Y010181D03*
D196*
X037755Y009731D03*
X034555Y009831D03*
X034555Y009531D03*
X034555Y009515D03*
D197*
X029389Y009515D03*
D198*
X029380Y009531D03*
X029380Y009565D03*
D199*
X035780Y009548D03*
X036930Y009698D03*
D200*
X037005Y009848D03*
X036572Y009698D03*
X034772Y010048D03*
X034105Y009848D03*
X034105Y009798D03*
X034122Y009598D03*
X033105Y009548D03*
X033105Y009848D03*
X031972Y010098D03*
X034655Y011048D03*
X038038Y010698D03*
D201*
X032455Y009548D03*
D202*
X029397Y009548D03*
D203*
X037855Y009565D03*
D204*
X033605Y009565D03*
D205*
X029388Y009581D03*
X029372Y009631D03*
D206*
X035405Y010098D03*
X036655Y009598D03*
X037405Y010198D03*
D207*
X029380Y009598D03*
D208*
X031039Y009615D03*
X031039Y009765D03*
X031689Y009765D03*
X035122Y009615D03*
X035789Y009615D03*
D209*
X029380Y009615D03*
D210*
X035780Y009765D03*
X037780Y009631D03*
D211*
X035122Y009631D03*
X035122Y009665D03*
X035122Y009731D03*
X028789Y009881D03*
X028789Y009915D03*
X028789Y010081D03*
X028789Y010115D03*
D212*
X033605Y009665D03*
X033605Y009631D03*
X034055Y010081D03*
X036655Y009965D03*
D213*
X037872Y009648D03*
D214*
X032472Y009648D03*
X032472Y009748D03*
D215*
X029380Y009648D03*
D216*
X028780Y009965D03*
X028780Y010031D03*
X028780Y010065D03*
X028780Y010131D03*
X031030Y009715D03*
X035780Y009665D03*
X037730Y010215D03*
X037780Y010131D03*
X037830Y010015D03*
X036380Y011065D03*
D217*
X037880Y009681D03*
D218*
X029622Y009681D03*
D219*
X031039Y009748D03*
X031689Y009748D03*
X037789Y009698D03*
D220*
X037355Y009698D03*
D221*
X037730Y010248D03*
X035780Y009698D03*
X028780Y009898D03*
X028780Y010048D03*
X028780Y010098D03*
D222*
X028789Y010148D03*
X035122Y009698D03*
X037772Y010148D03*
X037789Y010098D03*
X037822Y010048D03*
D223*
X036655Y009948D03*
X033605Y009698D03*
D224*
X031022Y009698D03*
X028772Y009948D03*
X028772Y009998D03*
X034372Y011048D03*
X037838Y009998D03*
X037855Y009948D03*
D225*
X029638Y009715D03*
D226*
X036655Y009981D03*
X037355Y009731D03*
D227*
X029630Y009731D03*
D228*
X037355Y009748D03*
D229*
X036964Y009748D03*
X037447Y009948D03*
X037347Y010098D03*
X036264Y009948D03*
X035764Y009848D03*
X030447Y009798D03*
D230*
X029739Y009748D03*
D231*
X028989Y009765D03*
D232*
X037889Y009781D03*
X037889Y009815D03*
X037889Y009865D03*
D233*
X035780Y009798D03*
X035130Y009798D03*
X035380Y010148D03*
X031030Y009798D03*
D234*
X033605Y009798D03*
X036655Y009998D03*
D235*
X037889Y009848D03*
D236*
X036213Y010248D03*
X036180Y010198D03*
X036147Y010148D03*
X028847Y009848D03*
D237*
X029330Y009865D03*
X029330Y010231D03*
X029330Y010331D03*
X029330Y010365D03*
X029330Y010465D03*
D238*
X034072Y009998D03*
X037989Y010648D03*
D239*
X037730Y010231D03*
X037830Y010031D03*
D240*
X034397Y010465D03*
X034197Y010165D03*
D241*
X029347Y010165D03*
D242*
X034222Y010181D03*
X034372Y010415D03*
D243*
X029339Y010181D03*
D244*
X034255Y010198D03*
X034355Y010348D03*
D245*
X029330Y010198D03*
D246*
X031555Y010215D03*
D247*
X031572Y010248D03*
D248*
X029330Y010248D03*
X037030Y011048D03*
D249*
X037655Y010265D03*
D250*
X029322Y010265D03*
X029322Y010431D03*
D251*
X029355Y010281D03*
D252*
X034330Y010298D03*
D253*
X031564Y010298D03*
X031564Y010348D03*
X031564Y010398D03*
X031564Y010448D03*
D254*
X029338Y010348D03*
X029322Y010398D03*
X029322Y010298D03*
D255*
X034339Y010315D03*
D256*
X029330Y010315D03*
X029330Y010381D03*
X029330Y010415D03*
X029330Y010481D03*
D257*
X037730Y010348D03*
D258*
X037697Y010398D03*
X036414Y010448D03*
D259*
X034364Y010398D03*
D260*
X034380Y010431D03*
D261*
X034389Y010448D03*
D262*
X029363Y010448D03*
D263*
X037630Y010465D03*
D264*
X034389Y010481D03*
D265*
X037480Y010498D03*
D266*
X034414Y010498D03*
D267*
X031547Y010498D03*
D268*
X029330Y010498D03*
D269*
X033205Y010515D03*
D270*
X033214Y010531D03*
D271*
X033214Y010548D03*
D272*
X033339Y010565D03*
D273*
X033314Y010581D03*
X033347Y010765D03*
D274*
X033330Y010598D03*
D275*
X033064Y010615D03*
D276*
X033347Y010631D03*
D277*
X033222Y010648D03*
D278*
X033263Y010665D03*
D279*
X033272Y010681D03*
X033289Y010715D03*
D280*
X033280Y010698D03*
D281*
X033280Y010731D03*
D282*
X037730Y010748D03*
D283*
X033014Y010748D03*
D284*
X033014Y010781D03*
D285*
X033347Y010798D03*
D286*
X032930Y010815D03*
D287*
X032939Y010831D03*
D288*
X032930Y010848D03*
D289*
X033530Y011065D03*
X037730Y010865D03*
D290*
X032997Y010881D03*
X032980Y010865D03*
D291*
X033163Y010898D03*
D292*
X033347Y010915D03*
X033347Y010931D03*
D293*
X033347Y010948D03*
D294*
X033347Y010965D03*
D295*
X036330Y010981D03*
D296*
X031747Y010981D03*
D297*
X036280Y010998D03*
D298*
X031880Y010998D03*
D299*
X036280Y011015D03*
D300*
X031397Y011015D03*
D301*
X036980Y011031D03*
D302*
X035414Y011031D03*
D303*
X031697Y011031D03*
D304*
X029447Y011048D03*
X035547Y011048D03*
D305*
X032330Y011048D03*
D306*
X030364Y011048D03*
D307*
X037163Y011065D03*
D308*
X035505Y011065D03*
D309*
X032680Y011065D03*
D310*
X042853Y010937D02*
X043284Y010937D01*
X042853Y011224D01*
X043284Y011224D01*
X043212Y010763D02*
X042925Y010763D01*
X042853Y010692D01*
X042853Y010548D01*
X042925Y010476D01*
X043212Y010476D01*
X043284Y010548D01*
X043284Y010692D01*
X043212Y010763D01*
X043140Y010303D02*
X042853Y010303D01*
X043140Y010303D02*
X043284Y010159D01*
X043140Y010016D01*
X042853Y010016D01*
X042853Y009843D02*
X043284Y009843D01*
X043284Y009556D01*
X043284Y009382D02*
X042853Y009382D01*
X042853Y009556D02*
X042853Y009843D01*
X043068Y009843D02*
X043068Y009699D01*
X043284Y009382D02*
X043284Y009095D01*
X043284Y008922D02*
X042997Y008922D01*
X042853Y008778D01*
X042997Y008635D01*
X043284Y008635D01*
X043068Y008635D02*
X043068Y008922D01*
X042925Y008001D02*
X042853Y007929D01*
X042853Y007786D01*
X042925Y007714D01*
X042997Y007714D01*
X043284Y008001D01*
X043284Y007714D01*
X043212Y007541D02*
X042925Y007541D01*
X042853Y007469D01*
X042853Y007325D01*
X042925Y007254D01*
X043212Y007541D01*
X043284Y007469D01*
X043284Y007325D01*
X043212Y007254D01*
X042925Y007254D01*
X042997Y007080D02*
X042853Y006937D01*
X043284Y006937D01*
X043284Y007080D02*
X043284Y006793D01*
X043212Y006620D02*
X043284Y006548D01*
X043284Y006405D01*
X043212Y006333D01*
X043140Y006333D01*
X043068Y006405D01*
X043068Y006476D01*
X043068Y006405D02*
X042997Y006333D01*
X042925Y006333D01*
X042853Y006405D01*
X042853Y006548D01*
X042925Y006620D01*
X004641Y006758D02*
X004354Y006758D01*
X004497Y006615D02*
X004497Y006902D01*
D311*
X004553Y005984D02*
X005004Y005984D01*
X005004Y005683D01*
X005004Y005523D02*
X004553Y005523D01*
X004553Y005223D01*
X004553Y005063D02*
X004553Y004838D01*
X004628Y004763D01*
X004929Y004763D01*
X005004Y004838D01*
X005004Y005063D01*
X004553Y005063D01*
X005004Y005223D02*
X005004Y005523D01*
X004778Y005523D02*
X004778Y005373D01*
X005488Y008009D02*
X005493Y008222D01*
X005509Y008434D01*
X005535Y008644D01*
X005571Y008854D01*
X005618Y009061D01*
X005674Y009266D01*
X005741Y009468D01*
X005818Y009666D01*
X005904Y009861D01*
X005999Y010051D01*
X006104Y010236D01*
X006218Y010415D01*
X006340Y010589D01*
X006471Y010757D01*
X006610Y010918D01*
X006757Y011071D01*
X006910Y011218D01*
X007071Y011357D01*
X007239Y011488D01*
X007413Y011610D01*
X007592Y011724D01*
X007777Y011829D01*
X007967Y011924D01*
X008162Y012010D01*
X008360Y012087D01*
X008562Y012154D01*
X008767Y012210D01*
X008974Y012257D01*
X009184Y012293D01*
X009394Y012319D01*
X009606Y012335D01*
X009819Y012340D01*
X010032Y012335D01*
X010244Y012319D01*
X010454Y012293D01*
X010664Y012257D01*
X010871Y012210D01*
X011076Y012154D01*
X011278Y012087D01*
X011476Y012010D01*
X011671Y011924D01*
X011861Y011829D01*
X012046Y011724D01*
X012225Y011610D01*
X012399Y011488D01*
X012567Y011357D01*
X012728Y011218D01*
X012881Y011071D01*
X013028Y010918D01*
X013167Y010757D01*
X013298Y010589D01*
X013420Y010415D01*
X013534Y010236D01*
X013639Y010051D01*
X013734Y009861D01*
X013820Y009666D01*
X013897Y009468D01*
X013964Y009266D01*
X014020Y009061D01*
X014067Y008854D01*
X014103Y008644D01*
X014129Y008434D01*
X014145Y008222D01*
X014150Y008009D01*
X014145Y007796D01*
X014129Y007584D01*
X014103Y007374D01*
X014067Y007164D01*
X014020Y006957D01*
X013964Y006752D01*
X013897Y006550D01*
X013820Y006352D01*
X013734Y006157D01*
X013639Y005967D01*
X013534Y005782D01*
X013420Y005603D01*
X013298Y005429D01*
X013167Y005261D01*
X013028Y005100D01*
X012881Y004947D01*
X012728Y004800D01*
X012567Y004661D01*
X012399Y004530D01*
X012225Y004408D01*
X012046Y004294D01*
X011861Y004189D01*
X011671Y004094D01*
X011476Y004008D01*
X011278Y003931D01*
X011076Y003864D01*
X010871Y003808D01*
X010664Y003761D01*
X010454Y003725D01*
X010244Y003699D01*
X010032Y003683D01*
X009819Y003678D01*
X009606Y003683D01*
X009394Y003699D01*
X009184Y003725D01*
X008974Y003761D01*
X008767Y003808D01*
X008562Y003864D01*
X008360Y003931D01*
X008162Y004008D01*
X007967Y004094D01*
X007777Y004189D01*
X007592Y004294D01*
X007413Y004408D01*
X007239Y004530D01*
X007071Y004661D01*
X006910Y004800D01*
X006757Y004947D01*
X006610Y005100D01*
X006471Y005261D01*
X006340Y005429D01*
X006218Y005603D01*
X006104Y005782D01*
X005999Y005967D01*
X005904Y006157D01*
X005818Y006352D01*
X005741Y006550D01*
X005674Y006752D01*
X005618Y006957D01*
X005571Y007164D01*
X005535Y007374D01*
X005509Y007584D01*
X005493Y007796D01*
X005488Y008009D01*
X007102Y008009D02*
X007105Y008142D01*
X007115Y008275D01*
X007131Y008408D01*
X007154Y008539D01*
X007183Y008669D01*
X007219Y008798D01*
X007261Y008924D01*
X007309Y009049D01*
X007363Y009171D01*
X007423Y009290D01*
X007489Y009406D01*
X007560Y009518D01*
X007637Y009628D01*
X007719Y009733D01*
X007806Y009834D01*
X007898Y009930D01*
X007994Y010022D01*
X008095Y010109D01*
X008200Y010191D01*
X008310Y010268D01*
X008422Y010339D01*
X008538Y010405D01*
X008657Y010465D01*
X008779Y010519D01*
X008904Y010567D01*
X009030Y010609D01*
X009159Y010645D01*
X009289Y010674D01*
X009420Y010697D01*
X009553Y010713D01*
X009686Y010723D01*
X009819Y010726D01*
X009952Y010723D01*
X010085Y010713D01*
X010218Y010697D01*
X010349Y010674D01*
X010479Y010645D01*
X010608Y010609D01*
X010734Y010567D01*
X010859Y010519D01*
X010981Y010465D01*
X011100Y010405D01*
X011216Y010339D01*
X011328Y010268D01*
X011438Y010191D01*
X011543Y010109D01*
X011644Y010022D01*
X011740Y009930D01*
X011832Y009834D01*
X011919Y009733D01*
X012001Y009628D01*
X012078Y009518D01*
X012149Y009406D01*
X012215Y009290D01*
X012275Y009171D01*
X012329Y009049D01*
X012377Y008924D01*
X012419Y008798D01*
X012455Y008669D01*
X012484Y008539D01*
X012507Y008408D01*
X012523Y008275D01*
X012533Y008142D01*
X012536Y008009D01*
X012533Y007876D01*
X012523Y007743D01*
X012507Y007610D01*
X012484Y007479D01*
X012455Y007349D01*
X012419Y007220D01*
X012377Y007094D01*
X012329Y006969D01*
X012275Y006847D01*
X012215Y006728D01*
X012149Y006612D01*
X012078Y006500D01*
X012001Y006390D01*
X011919Y006285D01*
X011832Y006184D01*
X011740Y006088D01*
X011644Y005996D01*
X011543Y005909D01*
X011438Y005827D01*
X011328Y005750D01*
X011216Y005679D01*
X011100Y005613D01*
X010981Y005553D01*
X010859Y005499D01*
X010734Y005451D01*
X010608Y005409D01*
X010479Y005373D01*
X010349Y005344D01*
X010218Y005321D01*
X010085Y005305D01*
X009952Y005295D01*
X009819Y005292D01*
X009686Y005295D01*
X009553Y005305D01*
X009420Y005321D01*
X009289Y005344D01*
X009159Y005373D01*
X009030Y005409D01*
X008904Y005451D01*
X008779Y005499D01*
X008657Y005553D01*
X008538Y005613D01*
X008422Y005679D01*
X008310Y005750D01*
X008200Y005827D01*
X008095Y005909D01*
X007994Y005996D01*
X007898Y006088D01*
X007806Y006184D01*
X007719Y006285D01*
X007637Y006390D01*
X007560Y006500D01*
X007489Y006612D01*
X007423Y006728D01*
X007363Y006847D01*
X007309Y006969D01*
X007261Y007094D01*
X007219Y007220D01*
X007183Y007349D01*
X007154Y007479D01*
X007131Y007610D01*
X007115Y007743D01*
X007105Y007876D01*
X007102Y008009D01*
X004643Y010359D02*
X002994Y010359D01*
X002931Y010909D02*
X002773Y010909D01*
X002394Y011284D02*
X002394Y011734D01*
X002544Y011734D02*
X002243Y011734D01*
X002083Y011584D02*
X001933Y011734D01*
X001933Y011284D01*
X002083Y011284D02*
X001783Y011284D01*
X003706Y010909D02*
X003931Y010909D01*
X004644Y010359D02*
X004679Y010407D01*
X004712Y010457D01*
X004743Y010509D01*
X004770Y010563D01*
X004794Y010618D01*
X004814Y010675D01*
X004832Y010732D01*
X004846Y010790D01*
X004857Y010849D01*
X004864Y010909D01*
X004706Y010909D01*
X004864Y010909D02*
X004868Y010971D01*
X004869Y011034D01*
X004865Y011096D01*
X004858Y011158D01*
X004848Y011219D01*
X004833Y011280D01*
X004815Y011340D01*
X004794Y011399D01*
X004769Y011456D01*
X004741Y011511D01*
X004710Y011565D01*
X004675Y011617D01*
X004637Y011667D01*
X004597Y011714D01*
X004553Y011759D01*
X004508Y011802D01*
X004459Y011841D01*
X004409Y011878D01*
X004356Y011911D01*
X004302Y011942D01*
X004245Y011969D01*
X004188Y011992D01*
X004129Y012012D01*
X004904Y012134D02*
X005054Y011984D01*
X005214Y012059D02*
X005214Y011909D01*
X005289Y011834D01*
X005514Y011834D01*
X005364Y011834D02*
X005214Y011684D01*
X005054Y011684D02*
X004754Y011684D01*
X004904Y011684D02*
X004904Y012134D01*
X005214Y012059D02*
X005289Y012134D01*
X005514Y012134D01*
X005514Y011684D01*
X003509Y012012D02*
X003449Y011992D01*
X003390Y011968D01*
X003333Y011940D01*
X003278Y011909D01*
X003224Y011874D01*
X003173Y011837D01*
X003124Y011796D01*
X003078Y011752D01*
X003034Y011706D01*
X002993Y011657D01*
X002955Y011606D01*
X002921Y011553D01*
X002889Y011497D01*
X002862Y011440D01*
X002837Y011381D01*
X002817Y011321D01*
X002799Y011260D01*
X002786Y011198D01*
X002777Y011135D01*
X002771Y011072D01*
X002769Y011008D01*
X002771Y010944D01*
X002777Y010881D01*
X002786Y010818D01*
X002800Y010756D01*
X002817Y010695D01*
X002838Y010635D01*
X002862Y010576D01*
X002890Y010519D01*
X002922Y010463D01*
X002957Y010410D01*
X002994Y010359D01*
X017138Y011335D02*
X017138Y004682D01*
X039500Y004682D01*
X039500Y011335D01*
X017138Y011335D01*
X024983Y007484D02*
X025133Y007634D01*
X025283Y007484D01*
X025283Y007184D01*
X025443Y007184D02*
X025443Y007484D01*
X025594Y007634D01*
X025744Y007484D01*
X025744Y007184D01*
X024983Y007184D02*
X024983Y007484D01*
X024983Y007409D02*
X025283Y007409D01*
X025443Y007409D02*
X025744Y007409D01*
D312*
X013721Y011009D02*
X013723Y011028D01*
X013728Y011047D01*
X013738Y011063D01*
X013750Y011078D01*
X013765Y011090D01*
X013781Y011100D01*
X013800Y011105D01*
X013819Y011107D01*
X013838Y011105D01*
X013857Y011100D01*
X013873Y011090D01*
X013888Y011078D01*
X013900Y011063D01*
X013910Y011047D01*
X013915Y011028D01*
X013917Y011009D01*
X013915Y010990D01*
X013910Y010971D01*
X013900Y010955D01*
X013888Y010940D01*
X013873Y010928D01*
X013857Y010918D01*
X013838Y010913D01*
X013819Y010911D01*
X013800Y010913D01*
X013781Y010918D01*
X013765Y010928D01*
X013750Y010940D01*
X013738Y010955D01*
X013728Y010971D01*
X013723Y010990D01*
X013721Y011009D01*
X005721Y005009D02*
X005723Y005028D01*
X005728Y005047D01*
X005738Y005063D01*
X005750Y005078D01*
X005765Y005090D01*
X005781Y005100D01*
X005800Y005105D01*
X005819Y005107D01*
X005838Y005105D01*
X005857Y005100D01*
X005873Y005090D01*
X005888Y005078D01*
X005900Y005063D01*
X005910Y005047D01*
X005915Y005028D01*
X005917Y005009D01*
X005915Y004990D01*
X005910Y004971D01*
X005900Y004955D01*
X005888Y004940D01*
X005873Y004928D01*
X005857Y004918D01*
X005838Y004913D01*
X005819Y004911D01*
X005800Y004913D01*
X005781Y004918D01*
X005765Y004928D01*
X005750Y004940D01*
X005738Y004955D01*
X005728Y004971D01*
X005723Y004990D01*
X005721Y005009D01*
D313*
X009319Y005509D02*
X009069Y003509D01*
X009819Y003509D02*
X009819Y005509D01*
X010319Y005509D02*
X010569Y003509D01*
X012319Y004009D02*
X011069Y005759D01*
X011569Y006259D02*
X013069Y004759D01*
X008569Y005759D02*
X007319Y004009D01*
X006569Y004759D02*
X008069Y006259D01*
X008069Y009759D02*
X006569Y011259D01*
X007319Y012009D02*
X008569Y010259D01*
X009319Y010509D02*
X008819Y012509D01*
X009819Y012509D02*
X009819Y010509D01*
X010319Y010509D02*
X010819Y012509D01*
X012069Y012009D02*
X011069Y010259D01*
X011569Y009759D02*
X013069Y011259D01*
D314*
X007069Y012409D02*
X007069Y013109D01*
X007067Y013126D01*
X007063Y013143D01*
X007056Y013159D01*
X007046Y013173D01*
X007033Y013186D01*
X007019Y013196D01*
X007003Y013203D01*
X006986Y013207D01*
X006969Y013209D01*
X006819Y013209D01*
X006769Y013159D01*
X004869Y013159D01*
X004819Y013209D01*
X004669Y013209D01*
X004652Y013207D01*
X004635Y013203D01*
X004619Y013196D01*
X004605Y013186D01*
X004592Y013173D01*
X004582Y013159D01*
X004575Y013143D01*
X004571Y013126D01*
X004569Y013109D01*
X004569Y012409D01*
X004571Y012392D01*
X004575Y012375D01*
X004582Y012359D01*
X004592Y012345D01*
X004605Y012332D01*
X004619Y012322D01*
X004635Y012315D01*
X004652Y012311D01*
X004669Y012309D01*
X004819Y012309D01*
X004869Y012359D01*
X006769Y012359D01*
X006819Y012309D01*
X006969Y012309D01*
X006986Y012311D01*
X007003Y012315D01*
X007019Y012322D01*
X007033Y012332D01*
X007046Y012345D01*
X007056Y012359D01*
X007063Y012375D01*
X007067Y012392D01*
X007069Y012409D01*
X027319Y008009D02*
X028069Y008009D01*
X028569Y008009D02*
X029319Y008009D01*
X027869Y008609D02*
X027469Y008609D01*
X027669Y008809D02*
X027669Y008409D01*
D315*
X007239Y012759D03*
X004399Y012759D03*
D316*
X016419Y008309D02*
X016419Y007709D01*
X016719Y008009D02*
X016119Y008009D01*
X028069Y008009D02*
X028069Y007009D01*
X028069Y008009D02*
X028069Y009009D01*
X039819Y008009D02*
X040419Y008009D01*
D317*
X028444Y008009D03*
M02*
