G75*
G70*
%OFA0B0*%
%FSLAX24Y24*%
%IPPOS*%
%LPD*%
%AMOC8*
5,1,8,0,0,1.08239X$1,22.5*
%
%ADD10C,0.0660*%
%ADD11OC8,0.0520*%
%ADD12OC8,0.1240*%
%ADD13C,0.0600*%
%ADD14C,0.0240*%
D10*
X006319Y004509D03*
X013319Y004509D03*
X013319Y011509D03*
X006319Y011509D03*
D11*
X004319Y011009D03*
X003319Y011009D03*
X003819Y011759D03*
X003819Y012759D03*
X007819Y012759D03*
X004569Y008509D03*
X004569Y007509D03*
D12*
X018122Y008009D03*
X038515Y008009D03*
D13*
X016709Y008989D02*
X016709Y009589D01*
X014929Y009589D02*
X014929Y008989D01*
X014929Y007029D02*
X014929Y006429D01*
X016709Y006429D02*
X016709Y007029D01*
D14*
X006319Y004509D02*
X004569Y006259D01*
X004569Y007509D01*
X004569Y008509D02*
X013819Y008509D01*
X014319Y008009D01*
X015319Y008009D01*
X015819Y008509D01*
X015819Y010009D01*
X016319Y010509D01*
X036015Y010509D01*
X038515Y008009D01*
X018122Y008009D02*
X017989Y008009D01*
X017904Y008094D01*
X017904Y007924D01*
X016709Y006729D01*
X014929Y006729D02*
X013319Y005119D01*
X013319Y004509D01*
X017904Y008094D02*
X016709Y009289D01*
X014929Y009289D02*
X013319Y010899D01*
X013319Y011509D01*
X007819Y012009D02*
X007319Y011509D01*
X006319Y011509D01*
X007819Y012009D02*
X007819Y012759D01*
M02*
