G75*
G70*
%OFA0B0*%
%FSLAX24Y24*%
%IPPOS*%
%LPD*%
%AMOC8*
5,1,8,0,0,1.08239X$1,22.5*
%
%ADD10R,0.0150X0.0017*%
%ADD11R,0.0150X0.0017*%
%ADD12R,0.1600X0.0017*%
%ADD13R,0.1633X0.0017*%
%ADD14R,0.1667X0.0017*%
%ADD15R,0.1667X0.0017*%
%ADD16R,0.1650X0.0017*%
%ADD17R,0.1633X0.0017*%
%ADD18R,0.1600X0.0017*%
%ADD19R,0.1567X0.0017*%
%ADD20R,0.1650X0.0017*%
%ADD21R,0.1567X0.0017*%
%ADD22R,0.1617X0.0017*%
%ADD23R,0.1550X0.0017*%
%ADD24R,0.1617X0.0017*%
%ADD25R,0.1583X0.0017*%
%ADD26R,0.0133X0.0017*%
%ADD27R,0.0133X0.0017*%
%ADD28R,0.0967X0.0017*%
%ADD29R,0.1067X0.0017*%
%ADD30R,0.1100X0.0017*%
%ADD31R,0.1100X0.0017*%
%ADD32R,0.1533X0.0017*%
%ADD33R,0.1033X0.0017*%
%ADD34R,0.1033X0.0017*%
%ADD35R,0.1067X0.0017*%
%ADD36R,0.1050X0.0017*%
%ADD37R,0.0984X0.0017*%
%ADD38R,0.0050X0.0017*%
%ADD39R,0.0067X0.0017*%
%ADD40R,0.0100X0.0017*%
%ADD41R,0.0117X0.0017*%
%ADD42R,0.0134X0.0017*%
%ADD43R,0.0183X0.0017*%
%ADD44R,0.1017X0.0017*%
%ADD45R,0.0200X0.0017*%
%ADD46R,0.0233X0.0017*%
%ADD47R,0.0250X0.0017*%
%ADD48R,0.0283X0.0017*%
%ADD49R,0.0300X0.0017*%
%ADD50R,0.0317X0.0017*%
%ADD51R,0.0333X0.0017*%
%ADD52R,0.0367X0.0017*%
%ADD53R,0.0384X0.0017*%
%ADD54R,0.0400X0.0017*%
%ADD55R,0.0117X0.0017*%
%ADD56R,0.0634X0.0017*%
%ADD57R,0.0700X0.0017*%
%ADD58R,0.0767X0.0017*%
%ADD59R,0.0834X0.0017*%
%ADD60R,0.0900X0.0017*%
%ADD61R,0.0967X0.0017*%
%ADD62R,0.1034X0.0017*%
%ADD63R,0.1083X0.0017*%
%ADD64R,0.1150X0.0017*%
%ADD65R,0.1233X0.0017*%
%ADD66R,0.1283X0.0017*%
%ADD67R,0.1334X0.0017*%
%ADD68R,0.1400X0.0017*%
%ADD69R,0.1450X0.0017*%
%ADD70R,0.0383X0.0017*%
%ADD71R,0.1517X0.0017*%
%ADD72R,0.0517X0.0017*%
%ADD73R,0.1566X0.0017*%
%ADD74R,0.0617X0.0017*%
%ADD75R,0.1684X0.0017*%
%ADD76R,0.0783X0.0017*%
%ADD77R,0.1733X0.0017*%
%ADD78R,0.0867X0.0017*%
%ADD79R,0.1800X0.0017*%
%ADD80R,0.0933X0.0017*%
%ADD81R,0.1850X0.0017*%
%ADD82R,0.1900X0.0017*%
%ADD83R,0.0316X0.0017*%
%ADD84R,0.1967X0.0017*%
%ADD85R,0.1084X0.0017*%
%ADD86R,0.0450X0.0017*%
%ADD87R,0.2016X0.0017*%
%ADD88R,0.1133X0.0017*%
%ADD89R,0.0567X0.0017*%
%ADD90R,0.2067X0.0017*%
%ADD91R,0.1167X0.0017*%
%ADD92R,0.0667X0.0017*%
%ADD93R,0.2117X0.0017*%
%ADD94R,0.1200X0.0017*%
%ADD95R,0.0733X0.0017*%
%ADD96R,0.2166X0.0017*%
%ADD97R,0.1267X0.0017*%
%ADD98R,0.0800X0.0017*%
%ADD99R,0.2217X0.0017*%
%ADD100R,0.2266X0.0017*%
%ADD101R,0.1317X0.0017*%
%ADD102R,0.2317X0.0017*%
%ADD103R,0.1366X0.0017*%
%ADD104R,0.2367X0.0017*%
%ADD105R,0.0984X0.0017*%
%ADD106R,0.0716X0.0017*%
%ADD107R,0.0433X0.0017*%
%ADD108R,0.1434X0.0017*%
%ADD109R,0.1550X0.0017*%
%ADD110R,0.0717X0.0017*%
%ADD111R,0.0416X0.0017*%
%ADD112R,0.1184X0.0017*%
%ADD113R,0.1450X0.0017*%
%ADD114R,0.1117X0.0017*%
%ADD115R,0.0717X0.0017*%
%ADD116R,0.0400X0.0017*%
%ADD117R,0.1150X0.0017*%
%ADD118R,0.1483X0.0017*%
%ADD119R,0.0033X0.0017*%
%ADD120R,0.1134X0.0017*%
%ADD121R,0.1517X0.0017*%
%ADD122R,0.0083X0.0017*%
%ADD123R,0.0350X0.0017*%
%ADD124R,0.1234X0.0017*%
%ADD125R,0.0334X0.0017*%
%ADD126R,0.1266X0.0017*%
%ADD127R,0.0167X0.0017*%
%ADD128R,0.1584X0.0017*%
%ADD129R,0.1300X0.0017*%
%ADD130R,0.0200X0.0017*%
%ADD131R,0.0734X0.0017*%
%ADD132R,0.1083X0.0017*%
%ADD133R,0.1616X0.0017*%
%ADD134R,0.0233X0.0017*%
%ADD135R,0.1017X0.0017*%
%ADD136R,0.0267X0.0017*%
%ADD137R,0.1366X0.0017*%
%ADD138R,0.0283X0.0017*%
%ADD139R,0.0066X0.0017*%
%ADD140R,0.0683X0.0017*%
%ADD141R,0.1683X0.0017*%
%ADD142R,0.1433X0.0017*%
%ADD143R,0.0534X0.0017*%
%ADD144R,0.0316X0.0017*%
%ADD145R,0.0050X0.0017*%
%ADD146R,0.0100X0.0017*%
%ADD147R,0.0666X0.0017*%
%ADD148R,0.0216X0.0017*%
%ADD149R,0.1016X0.0017*%
%ADD150R,0.0750X0.0017*%
%ADD151R,0.2234X0.0017*%
%ADD152R,0.0350X0.0017*%
%ADD153R,0.0116X0.0017*%
%ADD154R,0.0650X0.0017*%
%ADD155R,0.1000X0.0017*%
%ADD156R,0.0784X0.0017*%
%ADD157R,0.2333X0.0017*%
%ADD158R,0.0617X0.0017*%
%ADD159R,0.0183X0.0017*%
%ADD160R,0.1000X0.0017*%
%ADD161R,0.0600X0.0017*%
%ADD162R,0.2400X0.0017*%
%ADD163R,0.0167X0.0017*%
%ADD164R,0.0600X0.0017*%
%ADD165R,0.0166X0.0017*%
%ADD166R,0.0983X0.0017*%
%ADD167R,0.0583X0.0017*%
%ADD168R,0.2500X0.0017*%
%ADD169R,0.0584X0.0017*%
%ADD170R,0.0134X0.0017*%
%ADD171R,0.0950X0.0017*%
%ADD172R,0.0550X0.0017*%
%ADD173R,0.3233X0.0017*%
%ADD174R,0.0483X0.0017*%
%ADD175R,0.0234X0.0017*%
%ADD176R,0.0550X0.0017*%
%ADD177R,0.0950X0.0017*%
%ADD178R,0.0533X0.0017*%
%ADD179R,0.3250X0.0017*%
%ADD180R,0.0500X0.0017*%
%ADD181R,0.0250X0.0017*%
%ADD182R,0.0533X0.0017*%
%ADD183R,0.3284X0.0017*%
%ADD184R,0.0534X0.0017*%
%ADD185R,0.0500X0.0017*%
%ADD186R,0.0084X0.0017*%
%ADD187R,0.1383X0.0017*%
%ADD188R,0.3300X0.0017*%
%ADD189R,0.0567X0.0017*%
%ADD190R,0.0483X0.0017*%
%ADD191R,0.1333X0.0017*%
%ADD192R,0.3317X0.0017*%
%ADD193R,0.1284X0.0017*%
%ADD194R,0.1183X0.0017*%
%ADD195R,0.1933X0.0017*%
%ADD196R,0.0366X0.0017*%
%ADD197R,0.0017X0.0017*%
%ADD198R,0.1250X0.0017*%
%ADD199R,0.0417X0.0017*%
%ADD200R,0.1200X0.0017*%
%ADD201R,0.1900X0.0017*%
%ADD202R,0.0700X0.0017*%
%ADD203R,0.0450X0.0017*%
%ADD204R,0.0433X0.0017*%
%ADD205R,0.0734X0.0017*%
%ADD206R,0.0484X0.0017*%
%ADD207R,0.1116X0.0017*%
%ADD208R,0.1917X0.0017*%
%ADD209R,0.0466X0.0017*%
%ADD210R,0.0384X0.0017*%
%ADD211R,0.0900X0.0017*%
%ADD212R,0.1916X0.0017*%
%ADD213R,0.0583X0.0017*%
%ADD214R,0.0234X0.0017*%
%ADD215R,0.0850X0.0017*%
%ADD216R,0.1934X0.0017*%
%ADD217R,0.0817X0.0017*%
%ADD218R,0.0683X0.0017*%
%ADD219R,0.0284X0.0017*%
%ADD220R,0.0566X0.0017*%
%ADD221R,0.0517X0.0017*%
%ADD222R,0.1916X0.0017*%
%ADD223R,0.0766X0.0017*%
%ADD224R,0.0116X0.0017*%
%ADD225R,0.0383X0.0017*%
%ADD226R,0.1934X0.0017*%
%ADD227R,0.0883X0.0017*%
%ADD228R,0.0850X0.0017*%
%ADD229R,0.0633X0.0017*%
%ADD230R,0.0917X0.0017*%
%ADD231R,0.0067X0.0017*%
%ADD232R,0.0883X0.0017*%
%ADD233R,0.1950X0.0017*%
%ADD234R,0.0633X0.0017*%
%ADD235R,0.0366X0.0017*%
%ADD236R,0.1950X0.0017*%
%ADD237R,0.0983X0.0017*%
%ADD238R,0.1050X0.0017*%
%ADD239R,0.0666X0.0017*%
%ADD240R,0.0266X0.0017*%
%ADD241R,0.0816X0.0017*%
%ADD242R,0.1966X0.0017*%
%ADD243R,0.0767X0.0017*%
%ADD244R,0.0684X0.0017*%
%ADD245R,0.0800X0.0017*%
%ADD246R,0.0516X0.0017*%
%ADD247R,0.0367X0.0017*%
%ADD248R,0.0766X0.0017*%
%ADD249R,0.1983X0.0017*%
%ADD250R,0.0816X0.0017*%
%ADD251R,0.0750X0.0017*%
%ADD252R,0.1983X0.0017*%
%ADD253R,0.0416X0.0017*%
%ADD254R,0.1984X0.0017*%
%ADD255R,0.0884X0.0017*%
%ADD256R,0.0467X0.0017*%
%ADD257R,0.0684X0.0017*%
%ADD258R,0.2000X0.0017*%
%ADD259R,0.1183X0.0017*%
%ADD260R,0.0917X0.0017*%
%ADD261R,0.0833X0.0017*%
%ADD262R,0.2000X0.0017*%
%ADD263R,0.0434X0.0017*%
%ADD264R,0.2016X0.0017*%
%ADD265R,0.1417X0.0017*%
%ADD266R,0.0866X0.0017*%
%ADD267R,0.0566X0.0017*%
%ADD268R,0.1250X0.0017*%
%ADD269R,0.0733X0.0017*%
%ADD270R,0.1917X0.0017*%
%ADD271R,0.0333X0.0017*%
%ADD272R,0.1500X0.0017*%
%ADD273R,0.3784X0.0017*%
%ADD274R,0.0317X0.0017*%
%ADD275R,0.3733X0.0017*%
%ADD276R,0.0834X0.0017*%
%ADD277R,0.3700X0.0017*%
%ADD278R,0.2017X0.0017*%
%ADD279R,0.3650X0.0017*%
%ADD280R,0.2050X0.0017*%
%ADD281R,0.0216X0.0017*%
%ADD282R,0.0417X0.0017*%
%ADD283R,0.0300X0.0017*%
%ADD284R,0.3634X0.0017*%
%ADD285R,0.2067X0.0017*%
%ADD286R,0.2433X0.0017*%
%ADD287R,0.2100X0.0017*%
%ADD288R,0.2417X0.0017*%
%ADD289R,0.2133X0.0017*%
%ADD290R,0.1066X0.0017*%
%ADD291R,0.1016X0.0017*%
%ADD292R,0.2150X0.0017*%
%ADD293R,0.0833X0.0017*%
%ADD294R,0.2366X0.0017*%
%ADD295R,0.2183X0.0017*%
%ADD296R,0.2200X0.0017*%
%ADD297R,0.2500X0.0017*%
%ADD298R,0.0267X0.0017*%
%ADD299R,0.0966X0.0017*%
%ADD300R,0.2350X0.0017*%
%ADD301R,0.2234X0.0017*%
%ADD302R,0.0934X0.0017*%
%ADD303R,0.1216X0.0017*%
%ADD304R,0.2250X0.0017*%
%ADD305R,0.1433X0.0017*%
%ADD306R,0.2267X0.0017*%
%ADD307R,0.3483X0.0017*%
%ADD308R,0.1467X0.0017*%
%ADD309R,0.2566X0.0017*%
%ADD310R,0.1467X0.0017*%
%ADD311R,0.0266X0.0017*%
%ADD312R,0.0334X0.0017*%
%ADD313R,0.0817X0.0017*%
%ADD314R,0.2567X0.0017*%
%ADD315R,0.1484X0.0017*%
%ADD316R,0.0916X0.0017*%
%ADD317R,0.1516X0.0017*%
%ADD318R,0.0716X0.0017*%
%ADD319R,0.1516X0.0017*%
%ADD320R,0.0217X0.0017*%
%ADD321R,0.1217X0.0017*%
%ADD322R,0.1566X0.0017*%
%ADD323R,0.1234X0.0017*%
%ADD324R,0.0467X0.0017*%
%ADD325R,0.1267X0.0017*%
%ADD326R,0.0184X0.0017*%
%ADD327R,0.0484X0.0017*%
%ADD328R,0.0934X0.0017*%
%ADD329R,0.1284X0.0017*%
%ADD330R,0.0184X0.0017*%
%ADD331R,0.0217X0.0017*%
%ADD332R,0.0650X0.0017*%
%ADD333R,0.0584X0.0017*%
%ADD334R,0.1167X0.0017*%
%ADD335R,0.0866X0.0017*%
%ADD336R,0.0616X0.0017*%
%ADD337R,0.1117X0.0017*%
%ADD338R,0.1350X0.0017*%
%ADD339R,0.0516X0.0017*%
%ADD340R,0.1400X0.0017*%
%ADD341R,0.1417X0.0017*%
%ADD342R,0.0916X0.0017*%
%ADD343R,0.0434X0.0017*%
%ADD344R,0.0933X0.0017*%
%ADD345R,0.0966X0.0017*%
%ADD346R,0.1034X0.0017*%
%ADD347R,0.0616X0.0017*%
%ADD348R,0.0784X0.0017*%
%ADD349R,0.0034X0.0017*%
%ADD350R,0.0783X0.0017*%
%ADD351R,0.1350X0.0017*%
%ADD352R,0.0166X0.0017*%
%ADD353R,0.0017X0.0017*%
%ADD354R,0.1133X0.0017*%
%ADD355R,0.1166X0.0017*%
%ADD356R,0.0466X0.0017*%
%ADD357R,0.0634X0.0017*%
%ADD358R,0.1300X0.0017*%
%ADD359R,0.1316X0.0017*%
%ADD360R,0.1333X0.0017*%
%ADD361R,0.1367X0.0017*%
%ADD362R,0.1367X0.0017*%
%ADD363R,0.0284X0.0017*%
%ADD364R,0.1384X0.0017*%
%ADD365R,0.1217X0.0017*%
%ADD366R,0.1416X0.0017*%
%ADD367R,0.1416X0.0017*%
%ADD368R,0.1233X0.0017*%
%ADD369R,0.1500X0.0017*%
%ADD370R,0.1583X0.0017*%
%ADD371R,0.1484X0.0017*%
%ADD372R,0.0084X0.0017*%
%ADD373R,0.0083X0.0017*%
%ADD374R,0.1483X0.0017*%
%ADD375R,0.1434X0.0017*%
%ADD376R,0.0667X0.0017*%
%ADD377R,0.1383X0.0017*%
%ADD378R,0.1533X0.0017*%
%ADD379R,0.1317X0.0017*%
%ADD380R,0.0033X0.0017*%
%ADD381R,0.1066X0.0017*%
%ADD382R,0.1084X0.0017*%
%ADD383R,0.1134X0.0017*%
%ADD384R,0.1616X0.0017*%
%ADD385R,0.1216X0.0017*%
%ADD386R,0.1700X0.0017*%
%ADD387R,0.1717X0.0017*%
%ADD388R,0.1767X0.0017*%
%ADD389R,0.1850X0.0017*%
%ADD390R,0.3333X0.0017*%
%ADD391R,0.1766X0.0017*%
%ADD392R,0.1534X0.0017*%
%ADD393R,0.0016X0.0017*%
%ADD394R,0.0034X0.0017*%
%ADD395R,0.1700X0.0017*%
%ADD396R,0.0867X0.0017*%
%ADD397R,0.1684X0.0017*%
%ADD398R,0.2017X0.0017*%
%ADD399R,0.1867X0.0017*%
%ADD400R,0.1816X0.0017*%
%ADD401R,0.1750X0.0017*%
%ADD402R,0.1184X0.0017*%
%ADD403R,0.2233X0.0017*%
%ADD404R,0.2167X0.0017*%
%ADD405R,0.1750X0.0017*%
%ADD406R,0.1666X0.0017*%
%ADD407R,0.0066X0.0017*%
%ADD408R,0.0014X0.0086*%
%ADD409R,0.0014X0.0071*%
%ADD410R,0.0014X0.0114*%
%ADD411R,0.0014X0.0129*%
%ADD412R,0.0014X0.0186*%
%ADD413R,0.0014X0.0214*%
%ADD414R,0.0014X0.0029*%
%ADD415R,0.0014X0.0028*%
%ADD416R,0.0014X0.0200*%
%ADD417R,0.0014X0.0228*%
%ADD418R,0.0014X0.0215*%
%ADD419R,0.0014X0.0243*%
%ADD420R,0.0014X0.0229*%
%ADD421R,0.0014X0.0257*%
%ADD422R,0.0014X0.0029*%
%ADD423R,0.0014X0.0028*%
%ADD424R,0.0014X0.0243*%
%ADD425R,0.0014X0.0271*%
%ADD426R,0.0014X0.0029*%
%ADD427R,0.0014X0.0028*%
%ADD428R,0.0014X0.0257*%
%ADD429R,0.0014X0.0085*%
%ADD430R,0.0014X0.0271*%
%ADD431R,0.0014X0.0257*%
%ADD432R,0.0014X0.0114*%
%ADD433R,0.0014X0.0271*%
%ADD434R,0.0014X0.0257*%
%ADD435R,0.0014X0.0143*%
%ADD436R,0.0014X0.0057*%
%ADD437R,0.0014X0.0057*%
%ADD438R,0.0014X0.0257*%
%ADD439R,0.0014X0.0042*%
%ADD440R,0.0014X0.0228*%
%ADD441R,0.0014X0.0229*%
%ADD442R,0.0014X0.0043*%
%ADD443R,0.0014X0.0214*%
%ADD444R,0.0014X0.0215*%
%ADD445R,0.0014X0.0043*%
%ADD446R,0.0014X0.0200*%
%ADD447R,0.0014X0.0043*%
%ADD448R,0.0014X0.0157*%
%ADD449R,0.0014X0.0114*%
%ADD450R,0.0014X0.0100*%
%ADD451R,0.0014X0.0014*%
%ADD452R,0.0014X0.0015*%
%ADD453R,0.0014X0.0286*%
%ADD454R,0.0014X0.0514*%
%ADD455R,0.0014X0.0686*%
%ADD456R,0.0014X0.0800*%
%ADD457R,0.0014X0.0914*%
%ADD458R,0.0014X0.1028*%
%ADD459R,0.0014X0.1114*%
%ADD460R,0.0014X0.1172*%
%ADD461R,0.0014X0.1258*%
%ADD462R,0.0014X0.1342*%
%ADD463R,0.0014X0.1400*%
%ADD464R,0.0014X0.1458*%
%ADD465R,0.0014X0.1514*%
%ADD466R,0.0014X0.1572*%
%ADD467R,0.0014X0.1628*%
%ADD468R,0.0014X0.1686*%
%ADD469R,0.0014X0.0714*%
%ADD470R,0.0014X0.0643*%
%ADD471R,0.0014X0.0600*%
%ADD472R,0.0014X0.0558*%
%ADD473R,0.0014X0.0528*%
%ADD474R,0.0014X0.0500*%
%ADD475R,0.0014X0.0486*%
%ADD476R,0.0014X0.0471*%
%ADD477R,0.0014X0.0443*%
%ADD478R,0.0014X0.0443*%
%ADD479R,0.0014X0.0428*%
%ADD480R,0.0014X0.0400*%
%ADD481R,0.0014X0.0415*%
%ADD482R,0.0014X0.0572*%
%ADD483R,0.0014X0.0686*%
%ADD484R,0.0014X0.0385*%
%ADD485R,0.0014X0.0271*%
%ADD486R,0.0014X0.0386*%
%ADD487R,0.0014X0.0214*%
%ADD488R,0.0014X0.0386*%
%ADD489R,0.0014X0.0171*%
%ADD490R,0.0014X0.0371*%
%ADD491R,0.0014X0.0157*%
%ADD492R,0.0014X0.0286*%
%ADD493R,0.0014X0.0372*%
%ADD494R,0.0014X0.0458*%
%ADD495R,0.0014X0.0357*%
%ADD496R,0.0014X0.0128*%
%ADD497R,0.0014X0.0600*%
%ADD498R,0.0014X0.0129*%
%ADD499R,0.0014X0.0714*%
%ADD500R,0.0014X0.0343*%
%ADD501R,0.0014X0.0115*%
%ADD502R,0.0014X0.0800*%
%ADD503R,0.0014X0.0343*%
%ADD504R,0.0014X0.0858*%
%ADD505R,0.0014X0.0343*%
%ADD506R,0.0014X0.0115*%
%ADD507R,0.0014X0.0942*%
%ADD508R,0.0014X0.0328*%
%ADD509R,0.0014X0.1000*%
%ADD510R,0.0014X0.0314*%
%ADD511R,0.0014X0.1086*%
%ADD512R,0.0014X0.0315*%
%ADD513R,0.0014X0.1142*%
%ADD514R,0.0014X0.0314*%
%ADD515R,0.0014X0.1200*%
%ADD516R,0.0014X0.0086*%
%ADD517R,0.0014X0.0857*%
%ADD518R,0.0014X0.0315*%
%ADD519R,0.0014X0.0100*%
%ADD520R,0.0014X0.0400*%
%ADD521R,0.0014X0.0457*%
%ADD522R,0.0014X0.0314*%
%ADD523R,0.0014X0.0428*%
%ADD524R,0.0014X0.0429*%
%ADD525R,0.0014X0.0400*%
%ADD526R,0.0014X0.0300*%
%ADD527R,0.0014X0.0086*%
%ADD528R,0.0014X0.0414*%
%ADD529R,0.0014X0.0415*%
%ADD530R,0.0014X0.0300*%
%ADD531R,0.0014X0.0085*%
%ADD532R,0.0014X0.0457*%
%ADD533R,0.0014X0.0386*%
%ADD534R,0.0014X0.0443*%
%ADD535R,0.0014X0.0472*%
%ADD536R,0.0014X0.0371*%
%ADD537R,0.0014X0.0485*%
%ADD538R,0.0014X0.0486*%
%ADD539R,0.0014X0.0157*%
%ADD540R,0.0014X0.0472*%
%ADD541R,0.0014X0.0285*%
%ADD542R,0.0014X0.0072*%
%ADD543R,0.0014X0.0457*%
%ADD544R,0.0014X0.0186*%
%ADD545R,0.0014X0.0071*%
%ADD546R,0.0014X0.0428*%
%ADD547R,0.0014X0.0071*%
%ADD548R,0.0014X0.0072*%
%ADD549R,0.0014X0.0272*%
%ADD550R,0.0014X0.0557*%
%ADD551R,0.0014X0.0542*%
%ADD552R,0.0014X0.0071*%
%ADD553R,0.0014X0.0285*%
%ADD554R,0.0014X0.0072*%
%ADD555R,0.0014X0.0614*%
%ADD556R,0.0014X0.0214*%
%ADD557R,0.0014X0.0271*%
%ADD558R,0.0014X0.0257*%
%ADD559R,0.0014X0.0357*%
%ADD560R,0.0014X0.0272*%
%ADD561R,0.0014X0.0329*%
%ADD562R,0.0014X0.0328*%
%ADD563R,0.0014X0.0329*%
%ADD564R,0.0014X0.0514*%
%ADD565R,0.0014X0.0071*%
%ADD566R,0.0014X0.0557*%
%ADD567R,0.0014X0.0258*%
%ADD568R,0.0014X0.0314*%
%ADD569R,0.0014X0.1028*%
%ADD570R,0.0014X0.0258*%
%ADD571R,0.0014X0.0057*%
%ADD572R,0.0014X0.1028*%
%ADD573R,0.0014X0.0058*%
%ADD574R,0.0014X0.0471*%
%ADD575R,0.0014X0.0429*%
%ADD576R,0.0014X0.0014*%
%ADD577R,0.0014X0.0372*%
%ADD578R,0.0014X0.0242*%
%ADD579R,0.0014X0.0057*%
%ADD580R,0.0014X0.0414*%
%ADD581R,0.0014X0.0057*%
%ADD582R,0.0014X0.0042*%
%ADD583R,0.0014X0.1714*%
%ADD584R,0.0014X0.0371*%
%ADD585R,0.0014X0.1728*%
%ADD586R,0.0014X0.1714*%
%ADD587R,0.0014X0.1700*%
%ADD588R,0.0014X0.0771*%
%ADD589R,0.0014X0.1686*%
%ADD590R,0.0014X0.0243*%
%ADD591R,0.0014X0.0058*%
%ADD592R,0.0014X0.0743*%
%ADD593R,0.0014X0.0042*%
%ADD594R,0.0014X0.1657*%
%ADD595R,0.0014X0.0058*%
%ADD596R,0.0014X0.0729*%
%ADD597R,0.0014X0.1643*%
%ADD598R,0.0014X0.0672*%
%ADD599R,0.0014X0.0157*%
%ADD600R,0.0014X0.0643*%
%ADD601R,0.0014X0.0614*%
%ADD602R,0.0014X0.1328*%
%ADD603R,0.0014X0.0586*%
%ADD604R,0.0014X0.0158*%
%ADD605R,0.0014X0.1328*%
%ADD606R,0.0014X0.0557*%
%ADD607R,0.0014X0.1314*%
%ADD608R,0.0014X0.0571*%
%ADD609R,0.0014X0.1300*%
%ADD610R,0.0014X0.0571*%
%ADD611R,0.0014X0.1285*%
%ADD612R,0.0014X0.0586*%
%ADD613R,0.0014X0.1257*%
%ADD614R,0.0014X0.1243*%
%ADD615R,0.0014X0.1229*%
%ADD616R,0.0014X0.0242*%
%ADD617R,0.0014X0.1214*%
%ADD618R,0.0014X0.0057*%
%ADD619R,0.0014X0.0600*%
%ADD620R,0.0014X0.0014*%
%ADD621R,0.0014X0.0300*%
%ADD622R,0.0014X0.0185*%
%ADD623R,0.0014X0.0143*%
%ADD624R,0.0014X0.1200*%
%ADD625R,0.0014X0.0185*%
%ADD626R,0.0014X0.0185*%
%ADD627R,0.0014X0.0142*%
%ADD628R,0.0014X0.1157*%
%ADD629R,0.0014X0.1128*%
%ADD630R,0.0014X0.1100*%
%ADD631R,0.0014X0.1058*%
%ADD632R,0.0014X0.0143*%
%ADD633R,0.0014X0.0229*%
%ADD634R,0.0014X0.0629*%
%ADD635R,0.0014X0.0085*%
%ADD636R,0.0014X0.0986*%
%ADD637R,0.0014X0.0629*%
%ADD638R,0.0014X0.0943*%
%ADD639R,0.0014X0.0629*%
%ADD640R,0.0014X0.0914*%
%ADD641R,0.0014X0.0871*%
%ADD642R,0.0014X0.0843*%
%ADD643R,0.0014X0.0800*%
%ADD644R,0.0014X0.0643*%
%ADD645R,0.0014X0.0771*%
%ADD646R,0.0014X0.0100*%
%ADD647R,0.0014X0.0700*%
%ADD648R,0.0014X0.0657*%
%ADD649R,0.0014X0.0628*%
%ADD650R,0.0014X0.0558*%
%ADD651R,0.0014X0.0514*%
%ADD652R,0.0014X0.0414*%
%ADD653R,0.0014X0.0657*%
%ADD654R,0.0014X0.0286*%
%ADD655R,0.0014X0.4342*%
%ADD656R,0.0014X0.4342*%
%ADD657R,0.0014X0.0157*%
%ADD658R,0.0014X0.0315*%
%ADD659R,0.0014X0.4342*%
%ADD660R,0.0014X0.0357*%
%ADD661R,0.0014X0.0214*%
%ADD662R,0.0014X0.0158*%
%ADD663R,0.0014X0.0271*%
%ADD664R,0.0014X0.0415*%
%ADD665R,0.0014X0.0214*%
%ADD666R,0.0014X0.0129*%
%ADD667R,0.0014X0.0429*%
%ADD668R,0.0014X0.0457*%
%ADD669R,0.0014X0.0500*%
%ADD670R,0.0014X0.0515*%
%ADD671R,0.0014X0.0529*%
%ADD672R,0.0014X0.0142*%
%ADD673R,0.0014X0.0543*%
%ADD674R,0.0014X0.0615*%
%ADD675R,0.0014X0.0558*%
%ADD676R,0.0014X0.0142*%
%ADD677R,0.0014X0.0700*%
%ADD678R,0.0014X0.0115*%
%ADD679R,0.0014X0.0715*%
%ADD680R,0.0014X0.0743*%
%ADD681R,0.0014X0.0772*%
%ADD682R,0.0014X0.0786*%
%ADD683R,0.0014X0.0815*%
%ADD684R,0.0014X0.1072*%
%ADD685R,0.0014X0.1115*%
%ADD686R,0.0014X0.0457*%
%ADD687R,0.0014X0.1129*%
%ADD688R,0.0014X0.0686*%
%ADD689R,0.0014X0.0457*%
%ADD690R,0.0014X0.1143*%
%ADD691R,0.0014X0.1143*%
%ADD692R,0.0014X0.1000*%
%ADD693R,0.0014X0.0872*%
%ADD694R,0.0014X0.0872*%
%ADD695R,0.0014X0.0542*%
%ADD696R,0.0014X0.1000*%
%ADD697R,0.0014X0.0872*%
%ADD698R,0.0014X0.0542*%
%ADD699R,0.0014X0.0357*%
%ADD700R,0.0014X0.0172*%
%ADD701R,0.0014X0.0486*%
%ADD702R,0.0014X0.0172*%
%ADD703R,0.0014X0.0171*%
%ADD704R,0.0014X0.0171*%
%ADD705R,0.0014X0.0172*%
%ADD706R,0.0014X0.0314*%
%ADD707R,0.0014X0.0500*%
%ADD708R,0.0014X0.0515*%
%ADD709R,0.0014X0.0158*%
%ADD710R,0.0014X0.0515*%
%ADD711R,0.0014X0.0258*%
%ADD712R,0.0014X0.0228*%
%ADD713R,0.0014X0.0529*%
%ADD714R,0.0014X0.0228*%
%ADD715R,0.0014X0.0529*%
%ADD716R,0.0014X0.0171*%
%ADD717R,0.0014X0.0171*%
%ADD718R,0.0014X0.0543*%
%ADD719R,0.0014X0.0071*%
%ADD720R,0.0014X0.0543*%
%ADD721R,0.0014X0.0328*%
%ADD722R,0.0014X0.0272*%
%ADD723R,0.0014X0.0471*%
%ADD724R,0.0014X0.0472*%
%ADD725R,0.0014X0.0186*%
%ADD726R,0.0014X0.0128*%
%ADD727R,0.0014X0.0014*%
%ADD728R,0.0014X0.0357*%
%ADD729R,0.0014X0.0357*%
%ADD730R,0.0014X0.0015*%
%ADD731R,0.0014X0.0028*%
%ADD732R,0.0014X0.0028*%
%ADD733R,0.0014X0.0528*%
%ADD734R,0.0014X0.0371*%
%ADD735R,0.0014X0.0371*%
%ADD736R,0.0014X0.0372*%
%ADD737R,0.0014X0.0586*%
%ADD738R,0.0014X0.0329*%
%ADD739R,0.0014X0.0200*%
%ADD740R,0.0014X0.0114*%
%ADD741R,0.0014X0.0572*%
%ADD742R,0.0014X0.0014*%
%ADD743R,0.0014X0.0572*%
%ADD744R,0.0014X0.0015*%
%ADD745R,0.0014X0.0342*%
%ADD746R,0.0014X0.0385*%
%ADD747R,0.0014X0.0342*%
%ADD748R,0.0014X0.0314*%
%ADD749R,0.0014X0.0514*%
%ADD750R,0.0014X0.0371*%
%ADD751R,0.0014X0.0342*%
%ADD752R,0.0014X0.0471*%
%ADD753R,0.0014X0.0471*%
%ADD754R,0.0014X0.0414*%
%ADD755C,0.0080*%
%ADD756C,0.0100*%
%ADD757C,0.0060*%
%ADD758C,0.0020*%
D10*
X005219Y002108D03*
X005219Y002158D03*
X005219Y002208D03*
X005219Y002258D03*
X005219Y002308D03*
X005219Y002358D03*
X005219Y002408D03*
X005219Y002458D03*
X005219Y002508D03*
X005219Y002558D03*
X005219Y002608D03*
X005219Y002658D03*
X005219Y002708D03*
X005219Y002758D03*
X005219Y002808D03*
X005219Y002858D03*
X005219Y002908D03*
X005219Y002958D03*
X005219Y003008D03*
X005219Y003058D03*
X005219Y003108D03*
X005219Y003158D03*
X005219Y003208D03*
X005219Y003258D03*
X005219Y003308D03*
X005219Y003358D03*
X005219Y003408D03*
X005219Y003458D03*
X005219Y003508D03*
X005219Y003558D03*
X005219Y003608D03*
X005219Y003658D03*
X005219Y003708D03*
X005219Y003758D03*
X005219Y003808D03*
X005219Y003858D03*
X005219Y003908D03*
X005219Y003958D03*
X005219Y004008D03*
X005219Y004058D03*
X005219Y004108D03*
X005219Y004158D03*
X005219Y004208D03*
X005219Y004258D03*
X005219Y004308D03*
X005219Y004358D03*
X005219Y004408D03*
X005219Y004458D03*
X005219Y004508D03*
X005219Y004558D03*
X005219Y004608D03*
X005219Y004658D03*
X005219Y004708D03*
X005219Y004758D03*
X005219Y004808D03*
X005219Y004858D03*
X005219Y004908D03*
X005219Y004958D03*
X005219Y005008D03*
X005219Y005058D03*
X005219Y005108D03*
X005219Y005158D03*
X005219Y005208D03*
X005219Y005258D03*
X005219Y005308D03*
X005219Y005358D03*
X005219Y005408D03*
X005219Y005458D03*
X005219Y005508D03*
X005219Y005558D03*
X005219Y005608D03*
X005219Y005658D03*
X005219Y005708D03*
X005219Y005758D03*
X005219Y005808D03*
X005219Y005858D03*
X005219Y005908D03*
X005219Y005958D03*
X005219Y006008D03*
X005219Y006058D03*
X005219Y006108D03*
X005219Y006158D03*
X005219Y006208D03*
X005219Y006258D03*
X005219Y006308D03*
X005219Y006358D03*
X005219Y006408D03*
X005219Y006458D03*
X005219Y006508D03*
X005219Y006558D03*
X005219Y006608D03*
X005219Y006658D03*
X005219Y006708D03*
X005219Y006758D03*
X005219Y006808D03*
X005219Y006858D03*
X005219Y006908D03*
X005219Y006958D03*
X005219Y007008D03*
X005219Y007058D03*
X005219Y007108D03*
X005219Y007158D03*
X005219Y007208D03*
X005219Y007258D03*
X005219Y007308D03*
X005219Y007358D03*
X005219Y007408D03*
X005219Y007458D03*
X005219Y007508D03*
X005219Y007558D03*
X005219Y007608D03*
X005219Y007658D03*
X005219Y007708D03*
X005219Y007758D03*
X005219Y007808D03*
X005219Y007858D03*
X005219Y007908D03*
X005219Y007958D03*
X005219Y008008D03*
X005219Y008058D03*
X005219Y008108D03*
X005219Y008158D03*
X005219Y008208D03*
X005219Y008258D03*
X005219Y008308D03*
X005219Y008358D03*
X005219Y008408D03*
X005219Y008458D03*
X005219Y008508D03*
X005219Y008558D03*
X005219Y008608D03*
X005219Y008658D03*
X005219Y008708D03*
X005219Y008758D03*
X005219Y008808D03*
X005219Y008858D03*
X005219Y008908D03*
X005219Y008958D03*
X005219Y009008D03*
X005219Y009058D03*
X005219Y009108D03*
X005219Y009158D03*
X005219Y009208D03*
X005219Y009258D03*
X005219Y009308D03*
X005219Y009358D03*
X005219Y009408D03*
X005219Y009458D03*
X005219Y009508D03*
X005219Y009558D03*
X005219Y009608D03*
X005219Y009658D03*
X005219Y009708D03*
X005219Y009758D03*
X005219Y009808D03*
X005219Y009858D03*
X005219Y009908D03*
X005219Y009958D03*
X005219Y010008D03*
X005219Y010058D03*
X005219Y010108D03*
X005219Y010158D03*
X005219Y010208D03*
X005219Y010258D03*
X005219Y010308D03*
X005219Y010358D03*
X005219Y010408D03*
X005219Y010458D03*
X005219Y010508D03*
X005219Y010558D03*
X005219Y010608D03*
X005219Y010658D03*
X005219Y010708D03*
X005219Y010758D03*
X005219Y010808D03*
X005219Y010858D03*
X005219Y010908D03*
X005219Y010958D03*
X005219Y011008D03*
X005219Y011058D03*
X005219Y011108D03*
X005219Y011158D03*
X005219Y011208D03*
X005219Y011258D03*
X005219Y011308D03*
X005219Y011358D03*
X005219Y011408D03*
X005219Y011458D03*
X005219Y011508D03*
X005219Y011558D03*
X005219Y011608D03*
X005219Y011658D03*
X005219Y011708D03*
X005219Y011758D03*
X005219Y011808D03*
X005219Y011858D03*
X005219Y011908D03*
X005219Y011958D03*
X005219Y012008D03*
X005219Y012058D03*
X005219Y012108D03*
X005219Y012158D03*
X005219Y012208D03*
X005219Y012258D03*
X005219Y012308D03*
X005219Y012358D03*
X005219Y012408D03*
X005219Y012458D03*
X005219Y012508D03*
X005219Y012558D03*
X005219Y012608D03*
X005219Y012658D03*
X005219Y012708D03*
X005219Y012758D03*
X005219Y012808D03*
X005219Y012858D03*
X005219Y012908D03*
X005219Y012958D03*
X005219Y013008D03*
X005219Y013058D03*
X005219Y013108D03*
X005219Y013158D03*
X005219Y013208D03*
X005219Y013258D03*
X005219Y013308D03*
X005219Y013358D03*
X005219Y013408D03*
X005219Y013458D03*
X005219Y013508D03*
X005219Y013558D03*
X005219Y013608D03*
X005219Y013658D03*
X005219Y013708D03*
X005219Y013758D03*
X005219Y013808D03*
X005219Y013858D03*
X022652Y008258D03*
X022719Y008308D03*
X024452Y008358D03*
X024502Y008158D03*
X025969Y008508D03*
X023302Y007408D03*
X023186Y007058D03*
X031069Y006258D03*
X032202Y006108D03*
X034352Y007358D03*
D11*
X033852Y007292D03*
X033236Y006092D03*
X030086Y008242D03*
X030352Y009325D03*
X030369Y009342D03*
X027019Y008642D03*
X025952Y008525D03*
X025936Y008542D03*
X024436Y008375D03*
X022769Y008342D03*
X022702Y008292D03*
X022636Y008242D03*
X021369Y008042D03*
X023302Y007392D03*
X023302Y007375D03*
X023202Y007092D03*
X023202Y007075D03*
X023186Y007042D03*
X023802Y006625D03*
X020969Y006425D03*
X020886Y005175D03*
X016886Y006875D03*
X014536Y006875D03*
X014536Y009092D03*
X016886Y009092D03*
X021052Y009192D03*
X030702Y010825D03*
X034186Y008625D03*
X005219Y008625D03*
X005219Y008642D03*
X005219Y008675D03*
X005219Y008692D03*
X005219Y008725D03*
X005219Y008742D03*
X005219Y008775D03*
X005219Y008792D03*
X005219Y008825D03*
X005219Y008842D03*
X005219Y008875D03*
X005219Y008892D03*
X005219Y008925D03*
X005219Y008942D03*
X005219Y008975D03*
X005219Y008992D03*
X005219Y009025D03*
X005219Y009042D03*
X005219Y009075D03*
X005219Y009092D03*
X005219Y009125D03*
X005219Y009142D03*
X005219Y009175D03*
X005219Y009192D03*
X005219Y009225D03*
X005219Y009242D03*
X005219Y009275D03*
X005219Y009292D03*
X005219Y009325D03*
X005219Y009342D03*
X005219Y009375D03*
X005219Y009392D03*
X005219Y009425D03*
X005219Y009442D03*
X005219Y009475D03*
X005219Y009492D03*
X005219Y009525D03*
X005219Y009542D03*
X005219Y009575D03*
X005219Y009592D03*
X005219Y009625D03*
X005219Y009642D03*
X005219Y009675D03*
X005219Y009692D03*
X005219Y009725D03*
X005219Y009742D03*
X005219Y009775D03*
X005219Y009792D03*
X005219Y009825D03*
X005219Y009842D03*
X005219Y009875D03*
X005219Y009892D03*
X005219Y009925D03*
X005219Y009942D03*
X005219Y009975D03*
X005219Y009992D03*
X005219Y010025D03*
X005219Y010042D03*
X005219Y010075D03*
X005219Y010092D03*
X005219Y010125D03*
X005219Y010142D03*
X005219Y010175D03*
X005219Y010192D03*
X005219Y010225D03*
X005219Y010242D03*
X005219Y010275D03*
X005219Y010292D03*
X005219Y010325D03*
X005219Y010342D03*
X005219Y010375D03*
X005219Y010392D03*
X005219Y010425D03*
X005219Y010442D03*
X005219Y010475D03*
X005219Y010492D03*
X005219Y010525D03*
X005219Y010542D03*
X005219Y010575D03*
X005219Y010592D03*
X005219Y010625D03*
X005219Y010642D03*
X005219Y010675D03*
X005219Y010692D03*
X005219Y010725D03*
X005219Y010742D03*
X005219Y010775D03*
X005219Y010792D03*
X005219Y010825D03*
X005219Y010842D03*
X005219Y010875D03*
X005219Y010892D03*
X005219Y010925D03*
X005219Y010942D03*
X005219Y010975D03*
X005219Y010992D03*
X005219Y011025D03*
X005219Y011042D03*
X005219Y011075D03*
X005219Y011092D03*
X005219Y011125D03*
X005219Y011142D03*
X005219Y011175D03*
X005219Y011192D03*
X005219Y011225D03*
X005219Y011242D03*
X005219Y011275D03*
X005219Y011292D03*
X005219Y011325D03*
X005219Y011342D03*
X005219Y011375D03*
X005219Y011392D03*
X005219Y011425D03*
X005219Y011442D03*
X005219Y011475D03*
X005219Y011492D03*
X005219Y011525D03*
X005219Y011542D03*
X005219Y011575D03*
X005219Y011592D03*
X005219Y011625D03*
X005219Y011642D03*
X005219Y011675D03*
X005219Y011692D03*
X005219Y011725D03*
X005219Y011742D03*
X005219Y011775D03*
X005219Y011792D03*
X005219Y011825D03*
X005219Y011842D03*
X005219Y011875D03*
X005219Y011892D03*
X005219Y011925D03*
X005219Y011942D03*
X005219Y011975D03*
X005219Y011992D03*
X005219Y012025D03*
X005219Y012042D03*
X005219Y012075D03*
X005219Y012092D03*
X005219Y012125D03*
X005219Y012142D03*
X005219Y012175D03*
X005219Y012192D03*
X005219Y012225D03*
X005219Y012242D03*
X005219Y012275D03*
X005219Y012292D03*
X005219Y012325D03*
X005219Y012342D03*
X005219Y012375D03*
X005219Y012392D03*
X005219Y012425D03*
X005219Y012442D03*
X005219Y012475D03*
X005219Y012492D03*
X005219Y012525D03*
X005219Y012542D03*
X005219Y012575D03*
X005219Y012592D03*
X005219Y012625D03*
X005219Y012642D03*
X005219Y012675D03*
X005219Y012692D03*
X005219Y012725D03*
X005219Y012742D03*
X005219Y012775D03*
X005219Y012792D03*
X005219Y012825D03*
X005219Y012842D03*
X005219Y012875D03*
X005219Y012892D03*
X005219Y012925D03*
X005219Y012942D03*
X005219Y012975D03*
X005219Y012992D03*
X005219Y013025D03*
X005219Y013042D03*
X005219Y013075D03*
X005219Y013092D03*
X005219Y013125D03*
X005219Y013142D03*
X005219Y013175D03*
X005219Y013192D03*
X005219Y013225D03*
X005219Y013242D03*
X005219Y013275D03*
X005219Y013292D03*
X005219Y013325D03*
X005219Y013342D03*
X005219Y013375D03*
X005219Y013392D03*
X005219Y013425D03*
X005219Y013442D03*
X005219Y013475D03*
X005219Y013492D03*
X005219Y013525D03*
X005219Y013542D03*
X005219Y013575D03*
X005219Y013592D03*
X005219Y013625D03*
X005219Y013642D03*
X005219Y013675D03*
X005219Y013692D03*
X005219Y013725D03*
X005219Y013742D03*
X005219Y013775D03*
X005219Y013792D03*
X005219Y013825D03*
X005219Y013842D03*
X005219Y008592D03*
X005219Y008575D03*
X005219Y008542D03*
X005219Y008525D03*
X005219Y008492D03*
X005219Y008475D03*
X005219Y008442D03*
X005219Y008425D03*
X005219Y008392D03*
X005219Y008375D03*
X005219Y008342D03*
X005219Y008325D03*
X005219Y008292D03*
X005219Y008275D03*
X005219Y008242D03*
X005219Y008225D03*
X005219Y008192D03*
X005219Y008175D03*
X005219Y008142D03*
X005219Y008125D03*
X005219Y008092D03*
X005219Y008075D03*
X005219Y008042D03*
X005219Y008025D03*
X005219Y007992D03*
X005219Y007975D03*
X005219Y007942D03*
X005219Y007925D03*
X005219Y007892D03*
X005219Y007875D03*
X005219Y007842D03*
X005219Y007825D03*
X005219Y007792D03*
X005219Y007775D03*
X005219Y007742D03*
X005219Y007725D03*
X005219Y007692D03*
X005219Y007675D03*
X005219Y007642D03*
X005219Y007625D03*
X005219Y007592D03*
X005219Y007575D03*
X005219Y007542D03*
X005219Y007525D03*
X005219Y007492D03*
X005219Y007475D03*
X005219Y007442D03*
X005219Y007425D03*
X005219Y007392D03*
X005219Y007375D03*
X005219Y007342D03*
X005219Y007325D03*
X005219Y007292D03*
X005219Y007275D03*
X005219Y007242D03*
X005219Y007225D03*
X005219Y007192D03*
X005219Y007175D03*
X005219Y007142D03*
X005219Y007125D03*
X005219Y007092D03*
X005219Y007075D03*
X005219Y007042D03*
X005219Y007025D03*
X005219Y006992D03*
X005219Y006975D03*
X005219Y006942D03*
X005219Y006925D03*
X005219Y006892D03*
X005219Y006875D03*
X005219Y006842D03*
X005219Y006825D03*
X005219Y006792D03*
X005219Y006775D03*
X005219Y006742D03*
X005219Y006725D03*
X005219Y006692D03*
X005219Y006675D03*
X005219Y006642D03*
X005219Y006625D03*
X005219Y006592D03*
X005219Y006575D03*
X005219Y006542D03*
X005219Y006525D03*
X005219Y006492D03*
X005219Y006475D03*
X005219Y006442D03*
X005219Y006425D03*
X005219Y006392D03*
X005219Y006375D03*
X005219Y006342D03*
X005219Y006325D03*
X005219Y006292D03*
X005219Y006275D03*
X005219Y006242D03*
X005219Y006225D03*
X005219Y006192D03*
X005219Y006175D03*
X005219Y006142D03*
X005219Y006125D03*
X005219Y006092D03*
X005219Y006075D03*
X005219Y006042D03*
X005219Y006025D03*
X005219Y005992D03*
X005219Y005975D03*
X005219Y005942D03*
X005219Y005925D03*
X005219Y005892D03*
X005219Y005875D03*
X005219Y005842D03*
X005219Y005825D03*
X005219Y005792D03*
X005219Y005775D03*
X005219Y005742D03*
X005219Y005725D03*
X005219Y005692D03*
X005219Y005675D03*
X005219Y005642D03*
X005219Y005625D03*
X005219Y005592D03*
X005219Y005575D03*
X005219Y005542D03*
X005219Y005525D03*
X005219Y005492D03*
X005219Y005475D03*
X005219Y005442D03*
X005219Y005425D03*
X005219Y005392D03*
X005219Y005375D03*
X005219Y005342D03*
X005219Y005325D03*
X005219Y005292D03*
X005219Y005275D03*
X005219Y005242D03*
X005219Y005225D03*
X005219Y005192D03*
X005219Y005175D03*
X005219Y005142D03*
X005219Y005125D03*
X005219Y005092D03*
X005219Y005075D03*
X005219Y005042D03*
X005219Y005025D03*
X005219Y004992D03*
X005219Y004975D03*
X005219Y004942D03*
X005219Y004925D03*
X005219Y004892D03*
X005219Y004875D03*
X005219Y004842D03*
X005219Y004825D03*
X005219Y004792D03*
X005219Y004775D03*
X005219Y004742D03*
X005219Y004725D03*
X005219Y004692D03*
X005219Y004675D03*
X005219Y004642D03*
X005219Y004625D03*
X005219Y004592D03*
X005219Y004575D03*
X005219Y004542D03*
X005219Y004525D03*
X005219Y004492D03*
X005219Y004475D03*
X005219Y004442D03*
X005219Y004425D03*
X005219Y004392D03*
X005219Y004375D03*
X005219Y004342D03*
X005219Y004325D03*
X005219Y004292D03*
X005219Y004275D03*
X005219Y004242D03*
X005219Y004225D03*
X005219Y004192D03*
X005219Y004175D03*
X005219Y004142D03*
X005219Y004125D03*
X005219Y004092D03*
X005219Y004075D03*
X005219Y004042D03*
X005219Y004025D03*
X005219Y003992D03*
X005219Y003975D03*
X005219Y003942D03*
X005219Y003925D03*
X005219Y003892D03*
X005219Y003875D03*
X005219Y003842D03*
X005219Y003825D03*
X005219Y003792D03*
X005219Y003775D03*
X005219Y003742D03*
X005219Y003725D03*
X005219Y003692D03*
X005219Y003675D03*
X005219Y003642D03*
X005219Y003625D03*
X005219Y003592D03*
X005219Y003575D03*
X005219Y003542D03*
X005219Y003525D03*
X005219Y003492D03*
X005219Y003475D03*
X005219Y003442D03*
X005219Y003425D03*
X005219Y003392D03*
X005219Y003375D03*
X005219Y003342D03*
X005219Y003325D03*
X005219Y003292D03*
X005219Y003275D03*
X005219Y003242D03*
X005219Y003225D03*
X005219Y003192D03*
X005219Y003175D03*
X005219Y003142D03*
X005219Y003125D03*
X005219Y003092D03*
X005219Y003075D03*
X005219Y003042D03*
X005219Y003025D03*
X005219Y002992D03*
X005219Y002975D03*
X005219Y002942D03*
X005219Y002925D03*
X005219Y002892D03*
X005219Y002875D03*
X005219Y002842D03*
X005219Y002825D03*
X005219Y002792D03*
X005219Y002775D03*
X005219Y002742D03*
X005219Y002725D03*
X005219Y002692D03*
X005219Y002675D03*
X005219Y002642D03*
X005219Y002625D03*
X005219Y002592D03*
X005219Y002575D03*
X005219Y002542D03*
X005219Y002525D03*
X005219Y002492D03*
X005219Y002475D03*
X005219Y002442D03*
X005219Y002425D03*
X005219Y002392D03*
X005219Y002375D03*
X005219Y002342D03*
X005219Y002325D03*
X005219Y002292D03*
X005219Y002275D03*
X005219Y002242D03*
X005219Y002225D03*
X005219Y002192D03*
X005219Y002175D03*
X005219Y002142D03*
X005219Y002125D03*
D12*
X006427Y002292D03*
X006427Y002792D03*
X006427Y003842D03*
X006427Y004342D03*
X006427Y005392D03*
X006427Y006675D03*
X006427Y008225D03*
X006427Y009275D03*
X006427Y009775D03*
X006427Y010825D03*
X006427Y010942D03*
X006427Y011325D03*
X006427Y012375D03*
X006427Y012492D03*
X006427Y012875D03*
X006427Y013542D03*
X023994Y008925D03*
X035794Y007792D03*
D13*
X006428Y008208D03*
X006428Y008508D03*
X006428Y008908D03*
X006428Y009758D03*
X006428Y010058D03*
X006428Y010458D03*
X006428Y011308D03*
X006428Y011708D03*
X006428Y012008D03*
X006428Y013258D03*
X006428Y013558D03*
X006428Y006958D03*
X006428Y006658D03*
X006428Y005408D03*
X006428Y005108D03*
X006428Y003858D03*
X006428Y003558D03*
X006428Y002308D03*
D14*
X006428Y002325D03*
X006428Y002342D03*
X006428Y002725D03*
X006428Y002742D03*
X006428Y003125D03*
X006428Y003142D03*
X006428Y003492D03*
X006428Y003525D03*
X006428Y003875D03*
X006428Y003892D03*
X006428Y004275D03*
X006428Y004292D03*
X006428Y004675D03*
X006428Y004692D03*
X006428Y005042D03*
X006428Y005075D03*
X006428Y005442D03*
X006428Y005475D03*
X006428Y005825D03*
X006428Y005842D03*
X006428Y006225D03*
X006428Y006242D03*
X006428Y006592D03*
X006428Y006625D03*
X006428Y006992D03*
X006428Y007025D03*
X006428Y007375D03*
X006428Y007392D03*
X006428Y007775D03*
X006428Y007792D03*
X006428Y008142D03*
X006428Y008175D03*
X006428Y008542D03*
X006428Y008575D03*
X006428Y008925D03*
X006428Y008942D03*
X006428Y009325D03*
X006428Y009342D03*
X006428Y009725D03*
X006428Y009742D03*
X006428Y010092D03*
X006428Y010125D03*
X006428Y010475D03*
X006428Y010492D03*
X006428Y010875D03*
X006428Y010892D03*
X006428Y011275D03*
X006428Y011292D03*
X006428Y011642D03*
X006428Y011675D03*
X006428Y012025D03*
X006428Y012042D03*
X006428Y012425D03*
X006428Y012442D03*
X006428Y012825D03*
X006428Y012842D03*
X006428Y013192D03*
X006428Y013225D03*
X006428Y013575D03*
X006428Y013592D03*
X023728Y006042D03*
D15*
X022061Y009258D03*
X006428Y009308D03*
X006428Y008958D03*
X006428Y008558D03*
X006428Y008158D03*
X006428Y007758D03*
X006428Y007408D03*
X006428Y007008D03*
X006428Y006608D03*
X006428Y006208D03*
X006428Y005858D03*
X006428Y005458D03*
X006428Y005058D03*
X006428Y004658D03*
X006428Y004308D03*
X006428Y003908D03*
X006428Y003508D03*
X006428Y003108D03*
X006428Y002758D03*
X006428Y002358D03*
X006428Y009708D03*
X006428Y010108D03*
X006428Y010508D03*
X006428Y010858D03*
X006428Y011258D03*
X006428Y011658D03*
X006428Y012058D03*
X006428Y012408D03*
X006428Y012808D03*
X006428Y013208D03*
X006428Y013608D03*
D16*
X006436Y013625D03*
X006436Y013242D03*
X006436Y012792D03*
X006436Y012075D03*
X006436Y011692D03*
X006436Y011625D03*
X006436Y011242D03*
X006436Y010525D03*
X006436Y010142D03*
X006436Y010075D03*
X006436Y009692D03*
X006436Y008975D03*
X006436Y008592D03*
X006436Y008525D03*
X006436Y008192D03*
X006436Y007425D03*
X006436Y007042D03*
X006436Y006975D03*
X006436Y006642D03*
X006436Y005875D03*
X006436Y005425D03*
X006436Y005092D03*
X006436Y004325D03*
X006436Y003925D03*
X006436Y003542D03*
X006436Y003092D03*
X006436Y002775D03*
X006436Y002375D03*
X022086Y009342D03*
X028302Y009442D03*
D17*
X022061Y009242D03*
X023728Y006025D03*
X006428Y006192D03*
X006428Y006275D03*
X006428Y006575D03*
X006428Y005792D03*
X006428Y005492D03*
X006428Y005025D03*
X006428Y004725D03*
X006428Y004642D03*
X006428Y004242D03*
X006428Y003942D03*
X006428Y003475D03*
X006428Y003175D03*
X006428Y002692D03*
X006428Y002392D03*
X006428Y007442D03*
X006428Y007742D03*
X006428Y007825D03*
X006428Y008125D03*
X006428Y008992D03*
X006428Y009292D03*
X006428Y009375D03*
X006428Y009675D03*
X006428Y010542D03*
X006428Y010842D03*
X006428Y010925D03*
X006428Y011225D03*
X006428Y012092D03*
X006428Y012392D03*
X006428Y012475D03*
X006428Y012775D03*
X006428Y013175D03*
X006428Y013642D03*
D18*
X006427Y009658D03*
X006427Y008608D03*
X006427Y008108D03*
X006427Y007058D03*
X006427Y006558D03*
X006427Y005508D03*
X006427Y005008D03*
X006427Y003958D03*
X006427Y002408D03*
X022077Y009208D03*
D19*
X022878Y007925D03*
X023711Y005975D03*
X032011Y006875D03*
X032028Y006892D03*
X032028Y006925D03*
X032061Y006992D03*
X006428Y006942D03*
X006428Y007325D03*
X006428Y006292D03*
X006428Y005775D03*
X006428Y004742D03*
X006428Y004225D03*
X006428Y002675D03*
X006428Y008492D03*
X006428Y008875D03*
X006428Y010042D03*
X006428Y011592D03*
X006428Y013142D03*
X006428Y013275D03*
D20*
X006436Y012858D03*
X006436Y012458D03*
X006436Y010908D03*
X006436Y009358D03*
X006436Y007808D03*
X006436Y007358D03*
X006436Y006258D03*
X006436Y005808D03*
X006436Y004708D03*
X006436Y004258D03*
X006436Y003158D03*
X006436Y002708D03*
X024052Y008958D03*
D21*
X032028Y006908D03*
X006428Y009008D03*
X006428Y010558D03*
X006428Y011208D03*
X006428Y012758D03*
X006428Y004608D03*
X006428Y003058D03*
D22*
X006436Y003075D03*
X006436Y004625D03*
X006436Y005892D03*
X006436Y006175D03*
X006436Y007342D03*
X006436Y007725D03*
X006436Y008892D03*
X006436Y010442D03*
X006436Y011992D03*
X025503Y009175D03*
X021103Y005642D03*
D23*
X022886Y007942D03*
X022086Y009192D03*
X022136Y009392D03*
X022352Y010242D03*
X024552Y009092D03*
X025519Y009192D03*
X033352Y008242D03*
X035886Y007825D03*
X006436Y010175D03*
X006419Y010425D03*
X006436Y011725D03*
X006436Y003192D03*
D24*
X006436Y003458D03*
X024653Y009108D03*
X022103Y009358D03*
X006436Y010158D03*
X006436Y011608D03*
X006436Y013158D03*
D25*
X006436Y009392D03*
X006436Y007842D03*
X006436Y005125D03*
X006436Y003575D03*
X022836Y007892D03*
X032053Y006975D03*
D26*
X033578Y007608D03*
X032478Y007808D03*
X028011Y005958D03*
X023278Y007308D03*
X023211Y007108D03*
X026011Y008458D03*
X027061Y008658D03*
X026378Y008858D03*
X014528Y008858D03*
X014528Y008808D03*
X014528Y008758D03*
X014528Y008708D03*
X014528Y008658D03*
X014528Y008608D03*
X014528Y008558D03*
X014528Y008508D03*
X014528Y008458D03*
X014528Y008408D03*
X014528Y008358D03*
X014528Y008308D03*
X014528Y008258D03*
X014528Y008208D03*
X014528Y008158D03*
X014528Y008108D03*
X014528Y008058D03*
X014528Y008008D03*
X014528Y007958D03*
X014528Y007908D03*
X014528Y007858D03*
X014528Y007808D03*
X014528Y007758D03*
X014528Y007708D03*
X014528Y007658D03*
X014528Y007608D03*
X014528Y007558D03*
X014528Y007508D03*
X014528Y007458D03*
X014528Y007408D03*
X014528Y007358D03*
X014528Y007308D03*
X014528Y007258D03*
X014528Y007208D03*
X014528Y007158D03*
X014528Y007108D03*
X014528Y007058D03*
X014528Y007008D03*
X014528Y006958D03*
X014528Y006908D03*
X014528Y006708D03*
X014528Y006658D03*
X014528Y006608D03*
X014528Y006558D03*
X014528Y006508D03*
X014528Y006458D03*
X014528Y006408D03*
X014528Y006358D03*
X014528Y006308D03*
X014528Y006258D03*
X014528Y006208D03*
X014528Y006158D03*
X014528Y006108D03*
X014528Y006058D03*
X014528Y006008D03*
X014528Y005958D03*
X014528Y005908D03*
X014528Y005858D03*
X014528Y005808D03*
X014528Y005758D03*
X014528Y005708D03*
X014528Y005658D03*
X014528Y005608D03*
X014528Y005558D03*
X014528Y005508D03*
X014528Y005458D03*
X014528Y005408D03*
X014528Y005358D03*
X014528Y005308D03*
X014528Y005258D03*
X014528Y005208D03*
X014528Y005158D03*
X014528Y005108D03*
X014528Y005058D03*
X014528Y005008D03*
X014528Y004958D03*
X014528Y004908D03*
X014528Y004858D03*
X014528Y004808D03*
X014528Y004758D03*
X014528Y004708D03*
X014528Y004658D03*
X014528Y004608D03*
X014528Y004558D03*
X014528Y004508D03*
X014528Y004458D03*
X014528Y004408D03*
X014528Y004358D03*
X014528Y004308D03*
X014528Y004258D03*
X014528Y004208D03*
X014528Y004158D03*
X014528Y004108D03*
X014528Y004058D03*
X014528Y008908D03*
X014528Y008958D03*
X014528Y009008D03*
X014528Y009058D03*
X014528Y009258D03*
X014528Y009308D03*
X014528Y009358D03*
X014528Y009408D03*
X014528Y009458D03*
X014528Y009508D03*
X014528Y009558D03*
X014528Y009608D03*
X014528Y009658D03*
X014528Y009708D03*
X014528Y009758D03*
X014528Y009808D03*
X014528Y009858D03*
X014528Y009908D03*
X014528Y009958D03*
X014528Y010008D03*
X014528Y010058D03*
X014528Y010108D03*
X014528Y010158D03*
X014528Y010208D03*
X014528Y010258D03*
X014528Y010308D03*
X014528Y010358D03*
X014528Y010408D03*
X014528Y010458D03*
X014528Y010508D03*
X014528Y010558D03*
X014528Y010608D03*
X014528Y010658D03*
X014528Y010708D03*
X014528Y010758D03*
X014528Y010808D03*
X014528Y010858D03*
X014528Y010908D03*
X014528Y010958D03*
X014528Y011008D03*
X014528Y011058D03*
X014528Y011108D03*
X014528Y011158D03*
X014528Y011208D03*
X014528Y011258D03*
X014528Y011308D03*
X014528Y011358D03*
X014528Y011408D03*
X014528Y011458D03*
X014528Y011508D03*
X014528Y011558D03*
X014528Y011608D03*
X014528Y011658D03*
X014528Y011708D03*
X014528Y011758D03*
X014528Y011808D03*
X014528Y011858D03*
X014528Y011908D03*
D27*
X014528Y011892D03*
X014528Y011875D03*
X014528Y011842D03*
X014528Y011825D03*
X014528Y011792D03*
X014528Y011775D03*
X014528Y011742D03*
X014528Y011725D03*
X014528Y011692D03*
X014528Y011675D03*
X014528Y011642D03*
X014528Y011625D03*
X014528Y011592D03*
X014528Y011575D03*
X014528Y011542D03*
X014528Y011525D03*
X014528Y011492D03*
X014528Y011475D03*
X014528Y011442D03*
X014528Y011425D03*
X014528Y011392D03*
X014528Y011375D03*
X014528Y011342D03*
X014528Y011325D03*
X014528Y011292D03*
X014528Y011275D03*
X014528Y011242D03*
X014528Y011225D03*
X014528Y011192D03*
X014528Y011175D03*
X014528Y011142D03*
X014528Y011125D03*
X014528Y011092D03*
X014528Y011075D03*
X014528Y011042D03*
X014528Y011025D03*
X014528Y010992D03*
X014528Y010975D03*
X014528Y010942D03*
X014528Y010925D03*
X014528Y010892D03*
X014528Y010875D03*
X014528Y010842D03*
X014528Y010825D03*
X014528Y010792D03*
X014528Y010775D03*
X014528Y010742D03*
X014528Y010725D03*
X014528Y010692D03*
X014528Y010675D03*
X014528Y010642D03*
X014528Y010625D03*
X014528Y010592D03*
X014528Y010575D03*
X014528Y010542D03*
X014528Y010525D03*
X014528Y010492D03*
X014528Y010475D03*
X014528Y010442D03*
X014528Y010425D03*
X014528Y010392D03*
X014528Y010375D03*
X014528Y010342D03*
X014528Y010325D03*
X014528Y010292D03*
X014528Y010275D03*
X014528Y010242D03*
X014528Y010225D03*
X014528Y010192D03*
X014528Y010175D03*
X014528Y010142D03*
X014528Y010125D03*
X014528Y010092D03*
X014528Y010075D03*
X014528Y010042D03*
X014528Y010025D03*
X014528Y009992D03*
X014528Y009975D03*
X014528Y009942D03*
X014528Y009925D03*
X014528Y009892D03*
X014528Y009875D03*
X014528Y009842D03*
X014528Y009825D03*
X014528Y009792D03*
X014528Y009775D03*
X014528Y009742D03*
X014528Y009725D03*
X014528Y009692D03*
X014528Y009675D03*
X014528Y009642D03*
X014528Y009625D03*
X014528Y009592D03*
X014528Y009575D03*
X014528Y009542D03*
X014528Y009525D03*
X014528Y009492D03*
X014528Y009475D03*
X014528Y009442D03*
X014528Y009425D03*
X014528Y009392D03*
X014528Y009375D03*
X014528Y009342D03*
X014528Y009325D03*
X014528Y009292D03*
X014528Y009275D03*
X014528Y009242D03*
X014528Y009075D03*
X014528Y009042D03*
X014528Y009025D03*
X014528Y008992D03*
X014528Y008975D03*
X014528Y008942D03*
X014528Y008925D03*
X014528Y008892D03*
X014528Y008875D03*
X014528Y008842D03*
X014528Y008825D03*
X014528Y008792D03*
X014528Y008775D03*
X014528Y008742D03*
X014528Y008725D03*
X014528Y008692D03*
X014528Y008675D03*
X014528Y008642D03*
X014528Y008625D03*
X014528Y008592D03*
X014528Y008575D03*
X014528Y008542D03*
X014528Y008525D03*
X014528Y008492D03*
X014528Y008475D03*
X014528Y008442D03*
X014528Y008425D03*
X014528Y008392D03*
X014528Y008375D03*
X014528Y008342D03*
X014528Y008325D03*
X014528Y008292D03*
X014528Y008275D03*
X014528Y008242D03*
X014528Y008225D03*
X014528Y008192D03*
X014528Y008175D03*
X014528Y008142D03*
X014528Y008125D03*
X014528Y008092D03*
X014528Y008075D03*
X014528Y008042D03*
X014528Y008025D03*
X014528Y007992D03*
X014528Y007975D03*
X014528Y007942D03*
X014528Y007925D03*
X014528Y007892D03*
X014528Y007875D03*
X014528Y007842D03*
X014528Y007825D03*
X014528Y007792D03*
X014528Y007775D03*
X014528Y007742D03*
X014528Y007725D03*
X014528Y007692D03*
X014528Y007675D03*
X014528Y007642D03*
X014528Y007625D03*
X014528Y007592D03*
X014528Y007575D03*
X014528Y007542D03*
X014528Y007525D03*
X014528Y007492D03*
X014528Y007475D03*
X014528Y007442D03*
X014528Y007425D03*
X014528Y007392D03*
X014528Y007375D03*
X014528Y007342D03*
X014528Y007325D03*
X014528Y007292D03*
X014528Y007275D03*
X014528Y007242D03*
X014528Y007225D03*
X014528Y007192D03*
X014528Y007175D03*
X014528Y007142D03*
X014528Y007125D03*
X014528Y007092D03*
X014528Y007075D03*
X014528Y007042D03*
X014528Y007025D03*
X014528Y006992D03*
X014528Y006975D03*
X014528Y006942D03*
X014528Y006925D03*
X014528Y006892D03*
X014528Y006725D03*
X014528Y006692D03*
X014528Y006675D03*
X014528Y006642D03*
X014528Y006625D03*
X014528Y006592D03*
X014528Y006575D03*
X014528Y006542D03*
X014528Y006525D03*
X014528Y006492D03*
X014528Y006475D03*
X014528Y006442D03*
X014528Y006425D03*
X014528Y006392D03*
X014528Y006375D03*
X014528Y006342D03*
X014528Y006325D03*
X014528Y006292D03*
X014528Y006275D03*
X014528Y006242D03*
X014528Y006225D03*
X014528Y006192D03*
X014528Y006175D03*
X014528Y006142D03*
X014528Y006125D03*
X014528Y006092D03*
X014528Y006075D03*
X014528Y006042D03*
X014528Y006025D03*
X014528Y005992D03*
X014528Y005975D03*
X014528Y005942D03*
X014528Y005925D03*
X014528Y005892D03*
X014528Y005875D03*
X014528Y005842D03*
X014528Y005825D03*
X014528Y005792D03*
X014528Y005775D03*
X014528Y005742D03*
X014528Y005725D03*
X014528Y005692D03*
X014528Y005675D03*
X014528Y005642D03*
X014528Y005625D03*
X014528Y005592D03*
X014528Y005575D03*
X014528Y005542D03*
X014528Y005525D03*
X014528Y005492D03*
X014528Y005475D03*
X014528Y005442D03*
X014528Y005425D03*
X014528Y005392D03*
X014528Y005375D03*
X014528Y005342D03*
X014528Y005325D03*
X014528Y005292D03*
X014528Y005275D03*
X014528Y005242D03*
X014528Y005225D03*
X014528Y005192D03*
X014528Y005175D03*
X014528Y005142D03*
X014528Y005125D03*
X014528Y005092D03*
X014528Y005075D03*
X014528Y005042D03*
X014528Y005025D03*
X014528Y004992D03*
X014528Y004975D03*
X014528Y004942D03*
X014528Y004925D03*
X014528Y004892D03*
X014528Y004875D03*
X014528Y004842D03*
X014528Y004825D03*
X014528Y004792D03*
X014528Y004775D03*
X014528Y004742D03*
X014528Y004725D03*
X014528Y004692D03*
X014528Y004675D03*
X014528Y004642D03*
X014528Y004625D03*
X014528Y004592D03*
X014528Y004575D03*
X014528Y004542D03*
X014528Y004525D03*
X014528Y004492D03*
X014528Y004475D03*
X014528Y004442D03*
X014528Y004425D03*
X014528Y004392D03*
X014528Y004375D03*
X014528Y004342D03*
X014528Y004325D03*
X014528Y004292D03*
X014528Y004275D03*
X014528Y004242D03*
X014528Y004225D03*
X014528Y004192D03*
X014528Y004175D03*
X014528Y004142D03*
X014528Y004125D03*
X014528Y004092D03*
X014528Y004075D03*
X023228Y007125D03*
X023228Y007142D03*
X023261Y007242D03*
X023278Y007292D03*
X023278Y007325D03*
X022678Y008275D03*
X024461Y008342D03*
X024478Y008325D03*
X031011Y010025D03*
X038178Y008675D03*
X032178Y006092D03*
D28*
X032778Y006542D03*
X028478Y006392D03*
X023111Y007842D03*
X020011Y006975D03*
X019528Y006742D03*
X021461Y006792D03*
X041678Y004242D03*
D29*
X041678Y004258D03*
X041678Y004358D03*
X041678Y006308D03*
X041678Y006708D03*
X041678Y006808D03*
X041678Y009158D03*
X041678Y009258D03*
X041678Y009658D03*
X041678Y011608D03*
X022728Y006308D03*
X021528Y006858D03*
D30*
X022011Y005975D03*
X022044Y005992D03*
X024677Y006242D03*
X029961Y006425D03*
X033111Y008192D03*
X027244Y009242D03*
X022027Y008775D03*
X041677Y008775D03*
X041677Y008792D03*
X041677Y008825D03*
X041677Y009175D03*
X041677Y009192D03*
X041677Y009225D03*
X041677Y009242D03*
X041677Y009592D03*
X041677Y009625D03*
X041677Y009642D03*
X041677Y009992D03*
X041677Y010025D03*
X041677Y010042D03*
X041677Y010425D03*
X041677Y010442D03*
X041677Y010825D03*
X041677Y010842D03*
X041677Y010875D03*
X041677Y011225D03*
X041677Y011242D03*
X041677Y011275D03*
X041677Y011625D03*
X041677Y011642D03*
X041677Y011675D03*
X041677Y011692D03*
X041677Y008425D03*
X041677Y008392D03*
X041677Y008375D03*
X041677Y007992D03*
X041677Y007975D03*
X041677Y007592D03*
X041677Y007575D03*
X041677Y007542D03*
X041677Y007192D03*
X041677Y007175D03*
X041677Y007142D03*
X041677Y006792D03*
X041677Y006775D03*
X041677Y006742D03*
X041677Y006725D03*
X041677Y006392D03*
X041677Y006375D03*
X041677Y006342D03*
X041677Y006325D03*
X041677Y005975D03*
X041677Y005942D03*
X041677Y005925D03*
X041677Y005575D03*
X041677Y005542D03*
X041677Y005525D03*
X041677Y005142D03*
X041677Y005125D03*
X041677Y005092D03*
X041677Y004742D03*
X041677Y004725D03*
X041677Y004692D03*
X041677Y004342D03*
X041677Y004325D03*
X041677Y004292D03*
X041677Y004275D03*
D31*
X041677Y004308D03*
X041677Y004708D03*
X041677Y004758D03*
X041677Y005108D03*
X041677Y005158D03*
X041677Y005508D03*
X041677Y005558D03*
X041677Y005908D03*
X041677Y005958D03*
X041677Y006358D03*
X041677Y006758D03*
X041677Y007158D03*
X041677Y007558D03*
X041677Y007608D03*
X041677Y007958D03*
X041677Y008008D03*
X041677Y008358D03*
X041677Y008408D03*
X041677Y008808D03*
X041677Y009208D03*
X041677Y009608D03*
X041677Y010008D03*
X041677Y010058D03*
X041677Y010408D03*
X041677Y010458D03*
X041677Y010808D03*
X041677Y010858D03*
X041677Y011208D03*
X041677Y011258D03*
X041677Y011658D03*
X033594Y008258D03*
X034927Y007658D03*
X036661Y008108D03*
X031744Y006758D03*
X026944Y007358D03*
X023061Y007858D03*
X022011Y008758D03*
D32*
X022911Y007958D03*
X023711Y005958D03*
X006428Y006158D03*
X006428Y007708D03*
X006428Y004358D03*
D33*
X021961Y008675D03*
X027911Y006725D03*
X025378Y005875D03*
X023661Y005725D03*
X031161Y007075D03*
X041678Y007225D03*
X041678Y007925D03*
X041678Y008042D03*
X041678Y008742D03*
X041678Y009675D03*
X041678Y010492D03*
X041678Y011592D03*
X041678Y006292D03*
X041678Y005475D03*
X041678Y004375D03*
D34*
X041678Y004658D03*
X041678Y007108D03*
X041678Y008858D03*
X041678Y009558D03*
X041678Y011308D03*
X024661Y006258D03*
X022178Y006058D03*
D35*
X026911Y007325D03*
X026928Y007342D03*
X027178Y009225D03*
X033078Y008175D03*
X036711Y008125D03*
X041678Y008025D03*
X041678Y008342D03*
X041678Y008442D03*
X041678Y008842D03*
X041678Y009975D03*
X041678Y010075D03*
X041678Y010475D03*
X041678Y010792D03*
X041678Y010892D03*
X041678Y011192D03*
X041678Y011292D03*
X041678Y007625D03*
X041678Y007525D03*
X041678Y007125D03*
X041678Y005992D03*
X041678Y005892D03*
X041678Y005492D03*
X041678Y005175D03*
X041678Y005075D03*
X041678Y004675D03*
D36*
X041669Y004775D03*
X041669Y005592D03*
X034886Y007642D03*
X036752Y008142D03*
X033619Y008275D03*
X032352Y007075D03*
X031702Y006725D03*
X028536Y006442D03*
X022152Y006042D03*
X022119Y006025D03*
X021519Y006842D03*
X021969Y008692D03*
X022302Y009542D03*
X021569Y010075D03*
X031986Y010025D03*
X041686Y010375D03*
D37*
X041669Y005058D03*
X022419Y010308D03*
X021919Y008608D03*
D38*
X027136Y008692D03*
X028336Y009025D03*
X028952Y008942D03*
X033552Y009992D03*
X033919Y007342D03*
X021086Y005342D03*
X020919Y005092D03*
X019352Y006325D03*
D39*
X020911Y005108D03*
X021311Y008008D03*
X028311Y008958D03*
X028328Y009008D03*
X030028Y008208D03*
D40*
X028294Y008925D03*
X028277Y008892D03*
X027094Y008675D03*
X026061Y008342D03*
X026061Y008325D03*
X026044Y008375D03*
X026044Y008392D03*
X026027Y008425D03*
X026061Y008175D03*
X024511Y008192D03*
X024511Y008225D03*
X024511Y008242D03*
X021344Y008025D03*
X019361Y006342D03*
X020877Y006175D03*
X020911Y005125D03*
X032161Y006075D03*
X034327Y007342D03*
X033544Y007592D03*
X033027Y007575D03*
X034211Y008642D03*
X029761Y009525D03*
D41*
X030703Y008975D03*
X024503Y008275D03*
X024486Y008292D03*
X024503Y008175D03*
X023253Y007225D03*
X023236Y007175D03*
X023636Y005575D03*
X020903Y005142D03*
X031053Y006242D03*
D42*
X025444Y006708D03*
X023294Y007358D03*
X028894Y008908D03*
X020894Y005158D03*
X016894Y006908D03*
X016894Y006958D03*
X016894Y007008D03*
X016894Y007058D03*
X016894Y007108D03*
X016894Y007158D03*
X016894Y007208D03*
X016894Y007258D03*
X016894Y007308D03*
X016894Y007358D03*
X016894Y007408D03*
X016894Y007458D03*
X016894Y007508D03*
X016894Y007558D03*
X016894Y007608D03*
X016894Y007658D03*
X016894Y007708D03*
X016894Y007758D03*
X016894Y007808D03*
X016894Y007858D03*
X016894Y007908D03*
X016894Y007958D03*
X016894Y008008D03*
X016894Y008058D03*
X016894Y008108D03*
X016894Y008158D03*
X016894Y008208D03*
X016894Y008258D03*
X016894Y008308D03*
X016894Y008358D03*
X016894Y008408D03*
X016894Y008458D03*
X016894Y008508D03*
X016894Y008558D03*
X016894Y008608D03*
X016894Y008658D03*
X016894Y008708D03*
X016894Y008758D03*
X016894Y008808D03*
X016894Y008858D03*
X016894Y008908D03*
X016894Y008958D03*
X016894Y009008D03*
X016894Y009058D03*
D43*
X021036Y009175D03*
X022836Y008392D03*
X022636Y008225D03*
X024486Y008125D03*
X025003Y007675D03*
X024986Y007625D03*
X024953Y007525D03*
X024936Y007475D03*
X024853Y007242D03*
X024853Y007225D03*
X024836Y007192D03*
X024836Y007175D03*
X023153Y006975D03*
X020986Y006442D03*
X020886Y005192D03*
X031103Y006275D03*
X033836Y007275D03*
X033603Y007625D03*
X034836Y008225D03*
X026986Y008625D03*
X026386Y008875D03*
X024636Y008892D03*
D44*
X025553Y009292D03*
X030053Y010375D03*
X019986Y006942D03*
X021503Y006825D03*
X041686Y005192D03*
D45*
X034161Y008608D03*
X029827Y009558D03*
X028444Y009108D03*
X024477Y008108D03*
X025011Y007708D03*
X024811Y007108D03*
X023144Y006958D03*
X020877Y005208D03*
D46*
X020861Y005225D03*
X023828Y006675D03*
X023111Y006892D03*
X024778Y006975D03*
X024778Y006992D03*
X026311Y006875D03*
X026328Y006925D03*
X026361Y006992D03*
X025061Y007825D03*
X025061Y007842D03*
X025078Y007875D03*
X022961Y008492D03*
X021411Y008075D03*
X028478Y009125D03*
X030428Y009392D03*
X030678Y008925D03*
X030161Y008292D03*
X033628Y007642D03*
X034128Y008592D03*
X038111Y008642D03*
X030628Y010775D03*
D47*
X030069Y009142D03*
X028202Y008875D03*
X026919Y008592D03*
X025986Y008042D03*
X025086Y007892D03*
X024436Y008025D03*
X023319Y007542D03*
X023102Y006875D03*
X024769Y006942D03*
X025469Y006775D03*
X026269Y006792D03*
X026286Y006825D03*
X026319Y006892D03*
X020919Y006042D03*
X020852Y005242D03*
X033786Y007242D03*
X034419Y007392D03*
X038069Y008625D03*
D48*
X031436Y009258D03*
X031403Y009308D03*
X031386Y008858D03*
X028586Y008058D03*
X028503Y007708D03*
X028486Y007658D03*
X026686Y008258D03*
X028186Y008858D03*
X024153Y008508D03*
X024753Y006858D03*
X023836Y006708D03*
X026236Y006708D03*
X020936Y006008D03*
X020853Y005258D03*
X030603Y010758D03*
D49*
X030577Y010742D03*
X031394Y009342D03*
X031444Y009225D03*
X031444Y008992D03*
X031427Y008942D03*
X031411Y008925D03*
X031394Y008875D03*
X031377Y008842D03*
X031361Y008792D03*
X031327Y008725D03*
X031311Y008692D03*
X031294Y008675D03*
X031277Y008642D03*
X031277Y008625D03*
X031244Y008592D03*
X031244Y008575D03*
X031211Y008525D03*
X030211Y008342D03*
X028577Y008092D03*
X028577Y008042D03*
X028477Y007642D03*
X028461Y007592D03*
X030077Y007325D03*
X032594Y007875D03*
X027411Y008325D03*
X026694Y008292D03*
X026677Y007992D03*
X025961Y007992D03*
X025944Y007975D03*
X025127Y008025D03*
X024411Y007975D03*
X023311Y007592D03*
X023077Y006825D03*
X023844Y006725D03*
X024744Y006825D03*
X024744Y006842D03*
X025477Y006825D03*
X026194Y006642D03*
X026211Y006675D03*
X020844Y005275D03*
X020944Y009075D03*
D50*
X023086Y008575D03*
X023103Y008592D03*
X022653Y008192D03*
X024386Y007925D03*
X024403Y007942D03*
X025136Y008042D03*
X025153Y008075D03*
X026686Y007975D03*
X026686Y008325D03*
X028153Y008842D03*
X028786Y008842D03*
X030503Y009442D03*
X029903Y009592D03*
X031386Y009375D03*
X032286Y009142D03*
X032303Y009192D03*
X031453Y009042D03*
X031453Y009025D03*
X031436Y008975D03*
X030653Y008875D03*
X031186Y008492D03*
X031186Y008475D03*
X031153Y008442D03*
X028586Y008142D03*
X028586Y008125D03*
X028453Y007575D03*
X028436Y007542D03*
X026186Y006625D03*
X025486Y006842D03*
X024736Y006792D03*
X023853Y006742D03*
X023053Y006792D03*
X020936Y005992D03*
X019403Y006442D03*
X020836Y005292D03*
X031186Y006342D03*
X033353Y006192D03*
X034753Y008175D03*
X032403Y009942D03*
X023553Y009675D03*
X023536Y009725D03*
D51*
X023561Y009608D03*
X023578Y009558D03*
X023578Y009508D03*
X023128Y008608D03*
X025161Y008108D03*
X024378Y007908D03*
X023311Y007608D03*
X023861Y006758D03*
X024728Y006758D03*
X028428Y007508D03*
X031128Y008408D03*
X031461Y009058D03*
X031478Y009108D03*
X031461Y009208D03*
X031361Y009408D03*
X032311Y009208D03*
X032228Y009008D03*
X032211Y008958D03*
X031211Y006358D03*
X020828Y005308D03*
D52*
X020828Y005325D03*
X020961Y005942D03*
X020111Y006292D03*
X020128Y006342D03*
X020178Y006525D03*
X020211Y006625D03*
X020211Y006642D03*
X020228Y006692D03*
X023028Y006742D03*
X023878Y006792D03*
X024711Y006725D03*
X024361Y007875D03*
X025178Y008142D03*
X025911Y007892D03*
X026711Y007925D03*
X026711Y008392D03*
X028128Y008825D03*
X028761Y008825D03*
X029428Y008292D03*
X029428Y008275D03*
X029411Y008242D03*
X029411Y008225D03*
X029378Y008142D03*
X029378Y008125D03*
X029361Y008092D03*
X029361Y008075D03*
X029328Y007992D03*
X029328Y007975D03*
X029328Y007942D03*
X029311Y007925D03*
X029311Y007892D03*
X029278Y007775D03*
X031078Y008325D03*
X032078Y008642D03*
X032111Y008725D03*
X031478Y009192D03*
X031428Y009725D03*
X029128Y009925D03*
X029128Y009942D03*
X029111Y009892D03*
X029078Y009792D03*
X029028Y009675D03*
X029011Y009625D03*
X023878Y008392D03*
X023178Y008642D03*
X022661Y008175D03*
X020878Y008992D03*
X019378Y008525D03*
X019228Y008242D03*
X019178Y008125D03*
X019161Y008075D03*
X019128Y007975D03*
X019111Y007925D03*
X019078Y007742D03*
X023561Y009325D03*
X023561Y009342D03*
X023428Y009892D03*
X031478Y007042D03*
X031228Y006375D03*
X034478Y007425D03*
D53*
X033719Y007692D03*
X032819Y007425D03*
X031469Y007025D03*
X029269Y007692D03*
X029269Y007725D03*
X029269Y007742D03*
X028369Y007392D03*
X028369Y007375D03*
X025519Y006942D03*
X025519Y006925D03*
X023019Y006725D03*
X020219Y006675D03*
X020169Y006492D03*
X020169Y006475D03*
X020119Y006325D03*
X020119Y006275D03*
X019419Y006475D03*
X019069Y007625D03*
X019069Y007642D03*
X019069Y007675D03*
X019069Y007692D03*
X019069Y007725D03*
X019119Y007942D03*
X019169Y008092D03*
X019219Y008225D03*
X019269Y008325D03*
X019269Y008342D03*
X019319Y008425D03*
X019419Y008592D03*
X019469Y008675D03*
X019519Y008742D03*
X023369Y009942D03*
X029019Y009642D03*
X029069Y009775D03*
X031469Y009792D03*
X032069Y008625D03*
X032019Y008525D03*
X030319Y008442D03*
X029469Y008392D03*
X020819Y005342D03*
D54*
X020811Y005358D03*
X023011Y006708D03*
X023911Y006858D03*
X025527Y006958D03*
X023294Y007658D03*
X024311Y007758D03*
X023827Y008358D03*
X025877Y007808D03*
X026777Y008508D03*
X028727Y008808D03*
X029511Y008508D03*
X029494Y008458D03*
X030327Y008458D03*
X030577Y008758D03*
X030977Y008208D03*
X031994Y008458D03*
X032011Y008508D03*
X032911Y008608D03*
X032927Y008658D03*
X033877Y008108D03*
X033861Y008058D03*
X034611Y007808D03*
X034594Y007758D03*
X032644Y007908D03*
X029244Y007608D03*
X029244Y007558D03*
X029227Y007508D03*
X033144Y009258D03*
X033161Y009308D03*
X031511Y009858D03*
X031477Y009808D03*
X023344Y009958D03*
X019694Y008958D03*
X019611Y008858D03*
X019577Y008808D03*
X019427Y008608D03*
X021527Y008158D03*
X019061Y007558D03*
X019061Y007508D03*
X019061Y007458D03*
D55*
X020886Y006158D03*
X021103Y005358D03*
X023236Y007158D03*
X023253Y007208D03*
X026053Y008158D03*
X026036Y008408D03*
X024503Y008258D03*
X024486Y008308D03*
X030153Y009158D03*
X030336Y009308D03*
X033003Y007558D03*
X033886Y007308D03*
D56*
X032644Y007292D03*
X030644Y007925D03*
X028294Y006225D03*
X022894Y006542D03*
X020894Y005375D03*
X020944Y009875D03*
X030344Y010575D03*
D57*
X030294Y010542D03*
X029644Y010275D03*
X029561Y010242D03*
X029527Y010225D03*
X029444Y010192D03*
X029411Y010175D03*
X025544Y008642D03*
X021711Y008342D03*
X020294Y007525D03*
X022861Y006492D03*
X024277Y006125D03*
X023661Y005642D03*
X020911Y005392D03*
X020211Y006042D03*
X030211Y007542D03*
X030561Y007875D03*
X031511Y007575D03*
X031527Y007592D03*
X030877Y006992D03*
X030861Y006975D03*
X032577Y006392D03*
X035927Y007625D03*
X035961Y007642D03*
X023061Y010092D03*
X021061Y009925D03*
D58*
X020528Y008408D03*
X020928Y005408D03*
X035478Y007408D03*
X037211Y008308D03*
D59*
X034994Y007175D03*
X030194Y010475D03*
X020394Y008092D03*
X020394Y008075D03*
X020344Y007925D03*
X020344Y007892D03*
X019494Y006675D03*
X020944Y005425D03*
D60*
X020961Y005442D03*
X026811Y007242D03*
X030327Y007742D03*
X031277Y007225D03*
X031294Y007242D03*
X034477Y006925D03*
X034511Y006942D03*
X034577Y006975D03*
X034611Y006992D03*
X034794Y007592D03*
X036977Y008225D03*
X030144Y010442D03*
X026861Y009142D03*
X021861Y008525D03*
D61*
X023678Y008908D03*
X031228Y007158D03*
X033678Y008308D03*
X025378Y005858D03*
X023661Y005708D03*
X020978Y005458D03*
D62*
X020994Y005475D03*
X022744Y006325D03*
X031994Y010042D03*
D63*
X030003Y010342D03*
X022003Y008742D03*
X021553Y006875D03*
X025386Y005892D03*
X029236Y006792D03*
X021003Y005492D03*
D64*
X021019Y005508D03*
X021586Y006908D03*
X022069Y008858D03*
X027319Y009258D03*
X029952Y010308D03*
X030452Y009908D03*
X030436Y009858D03*
X030386Y009758D03*
D65*
X034211Y007892D03*
X034211Y007875D03*
X034228Y007925D03*
X021028Y005525D03*
D66*
X021036Y005542D03*
X023686Y005825D03*
X021803Y007375D03*
X022986Y007875D03*
X027086Y007525D03*
X028253Y008675D03*
D67*
X036244Y007958D03*
X025394Y006008D03*
X021044Y005558D03*
D68*
X021061Y005575D03*
X023694Y005875D03*
X025394Y006042D03*
X021777Y007175D03*
X021761Y007142D03*
X021811Y007292D03*
X027194Y007725D03*
X028177Y008592D03*
X028444Y009492D03*
X025527Y009225D03*
X022127Y009092D03*
X036161Y007925D03*
D69*
X036069Y007892D03*
X022119Y009125D03*
X021069Y005592D03*
D70*
X020136Y006375D03*
X020153Y006425D03*
X020153Y006442D03*
X020186Y006542D03*
X020203Y006592D03*
X020236Y006725D03*
X019086Y007775D03*
X019086Y007792D03*
X019086Y007825D03*
X019103Y007875D03*
X019103Y007892D03*
X019136Y007992D03*
X019153Y008042D03*
X019186Y008142D03*
X019203Y008175D03*
X019203Y008192D03*
X019253Y008292D03*
X019286Y008375D03*
X019303Y008392D03*
X019336Y008442D03*
X019353Y008475D03*
X019353Y008492D03*
X019386Y008542D03*
X019403Y008575D03*
X019436Y008625D03*
X019453Y008642D03*
X019486Y008692D03*
X023303Y007642D03*
X024336Y007825D03*
X025186Y008175D03*
X025886Y007842D03*
X028586Y008275D03*
X029436Y008325D03*
X029453Y008342D03*
X029453Y008375D03*
X029486Y008442D03*
X030303Y008425D03*
X031003Y008242D03*
X031036Y008275D03*
X030603Y008792D03*
X032036Y008575D03*
X032053Y008592D03*
X034603Y007775D03*
X033703Y007175D03*
X032353Y006225D03*
X028153Y006092D03*
X024703Y006675D03*
X024703Y006692D03*
X023903Y006842D03*
X023653Y005592D03*
X029253Y007625D03*
X029253Y007642D03*
X029286Y007792D03*
X029303Y007875D03*
X028586Y009192D03*
X029036Y009692D03*
X029053Y009742D03*
X029086Y009825D03*
X029103Y009875D03*
X029153Y009992D03*
X031436Y009742D03*
X031453Y009775D03*
X031486Y009825D03*
X023553Y009292D03*
X023536Y009242D03*
X023536Y009225D03*
X023386Y009925D03*
D71*
X022153Y009408D03*
X021086Y005608D03*
D72*
X023653Y005608D03*
X028253Y007158D03*
X025253Y008308D03*
X024103Y007308D03*
X020453Y009608D03*
X031786Y008058D03*
X032736Y007358D03*
X034636Y008108D03*
D73*
X033344Y008225D03*
X032044Y006942D03*
X021094Y005625D03*
D74*
X023653Y005625D03*
X021253Y006625D03*
X019453Y006575D03*
X025286Y008392D03*
X028753Y009292D03*
X033286Y009925D03*
X033886Y008442D03*
X031636Y007775D03*
X029236Y006975D03*
X020836Y009825D03*
D75*
X021119Y005658D03*
D76*
X023653Y005658D03*
X024653Y006358D03*
X028386Y006308D03*
X031403Y007408D03*
X030253Y007608D03*
X034736Y007558D03*
X025353Y008508D03*
X020503Y008358D03*
X020303Y007658D03*
X019486Y006658D03*
D77*
X021128Y005675D03*
D78*
X023661Y005675D03*
X024161Y006075D03*
X025378Y005825D03*
X028011Y006825D03*
X026778Y007225D03*
X030578Y006792D03*
X031328Y007292D03*
X033378Y006925D03*
X034678Y007025D03*
X034711Y007042D03*
X033728Y008342D03*
X021361Y010025D03*
D79*
X024161Y009025D03*
X030694Y009692D03*
X021127Y005692D03*
D80*
X023661Y005692D03*
X025378Y005842D03*
X030361Y007792D03*
X034261Y006825D03*
X035411Y007775D03*
X025511Y008592D03*
X019511Y006725D03*
D81*
X021136Y005708D03*
D82*
X021144Y005725D03*
X026527Y006242D03*
X026594Y006275D03*
D83*
X026169Y006592D03*
X025369Y005725D03*
X021069Y006492D03*
X023569Y009575D03*
X023519Y009742D03*
X031219Y008542D03*
X032319Y009225D03*
X031369Y009392D03*
X032419Y009892D03*
X032319Y006192D03*
D84*
X026861Y006442D03*
X021161Y005742D03*
D85*
X023669Y005742D03*
X031719Y006742D03*
X041669Y007942D03*
X041669Y009575D03*
X041669Y010392D03*
D86*
X031902Y008275D03*
X031886Y008242D03*
X030902Y008125D03*
X030436Y008575D03*
X030452Y008592D03*
X030486Y008642D03*
X029619Y008725D03*
X029602Y008692D03*
X028702Y008792D03*
X028086Y008792D03*
X025836Y007725D03*
X025819Y007692D03*
X025819Y007675D03*
X025586Y007092D03*
X025569Y007075D03*
X024252Y007642D03*
X023286Y007692D03*
X023736Y008292D03*
X025219Y008242D03*
X023969Y006992D03*
X022986Y006675D03*
X025369Y005742D03*
X028186Y006125D03*
X029202Y007325D03*
X030119Y007392D03*
X033452Y006275D03*
X031319Y009475D03*
X031602Y009942D03*
X030286Y010275D03*
X030286Y010292D03*
X030269Y010242D03*
X030252Y010225D03*
X030236Y010192D03*
X030236Y010175D03*
X030219Y010142D03*
X030186Y010075D03*
X030169Y010042D03*
X030136Y009975D03*
X030119Y009942D03*
X030119Y009925D03*
X029202Y010042D03*
X030486Y010675D03*
X020069Y009325D03*
X020036Y009292D03*
X019969Y009242D03*
X019952Y009225D03*
X019119Y007142D03*
X020136Y006225D03*
D87*
X021169Y005758D03*
D88*
X021978Y005958D03*
X023678Y005758D03*
X031011Y009658D03*
X030411Y009808D03*
D89*
X031728Y010008D03*
X029778Y009008D03*
X031711Y007908D03*
X030161Y007458D03*
X025278Y008358D03*
X020711Y008758D03*
X020711Y009758D03*
X020328Y007358D03*
X020311Y007308D03*
X025378Y005758D03*
D90*
X021178Y005775D03*
D91*
X023678Y005775D03*
X022078Y008875D03*
X021678Y010092D03*
X030961Y009525D03*
D92*
X033861Y008425D03*
X036128Y007725D03*
X036161Y007742D03*
X033511Y007025D03*
X031561Y007642D03*
X031428Y006525D03*
X032561Y006375D03*
X028311Y006242D03*
X025378Y005775D03*
X024661Y006425D03*
X024661Y006442D03*
X021278Y006642D03*
X020228Y007225D03*
X025311Y008442D03*
D93*
X028036Y009325D03*
X021186Y005792D03*
D94*
X021827Y005892D03*
X023677Y005792D03*
X025394Y005942D03*
X028611Y006525D03*
X028627Y006542D03*
X027027Y007442D03*
X028311Y008725D03*
X030411Y009742D03*
X036477Y008042D03*
X022111Y008925D03*
D95*
X020578Y008525D03*
X020561Y008492D03*
X021111Y009942D03*
X025328Y008475D03*
X028811Y009575D03*
X030261Y010525D03*
X032861Y008042D03*
X031478Y007525D03*
X031461Y007492D03*
X030228Y007575D03*
X032578Y007242D03*
X033461Y006992D03*
X035611Y007475D03*
X025378Y005792D03*
X024661Y006392D03*
X020261Y005992D03*
D96*
X021194Y005808D03*
D97*
X023678Y005808D03*
X027078Y007508D03*
X032911Y009808D03*
X035011Y007708D03*
D98*
X035161Y007258D03*
X033427Y006958D03*
X032527Y007208D03*
X025377Y005808D03*
X021361Y006708D03*
X020127Y007108D03*
X020311Y007708D03*
X020311Y007758D03*
X020477Y008308D03*
X022711Y008058D03*
X023177Y007808D03*
D99*
X021203Y005825D03*
D100*
X021194Y005842D03*
D101*
X023686Y005842D03*
X021703Y007042D03*
X025536Y009242D03*
X022236Y009475D03*
X022386Y010275D03*
X035053Y007725D03*
D102*
X021203Y005858D03*
D103*
X023694Y005858D03*
X021744Y007108D03*
D104*
X021211Y005875D03*
X029778Y006742D03*
D105*
X031219Y007142D03*
X030069Y010392D03*
X041669Y005875D03*
D106*
X035819Y007575D03*
X035719Y007525D03*
X034519Y008042D03*
X030819Y006942D03*
X028469Y008442D03*
X025569Y009325D03*
X024119Y008425D03*
X022369Y009592D03*
X021319Y006675D03*
X020219Y006025D03*
X020319Y005942D03*
X020369Y005892D03*
X019469Y006625D03*
D107*
X020128Y006242D03*
X020978Y005892D03*
X019111Y007175D03*
X019111Y007192D03*
X021978Y007442D03*
X024261Y007675D03*
X024278Y007692D03*
X025211Y008225D03*
X023778Y008325D03*
X026428Y008942D03*
X026728Y008475D03*
X027478Y008375D03*
X028578Y008325D03*
X029578Y008642D03*
X030411Y008542D03*
X030478Y008625D03*
X030511Y008675D03*
X030528Y008692D03*
X031911Y008292D03*
X031928Y008325D03*
X031928Y008342D03*
X030911Y008142D03*
X032678Y007925D03*
X032778Y007392D03*
X033661Y007142D03*
X030111Y007375D03*
X029211Y007375D03*
X029211Y007392D03*
X029211Y007342D03*
X028328Y007292D03*
X028311Y007275D03*
X025561Y007042D03*
X020828Y008925D03*
X019928Y009192D03*
X019911Y009175D03*
X020011Y009275D03*
X023311Y009992D03*
X029978Y009625D03*
X030161Y010025D03*
X030211Y010125D03*
X031578Y009925D03*
D108*
X022194Y009442D03*
X022644Y006175D03*
X023694Y005892D03*
D109*
X006436Y005908D03*
X006436Y007458D03*
D110*
X020303Y005958D03*
X020353Y005908D03*
X024253Y006108D03*
X030836Y006958D03*
X032603Y006408D03*
X031503Y007558D03*
X033936Y007808D03*
X035786Y007558D03*
X033836Y008408D03*
D111*
X032969Y008758D03*
X033019Y008908D03*
X033069Y009058D03*
X033119Y009208D03*
X033219Y009458D03*
X033269Y009608D03*
X032869Y008508D03*
X032819Y008358D03*
X031969Y008408D03*
X029219Y007458D03*
X029219Y007408D03*
X026719Y008458D03*
X020119Y006258D03*
X020969Y005908D03*
X019069Y007358D03*
X019069Y007408D03*
X028169Y006108D03*
D112*
X021869Y005908D03*
X022269Y009508D03*
D113*
X022369Y010258D03*
X029986Y006558D03*
X023702Y005908D03*
D114*
X025386Y005908D03*
D115*
X028103Y006942D03*
X029253Y006892D03*
X030786Y006925D03*
X031486Y007542D03*
X033636Y006442D03*
X035753Y007542D03*
X035853Y007592D03*
X037303Y008342D03*
X029686Y010292D03*
X023503Y008842D03*
X020586Y008542D03*
X020203Y007192D03*
X020186Y007175D03*
X020286Y005975D03*
X020336Y005925D03*
D116*
X020961Y005925D03*
X021111Y006525D03*
X023894Y006825D03*
X024311Y007775D03*
X024327Y007792D03*
X025194Y008192D03*
X025877Y007825D03*
X026711Y008425D03*
X026711Y008442D03*
X027711Y007975D03*
X029261Y007675D03*
X029244Y007592D03*
X029244Y007575D03*
X029244Y007542D03*
X029227Y007492D03*
X029227Y007475D03*
X028344Y007342D03*
X030961Y008192D03*
X030994Y008225D03*
X030344Y008475D03*
X030594Y008775D03*
X029544Y008575D03*
X029527Y008542D03*
X029511Y008492D03*
X029494Y008475D03*
X029477Y008425D03*
X031977Y008442D03*
X031994Y008475D03*
X032011Y008492D03*
X032027Y008542D03*
X032844Y008425D03*
X032861Y008475D03*
X032827Y008375D03*
X033861Y008042D03*
X033877Y008092D03*
X033894Y008142D03*
X033911Y008192D03*
X034611Y007825D03*
X034627Y007842D03*
X034611Y007792D03*
X034594Y007742D03*
X034027Y008525D03*
X033011Y008892D03*
X032994Y008842D03*
X033061Y009025D03*
X033077Y009075D03*
X033094Y009125D03*
X033211Y009442D03*
X033227Y009492D03*
X033244Y009542D03*
X033294Y009675D03*
X031527Y009875D03*
X031494Y009842D03*
X030861Y009975D03*
X031344Y009442D03*
X037844Y008542D03*
X033411Y006242D03*
X024161Y008492D03*
X023844Y008375D03*
X023227Y008675D03*
X023494Y009092D03*
X023511Y009125D03*
X023511Y009142D03*
X023527Y009175D03*
X023527Y009192D03*
X020861Y008975D03*
X019711Y008975D03*
X019677Y008942D03*
X019661Y008925D03*
X019644Y008892D03*
X019627Y008875D03*
X019594Y008842D03*
X019577Y008825D03*
X019561Y008792D03*
X019544Y008775D03*
X019511Y008725D03*
X019061Y007592D03*
X019061Y007575D03*
X019061Y007542D03*
X019061Y007525D03*
X019061Y007492D03*
X019061Y007475D03*
X019061Y007442D03*
D117*
X021852Y007392D03*
X022702Y006275D03*
X021902Y005925D03*
X025386Y005925D03*
X027852Y006675D03*
X028586Y006492D03*
X029969Y006442D03*
X031769Y006775D03*
X032286Y007025D03*
X034952Y007675D03*
X036569Y008075D03*
X031002Y009625D03*
X030986Y009592D03*
X030986Y009575D03*
X030969Y009542D03*
X030419Y009825D03*
X030402Y009792D03*
X030452Y009892D03*
X022402Y010292D03*
X022052Y008825D03*
D118*
X022986Y008025D03*
X028403Y009475D03*
X023703Y005925D03*
D119*
X020861Y006225D03*
X027978Y005925D03*
X033511Y007575D03*
X032428Y007775D03*
X030228Y009192D03*
D120*
X030394Y009775D03*
X030444Y009875D03*
X021944Y005942D03*
D121*
X023703Y005942D03*
X022936Y007975D03*
X022953Y007992D03*
X024486Y009075D03*
X028086Y008475D03*
X035936Y007842D03*
D122*
X033903Y007325D03*
X032453Y007792D03*
X028303Y008942D03*
X030303Y009275D03*
X025453Y006692D03*
X027986Y005942D03*
X021103Y009242D03*
X021086Y009225D03*
D123*
X023452Y009858D03*
X023569Y009458D03*
X023569Y009408D03*
X024302Y009158D03*
X023902Y008408D03*
X025919Y007908D03*
X028402Y007458D03*
X028586Y008208D03*
X031102Y008358D03*
X032102Y008708D03*
X032152Y008808D03*
X032169Y008858D03*
X032186Y008908D03*
X031486Y009158D03*
X033419Y009958D03*
X023036Y006758D03*
X020952Y005958D03*
X019402Y006458D03*
X026152Y006558D03*
X032336Y006208D03*
X033369Y006208D03*
D124*
X034244Y007958D03*
X032894Y009708D03*
X028294Y008708D03*
X022144Y009008D03*
X025394Y005958D03*
D125*
X023044Y006775D03*
X020944Y005975D03*
X026694Y007942D03*
X026694Y008342D03*
X028594Y008192D03*
X028594Y008175D03*
X030244Y008375D03*
X031144Y008425D03*
X032194Y008925D03*
X032244Y009042D03*
X032294Y009175D03*
X032444Y009625D03*
X033694Y007675D03*
X023544Y009692D03*
X023494Y009792D03*
D126*
X022144Y009025D03*
X025394Y005975D03*
X036344Y007992D03*
D127*
X032978Y007542D03*
X032511Y007825D03*
X030061Y007292D03*
X026028Y008125D03*
X024978Y007592D03*
X024961Y007542D03*
X024928Y007442D03*
X024911Y007425D03*
X024911Y007392D03*
X024878Y007325D03*
X024878Y007292D03*
X025461Y006725D03*
X023311Y007425D03*
X023311Y007442D03*
X023178Y007025D03*
X022811Y008375D03*
X024411Y008392D03*
X028428Y009092D03*
X019378Y006375D03*
X028028Y005975D03*
D128*
X023719Y005992D03*
X022119Y009375D03*
D129*
X022144Y009042D03*
X027094Y007542D03*
X027511Y009292D03*
X030461Y009725D03*
X036294Y007975D03*
X025394Y005992D03*
X021694Y007025D03*
D130*
X023311Y007492D03*
X024811Y007092D03*
X024827Y007142D03*
X024994Y007642D03*
X025011Y007692D03*
X025027Y007725D03*
X025027Y007742D03*
X026011Y008092D03*
X027361Y008292D03*
X026411Y007125D03*
X026394Y007075D03*
X025461Y006742D03*
X023811Y006642D03*
X020911Y006092D03*
X019377Y006392D03*
X022877Y008425D03*
X022394Y009625D03*
X030411Y009375D03*
X030694Y008942D03*
X033494Y009975D03*
X032961Y007525D03*
X034394Y007375D03*
X033277Y006125D03*
X032227Y006125D03*
X028044Y005992D03*
D131*
X020244Y006008D03*
X020294Y007558D03*
X020544Y008458D03*
D132*
X022086Y006008D03*
X028553Y006458D03*
X032336Y007058D03*
X041686Y007208D03*
D133*
X023719Y006008D03*
D134*
X023128Y006908D03*
X021011Y006458D03*
X020911Y006058D03*
X026328Y006908D03*
X028061Y006008D03*
X025078Y007858D03*
X030961Y010008D03*
X034811Y008208D03*
D135*
X033053Y008158D03*
X036803Y008158D03*
X041686Y006008D03*
X029236Y006808D03*
X026486Y009058D03*
X027103Y009208D03*
X021953Y008658D03*
D136*
X023011Y008525D03*
X020961Y009092D03*
X025111Y007975D03*
X025978Y008025D03*
X026678Y008075D03*
X026678Y008092D03*
X026678Y008125D03*
X026678Y008142D03*
X026678Y008175D03*
X026678Y008192D03*
X026678Y008225D03*
X028528Y007825D03*
X028528Y007792D03*
X028511Y007742D03*
X028561Y007925D03*
X028561Y007942D03*
X026261Y006775D03*
X025478Y006792D03*
X024761Y006892D03*
X024761Y006925D03*
X023828Y006692D03*
X020928Y006025D03*
X028078Y006025D03*
X032911Y007492D03*
X029861Y009575D03*
D137*
X025394Y006025D03*
D138*
X026236Y006725D03*
X024753Y006875D03*
X023086Y006842D03*
X026686Y008025D03*
X026686Y008042D03*
X026686Y008242D03*
X026686Y008275D03*
X026886Y008575D03*
X028503Y009142D03*
X031336Y008742D03*
X031353Y008775D03*
X031403Y008892D03*
X031436Y009242D03*
X031403Y009325D03*
X034103Y008575D03*
X034786Y008192D03*
X032886Y007475D03*
X033336Y006175D03*
X032286Y006175D03*
X029953Y006275D03*
X028103Y006042D03*
X028486Y007675D03*
X028503Y007725D03*
X028586Y008075D03*
X023036Y008542D03*
D139*
X024644Y008875D03*
X028344Y009042D03*
X032294Y009592D03*
X033044Y007592D03*
X031044Y006225D03*
X033194Y006042D03*
D140*
X030903Y007008D03*
X031536Y007608D03*
X029253Y006908D03*
X020203Y006058D03*
D141*
X023736Y006058D03*
X025503Y009158D03*
D142*
X026461Y009108D03*
X027228Y007858D03*
X025411Y006058D03*
X019728Y006808D03*
D143*
X022944Y006608D03*
X026494Y006058D03*
X031344Y006458D03*
X028694Y009258D03*
X020744Y008808D03*
D144*
X023519Y009758D03*
X031169Y008458D03*
X032269Y009108D03*
X032419Y009908D03*
X032869Y007458D03*
X028119Y006058D03*
X023069Y006808D03*
D145*
X020869Y006208D03*
X021119Y009258D03*
X032152Y006058D03*
X033069Y007608D03*
X034886Y008258D03*
D146*
X028294Y008908D03*
X026061Y008308D03*
X024511Y008208D03*
X023794Y006608D03*
X020944Y006408D03*
X033211Y006058D03*
D147*
X030944Y007042D03*
X031544Y007625D03*
X029244Y006925D03*
X028144Y006992D03*
X021694Y008325D03*
X020194Y006075D03*
X037394Y008375D03*
D148*
X032369Y009242D03*
X026419Y007142D03*
X026369Y007025D03*
X024469Y008092D03*
X023319Y007525D03*
X020919Y006075D03*
X031119Y006292D03*
D149*
X031169Y007092D03*
X032369Y007092D03*
X028519Y006425D03*
X022219Y006075D03*
X041669Y009142D03*
X041669Y010775D03*
D150*
X033802Y008392D03*
X034702Y007542D03*
X037252Y008325D03*
X032652Y009675D03*
X027669Y008442D03*
X027569Y007892D03*
X026719Y007192D03*
X028369Y006292D03*
X030719Y006875D03*
X031452Y007475D03*
X025336Y008492D03*
X023202Y007792D03*
X022702Y008075D03*
X021752Y008392D03*
X020552Y008475D03*
X020536Y008442D03*
X020302Y007592D03*
X021936Y007425D03*
X024652Y006375D03*
X023252Y006075D03*
D151*
X025794Y006075D03*
D152*
X024719Y006742D03*
X025502Y006875D03*
X025502Y006892D03*
X023869Y006775D03*
X024369Y007892D03*
X025169Y008125D03*
X026702Y008375D03*
X027436Y008342D03*
X026802Y008525D03*
X026419Y008925D03*
X028552Y009175D03*
X030002Y009125D03*
X030619Y008825D03*
X030636Y008842D03*
X031486Y009125D03*
X031486Y009142D03*
X031486Y009175D03*
X031352Y009425D03*
X032202Y008942D03*
X032186Y008892D03*
X032152Y008825D03*
X032136Y008792D03*
X032136Y008775D03*
X032119Y008742D03*
X031119Y008392D03*
X031086Y008342D03*
X030269Y008392D03*
X032619Y007892D03*
X034052Y008542D03*
X037936Y008575D03*
X032369Y009992D03*
X030552Y010725D03*
X023569Y009475D03*
X023569Y009442D03*
X023569Y009425D03*
X023569Y009392D03*
X023569Y009375D03*
X023436Y009875D03*
X020902Y009025D03*
X023152Y008625D03*
X028386Y007425D03*
X030086Y007342D03*
X028136Y006075D03*
D153*
X023269Y007275D03*
X026019Y008442D03*
X030069Y008225D03*
X030319Y009292D03*
X034869Y008242D03*
X033219Y006075D03*
X030719Y010842D03*
D154*
X029352Y010142D03*
X030102Y009675D03*
X026452Y008992D03*
X025302Y008425D03*
X024119Y008442D03*
X020636Y008625D03*
X020636Y008642D03*
X020302Y007442D03*
X020302Y007425D03*
X020252Y007242D03*
X019452Y006592D03*
X020186Y006092D03*
X022886Y006525D03*
X023202Y006092D03*
X029236Y006942D03*
X031569Y007675D03*
X031586Y007692D03*
X036236Y007775D03*
X037436Y008392D03*
X020986Y009892D03*
D155*
X021944Y008642D03*
X021927Y008625D03*
X026877Y007292D03*
X027927Y006742D03*
X024661Y006275D03*
X022244Y006092D03*
X033027Y008142D03*
X033644Y008292D03*
X034861Y007625D03*
X041677Y007642D03*
X041677Y008325D03*
X041677Y009275D03*
X041677Y010092D03*
X041677Y006825D03*
X041677Y006692D03*
D156*
X031519Y006592D03*
X030669Y006842D03*
X031419Y007425D03*
X024219Y006092D03*
D157*
X025828Y006092D03*
X028061Y006575D03*
D158*
X029236Y006958D03*
X022686Y008108D03*
X020686Y008708D03*
X020803Y009808D03*
X020303Y007408D03*
X020186Y006108D03*
D159*
X020903Y006108D03*
X024836Y007158D03*
X024853Y007208D03*
X024986Y007608D03*
X025003Y007658D03*
X022853Y008408D03*
X021386Y008058D03*
X030386Y009358D03*
X038153Y008658D03*
D160*
X041677Y008458D03*
X041677Y007508D03*
X032394Y007108D03*
X031194Y007108D03*
X022277Y006108D03*
X019994Y006958D03*
X019527Y006758D03*
X031994Y010058D03*
D161*
X032577Y009658D03*
X029811Y009058D03*
X030694Y007958D03*
X028194Y007058D03*
X028277Y006208D03*
X023177Y006108D03*
X022911Y006558D03*
X025561Y008658D03*
X033561Y007058D03*
X037477Y008408D03*
D162*
X029711Y006708D03*
X025861Y006108D03*
D163*
X024861Y007258D03*
X024878Y007308D03*
X024911Y007408D03*
X024928Y007458D03*
X024961Y007558D03*
X030111Y008258D03*
X033261Y006108D03*
D164*
X033561Y006375D03*
X032511Y006342D03*
X029227Y006992D03*
X028177Y007042D03*
X031644Y007792D03*
X031661Y007825D03*
X032777Y007992D03*
X029827Y009075D03*
X027594Y008425D03*
X023411Y008792D03*
X021644Y008275D03*
X020694Y008725D03*
X020311Y007392D03*
X020277Y007275D03*
X020177Y006125D03*
X024661Y006475D03*
X030361Y010592D03*
D165*
X027344Y008275D03*
X024944Y007492D03*
X024894Y007375D03*
X024894Y007342D03*
X024494Y008142D03*
X022744Y008325D03*
X020894Y006125D03*
D166*
X022303Y006125D03*
X022753Y006342D03*
X025503Y008575D03*
X031203Y007125D03*
X031653Y006692D03*
X029953Y006392D03*
X036836Y008175D03*
D167*
X032686Y007325D03*
X031386Y006492D03*
X028203Y007075D03*
X025286Y008375D03*
X023253Y007742D03*
X020703Y008742D03*
X020736Y009775D03*
X024286Y009142D03*
X026453Y008975D03*
X029803Y009042D03*
X030753Y009942D03*
X020286Y007292D03*
X023153Y006125D03*
D168*
X025894Y006125D03*
X015711Y006742D03*
X015711Y006775D03*
X015711Y006792D03*
X015711Y006825D03*
X015711Y006842D03*
X015711Y009125D03*
X015711Y009142D03*
X015711Y009175D03*
X015711Y009192D03*
X015711Y009225D03*
D169*
X020769Y009792D03*
X020319Y007375D03*
X022919Y006575D03*
X024669Y006492D03*
X020169Y006142D03*
X029219Y007025D03*
X031669Y007842D03*
X030719Y007975D03*
X037519Y008425D03*
D170*
X029794Y009542D03*
X028394Y009075D03*
X025994Y008492D03*
X025994Y008475D03*
X026044Y008142D03*
X023294Y007342D03*
X023244Y007192D03*
X020894Y006142D03*
X016894Y006892D03*
X016894Y006925D03*
X016894Y006942D03*
X016894Y006975D03*
X016894Y006992D03*
X016894Y007025D03*
X016894Y007042D03*
X016894Y007075D03*
X016894Y007092D03*
X016894Y007125D03*
X016894Y007142D03*
X016894Y007175D03*
X016894Y007192D03*
X016894Y007225D03*
X016894Y007242D03*
X016894Y007275D03*
X016894Y007292D03*
X016894Y007325D03*
X016894Y007342D03*
X016894Y007375D03*
X016894Y007392D03*
X016894Y007425D03*
X016894Y007442D03*
X016894Y007475D03*
X016894Y007492D03*
X016894Y007525D03*
X016894Y007542D03*
X016894Y007575D03*
X016894Y007592D03*
X016894Y007625D03*
X016894Y007642D03*
X016894Y007675D03*
X016894Y007692D03*
X016894Y007725D03*
X016894Y007742D03*
X016894Y007775D03*
X016894Y007792D03*
X016894Y007825D03*
X016894Y007842D03*
X016894Y007875D03*
X016894Y007892D03*
X016894Y007925D03*
X016894Y007942D03*
X016894Y007975D03*
X016894Y007992D03*
X016894Y008025D03*
X016894Y008042D03*
X016894Y008075D03*
X016894Y008092D03*
X016894Y008125D03*
X016894Y008142D03*
X016894Y008175D03*
X016894Y008192D03*
X016894Y008225D03*
X016894Y008242D03*
X016894Y008275D03*
X016894Y008292D03*
X016894Y008325D03*
X016894Y008342D03*
X016894Y008375D03*
X016894Y008392D03*
X016894Y008425D03*
X016894Y008442D03*
X016894Y008475D03*
X016894Y008492D03*
X016894Y008525D03*
X016894Y008542D03*
X016894Y008575D03*
X016894Y008592D03*
X016894Y008625D03*
X016894Y008642D03*
X016894Y008675D03*
X016894Y008692D03*
X016894Y008725D03*
X016894Y008742D03*
X016894Y008775D03*
X016894Y008792D03*
X016894Y008825D03*
X016894Y008842D03*
X016894Y008875D03*
X016894Y008892D03*
X016894Y008925D03*
X016894Y008942D03*
X016894Y008975D03*
X016894Y008992D03*
X016894Y009025D03*
X016894Y009042D03*
X016894Y009075D03*
D171*
X021902Y008592D03*
X020019Y006992D03*
X022336Y006142D03*
X024652Y006292D03*
X027969Y006775D03*
X029236Y006825D03*
X031236Y007175D03*
X031252Y007192D03*
X032419Y007125D03*
X033319Y006875D03*
X032752Y006525D03*
X031636Y006675D03*
X033002Y008125D03*
X036886Y008192D03*
X026986Y009175D03*
D172*
X028019Y008742D03*
X029752Y008975D03*
X029769Y008992D03*
X029869Y009092D03*
X031269Y009492D03*
X029286Y010092D03*
X025269Y008342D03*
X023552Y008142D03*
X023536Y008125D03*
X023269Y007725D03*
X021619Y008242D03*
X020736Y008792D03*
X020586Y009692D03*
X020319Y007325D03*
X021202Y006592D03*
X022936Y006592D03*
X023136Y006142D03*
X024669Y006525D03*
X029219Y007042D03*
X030152Y007442D03*
X031719Y007925D03*
X032752Y007975D03*
X037569Y008442D03*
X033519Y006342D03*
D173*
X025578Y006142D03*
D174*
X024686Y006575D03*
X024686Y006592D03*
X023986Y007025D03*
X024003Y007075D03*
X024053Y007192D03*
X024153Y007425D03*
X024186Y007492D03*
X024203Y007525D03*
X024203Y007542D03*
X025636Y007242D03*
X025636Y007225D03*
X025653Y007275D03*
X025736Y007492D03*
X025753Y007525D03*
X028286Y007225D03*
X029203Y007225D03*
X029203Y007192D03*
X030836Y008075D03*
X031836Y008142D03*
X031853Y008175D03*
X032703Y007942D03*
X033786Y007725D03*
X032753Y007375D03*
X029653Y008792D03*
X031653Y009975D03*
X032036Y010225D03*
X033353Y009942D03*
X037703Y008492D03*
X028203Y006142D03*
X025236Y008275D03*
X023303Y008725D03*
X020803Y008892D03*
X020786Y008875D03*
X020286Y009492D03*
X020253Y009475D03*
X020153Y009392D03*
X023253Y010025D03*
X019186Y006992D03*
X019186Y006975D03*
D175*
X022944Y008475D03*
X024444Y008042D03*
X026394Y008892D03*
X028844Y008875D03*
X026344Y006942D03*
X026294Y006842D03*
X032244Y006142D03*
X033294Y006142D03*
X020994Y009125D03*
D176*
X020619Y009708D03*
X023169Y010058D03*
X027552Y008408D03*
X029752Y008958D03*
X031736Y007958D03*
X029219Y007058D03*
X028219Y007108D03*
X024669Y006508D03*
X020169Y006158D03*
X023519Y008108D03*
X032036Y010208D03*
X032469Y006308D03*
D177*
X035352Y007758D03*
X022769Y006358D03*
X022369Y006158D03*
X022319Y009558D03*
D178*
X022378Y009608D03*
X020528Y009658D03*
X023361Y008758D03*
X028661Y008758D03*
X030761Y008008D03*
X031761Y008008D03*
X029211Y007108D03*
X023128Y006158D03*
X037611Y008458D03*
D179*
X025619Y006158D03*
D180*
X024677Y006558D03*
X024044Y007158D03*
X024061Y007208D03*
X024077Y007258D03*
X024127Y007358D03*
X024144Y007408D03*
X023277Y007708D03*
X023627Y008208D03*
X021577Y008208D03*
X020777Y008858D03*
X020377Y009558D03*
X026444Y008958D03*
X028044Y008758D03*
X029694Y008858D03*
X030827Y008058D03*
X030127Y007408D03*
X029211Y007158D03*
X028277Y007208D03*
X025744Y007508D03*
X025727Y007458D03*
X025711Y007408D03*
X025677Y007358D03*
X025661Y007308D03*
X025644Y007258D03*
X028227Y006158D03*
X032727Y007958D03*
X033477Y006308D03*
X030811Y009958D03*
X019194Y006958D03*
D181*
X023319Y007558D03*
X025086Y007908D03*
X022986Y008508D03*
X020969Y009108D03*
X027386Y008308D03*
X030169Y008308D03*
X030069Y007308D03*
X032269Y006158D03*
X033319Y006158D03*
X026302Y006858D03*
X024769Y006958D03*
X030452Y009408D03*
D182*
X030628Y009492D03*
X028928Y009592D03*
X029728Y008925D03*
X031728Y007942D03*
X032711Y007342D03*
X033811Y007742D03*
X034578Y007475D03*
X029211Y007092D03*
X029211Y007075D03*
X028228Y007125D03*
X025261Y008325D03*
X020761Y008825D03*
X020478Y009625D03*
X020561Y009675D03*
X020328Y007342D03*
X020161Y006175D03*
X024678Y006542D03*
X030411Y010625D03*
D183*
X025669Y006175D03*
D184*
X028244Y006175D03*
X028244Y007142D03*
X031744Y007975D03*
X033944Y008475D03*
X033594Y007092D03*
X029744Y008942D03*
X019444Y006542D03*
D185*
X019427Y006525D03*
X020144Y006192D03*
X019211Y006942D03*
X022677Y008142D03*
X023644Y008225D03*
X024144Y008475D03*
X023327Y008742D03*
X025244Y008292D03*
X025577Y008675D03*
X028561Y008375D03*
X028677Y008775D03*
X029677Y008842D03*
X029694Y008875D03*
X029711Y008892D03*
X031794Y008075D03*
X031811Y008092D03*
X029211Y007175D03*
X029211Y007142D03*
X028261Y007175D03*
X028261Y007192D03*
X025761Y007542D03*
X025727Y007475D03*
X025711Y007442D03*
X025711Y007425D03*
X025694Y007392D03*
X025694Y007375D03*
X025677Y007342D03*
X025677Y007325D03*
X025661Y007292D03*
X024177Y007475D03*
X024161Y007442D03*
X024144Y007392D03*
X024127Y007375D03*
X024111Y007342D03*
X024111Y007325D03*
X024094Y007292D03*
X024094Y007275D03*
X024077Y007242D03*
X024061Y007225D03*
X024044Y007175D03*
X024027Y007142D03*
X024027Y007125D03*
X024011Y007092D03*
X020427Y009592D03*
X020361Y009542D03*
X020327Y009525D03*
X032444Y006292D03*
X037661Y008475D03*
D186*
X028919Y008925D03*
X028319Y008975D03*
X026069Y008292D03*
X026069Y008275D03*
X026069Y008242D03*
X026069Y008225D03*
X026069Y008192D03*
X027769Y008042D03*
X020869Y006192D03*
D187*
X022653Y006192D03*
X021753Y007125D03*
X021803Y007325D03*
X021803Y007342D03*
X027186Y007692D03*
X029986Y006525D03*
D188*
X025711Y006192D03*
D189*
X028261Y006192D03*
X028211Y007092D03*
X031361Y006475D03*
X033578Y007075D03*
X034611Y007492D03*
X034611Y008092D03*
X028728Y009275D03*
X028628Y008742D03*
X025578Y009342D03*
X023378Y008775D03*
X022678Y008125D03*
X023478Y008075D03*
X020728Y008775D03*
X020678Y009742D03*
D190*
X020303Y009508D03*
X020236Y009458D03*
X023686Y008258D03*
X025786Y007608D03*
X024186Y007508D03*
X024003Y007058D03*
X020136Y006208D03*
X019153Y007058D03*
X029203Y007208D03*
X029236Y010058D03*
D191*
X021711Y007058D03*
X022661Y006208D03*
X029978Y006508D03*
D192*
X025736Y006208D03*
D193*
X022669Y006225D03*
X029969Y006492D03*
X032919Y009825D03*
X032919Y009842D03*
D194*
X027003Y007425D03*
X024686Y006225D03*
X021603Y006925D03*
X022086Y008892D03*
X031786Y006792D03*
D195*
X033278Y006575D03*
X026778Y006375D03*
X026461Y006225D03*
D196*
X028394Y007442D03*
X029294Y007825D03*
X029294Y007842D03*
X029344Y008025D03*
X029344Y008042D03*
X029394Y008175D03*
X029394Y008192D03*
X028594Y008225D03*
X028594Y008242D03*
X031044Y008292D03*
X032094Y008675D03*
X032094Y008692D03*
X029044Y009725D03*
X029094Y009842D03*
X029144Y009975D03*
X032044Y010242D03*
X025894Y007875D03*
X024344Y007842D03*
X021494Y008142D03*
X019244Y008275D03*
X019144Y008025D03*
X019094Y007842D03*
X020244Y006742D03*
X020194Y006575D03*
X020144Y006392D03*
X023544Y009275D03*
X032844Y007442D03*
X033394Y006225D03*
D197*
X030003Y008192D03*
X026353Y008825D03*
X024186Y008525D03*
X021136Y009275D03*
X020853Y006242D03*
X031036Y010042D03*
D198*
X032902Y009742D03*
X028269Y008692D03*
X027069Y007492D03*
X029969Y006475D03*
X022686Y006242D03*
X022252Y009492D03*
D199*
X023486Y009075D03*
X023803Y008342D03*
X024303Y007742D03*
X024286Y007725D03*
X025853Y007775D03*
X025553Y007025D03*
X025536Y006992D03*
X025536Y006975D03*
X028336Y007325D03*
X029236Y007525D03*
X030953Y008175D03*
X031953Y008375D03*
X031953Y008392D03*
X032786Y008275D03*
X032803Y008292D03*
X032803Y008325D03*
X032836Y008392D03*
X032853Y008442D03*
X032886Y008525D03*
X032886Y008542D03*
X032903Y008575D03*
X032903Y008592D03*
X032936Y008675D03*
X032936Y008692D03*
X032953Y008725D03*
X032953Y008742D03*
X032986Y008825D03*
X033003Y008875D03*
X033036Y008942D03*
X033036Y008975D03*
X033053Y008992D03*
X033086Y009092D03*
X033103Y009142D03*
X033136Y009225D03*
X033136Y009242D03*
X033153Y009275D03*
X033153Y009292D03*
X033186Y009375D03*
X033186Y009392D03*
X033203Y009425D03*
X033236Y009525D03*
X033253Y009575D03*
X033286Y009642D03*
X031553Y009892D03*
X030503Y010692D03*
X029186Y010025D03*
X030553Y008725D03*
X029553Y008592D03*
X028586Y008292D03*
X026753Y008492D03*
X023336Y009975D03*
X019853Y009125D03*
X019803Y009075D03*
X019753Y009025D03*
X019086Y007325D03*
X019086Y007292D03*
X019086Y007275D03*
X031253Y006392D03*
X032386Y006242D03*
X033853Y008025D03*
X033886Y008125D03*
X033903Y008175D03*
D200*
X029961Y006458D03*
X028627Y006558D03*
X022694Y006258D03*
D201*
X026561Y006258D03*
X024227Y009058D03*
D202*
X025327Y008458D03*
X021727Y008358D03*
X020594Y008558D03*
X020294Y007508D03*
X021294Y006658D03*
X024661Y006408D03*
X028327Y006258D03*
X032594Y007258D03*
X033494Y007008D03*
X035894Y007608D03*
X035994Y007658D03*
X037344Y008358D03*
X029611Y010258D03*
X029477Y010208D03*
D203*
X030152Y010008D03*
X030202Y010108D03*
X030219Y010158D03*
X030252Y010208D03*
X030269Y010258D03*
X029936Y009108D03*
X029602Y008708D03*
X030419Y008558D03*
X030502Y008658D03*
X031886Y008258D03*
X031919Y008308D03*
X034002Y008508D03*
X037752Y008508D03*
X032402Y006258D03*
X029202Y007308D03*
X028302Y007258D03*
X025586Y007108D03*
X025569Y007058D03*
X024686Y006608D03*
X023952Y006958D03*
X024236Y007608D03*
X022669Y008158D03*
X023752Y008308D03*
X023269Y008708D03*
X020052Y009308D03*
X019936Y009208D03*
X019102Y007208D03*
X019119Y007158D03*
X019136Y007108D03*
D204*
X023928Y006908D03*
X024261Y007658D03*
X024278Y007708D03*
X025828Y007708D03*
X028328Y007308D03*
X029211Y007358D03*
X030928Y008158D03*
X030378Y008508D03*
X030461Y008608D03*
X029578Y008658D03*
X029561Y008608D03*
X028611Y009208D03*
X030128Y009958D03*
X030178Y010058D03*
X031561Y009908D03*
X031278Y006408D03*
X033428Y006258D03*
D205*
X030744Y006892D03*
X028344Y006275D03*
X028094Y006925D03*
X022844Y006475D03*
X020294Y007542D03*
X020294Y007575D03*
X021744Y008375D03*
X035644Y007492D03*
D206*
X033969Y008492D03*
X031819Y008125D03*
X029669Y008825D03*
X028669Y009242D03*
X027519Y008392D03*
X025769Y007575D03*
X025619Y007192D03*
X022969Y006642D03*
X019169Y007025D03*
X023669Y008242D03*
X032419Y006275D03*
X033469Y006292D03*
D207*
X028569Y006475D03*
X027869Y006692D03*
X026969Y007375D03*
X022719Y006292D03*
X021569Y006892D03*
X029969Y010325D03*
X036619Y008092D03*
D208*
X026636Y006292D03*
D209*
X023994Y007042D03*
X025594Y007125D03*
X025594Y007142D03*
X025794Y007625D03*
X025794Y007642D03*
X024244Y007625D03*
X028294Y007242D03*
X029944Y006292D03*
X031294Y006425D03*
X033644Y007125D03*
X029644Y008775D03*
X028644Y009225D03*
X020194Y009425D03*
X020094Y009342D03*
X019144Y007092D03*
X019144Y007075D03*
D210*
X020219Y006658D03*
X020119Y006308D03*
X019069Y007608D03*
X019069Y007658D03*
X019069Y007708D03*
X019119Y007958D03*
X019169Y008108D03*
X019369Y008508D03*
X019469Y008658D03*
X023519Y009158D03*
X026719Y007908D03*
X029269Y007708D03*
X029369Y008108D03*
X029419Y008258D03*
X029469Y008408D03*
X031019Y008258D03*
X031469Y007008D03*
X034719Y008158D03*
X031419Y009708D03*
X029119Y009908D03*
D211*
X032977Y008108D03*
X032461Y007158D03*
X033361Y006908D03*
X034544Y006958D03*
X024661Y006308D03*
X021427Y006758D03*
X019511Y006708D03*
D212*
X026669Y006308D03*
D213*
X029936Y006308D03*
X033536Y006358D03*
X031653Y007808D03*
X031686Y007858D03*
X029303Y010108D03*
X030386Y010608D03*
X024136Y008458D03*
X021636Y008258D03*
X021236Y006608D03*
D214*
X019394Y006408D03*
X025994Y008058D03*
X026944Y008608D03*
X026344Y006958D03*
X031144Y006308D03*
X032044Y010258D03*
D215*
X025369Y008542D03*
X022336Y009575D03*
X021836Y008492D03*
X021819Y008475D03*
X020369Y008025D03*
X020352Y007942D03*
X020102Y007075D03*
X019502Y006692D03*
X021402Y006742D03*
X024652Y006325D03*
X028419Y006342D03*
X031352Y007325D03*
X030286Y007675D03*
X032486Y007175D03*
X031569Y006625D03*
X032686Y006475D03*
X033736Y006525D03*
X034786Y007075D03*
X034819Y007092D03*
X034886Y007125D03*
X034919Y007142D03*
X034769Y007575D03*
D216*
X026694Y006325D03*
D217*
X028403Y006325D03*
X031386Y007375D03*
X030453Y007825D03*
X033403Y006942D03*
X035103Y007225D03*
X033986Y007842D03*
X024653Y006342D03*
X020436Y008225D03*
X020453Y008242D03*
D218*
X020603Y008575D03*
X022703Y008092D03*
X020303Y007492D03*
X020303Y007475D03*
X028136Y006975D03*
X029936Y006325D03*
X031453Y006542D03*
X030203Y007525D03*
X030586Y007892D03*
X032836Y008025D03*
X033903Y007792D03*
X036036Y007675D03*
X030703Y009925D03*
D219*
X030469Y009425D03*
X031419Y009292D03*
X031419Y009275D03*
X031369Y008825D03*
X030669Y008892D03*
X028569Y008025D03*
X028569Y007992D03*
X028569Y007975D03*
X028519Y007775D03*
X028469Y007625D03*
X026219Y006692D03*
X023319Y007575D03*
X024419Y007992D03*
X025119Y007992D03*
X031169Y006325D03*
X033769Y007225D03*
D220*
X031694Y007875D03*
X031694Y007892D03*
X030744Y007992D03*
X029794Y009025D03*
X027644Y007925D03*
X023494Y008092D03*
X020644Y009725D03*
X032494Y006325D03*
D221*
X033503Y006325D03*
X030136Y007425D03*
X029203Y007125D03*
X030786Y008025D03*
X030803Y008042D03*
X031753Y007992D03*
X031786Y008042D03*
X028553Y008392D03*
X031686Y009992D03*
X030436Y010642D03*
X029253Y010075D03*
X023603Y008192D03*
X023586Y008175D03*
X021603Y008225D03*
X020403Y009575D03*
X020503Y009642D03*
X021186Y006575D03*
X022953Y006625D03*
D222*
X026719Y006342D03*
D223*
X029244Y006875D03*
X029944Y006342D03*
X031494Y006575D03*
X033444Y006975D03*
X035444Y007392D03*
X035544Y007442D03*
X034494Y008025D03*
X030494Y007842D03*
X030244Y007592D03*
X021344Y006692D03*
X020294Y007625D03*
X020294Y007642D03*
X021194Y009975D03*
D224*
X021069Y009208D03*
X023269Y007258D03*
X019369Y006358D03*
D225*
X020136Y006358D03*
X020186Y006558D03*
X020203Y006608D03*
X020236Y006708D03*
X019086Y007808D03*
X019103Y007858D03*
X019136Y008008D03*
X019153Y008058D03*
X019236Y008258D03*
X019286Y008358D03*
X019336Y008458D03*
X019403Y008558D03*
X019503Y008708D03*
X019536Y008758D03*
X023203Y008658D03*
X023536Y009208D03*
X025186Y008158D03*
X024336Y007808D03*
X023886Y006808D03*
X028353Y007358D03*
X029253Y007658D03*
X029286Y007808D03*
X029303Y007858D03*
X029353Y008058D03*
X029436Y008308D03*
X029453Y008358D03*
X028586Y008258D03*
X027453Y008358D03*
X030103Y007358D03*
X032036Y008558D03*
X032053Y008608D03*
X029936Y009608D03*
X029103Y009858D03*
X029136Y009958D03*
X029003Y009608D03*
X032336Y010008D03*
X030536Y010708D03*
X037886Y008558D03*
D226*
X026744Y006358D03*
D227*
X028003Y006808D03*
X028436Y006358D03*
X031303Y007258D03*
X030403Y007808D03*
X030303Y007708D03*
X032003Y010108D03*
X021853Y008508D03*
X020086Y007058D03*
D228*
X020352Y007958D03*
X020369Y008008D03*
X020386Y008058D03*
X022802Y006408D03*
X025519Y008608D03*
X030169Y010458D03*
X037069Y008258D03*
X034852Y007108D03*
X031336Y007308D03*
X029952Y006358D03*
D229*
X031411Y006508D03*
X032528Y006358D03*
X032811Y008008D03*
X028778Y009308D03*
X020911Y009858D03*
X020261Y007258D03*
X024661Y006458D03*
D230*
X022786Y006375D03*
X020053Y007025D03*
X026486Y009042D03*
X032003Y010092D03*
X033703Y008325D03*
X033336Y006892D03*
X034303Y006842D03*
X034403Y006892D03*
X030536Y006775D03*
X029953Y006375D03*
X028453Y006375D03*
X027986Y006792D03*
D231*
X026361Y008842D03*
X028328Y008992D03*
X030261Y009225D03*
X030278Y009242D03*
X038211Y008692D03*
X020911Y006392D03*
D232*
X022786Y006392D03*
X023153Y007825D03*
X029236Y006842D03*
X031586Y006642D03*
X033136Y009892D03*
D233*
X028136Y009375D03*
X022302Y010175D03*
X026802Y006392D03*
D234*
X030178Y007492D03*
X031611Y007725D03*
X031611Y007742D03*
X033528Y007042D03*
X033578Y006392D03*
X034578Y008075D03*
X032028Y010192D03*
X020878Y009842D03*
X020661Y008675D03*
D235*
X020894Y009008D03*
X019194Y008158D03*
X020244Y006758D03*
X021094Y006508D03*
X020144Y006408D03*
X025894Y007858D03*
X029344Y008008D03*
X029394Y008208D03*
X029044Y009708D03*
X031444Y009758D03*
X023544Y009258D03*
D236*
X026819Y006408D03*
D237*
X028503Y006408D03*
X021886Y007408D03*
X021486Y006808D03*
X041686Y010908D03*
D238*
X041669Y011708D03*
X030019Y010358D03*
X025486Y008558D03*
X021986Y008708D03*
X029952Y006408D03*
X031152Y007058D03*
X041669Y006408D03*
D239*
X036094Y007708D03*
X034544Y008058D03*
X033594Y006408D03*
X020294Y007458D03*
D240*
X021444Y008092D03*
X025094Y007942D03*
X025094Y007925D03*
X026244Y006742D03*
X028494Y007692D03*
X028544Y007842D03*
X028544Y007875D03*
X028544Y007892D03*
X030194Y008325D03*
X021044Y006475D03*
X019394Y006425D03*
D241*
X022819Y006425D03*
X020319Y007775D03*
X020319Y007792D03*
X020469Y008292D03*
X026469Y009025D03*
X030269Y007642D03*
X032919Y008075D03*
D242*
X033294Y006592D03*
X026844Y006425D03*
D243*
X028078Y006892D03*
X031428Y007442D03*
X032561Y007225D03*
X032628Y006425D03*
X033678Y006475D03*
X035411Y007375D03*
X035511Y007425D03*
X033961Y007825D03*
X020528Y008425D03*
X020511Y008392D03*
X020161Y007142D03*
X019478Y006642D03*
D244*
X023219Y007775D03*
X020619Y008592D03*
X023469Y008825D03*
X026669Y007175D03*
X030919Y007025D03*
X032619Y007275D03*
X034669Y007525D03*
X036069Y007692D03*
X033619Y006425D03*
X032019Y010175D03*
D245*
X032011Y010142D03*
X030211Y010492D03*
X025527Y008625D03*
X025361Y008525D03*
X023577Y008875D03*
X021794Y008442D03*
X020461Y008275D03*
X020311Y007742D03*
X020311Y007725D03*
X020144Y007125D03*
X022827Y006442D03*
X028061Y006875D03*
X030261Y007625D03*
X031394Y007392D03*
X030644Y006825D03*
X032644Y006442D03*
X033694Y006492D03*
X035127Y007242D03*
X035194Y007275D03*
X035227Y007292D03*
X033777Y008375D03*
X037161Y008292D03*
D246*
X031769Y008025D03*
X027669Y007942D03*
X031319Y006442D03*
X030019Y009642D03*
X023219Y010042D03*
X020769Y008842D03*
D247*
X019311Y008408D03*
X019261Y008308D03*
X019211Y008208D03*
X019111Y007908D03*
X019078Y007758D03*
X020178Y006508D03*
X020161Y006458D03*
X024361Y007858D03*
X026711Y008408D03*
X029278Y007758D03*
X029311Y007908D03*
X029328Y007958D03*
X029378Y008158D03*
X030278Y008408D03*
X031061Y008308D03*
X032078Y008658D03*
X032128Y008758D03*
X030611Y008808D03*
X030528Y009458D03*
X029078Y009808D03*
X029061Y009758D03*
X029028Y009658D03*
X029161Y010008D03*
X023561Y009358D03*
X023561Y009308D03*
X023411Y009908D03*
X028378Y007408D03*
X025511Y006908D03*
X024711Y006708D03*
D248*
X022844Y006458D03*
X020294Y007608D03*
X030244Y010508D03*
X032894Y008058D03*
X031444Y007458D03*
X030694Y006858D03*
D249*
X026886Y006458D03*
D250*
X031369Y007358D03*
X032669Y006458D03*
X020319Y007808D03*
D251*
X020169Y007158D03*
X023536Y008858D03*
X021152Y009958D03*
X028086Y006908D03*
X031469Y007508D03*
X033652Y006458D03*
X035586Y007458D03*
X033202Y009908D03*
X032019Y010158D03*
D252*
X026903Y006475D03*
D253*
X029219Y007425D03*
X029219Y007442D03*
X030369Y008492D03*
X030569Y008742D03*
X029569Y008625D03*
X029519Y008525D03*
X030569Y009475D03*
X032919Y008642D03*
X032919Y008625D03*
X032869Y008492D03*
X032819Y008342D03*
X031969Y008425D03*
X032969Y008775D03*
X032969Y008792D03*
X033019Y008925D03*
X033069Y009042D03*
X033119Y009175D03*
X033119Y009192D03*
X033169Y009325D03*
X033169Y009342D03*
X033219Y009475D03*
X033269Y009592D03*
X033269Y009625D03*
X033869Y008075D03*
X034519Y007442D03*
X025869Y007792D03*
X023919Y006892D03*
X023919Y006875D03*
X019419Y006492D03*
X019069Y007342D03*
X019069Y007375D03*
X019069Y007392D03*
X019069Y007425D03*
X019719Y008992D03*
X019769Y009042D03*
X019819Y009092D03*
X019869Y009142D03*
D254*
X026919Y006492D03*
D255*
X030319Y007725D03*
X031319Y007275D03*
X032719Y006492D03*
X037019Y008242D03*
X023619Y008892D03*
X021419Y010042D03*
X020069Y007042D03*
D256*
X019428Y006508D03*
X021161Y006558D03*
X022978Y006658D03*
X023978Y007008D03*
X025611Y007158D03*
X025811Y007658D03*
X024211Y007558D03*
X025228Y008258D03*
X029211Y007258D03*
X030878Y008108D03*
X031861Y008208D03*
X029661Y008808D03*
X029628Y008758D03*
X031628Y009958D03*
X030461Y010658D03*
X023278Y010008D03*
X020111Y009358D03*
X020811Y008908D03*
D257*
X021019Y009908D03*
X020219Y007208D03*
X019469Y006608D03*
X022869Y006508D03*
X028119Y006958D03*
X029369Y010158D03*
D258*
X033311Y006608D03*
X026944Y006508D03*
D259*
X028603Y006508D03*
X022103Y008908D03*
D260*
X030336Y007758D03*
X031603Y006658D03*
X032736Y006508D03*
X034336Y006858D03*
X034436Y006908D03*
D261*
X034961Y007158D03*
X035061Y007208D03*
X033711Y006508D03*
X030611Y006808D03*
X030278Y007658D03*
X033761Y008358D03*
X021811Y008458D03*
X020411Y008158D03*
X020328Y007858D03*
D262*
X026961Y006525D03*
D263*
X024694Y006625D03*
X024694Y006642D03*
X023944Y006925D03*
X023944Y006942D03*
X022994Y006692D03*
X021144Y006542D03*
X019094Y007225D03*
X019094Y007242D03*
X021544Y008175D03*
X023244Y008692D03*
X020844Y008942D03*
X023294Y007675D03*
X025844Y007742D03*
X026744Y007892D03*
X029594Y008675D03*
X030394Y008525D03*
X030144Y009992D03*
X030194Y010092D03*
X034694Y008142D03*
X037794Y008525D03*
D264*
X026969Y006542D03*
D265*
X029986Y006542D03*
X027203Y007742D03*
X028153Y008575D03*
X021803Y007275D03*
X021803Y007242D03*
X021803Y007225D03*
X021786Y007192D03*
X019736Y006775D03*
D266*
X030294Y007692D03*
X032944Y008092D03*
X033744Y006542D03*
D267*
X033844Y007758D03*
X028544Y008408D03*
X019444Y006558D03*
D268*
X027386Y006558D03*
X036386Y008008D03*
X032902Y009758D03*
D269*
X030528Y007858D03*
X026461Y009008D03*
X031478Y006558D03*
X035678Y007508D03*
D270*
X033253Y006558D03*
D271*
X033728Y007192D03*
X031111Y008375D03*
X032161Y008842D03*
X032178Y008875D03*
X032211Y008975D03*
X032228Y008992D03*
X032228Y009025D03*
X032261Y009075D03*
X032261Y009092D03*
X032278Y009125D03*
X031478Y009092D03*
X031461Y009075D03*
X030911Y009992D03*
X032378Y009975D03*
X032411Y009925D03*
X037978Y008592D03*
X028428Y007525D03*
X028411Y007492D03*
X028411Y007475D03*
X027728Y007992D03*
X026828Y008542D03*
X025578Y008692D03*
X025161Y008092D03*
X025928Y007942D03*
X025928Y007925D03*
X023311Y007625D03*
X021478Y008125D03*
X020911Y009042D03*
X023511Y009775D03*
X023478Y009825D03*
X023461Y009842D03*
X023561Y009642D03*
X023561Y009625D03*
X023561Y009592D03*
X023578Y009542D03*
X023578Y009525D03*
X023578Y009492D03*
X024728Y006775D03*
X026161Y006575D03*
D272*
X029994Y006575D03*
X028094Y008492D03*
X019727Y006892D03*
D273*
X028869Y006592D03*
D274*
X026186Y006608D03*
X024736Y006808D03*
X024403Y007958D03*
X025136Y008058D03*
X025936Y007958D03*
X028586Y008108D03*
X028586Y008158D03*
X030236Y008358D03*
X031203Y008508D03*
X031453Y009008D03*
X032286Y009158D03*
X031386Y009358D03*
X034086Y008558D03*
X034453Y007408D03*
X033753Y007208D03*
X023553Y009658D03*
X023536Y009708D03*
X020936Y009058D03*
D275*
X028928Y006608D03*
D276*
X031544Y006608D03*
X020394Y008108D03*
X020344Y007908D03*
D277*
X028961Y006625D03*
D278*
X033336Y006625D03*
D279*
X029002Y006642D03*
D280*
X033352Y006642D03*
X028069Y009342D03*
D281*
X032369Y009608D03*
X033819Y007258D03*
X026369Y007008D03*
X025469Y006758D03*
X023819Y006658D03*
X023319Y007508D03*
X022919Y008458D03*
D282*
X023503Y009108D03*
X020853Y008958D03*
X019886Y009158D03*
X019836Y009108D03*
X019786Y009058D03*
X019736Y009008D03*
X019653Y008908D03*
X019086Y007308D03*
X024703Y006658D03*
X025553Y007008D03*
X025853Y007758D03*
X025203Y008208D03*
X028103Y008808D03*
X029536Y008558D03*
X028586Y008308D03*
X031336Y009458D03*
X033003Y008858D03*
X032986Y008808D03*
X032953Y008708D03*
X032886Y008558D03*
X032853Y008458D03*
X032836Y008408D03*
X032803Y008308D03*
X032786Y008258D03*
X033903Y008158D03*
X033753Y007708D03*
X032803Y007408D03*
X033686Y007158D03*
X033036Y008958D03*
X033053Y009008D03*
X033086Y009108D03*
X033103Y009158D03*
X033186Y009358D03*
X033203Y009408D03*
X033236Y009508D03*
X033253Y009558D03*
X033286Y009658D03*
D283*
X031427Y008958D03*
X031411Y008908D03*
X031361Y008808D03*
X031344Y008758D03*
X031311Y008708D03*
X031294Y008658D03*
X031261Y008608D03*
X031227Y008558D03*
X028527Y009158D03*
X026861Y008558D03*
X026694Y008308D03*
X026677Y008008D03*
X028444Y007558D03*
X028461Y007608D03*
X026211Y006658D03*
X021461Y008108D03*
X023061Y008558D03*
X024611Y008908D03*
X026411Y008908D03*
X038027Y008608D03*
D284*
X029044Y006658D03*
D285*
X033378Y006658D03*
D286*
X029661Y006675D03*
D287*
X033394Y006675D03*
X022294Y010142D03*
D288*
X029686Y006692D03*
D289*
X033411Y006692D03*
D290*
X027894Y006708D03*
D291*
X031669Y006708D03*
X041669Y009958D03*
D292*
X033436Y006708D03*
D293*
X032511Y007192D03*
X031361Y007342D03*
X028028Y006842D03*
X021378Y006725D03*
X020111Y007092D03*
X020328Y007825D03*
X020328Y007842D03*
X020328Y007875D03*
X020361Y007975D03*
X020361Y007992D03*
X020378Y008042D03*
X020411Y008125D03*
X020411Y008142D03*
X020428Y008175D03*
X020428Y008192D03*
X032011Y010125D03*
X037111Y008275D03*
X035028Y007192D03*
D294*
X029744Y006725D03*
D295*
X033453Y006725D03*
D296*
X033477Y006742D03*
D297*
X015711Y006758D03*
X015711Y006808D03*
X015711Y006858D03*
X015711Y009108D03*
X015711Y009158D03*
X015711Y009208D03*
D298*
X024428Y008008D03*
X025111Y007958D03*
X026678Y008058D03*
X026678Y008108D03*
X026678Y008158D03*
X026678Y008208D03*
X028511Y007758D03*
X028528Y007808D03*
X028561Y007908D03*
X028561Y007958D03*
X028811Y008858D03*
X030678Y008908D03*
X032561Y007858D03*
X026278Y006808D03*
X026261Y006758D03*
X025478Y006808D03*
X024761Y006908D03*
D299*
X027944Y006758D03*
X021494Y010058D03*
X030094Y010408D03*
D300*
X029802Y006758D03*
D301*
X033494Y006758D03*
D302*
X032444Y007142D03*
X030344Y007775D03*
X035294Y007742D03*
X021894Y008575D03*
X021444Y006775D03*
D303*
X021619Y006942D03*
X022119Y008942D03*
X027419Y009275D03*
X029269Y006775D03*
D304*
X033502Y006775D03*
D305*
X027228Y007875D03*
X019728Y006792D03*
D306*
X033528Y006792D03*
D307*
X032953Y006808D03*
D308*
X036028Y007875D03*
X028128Y008542D03*
X023011Y008042D03*
X022111Y009142D03*
X022178Y009425D03*
X019728Y006842D03*
X019728Y006825D03*
D309*
X032494Y006825D03*
X032494Y006842D03*
D310*
X019728Y006858D03*
D311*
X023094Y006858D03*
X022644Y008208D03*
X027744Y008008D03*
X028544Y007858D03*
D312*
X026694Y007958D03*
X026694Y008358D03*
X030644Y008858D03*
X032244Y009058D03*
X032394Y009958D03*
X023494Y009808D03*
X025494Y006858D03*
D313*
X026753Y007208D03*
X028036Y006858D03*
X029236Y006858D03*
X020453Y008258D03*
X020436Y008208D03*
X021303Y010008D03*
D314*
X032511Y006858D03*
D315*
X028119Y008525D03*
X019719Y006875D03*
D316*
X021869Y008542D03*
X030119Y010425D03*
X034369Y006875D03*
D317*
X028069Y008458D03*
X019719Y006908D03*
D318*
X020569Y008508D03*
X030219Y007558D03*
X030769Y006908D03*
D319*
X019719Y006925D03*
D320*
X023136Y006925D03*
X023136Y006942D03*
X024786Y007025D03*
X024803Y007042D03*
X024803Y007075D03*
X026353Y006975D03*
X026386Y007042D03*
X026403Y007092D03*
X025053Y007792D03*
X025036Y007775D03*
X024453Y008075D03*
X026003Y008075D03*
X027753Y008025D03*
X030136Y008275D03*
X032536Y007842D03*
X030653Y010792D03*
X022903Y008442D03*
X021003Y009142D03*
D321*
X025536Y009258D03*
X027036Y007458D03*
X021636Y006958D03*
X034253Y008008D03*
D322*
X033344Y008208D03*
X035844Y007808D03*
X032044Y006958D03*
D323*
X034244Y007975D03*
X032894Y009692D03*
X032894Y009725D03*
X027044Y007475D03*
X022144Y008992D03*
X021644Y006975D03*
D324*
X023961Y006975D03*
X025611Y007175D03*
X025778Y007592D03*
X024228Y007592D03*
X024228Y007575D03*
X023711Y008275D03*
X021561Y008192D03*
X019128Y007125D03*
X019161Y007042D03*
X020128Y009375D03*
X020211Y009442D03*
X022461Y010342D03*
X028061Y008775D03*
X028578Y008342D03*
X029628Y008742D03*
X030861Y008092D03*
X031861Y008192D03*
X031878Y008225D03*
X029211Y007292D03*
X029211Y007275D03*
X029211Y007242D03*
X034661Y008125D03*
X032511Y009642D03*
D325*
X032911Y009775D03*
X032911Y009792D03*
X026478Y009092D03*
X021661Y006992D03*
D326*
X023169Y006992D03*
X023319Y007475D03*
X024819Y007125D03*
X024869Y007275D03*
X024969Y007575D03*
X028869Y008892D03*
D327*
X028569Y008358D03*
X025769Y007558D03*
X025619Y007208D03*
X024169Y007458D03*
X024019Y007108D03*
X019169Y007008D03*
X020169Y009408D03*
X031819Y008108D03*
D328*
X020044Y007008D03*
D329*
X021669Y007008D03*
X032919Y009858D03*
D330*
X030669Y010808D03*
X026019Y008108D03*
X023319Y007458D03*
X023169Y007008D03*
X021019Y009158D03*
D331*
X024386Y008408D03*
X024453Y008058D03*
X025053Y007808D03*
X025036Y007758D03*
X024803Y007058D03*
X024786Y007008D03*
X026386Y007058D03*
X026403Y007108D03*
X032936Y007508D03*
D332*
X031569Y007658D03*
X030619Y007908D03*
X030186Y007508D03*
X028152Y007008D03*
X027602Y007908D03*
X021686Y008308D03*
X020652Y008658D03*
X036202Y007758D03*
D333*
X033919Y008458D03*
X030069Y009658D03*
X023469Y008058D03*
X026619Y007158D03*
X029219Y007008D03*
D334*
X032261Y007008D03*
X036528Y008058D03*
X030978Y009558D03*
X030961Y009508D03*
D335*
X034644Y007008D03*
X034744Y007058D03*
D336*
X033869Y007775D03*
X030669Y007942D03*
X030169Y007475D03*
X028169Y007025D03*
X028519Y008425D03*
X029319Y010125D03*
X023119Y010075D03*
X020669Y008692D03*
X021669Y008292D03*
D337*
X022036Y008792D03*
X022286Y009525D03*
X025553Y009275D03*
X026486Y009075D03*
X032303Y007042D03*
D338*
X036202Y007942D03*
X028219Y008642D03*
X028202Y008625D03*
X027152Y007625D03*
X022136Y009075D03*
X021736Y007092D03*
X021719Y007075D03*
D339*
X023569Y008158D03*
X029719Y008908D03*
X033619Y007108D03*
D340*
X027194Y007708D03*
X021811Y007308D03*
X021777Y007158D03*
D341*
X021786Y007208D03*
X021803Y007258D03*
X027203Y007758D03*
D342*
X031269Y007208D03*
X026919Y009158D03*
D343*
X030544Y008708D03*
X031944Y008358D03*
X019994Y009258D03*
X019094Y007258D03*
D344*
X021878Y008558D03*
X026828Y007258D03*
X028711Y009558D03*
X034828Y007608D03*
X036928Y008208D03*
D345*
X031994Y010075D03*
X027044Y009192D03*
X026844Y007275D03*
D346*
X026894Y007308D03*
D347*
X031619Y007758D03*
X032669Y007308D03*
D348*
X035269Y007308D03*
X035369Y007358D03*
X021769Y008408D03*
D349*
X021294Y007992D03*
X028194Y008892D03*
X034294Y007325D03*
D350*
X035303Y007325D03*
X035336Y007342D03*
X022436Y010325D03*
X021253Y009992D03*
X021786Y008425D03*
X020503Y008375D03*
X020486Y008342D03*
X020486Y008325D03*
X020303Y007692D03*
X020303Y007675D03*
D351*
X021802Y007358D03*
X027136Y007608D03*
D352*
X024944Y007508D03*
X024894Y007358D03*
X022794Y008358D03*
X030694Y008958D03*
D353*
X033936Y007358D03*
D354*
X026978Y007392D03*
X022061Y008842D03*
X030428Y009842D03*
X031011Y009642D03*
X031028Y009675D03*
D355*
X026994Y007408D03*
D356*
X027694Y007958D03*
X031844Y008158D03*
X034544Y007458D03*
D357*
X034644Y007508D03*
X031594Y007708D03*
X025294Y008408D03*
X023444Y008808D03*
X023244Y007758D03*
D358*
X027111Y007558D03*
D359*
X027119Y007575D03*
X032919Y009875D03*
D360*
X027128Y007592D03*
D361*
X027161Y007642D03*
D362*
X027161Y007658D03*
X022211Y009458D03*
D363*
X025569Y009358D03*
X025969Y008008D03*
X025119Y008008D03*
X028569Y008008D03*
X033669Y007658D03*
D364*
X027169Y007675D03*
D365*
X022136Y008975D03*
X034236Y007942D03*
X034253Y007992D03*
X034986Y007692D03*
X036436Y008025D03*
D366*
X027219Y007842D03*
X027219Y007825D03*
X027219Y007792D03*
X027219Y007775D03*
D367*
X027219Y007808D03*
X022119Y009108D03*
X036119Y007908D03*
D368*
X034228Y007908D03*
X034211Y007858D03*
D369*
X035977Y007858D03*
X022094Y009158D03*
D370*
X022853Y007908D03*
X028353Y009458D03*
X006436Y012108D03*
X006436Y013658D03*
D371*
X022969Y008008D03*
X025519Y009208D03*
D372*
X026069Y008258D03*
X026069Y008208D03*
X027319Y008258D03*
X028369Y009058D03*
D373*
X030286Y009258D03*
X026053Y008358D03*
D374*
X028103Y008508D03*
D375*
X028144Y008558D03*
D376*
X030311Y010558D03*
X020628Y008608D03*
D377*
X027603Y009308D03*
X028186Y008608D03*
X030486Y009708D03*
D378*
X006428Y008625D03*
X006428Y011975D03*
X006428Y012892D03*
D379*
X022136Y009058D03*
X028236Y008658D03*
X028503Y009508D03*
D380*
X029728Y009508D03*
X034228Y008658D03*
D381*
X028644Y009542D03*
X021994Y008725D03*
D382*
X041669Y008758D03*
D383*
X030994Y009608D03*
X022044Y008808D03*
D384*
X022069Y009225D03*
X024019Y008942D03*
D385*
X022119Y008958D03*
D386*
X022044Y009275D03*
X024077Y008975D03*
D387*
X024103Y008992D03*
X022036Y009292D03*
D388*
X024128Y009008D03*
D389*
X024186Y009042D03*
X022319Y010192D03*
D390*
X025578Y009125D03*
D391*
X025494Y009142D03*
D392*
X022094Y009175D03*
D393*
X030219Y009175D03*
D394*
X030244Y009208D03*
D395*
X022044Y009308D03*
D396*
X025561Y009308D03*
D397*
X022069Y009325D03*
D398*
X022303Y010158D03*
X028103Y009358D03*
D399*
X028178Y009392D03*
D400*
X028219Y009408D03*
D401*
X028252Y009425D03*
D402*
X028569Y009525D03*
D403*
X022261Y010108D03*
D404*
X022278Y010125D03*
D405*
X022336Y010208D03*
D406*
X022344Y010225D03*
D407*
X030744Y010858D03*
D408*
X012999Y007848D03*
X011599Y008105D03*
X011299Y008048D03*
X011199Y008048D03*
X011199Y007948D03*
X011099Y007948D03*
X011199Y008162D03*
X011299Y008162D03*
X011299Y008262D03*
X011199Y008262D03*
X011099Y008262D03*
X011999Y008891D03*
X008399Y009148D03*
X008399Y009248D03*
X007799Y008262D03*
X011999Y007319D03*
D409*
X011699Y007027D03*
X008899Y007584D03*
X008899Y008627D03*
X008799Y009184D03*
X011699Y009184D03*
X012999Y008327D03*
D410*
X012885Y008562D03*
X012113Y008705D03*
X012085Y008762D03*
X012285Y008105D03*
X012985Y007848D03*
X012113Y007505D03*
X012085Y007448D03*
X007613Y008105D03*
D411*
X007885Y008327D03*
X008113Y007741D03*
X009885Y006527D03*
X009913Y006527D03*
X009985Y006527D03*
X012985Y008327D03*
X010613Y009484D03*
X010585Y009484D03*
X010513Y009484D03*
X010485Y009484D03*
X010413Y009484D03*
X010385Y009484D03*
X010313Y009484D03*
X010285Y009484D03*
X010213Y009484D03*
X010185Y009484D03*
X009985Y009484D03*
X009913Y009484D03*
X009885Y009484D03*
D412*
X008370Y009198D03*
X008356Y009198D03*
X011742Y008498D03*
X011756Y008498D03*
X011756Y008112D03*
X011770Y008112D03*
X012970Y008312D03*
X012970Y007855D03*
X008127Y007712D03*
X011456Y004912D03*
X011456Y011298D03*
D413*
X010942Y009698D03*
X009170Y009098D03*
X011870Y008112D03*
X011727Y007712D03*
X012956Y007855D03*
X009170Y007112D03*
X010942Y006512D03*
D414*
X008870Y007534D03*
X008827Y007577D03*
X008356Y007791D03*
X008827Y008634D03*
X008870Y008677D03*
X012827Y008091D03*
X012842Y008091D03*
X012856Y008091D03*
X012870Y008091D03*
X012927Y008091D03*
X012942Y008091D03*
X012956Y008091D03*
X012956Y008020D03*
X012942Y008020D03*
X012927Y008020D03*
X012870Y008020D03*
X012856Y008020D03*
X012842Y008020D03*
X012827Y008020D03*
D415*
X012827Y008162D03*
X012842Y008162D03*
X012856Y008162D03*
X012870Y008162D03*
X012927Y008162D03*
X012942Y008162D03*
X012956Y008162D03*
X011370Y008648D03*
X008856Y008662D03*
X008842Y008648D03*
X008356Y008362D03*
X007870Y008262D03*
X008842Y007562D03*
X008856Y007548D03*
X011370Y007562D03*
D416*
X011742Y007719D03*
X011756Y007719D03*
X012956Y008319D03*
X011727Y008505D03*
X009156Y009091D03*
X009142Y009091D03*
X008842Y009119D03*
X008756Y009134D03*
X008127Y009005D03*
X008342Y008605D03*
X007627Y008105D03*
X008342Y007605D03*
X008127Y007205D03*
X008727Y006848D03*
X009142Y007119D03*
X009156Y007119D03*
X008727Y009362D03*
D417*
X008742Y009362D03*
X008756Y009362D03*
X009370Y009648D03*
X011256Y009662D03*
X011270Y009662D03*
X011327Y009648D03*
X011342Y009648D03*
X012942Y007848D03*
X011342Y006562D03*
X011327Y006562D03*
X011270Y006548D03*
X011256Y006548D03*
X009370Y006562D03*
X008756Y006848D03*
X008742Y006848D03*
D418*
X010827Y005784D03*
X012942Y008327D03*
X008142Y008527D03*
X010827Y010427D03*
D419*
X010856Y010441D03*
X010770Y010441D03*
X011142Y009684D03*
X011242Y009670D03*
X011356Y009641D03*
X011370Y009641D03*
X011427Y009627D03*
X011442Y009613D03*
X011456Y009613D03*
X011470Y009613D03*
X011527Y009584D03*
X011556Y009570D03*
X011570Y009570D03*
X011627Y009541D03*
X011656Y009527D03*
X010470Y009113D03*
X010456Y009113D03*
X010442Y009113D03*
X010427Y009113D03*
X010370Y009113D03*
X010356Y009113D03*
X010342Y009113D03*
X009256Y009613D03*
X009242Y009613D03*
X009227Y009598D03*
X009170Y009584D03*
X009142Y009570D03*
X009342Y009641D03*
X009356Y009641D03*
X008770Y009370D03*
X011842Y008113D03*
X011856Y008113D03*
X012827Y008341D03*
X012827Y007841D03*
X012927Y007841D03*
X010470Y008070D03*
X010456Y008070D03*
X010442Y008070D03*
X010427Y008070D03*
X010370Y008070D03*
X010356Y008070D03*
X010342Y008070D03*
X010156Y006898D03*
X010142Y006898D03*
X010127Y006898D03*
X010070Y006898D03*
X010056Y006898D03*
X010042Y006898D03*
X010027Y006898D03*
X009356Y006570D03*
X009342Y006570D03*
X009256Y006598D03*
X009242Y006598D03*
X009227Y006613D03*
X009170Y006627D03*
X009142Y006641D03*
X008770Y006841D03*
X011142Y006527D03*
X011242Y006541D03*
X011356Y006570D03*
X011370Y006570D03*
X011427Y006584D03*
X011442Y006598D03*
X011456Y006598D03*
X011470Y006598D03*
X011527Y006627D03*
X011556Y006641D03*
X011570Y006641D03*
X011627Y006670D03*
X011656Y006684D03*
X010856Y005770D03*
X010770Y005770D03*
D420*
X010842Y005777D03*
X010956Y006520D03*
X010970Y006520D03*
X011027Y006520D03*
X011042Y006520D03*
X011056Y006520D03*
X011070Y006520D03*
X011127Y006520D03*
X011156Y006534D03*
X011170Y006534D03*
X011227Y006534D03*
X009327Y006577D03*
X009270Y006591D03*
X008142Y007691D03*
X011827Y008120D03*
X012927Y008334D03*
X009327Y009634D03*
X009270Y009620D03*
X010956Y009691D03*
X010970Y009691D03*
X011027Y009691D03*
X011042Y009691D03*
X011056Y009691D03*
X011070Y009691D03*
X011127Y009691D03*
X011156Y009677D03*
X011170Y009677D03*
X011227Y009677D03*
X010842Y010434D03*
D421*
X011713Y009491D03*
X008985Y009491D03*
X008785Y009377D03*
X012913Y007834D03*
X011713Y006720D03*
X008985Y006720D03*
X008785Y006834D03*
D422*
X008913Y006991D03*
X008813Y007534D03*
X008413Y007791D03*
X008385Y008391D03*
X008413Y008420D03*
X008913Y009220D03*
X012585Y008677D03*
X012785Y008091D03*
X012813Y008091D03*
X012813Y008020D03*
X012785Y008020D03*
X012885Y008020D03*
X012913Y008020D03*
X012913Y008091D03*
X012885Y008091D03*
X012585Y007534D03*
D423*
X012813Y007548D03*
X012813Y008162D03*
X012785Y008162D03*
X012885Y008162D03*
X012913Y008162D03*
X012813Y008662D03*
X008585Y008648D03*
X008585Y007562D03*
D424*
X008413Y008098D03*
X010385Y008070D03*
X010413Y008070D03*
X010485Y008070D03*
X012913Y008341D03*
X010485Y009113D03*
X010413Y009113D03*
X010385Y009113D03*
X011413Y009627D03*
X011485Y009598D03*
X011513Y009584D03*
X009313Y009627D03*
X009285Y009627D03*
X009213Y009598D03*
X009185Y009584D03*
X009213Y009113D03*
X009213Y007098D03*
X010013Y006898D03*
X010085Y006898D03*
X010113Y006898D03*
X009313Y006584D03*
X009285Y006584D03*
X009213Y006613D03*
X009185Y006627D03*
X011413Y006584D03*
X011485Y006613D03*
X011513Y006627D03*
D425*
X012899Y007827D03*
D426*
X012899Y008020D03*
X012899Y008091D03*
X012799Y008091D03*
X012799Y008020D03*
X008899Y006977D03*
X008799Y007591D03*
X008399Y007834D03*
X008399Y008377D03*
X008799Y008620D03*
X008899Y009234D03*
D427*
X012799Y008162D03*
X012899Y008162D03*
D428*
X012899Y008348D03*
X009099Y009548D03*
X009099Y006663D03*
X010099Y006463D03*
X010199Y006463D03*
X010299Y006463D03*
X010399Y006463D03*
X010499Y006463D03*
X010599Y006463D03*
D429*
X012885Y007634D03*
X011185Y007734D03*
X011113Y007734D03*
X011085Y007734D03*
X011013Y007734D03*
X011013Y007834D03*
X011085Y007834D03*
X011113Y007834D03*
X011185Y007834D03*
X011185Y008377D03*
X011213Y008377D03*
X011213Y008477D03*
X011185Y008477D03*
X011113Y008477D03*
X011113Y008377D03*
X011313Y008377D03*
X008485Y008477D03*
D430*
X008913Y009027D03*
X008813Y009384D03*
X008885Y009427D03*
X012885Y007827D03*
X008885Y006784D03*
X008813Y006827D03*
D431*
X009085Y006663D03*
X010013Y006463D03*
X010085Y006463D03*
X010113Y006463D03*
X010185Y006463D03*
X010213Y006463D03*
X010285Y006463D03*
X010313Y006463D03*
X010385Y006463D03*
X010413Y006463D03*
X010485Y006463D03*
X010513Y006463D03*
X010585Y006463D03*
X010613Y006463D03*
X011585Y006648D03*
X011613Y006663D03*
X012885Y008348D03*
X011613Y009548D03*
X011585Y009563D03*
X009085Y009548D03*
D432*
X009070Y009091D03*
X008942Y008691D03*
X012870Y007619D03*
X009070Y007119D03*
D433*
X008970Y006727D03*
X011670Y007227D03*
X011827Y006784D03*
X011742Y006727D03*
X012856Y007827D03*
X012870Y007827D03*
X011670Y008984D03*
X011827Y009427D03*
X011742Y009484D03*
X008970Y009484D03*
D434*
X009127Y009563D03*
X010756Y010448D03*
X010870Y010448D03*
X011770Y009463D03*
X012842Y008348D03*
X012856Y008348D03*
X012870Y008348D03*
X008570Y008348D03*
X008156Y008548D03*
X008570Y007863D03*
X011770Y006748D03*
X010656Y006463D03*
X010642Y006463D03*
X010627Y006463D03*
X010570Y006463D03*
X010556Y006463D03*
X010542Y006463D03*
X010527Y006463D03*
X010470Y006463D03*
X010456Y006463D03*
X010442Y006463D03*
X010427Y006463D03*
X010370Y006463D03*
X010356Y006463D03*
X010342Y006463D03*
X010327Y006463D03*
X010270Y006463D03*
X010256Y006463D03*
X010242Y006463D03*
X010227Y006463D03*
X010170Y006463D03*
X010156Y006463D03*
X010142Y006463D03*
X010127Y006463D03*
X010070Y006463D03*
X010056Y006463D03*
X010042Y006463D03*
X010027Y006463D03*
X009127Y006648D03*
X010756Y005763D03*
X010870Y005763D03*
D435*
X010827Y005534D03*
X010842Y005520D03*
X010870Y005491D03*
X010927Y005434D03*
X010942Y005420D03*
X010970Y005391D03*
X011027Y005334D03*
X011042Y005320D03*
X011070Y005291D03*
X011127Y005234D03*
X011142Y005220D03*
X011170Y005191D03*
X011227Y005134D03*
X011242Y005120D03*
X011270Y005091D03*
X010442Y005177D03*
X010427Y005163D03*
X010356Y005091D03*
X010342Y005077D03*
X010327Y005063D03*
X010256Y004991D03*
X010242Y004977D03*
X010227Y004963D03*
X010727Y005477D03*
X010742Y005491D03*
X010770Y005520D03*
X008656Y006877D03*
X009842Y007263D03*
X009856Y007263D03*
X009870Y007263D03*
X009927Y007263D03*
X009942Y007263D03*
X009956Y007263D03*
X009970Y007263D03*
X010027Y007263D03*
X010042Y007263D03*
X010056Y007263D03*
X010070Y007263D03*
X010127Y007263D03*
X010142Y007263D03*
X010156Y007263D03*
X010170Y007263D03*
X010227Y007263D03*
X010242Y007263D03*
X010256Y007263D03*
X010270Y007263D03*
X010327Y007263D03*
X010527Y007263D03*
X010542Y007263D03*
X010556Y007263D03*
X010570Y007263D03*
X010627Y007263D03*
X010642Y007263D03*
X010656Y007263D03*
X012170Y007634D03*
X012770Y007848D03*
X010656Y008434D03*
X010642Y008434D03*
X010627Y008434D03*
X010570Y008434D03*
X010556Y008434D03*
X010542Y008434D03*
X010527Y008434D03*
X010470Y008434D03*
X010456Y008434D03*
X010442Y008434D03*
X010427Y008434D03*
X010370Y008434D03*
X010356Y008434D03*
X010342Y008434D03*
X010327Y008434D03*
X010270Y008434D03*
X010256Y008434D03*
X010242Y008434D03*
X010227Y008434D03*
X010170Y008434D03*
X010156Y008434D03*
X010142Y008434D03*
X010127Y008434D03*
X010070Y008434D03*
X010056Y008434D03*
X010042Y008434D03*
X010027Y008434D03*
X009970Y008434D03*
X009956Y008434D03*
X009942Y008434D03*
X009927Y008434D03*
X009870Y008434D03*
X009856Y008434D03*
X009842Y008434D03*
X009842Y008748D03*
X009856Y008748D03*
X009870Y008748D03*
X009927Y008748D03*
X009942Y008748D03*
X009956Y008748D03*
X009970Y008748D03*
X010170Y008748D03*
X010227Y008748D03*
X010242Y008748D03*
X010256Y008748D03*
X010270Y008748D03*
X010327Y008748D03*
X010342Y008748D03*
X010356Y008748D03*
X010370Y008748D03*
X010427Y008748D03*
X010442Y008748D03*
X010456Y008748D03*
X010470Y008748D03*
X010527Y008748D03*
X010542Y008748D03*
X010556Y008748D03*
X010570Y008748D03*
X010627Y008748D03*
X010642Y008748D03*
X010656Y008748D03*
X012170Y008577D03*
X012870Y008577D03*
X008656Y009334D03*
X008542Y008591D03*
X008356Y008634D03*
X008542Y007620D03*
X008356Y007577D03*
X010770Y010691D03*
X010742Y010720D03*
X010727Y010734D03*
X010827Y010677D03*
X010842Y010691D03*
X010870Y010720D03*
X010927Y010777D03*
X010942Y010791D03*
X010970Y010820D03*
X011027Y010877D03*
X011042Y010891D03*
X011070Y010920D03*
X011127Y010977D03*
X011142Y010991D03*
X011170Y011020D03*
X011227Y011077D03*
X011242Y011091D03*
X011270Y011120D03*
X010442Y011034D03*
X010427Y011048D03*
X010356Y011120D03*
X010342Y011134D03*
X010327Y011148D03*
X010256Y011220D03*
X010242Y011234D03*
X010227Y011248D03*
D436*
X010942Y009420D03*
X010956Y009420D03*
X010970Y009420D03*
X011027Y009420D03*
X011042Y009420D03*
X011056Y009420D03*
X011070Y009420D03*
X011227Y009391D03*
X011242Y009391D03*
X011270Y009377D03*
X011427Y009334D03*
X011442Y009320D03*
X011456Y009320D03*
X011527Y009291D03*
X011542Y009277D03*
X011556Y009277D03*
X011627Y009234D03*
X011642Y009220D03*
X012856Y008634D03*
X011570Y008191D03*
X011556Y007991D03*
X012856Y007577D03*
X011642Y006991D03*
X011627Y006977D03*
X011556Y006934D03*
X011542Y006934D03*
X011527Y006920D03*
X011456Y006891D03*
X011442Y006891D03*
X011427Y006877D03*
X011270Y006834D03*
X011242Y006820D03*
X011227Y006820D03*
X011070Y006791D03*
X011056Y006791D03*
X011042Y006791D03*
X011027Y006791D03*
X010970Y006791D03*
X010956Y006791D03*
X010942Y006791D03*
X009270Y006877D03*
X009256Y006891D03*
X009242Y006891D03*
X009170Y006934D03*
X009156Y006934D03*
X009056Y006991D03*
X008942Y007034D03*
X008456Y007477D03*
X008270Y007434D03*
X008256Y007420D03*
X008542Y008334D03*
X008942Y009177D03*
X009056Y009220D03*
X009156Y009277D03*
X009170Y009277D03*
X009242Y009320D03*
X009256Y009320D03*
X009270Y009334D03*
D437*
X009327Y009348D03*
X009342Y009348D03*
X009356Y009363D03*
X009370Y009363D03*
X009142Y009263D03*
X009127Y009263D03*
X008327Y009148D03*
X007827Y008348D03*
X008342Y007348D03*
X009127Y006948D03*
X009142Y006948D03*
X009327Y006863D03*
X009342Y006863D03*
X009356Y006848D03*
X009370Y006848D03*
X011327Y006848D03*
X011342Y006848D03*
X011356Y006848D03*
X011370Y006863D03*
X011570Y006948D03*
X011727Y007048D03*
X012842Y007563D03*
X012842Y008648D03*
X011727Y009163D03*
X011570Y009263D03*
X011370Y009348D03*
X011356Y009363D03*
X011342Y009363D03*
X011327Y009363D03*
D438*
X011542Y009577D03*
X011642Y009534D03*
X011670Y009520D03*
X011727Y009491D03*
X009156Y009577D03*
X009070Y009534D03*
X009056Y009534D03*
X009042Y009520D03*
X009027Y009520D03*
X008956Y009477D03*
X008870Y008877D03*
X008327Y008577D03*
X008327Y007634D03*
X008956Y006734D03*
X009027Y006691D03*
X009042Y006691D03*
X009056Y006677D03*
X009070Y006677D03*
X009156Y006634D03*
X011542Y006634D03*
X011642Y006677D03*
X011670Y006691D03*
X011727Y006720D03*
X012842Y007834D03*
D439*
X012827Y007555D03*
X011542Y007955D03*
X011456Y007755D03*
X011542Y008255D03*
X011456Y008455D03*
X012827Y008655D03*
X008470Y008455D03*
X008470Y007755D03*
D440*
X009385Y006562D03*
X009413Y006548D03*
X011285Y006548D03*
X012813Y007848D03*
X011285Y009662D03*
X009413Y009662D03*
X009385Y009648D03*
D441*
X010985Y009691D03*
X011013Y009691D03*
X011085Y009691D03*
X011113Y009691D03*
X011185Y009677D03*
X011213Y009677D03*
X011385Y009634D03*
X008885Y008891D03*
X012813Y008334D03*
X011385Y006577D03*
X011213Y006534D03*
X011185Y006534D03*
X011113Y006520D03*
X011085Y006520D03*
X011013Y006520D03*
X010985Y006520D03*
X010785Y005777D03*
X010785Y010434D03*
D442*
X011099Y009413D03*
X011199Y009398D03*
X011399Y009341D03*
X012599Y008670D03*
X012699Y008670D03*
X012799Y008670D03*
X011399Y008584D03*
X011399Y007627D03*
X012599Y007541D03*
X012699Y007541D03*
X012799Y007541D03*
X011399Y006870D03*
X011199Y006813D03*
X011099Y006798D03*
X008899Y007470D03*
X008799Y007541D03*
X008699Y007527D03*
X008499Y007484D03*
X008299Y008370D03*
X008199Y008370D03*
X008099Y008370D03*
X007999Y008370D03*
D443*
X011799Y008112D03*
X012799Y007855D03*
D444*
X012799Y008327D03*
X010799Y010427D03*
X010799Y005784D03*
D445*
X011113Y006798D03*
X011313Y006841D03*
X012613Y007541D03*
X012685Y007541D03*
X012713Y007541D03*
X012785Y007541D03*
X011485Y007827D03*
X011385Y007584D03*
X011513Y008327D03*
X011485Y008384D03*
X011385Y008627D03*
X012613Y008670D03*
X012685Y008670D03*
X012713Y008670D03*
X012785Y008670D03*
X011313Y009370D03*
X011113Y009413D03*
X008913Y008770D03*
X008885Y008698D03*
X008513Y009127D03*
X008413Y009141D03*
X008313Y008370D03*
X008285Y008370D03*
X008213Y008370D03*
X008185Y008370D03*
X008113Y008370D03*
X008085Y008370D03*
X008013Y008370D03*
X008385Y007813D03*
X008485Y007484D03*
X008613Y007513D03*
X008685Y007527D03*
X008713Y007527D03*
X008785Y007541D03*
X008913Y007441D03*
D446*
X011213Y007891D03*
X011785Y008119D03*
X011885Y008119D03*
X011713Y008505D03*
X012785Y008319D03*
X012785Y007862D03*
X008485Y008291D03*
X010813Y010419D03*
X010813Y005791D03*
D447*
X011256Y006827D03*
X012627Y007541D03*
X012642Y007541D03*
X012656Y007541D03*
X012670Y007541D03*
X012727Y007541D03*
X012742Y007541D03*
X012756Y007541D03*
X012770Y007541D03*
X011527Y007927D03*
X011570Y008027D03*
X011556Y008227D03*
X011527Y008284D03*
X011470Y008427D03*
X011442Y008484D03*
X011427Y008527D03*
X012627Y008670D03*
X012642Y008670D03*
X012656Y008670D03*
X012670Y008670D03*
X012727Y008670D03*
X012742Y008670D03*
X012756Y008670D03*
X012770Y008670D03*
X011256Y009384D03*
X009042Y009213D03*
X008970Y009227D03*
X008927Y009213D03*
X008570Y009298D03*
X008870Y008613D03*
X008427Y008413D03*
X008342Y008370D03*
X008327Y008370D03*
X008270Y008370D03*
X008256Y008370D03*
X008242Y008370D03*
X008227Y008370D03*
X008170Y008370D03*
X008156Y008370D03*
X008142Y008370D03*
X008127Y008370D03*
X008070Y008370D03*
X008056Y008370D03*
X008042Y008370D03*
X008027Y008370D03*
X008427Y007798D03*
X008870Y007598D03*
X008770Y007541D03*
X008742Y007527D03*
X008727Y007527D03*
X008656Y007513D03*
X008642Y007513D03*
X008627Y007513D03*
X008570Y007498D03*
X008556Y007498D03*
X008542Y007498D03*
X008527Y007498D03*
X008470Y007484D03*
X008256Y007341D03*
X008870Y007441D03*
X008927Y006998D03*
X008970Y006984D03*
X009042Y006998D03*
X008570Y006913D03*
X011427Y007684D03*
X011442Y007727D03*
X011470Y007784D03*
D448*
X012770Y008327D03*
X009356Y008841D03*
X009342Y008841D03*
X009327Y008841D03*
X009170Y008870D03*
X009156Y008870D03*
X009070Y008884D03*
X008970Y008770D03*
X008670Y009341D03*
X010627Y010841D03*
X010642Y010827D03*
X010542Y010927D03*
X010527Y010941D03*
X011327Y011184D03*
X011370Y011227D03*
X011427Y011284D03*
X009356Y007370D03*
X009342Y007370D03*
X009327Y007370D03*
X009170Y007341D03*
X009156Y007341D03*
X009070Y007327D03*
X008670Y006870D03*
X010627Y005370D03*
X010642Y005384D03*
X010542Y005284D03*
X010527Y005270D03*
X011327Y005027D03*
X011370Y004984D03*
X011427Y004927D03*
D449*
X008370Y007562D03*
X008370Y008648D03*
X012756Y007848D03*
D450*
X012756Y008326D03*
X012070Y008784D03*
X012056Y008812D03*
X012042Y008826D03*
X010327Y009184D03*
X010270Y009184D03*
X010256Y009184D03*
X010242Y009184D03*
X010227Y009184D03*
X010170Y009184D03*
X008927Y009055D03*
X008870Y009069D03*
X008856Y009069D03*
X008770Y009084D03*
X008742Y009098D03*
X008727Y009098D03*
X008656Y009112D03*
X008642Y009112D03*
X008627Y009112D03*
X008570Y009126D03*
X008556Y009126D03*
X008542Y009126D03*
X008627Y009326D03*
X008942Y008869D03*
X008927Y008669D03*
X008556Y008612D03*
X008370Y008284D03*
X008356Y008284D03*
X008342Y008284D03*
X008327Y008284D03*
X008270Y008284D03*
X008256Y008284D03*
X008242Y008284D03*
X008227Y008284D03*
X008170Y008284D03*
X008156Y008284D03*
X008142Y008284D03*
X008127Y008284D03*
X008070Y008284D03*
X008056Y008284D03*
X008042Y008284D03*
X008027Y008284D03*
X008556Y007598D03*
X008556Y007412D03*
X008570Y007412D03*
X008542Y007412D03*
X008527Y007412D03*
X008627Y007426D03*
X008642Y007426D03*
X008656Y007426D03*
X008727Y007441D03*
X008742Y007441D03*
X008770Y007455D03*
X008827Y007455D03*
X008927Y007541D03*
X008942Y007341D03*
X008627Y006884D03*
X010170Y006826D03*
X010227Y006826D03*
X010242Y006826D03*
X010256Y006826D03*
X010270Y006826D03*
X010327Y006826D03*
X012042Y007384D03*
X012056Y007398D03*
X012070Y007426D03*
D451*
X011356Y007555D03*
X011342Y007555D03*
X011327Y007555D03*
X011270Y007555D03*
X011256Y007555D03*
X011242Y007555D03*
X011227Y007555D03*
X011170Y007555D03*
X011156Y007555D03*
X011142Y007555D03*
X011127Y007555D03*
X011070Y007555D03*
X011056Y007555D03*
X011042Y007555D03*
X011027Y007555D03*
X010970Y007555D03*
X010956Y007555D03*
X010942Y007555D03*
X012742Y007855D03*
X011770Y008312D03*
X011356Y008655D03*
X011342Y008655D03*
X011327Y008655D03*
X011270Y008655D03*
X011256Y008655D03*
X011242Y008655D03*
X011227Y008655D03*
X011170Y008655D03*
X011156Y008655D03*
X011142Y008655D03*
X011127Y008655D03*
X011070Y008655D03*
X011056Y008655D03*
X011042Y008655D03*
X011027Y008655D03*
X010970Y008655D03*
X010956Y008655D03*
X010942Y008655D03*
X008842Y008598D03*
X008356Y008412D03*
X008342Y008412D03*
X008370Y008355D03*
X008342Y007798D03*
X008842Y007612D03*
X008442Y007398D03*
X008556Y006912D03*
X008556Y009298D03*
D452*
X008927Y008984D03*
X007970Y008284D03*
X008827Y007527D03*
X011770Y007927D03*
X012742Y008327D03*
D453*
X012642Y008105D03*
X011756Y008905D03*
X011742Y008919D03*
X011927Y009348D03*
X011870Y009391D03*
X011856Y009405D03*
X010727Y010462D03*
X008870Y009419D03*
X008856Y009405D03*
X008842Y009405D03*
X008827Y009391D03*
X008856Y008862D03*
X008170Y008562D03*
X011742Y007291D03*
X011756Y007305D03*
X011927Y006862D03*
X011870Y006819D03*
X011856Y006805D03*
X010727Y005748D03*
X008870Y006791D03*
X008856Y006805D03*
X008842Y006805D03*
X008827Y006819D03*
D454*
X012627Y008105D03*
X008270Y009005D03*
D455*
X010013Y007848D03*
X010085Y007848D03*
X010113Y007848D03*
X012613Y008105D03*
D456*
X012599Y008105D03*
D457*
X012585Y008105D03*
D458*
X012570Y008105D03*
X011670Y008105D03*
X011656Y008105D03*
D459*
X012556Y008105D03*
D460*
X012542Y008105D03*
X011270Y010405D03*
X011270Y005805D03*
D461*
X012527Y008105D03*
D462*
X012513Y008105D03*
D463*
X012499Y008105D03*
D464*
X012485Y008105D03*
D465*
X012470Y008105D03*
D466*
X012456Y008105D03*
D467*
X012442Y008105D03*
D468*
X012427Y008105D03*
D469*
X012413Y008605D03*
X012413Y007605D03*
D470*
X012399Y007541D03*
X011099Y007184D03*
X010999Y007184D03*
X012399Y008670D03*
X011099Y009027D03*
X010999Y009027D03*
D471*
X011285Y009005D03*
X011313Y009005D03*
X011813Y008705D03*
X012385Y008719D03*
X012385Y007491D03*
X011313Y007205D03*
X011285Y007205D03*
X010413Y005591D03*
X010413Y010619D03*
D472*
X010156Y008955D03*
X010142Y008955D03*
X010127Y008955D03*
X010070Y008955D03*
X010056Y008955D03*
X010042Y008955D03*
X010027Y008955D03*
X012370Y008755D03*
X012370Y007455D03*
X010470Y007055D03*
X010456Y007055D03*
X010442Y007055D03*
X010427Y007055D03*
X010370Y007055D03*
X010356Y007055D03*
X010342Y007055D03*
D473*
X011856Y007512D03*
X012356Y007412D03*
X012356Y008798D03*
D474*
X012342Y008826D03*
X011856Y008712D03*
X009356Y008469D03*
X009342Y008469D03*
X009327Y008469D03*
X009327Y007741D03*
X009342Y007741D03*
X009356Y007741D03*
X011927Y007584D03*
X012342Y007384D03*
D475*
X012327Y007348D03*
X011942Y007605D03*
X009370Y007748D03*
X007756Y008105D03*
X007742Y008105D03*
X009370Y008462D03*
X008256Y009005D03*
X008242Y009005D03*
X012327Y008862D03*
X010527Y010562D03*
X010527Y005648D03*
D476*
X012313Y007327D03*
X012313Y008884D03*
D477*
X012299Y008913D03*
X011899Y008684D03*
X012299Y007298D03*
D478*
X012285Y007270D03*
X011885Y007513D03*
X011985Y007641D03*
X008985Y007770D03*
X008285Y007170D03*
X008985Y008441D03*
X012285Y008941D03*
D479*
X012270Y008962D03*
X012270Y007248D03*
X008442Y007148D03*
D480*
X008527Y007148D03*
X008542Y007148D03*
X008556Y007148D03*
X008570Y007148D03*
X008627Y007162D03*
X008642Y007162D03*
X008656Y007162D03*
X008670Y007162D03*
X008727Y007176D03*
X008742Y007176D03*
X008756Y007176D03*
X008770Y007191D03*
X008827Y007191D03*
X008856Y007205D03*
X008870Y007205D03*
X008356Y007119D03*
X008627Y007791D03*
X008756Y007791D03*
X008956Y007791D03*
X008327Y008019D03*
X008270Y008019D03*
X008256Y008019D03*
X008242Y008019D03*
X008227Y008019D03*
X008170Y008019D03*
X008156Y008019D03*
X008142Y008019D03*
X008127Y008019D03*
X008070Y008019D03*
X008056Y008019D03*
X008042Y008019D03*
X008027Y008019D03*
X007870Y008019D03*
X008627Y008419D03*
X008756Y008419D03*
X008956Y008419D03*
X011570Y007705D03*
X012270Y008105D03*
X012242Y009005D03*
X012242Y007205D03*
D481*
X012256Y007227D03*
X008742Y007784D03*
X008727Y007784D03*
X008727Y008427D03*
X008742Y008427D03*
X008970Y008427D03*
X012256Y008984D03*
D482*
X011827Y008705D03*
X012256Y008105D03*
X008370Y007205D03*
X007956Y008105D03*
X007942Y008105D03*
X007927Y008105D03*
X010442Y010605D03*
X010442Y005605D03*
D483*
X010327Y005548D03*
X011470Y007319D03*
X010156Y007848D03*
X010142Y007848D03*
X010127Y007848D03*
X010070Y007848D03*
X010056Y007848D03*
X010042Y007848D03*
X010027Y007848D03*
X012242Y008105D03*
X011470Y008891D03*
X010327Y010662D03*
D484*
X012227Y009027D03*
X008527Y008884D03*
X008356Y008027D03*
X008342Y008027D03*
X012227Y007184D03*
D485*
X011756Y006741D03*
X010656Y007641D03*
X010642Y007641D03*
X010627Y007641D03*
X010570Y007641D03*
X010556Y007641D03*
X010542Y007641D03*
X010527Y007641D03*
X010470Y007641D03*
X010456Y007641D03*
X010442Y007641D03*
X010427Y007641D03*
X010370Y007641D03*
X010356Y007641D03*
X010342Y007641D03*
X010327Y007641D03*
X010270Y007641D03*
X010256Y007641D03*
X010242Y007641D03*
X010227Y007641D03*
X010170Y007641D03*
X008156Y007670D03*
X008942Y006741D03*
X012227Y007841D03*
X012227Y008370D03*
X011756Y009470D03*
X008942Y009470D03*
D486*
X008413Y008912D03*
X007685Y008112D03*
X011613Y007812D03*
X011613Y007241D03*
X012213Y007155D03*
X012013Y008555D03*
X012213Y009055D03*
X011613Y008969D03*
D487*
X012213Y008441D03*
X012213Y007769D03*
X010613Y006041D03*
X010585Y006041D03*
X010513Y006041D03*
X010485Y006041D03*
X010413Y006041D03*
X010385Y006041D03*
X010313Y006041D03*
X010285Y006041D03*
X010213Y006041D03*
X010185Y006041D03*
X010113Y006041D03*
X010085Y006041D03*
X010013Y006041D03*
X009985Y006041D03*
X009913Y006041D03*
X009885Y006041D03*
X009813Y006041D03*
X009785Y006041D03*
X009713Y006041D03*
X009885Y010169D03*
X009913Y010169D03*
X009985Y010169D03*
X010013Y010169D03*
X010085Y010169D03*
X010113Y010169D03*
X010185Y010169D03*
X010213Y010169D03*
X010285Y010169D03*
X010313Y010169D03*
X010385Y010169D03*
X010413Y010169D03*
X010485Y010169D03*
X010513Y010169D03*
X010585Y010169D03*
X010613Y010169D03*
D488*
X012199Y009069D03*
X012199Y007141D03*
D489*
X012199Y007720D03*
X012199Y008491D03*
X008899Y008920D03*
D490*
X012185Y009091D03*
X012185Y007120D03*
D491*
X012185Y007670D03*
X009413Y007384D03*
X009313Y007370D03*
X009185Y007341D03*
X009113Y007327D03*
X009085Y007327D03*
X008685Y006870D03*
X010585Y005327D03*
X010685Y005427D03*
X010485Y005227D03*
X011313Y005041D03*
X011385Y004970D03*
X011413Y004941D03*
X012185Y008541D03*
X009413Y008827D03*
X009313Y008841D03*
X009185Y008870D03*
X009113Y008884D03*
X009085Y008884D03*
X008685Y009341D03*
X010585Y010884D03*
X010685Y010784D03*
X010485Y010984D03*
X011313Y011170D03*
X011385Y011241D03*
X011413Y011270D03*
D492*
X011885Y009391D03*
X011913Y009362D03*
X011685Y008962D03*
X012185Y008105D03*
X011685Y007248D03*
X011913Y006848D03*
X011885Y006819D03*
X009285Y007091D03*
X008913Y006762D03*
X009285Y009119D03*
X008913Y009448D03*
D493*
X008742Y008848D03*
X008727Y008848D03*
X008656Y008862D03*
X008642Y008862D03*
X008627Y008862D03*
X008370Y008905D03*
X008356Y008905D03*
X008927Y008405D03*
X008927Y007805D03*
X012170Y007105D03*
X010642Y005705D03*
X012170Y009105D03*
X010642Y010505D03*
D494*
X008227Y009005D03*
X008827Y008905D03*
X007727Y008105D03*
X008227Y007205D03*
X012170Y008105D03*
X011956Y008605D03*
X011870Y008705D03*
D495*
X012027Y008541D03*
X011627Y008970D03*
X012142Y009141D03*
X012156Y009127D03*
X010942Y010470D03*
X011627Y007241D03*
X012142Y007070D03*
X012156Y007084D03*
X008242Y007141D03*
D496*
X008942Y007512D03*
X011927Y008112D03*
X011942Y008112D03*
X012156Y008612D03*
X012156Y007598D03*
D497*
X011827Y007519D03*
X011270Y007205D03*
X012156Y008105D03*
X011270Y009005D03*
D498*
X010656Y009484D03*
X010642Y009484D03*
X010627Y009484D03*
X010570Y009484D03*
X010556Y009484D03*
X010542Y009484D03*
X010527Y009484D03*
X010470Y009484D03*
X010456Y009484D03*
X010442Y009484D03*
X010427Y009484D03*
X010370Y009484D03*
X010356Y009484D03*
X010342Y009484D03*
X010327Y009484D03*
X010270Y009484D03*
X010256Y009484D03*
X010242Y009484D03*
X010227Y009484D03*
X010170Y009484D03*
X009970Y009484D03*
X009956Y009484D03*
X009942Y009484D03*
X009927Y009484D03*
X009870Y009484D03*
X009856Y009484D03*
X009842Y009484D03*
X008956Y008727D03*
X008470Y008341D03*
X008442Y007970D03*
X008470Y007870D03*
X008956Y007484D03*
X011742Y008284D03*
X012142Y008641D03*
X012142Y007570D03*
X009970Y006527D03*
X009956Y006527D03*
X009942Y006527D03*
X009927Y006527D03*
X009870Y006527D03*
X009856Y006527D03*
X009842Y006527D03*
D499*
X012142Y008105D03*
D500*
X011542Y008548D03*
X012127Y009163D03*
X008870Y008391D03*
X008856Y008391D03*
X008856Y007820D03*
X008870Y007820D03*
X008242Y007634D03*
X008227Y007634D03*
X008256Y007134D03*
X008270Y007120D03*
X011542Y007663D03*
X012127Y007048D03*
X010927Y005734D03*
X010670Y005720D03*
X010670Y010491D03*
D501*
X008642Y009334D03*
X008427Y009234D03*
X008442Y008234D03*
X010170Y008134D03*
X010227Y008134D03*
X010242Y008134D03*
X010256Y008134D03*
X010270Y008134D03*
X010327Y008134D03*
X012127Y008677D03*
X012127Y007534D03*
X008642Y006877D03*
X008356Y007434D03*
D502*
X012127Y008105D03*
X010227Y010719D03*
X010227Y005491D03*
D503*
X009385Y007091D03*
X008185Y007634D03*
X008885Y007820D03*
X008385Y008048D03*
X008885Y008391D03*
X008213Y008591D03*
X009385Y009120D03*
X012113Y009177D03*
X011785Y007648D03*
X012113Y007034D03*
D504*
X012113Y008105D03*
D505*
X011599Y008420D03*
X011799Y008577D03*
X012099Y009191D03*
X011599Y007791D03*
X012099Y007020D03*
D506*
X012099Y007477D03*
X010299Y008134D03*
X010199Y008134D03*
X012099Y008734D03*
D507*
X012099Y008105D03*
D508*
X012085Y009212D03*
X012085Y006998D03*
D509*
X009813Y006834D03*
X009785Y006834D03*
X009713Y006834D03*
X009713Y008005D03*
X009785Y008005D03*
X009813Y008005D03*
X012085Y008105D03*
D510*
X011642Y008991D03*
X012070Y009219D03*
X009342Y009119D03*
X009327Y009119D03*
X011642Y007219D03*
X012070Y006991D03*
X009342Y007091D03*
X009327Y007091D03*
D511*
X012070Y008105D03*
X010142Y010862D03*
X010142Y005348D03*
D512*
X012056Y006977D03*
X008270Y008577D03*
X008256Y008577D03*
X012056Y009234D03*
D513*
X012056Y008105D03*
D514*
X011770Y008562D03*
X012042Y009248D03*
X012027Y009262D03*
X008842Y008848D03*
X008156Y009005D03*
X007656Y008105D03*
X008170Y007648D03*
X008156Y007205D03*
X012027Y006948D03*
X012042Y006962D03*
D515*
X012042Y008105D03*
D516*
X011270Y008048D03*
X011256Y008048D03*
X011242Y008048D03*
X011227Y008048D03*
X011170Y008048D03*
X011156Y008048D03*
X011142Y008048D03*
X011127Y008048D03*
X011127Y007948D03*
X011142Y007948D03*
X011156Y007948D03*
X011170Y007948D03*
X011070Y007948D03*
X011056Y007948D03*
X011042Y007948D03*
X011027Y007948D03*
X011127Y008162D03*
X011142Y008162D03*
X011156Y008162D03*
X011170Y008162D03*
X011227Y008162D03*
X011242Y008162D03*
X011256Y008162D03*
X011270Y008162D03*
X011270Y008262D03*
X011256Y008262D03*
X011242Y008262D03*
X011227Y008262D03*
X011170Y008262D03*
X011156Y008262D03*
X011142Y008262D03*
X011127Y008262D03*
X011756Y008662D03*
X012027Y008848D03*
X011956Y008948D03*
X011942Y008962D03*
X008527Y009219D03*
X008342Y009148D03*
X007870Y008348D03*
X007856Y008262D03*
X007842Y008262D03*
X008242Y007405D03*
X008327Y007348D03*
X011756Y007548D03*
X012027Y007362D03*
X011956Y007262D03*
X011942Y007248D03*
D517*
X012027Y007920D03*
D518*
X011713Y007277D03*
X012013Y006934D03*
X011713Y008934D03*
X012013Y009277D03*
D519*
X012013Y008869D03*
X010313Y009184D03*
X010285Y009184D03*
X010213Y009184D03*
X010185Y009184D03*
X008885Y009069D03*
X008813Y009084D03*
X008785Y009084D03*
X008713Y009098D03*
X008685Y009098D03*
X008613Y009112D03*
X008413Y009241D03*
X008313Y009226D03*
X008313Y008284D03*
X008285Y008284D03*
X008213Y008284D03*
X008185Y008284D03*
X008113Y008284D03*
X008085Y008284D03*
X008013Y008284D03*
X008385Y008284D03*
X008485Y007741D03*
X008613Y007426D03*
X008585Y007412D03*
X008485Y007398D03*
X008313Y007341D03*
X008713Y007441D03*
X008785Y007455D03*
X008813Y007455D03*
X010185Y006826D03*
X010213Y006826D03*
X010285Y006826D03*
X010313Y006826D03*
X012013Y007341D03*
D520*
X012013Y007662D03*
X008885Y007205D03*
X008813Y007191D03*
X008785Y007191D03*
X008713Y007176D03*
X008613Y007162D03*
X008585Y007148D03*
X008513Y007134D03*
X008485Y007134D03*
X008313Y008019D03*
X008285Y008019D03*
X008213Y008019D03*
X008185Y008019D03*
X008113Y008019D03*
X008085Y008019D03*
X008013Y008019D03*
X008513Y008891D03*
X010613Y010519D03*
X010613Y005691D03*
D521*
X012013Y008120D03*
D522*
X011999Y009291D03*
X011999Y006919D03*
D523*
X011999Y007648D03*
D524*
X011999Y008120D03*
X008699Y008434D03*
X008699Y007777D03*
D525*
X008299Y008019D03*
X008199Y008019D03*
X008099Y008019D03*
X007999Y008019D03*
X008199Y007205D03*
X008499Y007134D03*
X008699Y007176D03*
X008799Y007191D03*
X011599Y007248D03*
X011999Y008576D03*
X011599Y008962D03*
X008499Y008905D03*
X008199Y009005D03*
D526*
X008285Y008569D03*
X008313Y008569D03*
X008585Y008369D03*
X008585Y007841D03*
X008313Y007641D03*
X011013Y008155D03*
X011085Y008155D03*
X011285Y007841D03*
X011585Y007784D03*
X011585Y008426D03*
X011985Y009298D03*
X010913Y010469D03*
X010713Y010469D03*
X011985Y006912D03*
X010913Y005741D03*
X010713Y005741D03*
D527*
X008613Y006891D03*
X008913Y007562D03*
X011013Y007948D03*
X011085Y007948D03*
X011113Y007948D03*
X011185Y007948D03*
X011185Y008048D03*
X011213Y008048D03*
X011285Y008048D03*
X011285Y008162D03*
X011213Y008162D03*
X011185Y008162D03*
X011113Y008162D03*
X011113Y008262D03*
X011185Y008262D03*
X011213Y008262D03*
X011285Y008262D03*
X011113Y008048D03*
X011985Y007305D03*
X011913Y007219D03*
X008913Y008648D03*
X008685Y009205D03*
X008613Y009319D03*
X008385Y009248D03*
X008385Y009148D03*
X011913Y008991D03*
X011985Y008905D03*
D528*
X011985Y008112D03*
X009013Y008998D03*
X009013Y007212D03*
D529*
X008713Y007784D03*
X007985Y008027D03*
X008713Y008427D03*
X011985Y008584D03*
D530*
X011727Y008926D03*
X011970Y009312D03*
X011956Y009326D03*
X011942Y009341D03*
X008956Y009026D03*
X008527Y008112D03*
X011027Y008155D03*
X011042Y008155D03*
X011056Y008155D03*
X011070Y008155D03*
X011227Y007841D03*
X011242Y007841D03*
X011256Y007841D03*
X011270Y007841D03*
X011727Y007284D03*
X011970Y006898D03*
X011956Y006884D03*
X011942Y006869D03*
X008956Y007184D03*
D531*
X008342Y007434D03*
X008456Y007834D03*
X008456Y008377D03*
X011027Y007834D03*
X011042Y007834D03*
X011056Y007834D03*
X011070Y007834D03*
X011127Y007834D03*
X011142Y007834D03*
X011156Y007834D03*
X011170Y007834D03*
X011170Y007734D03*
X011156Y007734D03*
X011142Y007734D03*
X011127Y007734D03*
X011070Y007734D03*
X011056Y007734D03*
X011042Y007734D03*
X011027Y007734D03*
X011756Y007934D03*
X011342Y008377D03*
X011327Y008377D03*
X011170Y008377D03*
X011156Y008377D03*
X011142Y008377D03*
X011127Y008377D03*
X011127Y008477D03*
X011142Y008477D03*
X011156Y008477D03*
X011170Y008477D03*
X011970Y008934D03*
X011927Y008977D03*
X008327Y009234D03*
X011970Y007277D03*
X011927Y007234D03*
D532*
X011527Y007234D03*
X011970Y007620D03*
X011942Y008620D03*
X011527Y008977D03*
D533*
X011570Y008512D03*
X011970Y008112D03*
X008942Y008412D03*
X008770Y008412D03*
X007770Y008041D03*
X008770Y007798D03*
X008942Y007798D03*
X010627Y005698D03*
X010627Y010512D03*
D534*
X010570Y010541D03*
X010970Y010470D03*
X011542Y008984D03*
X011970Y008598D03*
X011542Y007227D03*
X010970Y005741D03*
X010570Y005670D03*
D535*
X010542Y005655D03*
X011870Y007512D03*
X011956Y007612D03*
X010542Y010555D03*
D536*
X008327Y008920D03*
X007856Y008020D03*
X007842Y008020D03*
X008342Y007120D03*
X011956Y008120D03*
D537*
X011927Y008634D03*
D538*
X009413Y008462D03*
X009385Y008462D03*
X009385Y007748D03*
X009413Y007748D03*
X011913Y007562D03*
X010985Y005748D03*
X010985Y010462D03*
D539*
X011913Y008113D03*
D540*
X011913Y008655D03*
D541*
X011899Y009377D03*
X011899Y006834D03*
D542*
X011799Y007098D03*
X011899Y007198D03*
X008599Y006898D03*
X011899Y009012D03*
X011799Y009112D03*
X008699Y009198D03*
X008599Y009312D03*
D543*
X011899Y007534D03*
D544*
X011899Y008112D03*
D545*
X011885Y009027D03*
X008813Y009184D03*
X008785Y009184D03*
X008585Y009227D03*
X007985Y008284D03*
X011885Y007184D03*
D546*
X008213Y007205D03*
X007713Y008105D03*
X008213Y009005D03*
X011885Y008705D03*
D547*
X011870Y009041D03*
X011842Y009070D03*
X011756Y009141D03*
X009056Y008841D03*
X008870Y009170D03*
X008856Y009170D03*
X008342Y009241D03*
X008442Y007470D03*
X008327Y007441D03*
X008270Y007341D03*
X009056Y007370D03*
X011756Y007070D03*
X011842Y007141D03*
X011870Y007170D03*
D548*
X011856Y007155D03*
X011742Y007055D03*
X011656Y006998D03*
X011470Y006898D03*
X008927Y007398D03*
X008856Y007455D03*
X008456Y007398D03*
X008442Y007812D03*
X008427Y007898D03*
X008542Y008112D03*
X008427Y008312D03*
X008442Y008398D03*
X007970Y008355D03*
X007856Y008355D03*
X007842Y008355D03*
X008927Y008812D03*
X008742Y009198D03*
X008727Y009198D03*
X008656Y009212D03*
X008642Y009212D03*
X008627Y009212D03*
X011470Y009312D03*
X011656Y009212D03*
X011742Y009155D03*
X011856Y009055D03*
X011756Y008298D03*
D549*
X011770Y008898D03*
X011656Y008998D03*
X011842Y009412D03*
X009270Y009112D03*
X009256Y009112D03*
X009242Y009112D03*
X008927Y009455D03*
X010742Y010455D03*
X008456Y008098D03*
X009242Y007098D03*
X009256Y007098D03*
X009270Y007098D03*
X008927Y006755D03*
X011656Y007212D03*
X011770Y007312D03*
X011842Y006798D03*
X010742Y005755D03*
D550*
X010456Y005613D03*
X011842Y007513D03*
X009042Y007713D03*
X009042Y008498D03*
X010456Y010598D03*
D551*
X009827Y010005D03*
X009770Y010005D03*
X009756Y010005D03*
X009742Y010005D03*
X009727Y010005D03*
X011842Y008705D03*
D552*
X011827Y009084D03*
X011770Y009127D03*
X009070Y009227D03*
X008827Y009184D03*
X008770Y009184D03*
X008570Y009227D03*
X008556Y009227D03*
X008542Y009227D03*
X008527Y009127D03*
X008570Y008627D03*
X007770Y008327D03*
X008542Y007884D03*
X008570Y007584D03*
X009070Y006984D03*
X011770Y007084D03*
X011827Y007127D03*
D553*
X011813Y006777D03*
X008913Y007177D03*
X011813Y009434D03*
D554*
X011585Y009255D03*
X011785Y009112D03*
X011813Y009098D03*
X008985Y009198D03*
X008713Y009198D03*
X008613Y009212D03*
X008113Y009012D03*
X008113Y007198D03*
X008985Y007012D03*
X011585Y006955D03*
X011785Y007098D03*
X011813Y007112D03*
D555*
X011213Y007198D03*
X011813Y007512D03*
X011213Y009012D03*
D556*
X011813Y008112D03*
X011713Y007712D03*
D557*
X010599Y007641D03*
X010499Y007641D03*
X010399Y007641D03*
X010299Y007641D03*
X010199Y007641D03*
X008899Y006770D03*
X011799Y006770D03*
X011799Y009441D03*
X008899Y009441D03*
D558*
X008799Y009377D03*
X009199Y009591D03*
X011799Y008891D03*
X011799Y007320D03*
X009199Y006620D03*
X008799Y006834D03*
D559*
X009399Y007084D03*
X011799Y007641D03*
X009399Y009127D03*
D560*
X011785Y008898D03*
X011785Y009455D03*
X010885Y010455D03*
X011785Y007312D03*
X011785Y006755D03*
X010885Y005755D03*
D561*
X010685Y005727D03*
X011785Y008570D03*
X008185Y008584D03*
X010685Y010484D03*
D562*
X011770Y007655D03*
D563*
X011527Y007641D03*
X011742Y008041D03*
X011527Y008570D03*
X009370Y009127D03*
X009356Y009127D03*
X008242Y008584D03*
X008227Y008584D03*
X008256Y007641D03*
X008270Y007641D03*
X009356Y007084D03*
X009370Y007084D03*
X010927Y010470D03*
D564*
X011727Y008119D03*
X008470Y007191D03*
D565*
X008313Y007441D03*
X007785Y008341D03*
X008885Y009170D03*
X011613Y009241D03*
X011713Y009170D03*
X011713Y007041D03*
X011613Y006970D03*
D566*
X011713Y008113D03*
D567*
X011699Y009505D03*
X011699Y006705D03*
D568*
X011699Y007262D03*
X008399Y008062D03*
X008299Y007648D03*
X011699Y008948D03*
D569*
X011699Y008105D03*
X011199Y010405D03*
X011199Y005805D03*
D570*
X011685Y006705D03*
X009013Y006705D03*
X009013Y009505D03*
X011685Y009505D03*
D571*
X011285Y009377D03*
X011213Y009391D03*
X011085Y009420D03*
X011013Y009420D03*
X010985Y009420D03*
X011413Y009334D03*
X011513Y009291D03*
X011685Y009191D03*
X009413Y009377D03*
X009285Y009334D03*
X009185Y009291D03*
X009085Y009234D03*
X008885Y008620D03*
X011513Y007891D03*
X008885Y007591D03*
X008285Y007434D03*
X009085Y006977D03*
X009185Y006920D03*
X009285Y006877D03*
X009413Y006834D03*
X010985Y006791D03*
X011013Y006791D03*
X011085Y006791D03*
X011213Y006820D03*
X011285Y006834D03*
X011413Y006877D03*
X011513Y006920D03*
X011685Y007020D03*
D572*
X011685Y008105D03*
D573*
X011670Y009205D03*
X011170Y009405D03*
X011156Y009405D03*
X011142Y009405D03*
X011127Y009405D03*
X009227Y009305D03*
X011670Y007005D03*
X011170Y006805D03*
X011156Y006805D03*
X011142Y006805D03*
X011127Y006805D03*
X009227Y006905D03*
D574*
X011642Y007827D03*
X011642Y008384D03*
D575*
X011627Y008391D03*
X011570Y008977D03*
X011556Y008977D03*
X008670Y008434D03*
X008656Y008434D03*
X008642Y008434D03*
X008427Y008920D03*
X007970Y008034D03*
X008642Y007777D03*
X008656Y007777D03*
X008670Y007777D03*
X008970Y007777D03*
X011556Y007234D03*
X011570Y007234D03*
X011627Y007820D03*
D576*
X011313Y007555D03*
X011285Y007555D03*
X011213Y007555D03*
X011185Y007555D03*
X011113Y007555D03*
X011085Y007555D03*
X011013Y007555D03*
X010985Y007555D03*
X011613Y008112D03*
X011313Y008655D03*
X011285Y008655D03*
X011213Y008655D03*
X011185Y008655D03*
X011113Y008655D03*
X011085Y008655D03*
X011013Y008655D03*
X010985Y008655D03*
D577*
X011613Y008405D03*
X008785Y008405D03*
X008613Y008405D03*
X008685Y008848D03*
X008713Y008848D03*
X008613Y008862D03*
X008385Y008905D03*
X008185Y009005D03*
X008613Y007805D03*
X008785Y007805D03*
X008185Y007205D03*
D578*
X009399Y006555D03*
X011299Y006555D03*
X011599Y006655D03*
X011599Y009555D03*
X011299Y009655D03*
X009399Y009655D03*
D579*
X008899Y009163D03*
X008099Y008448D03*
X007799Y008348D03*
X011599Y009248D03*
X011599Y006963D03*
D580*
X011585Y007241D03*
X011585Y008969D03*
D581*
X011585Y008663D03*
X011385Y009348D03*
X009385Y009363D03*
X009313Y009348D03*
X009113Y009248D03*
X008385Y008663D03*
X007985Y008363D03*
X007813Y008348D03*
X007785Y008263D03*
X008385Y007548D03*
X009113Y006963D03*
X009313Y006863D03*
X009385Y006848D03*
X011385Y006863D03*
X011585Y007548D03*
D582*
X011413Y007655D03*
X011585Y008055D03*
X011585Y008155D03*
X011413Y008555D03*
X008413Y008355D03*
X008413Y007855D03*
D583*
X011556Y005619D03*
X011556Y010591D03*
D584*
X008770Y008834D03*
X008756Y008834D03*
X008570Y008877D03*
X008556Y008877D03*
X008542Y008877D03*
X008370Y008034D03*
X011556Y007677D03*
X011556Y008534D03*
X010942Y005734D03*
D585*
X011542Y005612D03*
X011542Y010598D03*
D586*
X011527Y010605D03*
X011527Y005605D03*
D587*
X011513Y005612D03*
X011513Y010598D03*
D588*
X011513Y008834D03*
X011513Y007377D03*
D589*
X011499Y005619D03*
X011499Y010591D03*
D590*
X011399Y009627D03*
X011499Y009598D03*
X010399Y009113D03*
X009299Y009627D03*
X010399Y008070D03*
X010099Y006898D03*
X009299Y006584D03*
X011399Y006584D03*
X011499Y006613D03*
D591*
X011499Y006905D03*
X011499Y009305D03*
D592*
X011499Y008848D03*
X011499Y007363D03*
D593*
X011499Y007855D03*
X011499Y008355D03*
D594*
X011485Y010591D03*
X011485Y005620D03*
D595*
X011185Y006805D03*
X011485Y006905D03*
X009213Y006905D03*
X008585Y006905D03*
X008585Y007505D03*
X008585Y009305D03*
X009213Y009305D03*
X011185Y009405D03*
X011485Y009305D03*
D596*
X011485Y008870D03*
X011485Y007341D03*
X011085Y005770D03*
X010285Y005527D03*
X011085Y010441D03*
X010285Y010684D03*
D597*
X011470Y010584D03*
X011470Y005627D03*
D598*
X010342Y005555D03*
X011456Y007298D03*
X011456Y008912D03*
X010342Y010655D03*
D599*
X010656Y010813D03*
X010670Y010798D03*
X010570Y010898D03*
X010556Y010913D03*
X010470Y010998D03*
X010456Y011013D03*
X010170Y011298D03*
X011342Y011198D03*
X011356Y011213D03*
X011442Y011298D03*
X010670Y005413D03*
X010656Y005398D03*
X010570Y005313D03*
X010556Y005298D03*
X010470Y005213D03*
X010456Y005198D03*
X010170Y004913D03*
X011342Y005013D03*
X011356Y004998D03*
X011442Y004913D03*
D600*
X010370Y005570D03*
X010970Y007184D03*
X011027Y007184D03*
X011042Y007184D03*
X011056Y007184D03*
X011070Y007184D03*
X011442Y007284D03*
X011442Y008927D03*
X011070Y009027D03*
X011056Y009027D03*
X011042Y009027D03*
X011027Y009027D03*
X010970Y009027D03*
X010370Y010641D03*
D601*
X011227Y009012D03*
X011242Y009012D03*
X011256Y009012D03*
X011427Y008955D03*
X011427Y007255D03*
X011256Y007198D03*
X011242Y007198D03*
X011227Y007198D03*
D602*
X011413Y005755D03*
X011413Y010455D03*
D603*
X011413Y008969D03*
X011413Y007241D03*
D604*
X011299Y005055D03*
X011399Y004955D03*
X011299Y011155D03*
X011399Y011255D03*
D605*
X011399Y010455D03*
X011399Y005755D03*
D606*
X011399Y007227D03*
X011399Y008984D03*
D607*
X011385Y010448D03*
X011385Y005762D03*
D608*
X011385Y007220D03*
X011385Y008991D03*
X008485Y008991D03*
D609*
X011370Y010441D03*
X011370Y005769D03*
D610*
X011370Y007220D03*
X011370Y008991D03*
X008470Y008991D03*
X008456Y008991D03*
D611*
X011356Y010434D03*
X011356Y005777D03*
D612*
X011027Y005755D03*
X010427Y005598D03*
X011327Y007212D03*
X011342Y007212D03*
X011356Y007212D03*
X008427Y007212D03*
X008670Y008955D03*
X008442Y008998D03*
X011327Y008998D03*
X011342Y008998D03*
X011356Y008998D03*
X011027Y010455D03*
X010427Y010612D03*
D613*
X011342Y010434D03*
X011342Y005777D03*
D614*
X011327Y005784D03*
X011327Y010427D03*
D615*
X011313Y010420D03*
X011313Y005791D03*
D616*
X011313Y006555D03*
X009113Y006655D03*
X009113Y009555D03*
X011313Y009655D03*
D617*
X011299Y010412D03*
X011299Y005798D03*
D618*
X011299Y006834D03*
X010999Y006791D03*
X009399Y006834D03*
X009299Y006877D03*
X009199Y006920D03*
X008899Y008734D03*
X009199Y009291D03*
X009299Y009334D03*
X009399Y009377D03*
X010999Y009420D03*
X011299Y009377D03*
D619*
X011299Y009005D03*
X011299Y007205D03*
D620*
X011299Y007555D03*
X011199Y007555D03*
X011099Y007555D03*
X010999Y007555D03*
X010999Y008655D03*
X011099Y008655D03*
X011199Y008655D03*
X011299Y008655D03*
D621*
X011299Y007841D03*
X008299Y008569D03*
D622*
X011299Y008427D03*
D623*
X010613Y008434D03*
X010585Y008434D03*
X010513Y008434D03*
X010485Y008434D03*
X010413Y008434D03*
X010385Y008434D03*
X010313Y008434D03*
X010285Y008434D03*
X010213Y008434D03*
X010185Y008434D03*
X010113Y008434D03*
X010085Y008434D03*
X010013Y008434D03*
X009985Y008434D03*
X009913Y008434D03*
X009885Y008434D03*
X009885Y008748D03*
X009913Y008748D03*
X009985Y008748D03*
X010185Y008748D03*
X010213Y008748D03*
X010285Y008748D03*
X010313Y008748D03*
X010385Y008748D03*
X010413Y008748D03*
X010485Y008748D03*
X010513Y008748D03*
X010585Y008748D03*
X010613Y008748D03*
X009085Y009077D03*
X009885Y007263D03*
X009913Y007263D03*
X009985Y007263D03*
X010013Y007263D03*
X010085Y007263D03*
X010113Y007263D03*
X010185Y007263D03*
X010213Y007263D03*
X010285Y007263D03*
X010313Y007263D03*
X010513Y007263D03*
X010585Y007263D03*
X010613Y007263D03*
X009085Y007134D03*
X010713Y005463D03*
X010785Y005534D03*
X010813Y005548D03*
X010885Y005477D03*
X010913Y005448D03*
X010985Y005377D03*
X011013Y005348D03*
X011085Y005277D03*
X011113Y005248D03*
X011185Y005177D03*
X011213Y005148D03*
X011285Y005077D03*
X010413Y005148D03*
X010385Y005120D03*
X010313Y005048D03*
X010285Y005020D03*
X010213Y004948D03*
X010185Y004920D03*
X010813Y010663D03*
X010785Y010677D03*
X010713Y010748D03*
X010885Y010734D03*
X010913Y010763D03*
X010985Y010834D03*
X011013Y010863D03*
X011085Y010934D03*
X011113Y010963D03*
X011185Y011034D03*
X011213Y011063D03*
X011285Y011134D03*
X010413Y011063D03*
X010385Y011091D03*
X010313Y011163D03*
X010285Y011191D03*
X010213Y011263D03*
X010185Y011291D03*
D624*
X011285Y010405D03*
X011285Y005805D03*
D625*
X008485Y007927D03*
X011013Y008427D03*
X011085Y008427D03*
X011285Y008427D03*
D626*
X011270Y008427D03*
X011256Y008427D03*
X011242Y008427D03*
X011227Y008427D03*
X011070Y008427D03*
X011056Y008427D03*
X011042Y008427D03*
X011027Y008427D03*
X008556Y008327D03*
X008556Y007884D03*
D627*
X009842Y007705D03*
X009856Y007705D03*
X009870Y007705D03*
X009927Y007705D03*
X009942Y007705D03*
X009956Y007705D03*
X009970Y007705D03*
X010170Y009805D03*
X010227Y009805D03*
X010242Y009805D03*
X010256Y009805D03*
X010270Y009805D03*
X010327Y009805D03*
X010342Y009805D03*
X010356Y009805D03*
X010370Y009805D03*
X010427Y009805D03*
X010442Y009805D03*
X010456Y009805D03*
X010470Y009805D03*
X010756Y010705D03*
X010856Y010705D03*
X010956Y010805D03*
X011056Y010905D03*
X011156Y011005D03*
X011256Y011105D03*
X010370Y011105D03*
X010270Y011205D03*
X010756Y005505D03*
X010856Y005505D03*
X010956Y005405D03*
X011056Y005305D03*
X011156Y005205D03*
X011256Y005105D03*
X010370Y005105D03*
X010270Y005005D03*
D628*
X011256Y005813D03*
X011256Y010398D03*
D629*
X011242Y010398D03*
X011242Y005812D03*
D630*
X011227Y005812D03*
X010127Y005341D03*
X011227Y010398D03*
X010127Y010869D03*
D631*
X011213Y010405D03*
X011213Y005805D03*
D632*
X010899Y005463D03*
X010799Y005548D03*
X010999Y005363D03*
X011099Y005263D03*
X011199Y005163D03*
X010399Y005134D03*
X010299Y005034D03*
X010199Y004934D03*
X010199Y007263D03*
X010299Y007263D03*
X010499Y007263D03*
X010599Y007263D03*
X010099Y007263D03*
X009999Y007263D03*
X009899Y007263D03*
X009899Y008434D03*
X009999Y008434D03*
X010099Y008434D03*
X010199Y008434D03*
X010299Y008434D03*
X010399Y008434D03*
X010499Y008434D03*
X010599Y008434D03*
X010599Y008748D03*
X010499Y008748D03*
X010399Y008748D03*
X010299Y008748D03*
X010199Y008748D03*
X009999Y008748D03*
X009899Y008748D03*
X010799Y010663D03*
X010899Y010748D03*
X010999Y010848D03*
X011099Y010948D03*
X011199Y011048D03*
X010399Y011077D03*
X010299Y011177D03*
X010199Y011277D03*
D633*
X010999Y009691D03*
X011099Y009691D03*
X011199Y009677D03*
X011199Y006534D03*
X011099Y006520D03*
X010999Y006520D03*
D634*
X011199Y007191D03*
X011199Y009020D03*
D635*
X011199Y008477D03*
X011099Y008477D03*
X011199Y008377D03*
X011199Y007834D03*
X011099Y007834D03*
X011099Y007734D03*
X011199Y007734D03*
D636*
X011185Y005798D03*
X011185Y010412D03*
D637*
X010385Y010634D03*
X011185Y009020D03*
X011185Y007191D03*
X010385Y005577D03*
D638*
X011170Y005791D03*
X011170Y010420D03*
D639*
X011170Y009020D03*
X011156Y009020D03*
X011142Y009020D03*
X011127Y009020D03*
X011127Y007191D03*
X011142Y007191D03*
X011156Y007191D03*
X011170Y007191D03*
D640*
X011156Y005791D03*
X011156Y010419D03*
D641*
X011142Y010427D03*
X011142Y005784D03*
D642*
X011127Y005784D03*
X011127Y010427D03*
D643*
X011113Y010434D03*
X011113Y005776D03*
D644*
X011113Y007184D03*
X011085Y007184D03*
X011013Y007184D03*
X010985Y007184D03*
X010985Y009027D03*
X011013Y009027D03*
X011085Y009027D03*
X011113Y009027D03*
D645*
X011099Y010434D03*
X011099Y005777D03*
D646*
X010299Y006826D03*
X010199Y006826D03*
X008499Y007398D03*
X008699Y007441D03*
X008799Y007455D03*
X008299Y007341D03*
X011099Y008155D03*
X008899Y009069D03*
X008799Y009084D03*
X008699Y009098D03*
X010199Y009184D03*
X010299Y009184D03*
X008299Y008284D03*
X008199Y008284D03*
X008099Y008284D03*
X007999Y008284D03*
D647*
X011070Y010441D03*
X011070Y005769D03*
D648*
X011056Y005763D03*
X010356Y005563D03*
X011056Y010448D03*
X010356Y010648D03*
D649*
X011042Y010448D03*
X011042Y005762D03*
D650*
X011013Y005755D03*
X010485Y007055D03*
X010413Y007055D03*
X010385Y007055D03*
X010113Y008955D03*
X010085Y008955D03*
X010013Y008955D03*
X011013Y010455D03*
D651*
X010999Y010462D03*
X010999Y005748D03*
D652*
X010956Y005741D03*
X008456Y007141D03*
X010956Y010469D03*
D653*
X010956Y009034D03*
X010942Y009034D03*
X010942Y007177D03*
X010956Y007177D03*
D654*
X009299Y007091D03*
X010899Y005748D03*
X009299Y009119D03*
X010899Y010462D03*
D655*
X010870Y008105D03*
X010856Y008105D03*
X010842Y008105D03*
X010827Y008105D03*
X010756Y008105D03*
X010742Y008105D03*
X010727Y008105D03*
X010670Y008105D03*
X009670Y008105D03*
X009656Y008105D03*
X009642Y008105D03*
X009627Y008105D03*
X009556Y008105D03*
X009542Y008105D03*
X009527Y008105D03*
D656*
X009513Y008105D03*
X009485Y008105D03*
X009613Y008105D03*
X009685Y008105D03*
X010685Y008105D03*
X010713Y008105D03*
X010813Y008105D03*
D657*
X009399Y008827D03*
X009199Y008870D03*
X009099Y008884D03*
X009099Y009084D03*
X008499Y008484D03*
X008499Y007727D03*
X009099Y007327D03*
X009199Y007341D03*
X009399Y007384D03*
X009099Y007127D03*
X010699Y005441D03*
X010599Y005341D03*
X010499Y005241D03*
X010699Y010770D03*
X010599Y010870D03*
X010499Y010970D03*
D658*
X010699Y010477D03*
X010699Y005734D03*
D659*
X010699Y008105D03*
X009599Y008105D03*
X009499Y008105D03*
D660*
X008842Y008398D03*
X008827Y008398D03*
X008342Y008913D03*
X008827Y007813D03*
X008842Y007813D03*
X008327Y007113D03*
X010656Y005713D03*
X010656Y010498D03*
D661*
X010656Y010169D03*
X010642Y010169D03*
X010627Y010169D03*
X010570Y010169D03*
X010556Y010169D03*
X010542Y010169D03*
X010527Y010169D03*
X010470Y010169D03*
X010456Y010169D03*
X010442Y010169D03*
X010427Y010169D03*
X010370Y010169D03*
X010356Y010169D03*
X010342Y010169D03*
X010327Y010169D03*
X010270Y010169D03*
X010256Y010169D03*
X010242Y010169D03*
X010227Y010169D03*
X010170Y010169D03*
X010156Y010169D03*
X010142Y010169D03*
X010127Y010169D03*
X010070Y010169D03*
X010056Y010169D03*
X010042Y010169D03*
X010027Y010169D03*
X009970Y010169D03*
X009956Y010169D03*
X009942Y010169D03*
X009927Y010169D03*
X009870Y010169D03*
X009856Y010169D03*
X009842Y010169D03*
X009842Y006041D03*
X009856Y006041D03*
X009870Y006041D03*
X009827Y006041D03*
X009770Y006041D03*
X009756Y006041D03*
X009742Y006041D03*
X009727Y006041D03*
X009927Y006041D03*
X009942Y006041D03*
X009956Y006041D03*
X009970Y006041D03*
X010027Y006041D03*
X010042Y006041D03*
X010056Y006041D03*
X010070Y006041D03*
X010127Y006041D03*
X010142Y006041D03*
X010156Y006041D03*
X010170Y006041D03*
X010227Y006041D03*
X010242Y006041D03*
X010256Y006041D03*
X010270Y006041D03*
X010327Y006041D03*
X010342Y006041D03*
X010356Y006041D03*
X010370Y006041D03*
X010427Y006041D03*
X010442Y006041D03*
X010456Y006041D03*
X010470Y006041D03*
X010527Y006041D03*
X010542Y006041D03*
X010556Y006041D03*
X010570Y006041D03*
X010627Y006041D03*
X010642Y006041D03*
X010656Y006041D03*
D662*
X010613Y005355D03*
X010513Y005255D03*
X009285Y007355D03*
X010613Y010855D03*
X010513Y010955D03*
D663*
X010513Y007641D03*
X010485Y007641D03*
X010413Y007641D03*
X010385Y007641D03*
X010313Y007641D03*
X010285Y007641D03*
X010213Y007641D03*
X010185Y007641D03*
X010585Y007641D03*
X010613Y007641D03*
D664*
X010599Y005684D03*
X010599Y010527D03*
D665*
X010599Y010169D03*
X010499Y010169D03*
X010399Y010169D03*
X010299Y010169D03*
X010199Y010169D03*
X010099Y010169D03*
X009999Y010169D03*
X009899Y010169D03*
X009899Y006041D03*
X009999Y006041D03*
X010099Y006041D03*
X010199Y006041D03*
X010299Y006041D03*
X010399Y006041D03*
X010499Y006041D03*
X010599Y006041D03*
X009799Y006041D03*
X009699Y006041D03*
D666*
X009899Y006527D03*
X009999Y006527D03*
X009999Y009484D03*
X009899Y009484D03*
X010199Y009484D03*
X010299Y009484D03*
X010399Y009484D03*
X010499Y009484D03*
X010599Y009484D03*
D667*
X008685Y008434D03*
X008513Y008120D03*
X007885Y008034D03*
X008685Y007777D03*
X010585Y005677D03*
X010585Y010534D03*
D668*
X010556Y010548D03*
X010156Y009648D03*
X010142Y009648D03*
X010127Y009648D03*
X010070Y009648D03*
X010056Y009648D03*
X010042Y009648D03*
X010027Y009648D03*
X010556Y005663D03*
D669*
X010513Y005641D03*
X009313Y007741D03*
X009013Y007741D03*
X009013Y008469D03*
X009313Y008469D03*
X008585Y008926D03*
X010513Y010569D03*
D670*
X010499Y010577D03*
X010499Y005634D03*
D671*
X010485Y005627D03*
X008685Y007227D03*
X009185Y007727D03*
X009185Y008484D03*
X010485Y010584D03*
D672*
X010485Y009805D03*
X010413Y009805D03*
X010385Y009805D03*
X010313Y009805D03*
X010285Y009805D03*
X010213Y009805D03*
X010185Y009805D03*
X009985Y007705D03*
X009913Y007705D03*
X009885Y007705D03*
D673*
X009127Y007720D03*
X009070Y007720D03*
X009056Y007720D03*
X009027Y007720D03*
X009027Y008491D03*
X009056Y008491D03*
X009070Y008491D03*
X009127Y008491D03*
X010470Y010591D03*
X010470Y005620D03*
D674*
X010399Y005584D03*
X010399Y010627D03*
D675*
X010099Y008955D03*
X010399Y007055D03*
D676*
X009999Y007705D03*
X009899Y007705D03*
X008499Y009205D03*
X010199Y009805D03*
X010299Y009805D03*
X010399Y009805D03*
D677*
X010313Y010669D03*
X010313Y005541D03*
D678*
X010313Y008134D03*
X010285Y008134D03*
X010213Y008134D03*
X010185Y008134D03*
X008113Y008477D03*
D679*
X010299Y010677D03*
X010299Y005534D03*
D680*
X010270Y005520D03*
X010270Y010691D03*
D681*
X010256Y010705D03*
X010256Y005505D03*
D682*
X010242Y005498D03*
X010242Y010712D03*
D683*
X010213Y010727D03*
X010213Y005484D03*
D684*
X010156Y005355D03*
X010156Y010855D03*
D685*
X010113Y010877D03*
X010113Y005334D03*
D686*
X010113Y009648D03*
X010085Y009648D03*
X010013Y009648D03*
D687*
X010099Y010884D03*
X010099Y005327D03*
D688*
X010099Y007848D03*
D689*
X010099Y009648D03*
D690*
X010085Y010891D03*
X010085Y005320D03*
D691*
X010070Y005320D03*
X010070Y010891D03*
D692*
X009827Y008005D03*
X009770Y008005D03*
X009756Y008005D03*
X009742Y008005D03*
X009727Y008005D03*
X009727Y006834D03*
X009742Y006834D03*
X009756Y006834D03*
X009770Y006834D03*
X009827Y006834D03*
D693*
X009827Y009112D03*
X009770Y009112D03*
X009756Y009112D03*
X009742Y009112D03*
X009727Y009112D03*
D694*
X009713Y009112D03*
X009785Y009112D03*
X009813Y009112D03*
D695*
X009813Y010005D03*
X009785Y010005D03*
X009713Y010005D03*
D696*
X009699Y008005D03*
X009799Y008005D03*
X009799Y006834D03*
X009699Y006834D03*
D697*
X009699Y009112D03*
X009799Y009112D03*
D698*
X008299Y009005D03*
X009699Y010005D03*
X009799Y010005D03*
D699*
X009413Y009127D03*
X008813Y008841D03*
X008213Y007627D03*
X009413Y007084D03*
D700*
X009213Y007348D03*
X009213Y008105D03*
X009185Y008105D03*
X009113Y008105D03*
X009085Y008105D03*
X009013Y008105D03*
X008985Y008105D03*
X008913Y008105D03*
X008885Y008105D03*
X008813Y008105D03*
X008785Y008105D03*
X008713Y008105D03*
X008685Y008105D03*
X008613Y008105D03*
X008585Y008105D03*
X009285Y008105D03*
X009313Y008105D03*
X009385Y008105D03*
X009413Y008105D03*
X009285Y008848D03*
X009213Y008862D03*
D701*
X009399Y008462D03*
X009399Y007748D03*
D702*
X009399Y008105D03*
X009299Y008105D03*
X009199Y008105D03*
X009099Y008105D03*
X008999Y008105D03*
X008899Y008105D03*
X008799Y008105D03*
X008699Y008105D03*
X008599Y008105D03*
X009299Y008848D03*
X008699Y009348D03*
X009299Y007362D03*
X008699Y006862D03*
D703*
X009385Y007377D03*
X008513Y007434D03*
X009385Y008834D03*
D704*
X009370Y008834D03*
X009142Y008877D03*
X009127Y008877D03*
X009042Y009034D03*
X008756Y007477D03*
X009127Y007334D03*
X009142Y007334D03*
X009042Y007177D03*
X009370Y007377D03*
D705*
X008970Y007448D03*
X008670Y007462D03*
X008670Y008105D03*
X008656Y008105D03*
X008642Y008105D03*
X008627Y008105D03*
X008570Y008105D03*
X008727Y008105D03*
X008742Y008105D03*
X008756Y008105D03*
X008770Y008105D03*
X008827Y008105D03*
X008842Y008105D03*
X008856Y008105D03*
X008870Y008105D03*
X008927Y008105D03*
X008942Y008105D03*
X008956Y008105D03*
X008970Y008105D03*
X009027Y008105D03*
X009042Y008105D03*
X009056Y008105D03*
X009070Y008105D03*
X009127Y008105D03*
X009142Y008105D03*
X009156Y008105D03*
X009170Y008105D03*
X009227Y008105D03*
X009242Y008105D03*
X009256Y008105D03*
X009270Y008105D03*
X009327Y008105D03*
X009342Y008105D03*
X009356Y008105D03*
X009370Y008105D03*
X008127Y008505D03*
X009227Y008862D03*
D706*
X009313Y009119D03*
X009313Y007091D03*
D707*
X009299Y007741D03*
X008499Y008112D03*
X009299Y008469D03*
D708*
X009285Y008477D03*
X009213Y008477D03*
X009213Y007734D03*
X009285Y007734D03*
D709*
X008527Y007655D03*
X009227Y007355D03*
X009242Y007355D03*
X009256Y007355D03*
X009270Y007355D03*
X008527Y008555D03*
X009242Y008855D03*
X009256Y008855D03*
X009270Y008855D03*
D710*
X009270Y008477D03*
X009256Y008477D03*
X009242Y008477D03*
X009227Y008477D03*
X009227Y007734D03*
X009242Y007734D03*
X009256Y007734D03*
X009270Y007734D03*
D711*
X007642Y008105D03*
X008142Y009005D03*
X009227Y009105D03*
X008142Y007205D03*
X009227Y007105D03*
D712*
X009199Y007105D03*
X009199Y009105D03*
D713*
X009199Y008484D03*
X009199Y007727D03*
D714*
X009185Y007105D03*
X009185Y009105D03*
D715*
X009170Y008484D03*
X009156Y008484D03*
X009142Y008484D03*
X009142Y007727D03*
X009156Y007727D03*
X009170Y007727D03*
D716*
X009127Y007120D03*
X009127Y009091D03*
D717*
X009113Y009091D03*
X008513Y008520D03*
X008513Y007691D03*
X009113Y007120D03*
D718*
X009113Y007720D03*
X009085Y007720D03*
X009085Y008491D03*
X009113Y008491D03*
D719*
X008399Y008270D03*
X008099Y007770D03*
X008299Y007441D03*
X009099Y006970D03*
X009099Y009241D03*
D720*
X009099Y008491D03*
X009099Y007720D03*
D721*
X009027Y007198D03*
X009027Y009012D03*
D722*
X008999Y009498D03*
X008999Y006712D03*
D723*
X008999Y007227D03*
X008999Y008984D03*
D724*
X008999Y008455D03*
X008999Y007755D03*
D725*
X008985Y007398D03*
X008713Y006855D03*
X008985Y008812D03*
X008713Y009355D03*
D726*
X008970Y009055D03*
X008970Y007155D03*
X008927Y007155D03*
D727*
X008956Y006969D03*
X008956Y009241D03*
D728*
X008913Y008398D03*
X008813Y008398D03*
X008813Y007813D03*
X008913Y007813D03*
D729*
X008899Y007813D03*
X008799Y007813D03*
X008899Y007198D03*
X008899Y008398D03*
X008799Y008398D03*
X008199Y008598D03*
D730*
X008785Y008627D03*
X008813Y008627D03*
X008813Y007584D03*
X008785Y007584D03*
X008885Y007427D03*
D731*
X008885Y007505D03*
D732*
X008856Y007605D03*
X008370Y007805D03*
X008370Y008405D03*
X008856Y008605D03*
D733*
X008842Y007255D03*
D734*
X008799Y008834D03*
D735*
X008785Y008834D03*
X007785Y008034D03*
D736*
X008399Y008905D03*
X008599Y008862D03*
X008699Y008848D03*
D737*
X008599Y007241D03*
D738*
X008599Y007827D03*
X008599Y008384D03*
D739*
X008599Y009162D03*
D740*
X008513Y009219D03*
D741*
X007913Y008105D03*
X008385Y007205D03*
X008413Y007205D03*
D742*
X008413Y008241D03*
D743*
X007899Y008105D03*
X008399Y007205D03*
D744*
X008399Y007527D03*
X008399Y008427D03*
X008399Y008684D03*
D745*
X008313Y007105D03*
D746*
X008313Y008927D03*
D747*
X008299Y007105D03*
D748*
X008285Y007648D03*
D749*
X008285Y009005D03*
D750*
X007799Y008020D03*
X008199Y007620D03*
D751*
X008170Y007205D03*
X007670Y008105D03*
X008170Y009005D03*
D752*
X007827Y008070D03*
D753*
X007813Y008070D03*
D754*
X007699Y008112D03*
D755*
X005319Y009009D02*
X003819Y009009D01*
D756*
X003765Y008966D01*
X003713Y008920D01*
X003664Y008871D01*
X003617Y008819D01*
X003574Y008765D01*
X003533Y008709D01*
X003496Y008650D01*
X003462Y008590D01*
X003432Y008527D01*
X003405Y008464D01*
X003381Y008398D01*
X003361Y008332D01*
X003345Y008264D01*
X003333Y008196D01*
X003325Y008127D01*
X003320Y008058D01*
X003319Y007988D01*
X003322Y007919D01*
X003329Y007850D01*
X003340Y007782D01*
X003354Y007714D01*
X003373Y007647D01*
X003395Y007581D01*
X003420Y007516D01*
X003449Y007453D01*
X003482Y007392D01*
X003518Y007333D01*
X003557Y007276D01*
X003599Y007220D01*
X003644Y007168D01*
X003692Y007118D01*
X003743Y007071D01*
X003797Y007026D01*
X003852Y006985D01*
X003910Y006947D01*
X003970Y006912D01*
X004032Y006880D01*
X004095Y006852D01*
X004160Y006828D01*
X004226Y006807D01*
X004294Y006790D01*
X004362Y006776D01*
X004431Y006767D01*
X004500Y006761D01*
X004569Y006759D01*
X004638Y006761D01*
X004707Y006767D01*
X004776Y006776D01*
X004844Y006790D01*
X004912Y006807D01*
X004978Y006828D01*
X005043Y006852D01*
X005106Y006880D01*
X005168Y006912D01*
X005228Y006947D01*
X005286Y006985D01*
X005341Y007026D01*
X005395Y007071D01*
X005446Y007118D01*
X005494Y007168D01*
X005539Y007220D01*
X005581Y007276D01*
X005620Y007333D01*
X005656Y007392D01*
X005689Y007453D01*
X005718Y007516D01*
X005743Y007581D01*
X005765Y007647D01*
X005784Y007714D01*
X005798Y007782D01*
X005809Y007850D01*
X005816Y007919D01*
X005819Y007988D01*
X005818Y008058D01*
X005813Y008127D01*
X005805Y008196D01*
X005793Y008264D01*
X005777Y008332D01*
X005757Y008398D01*
X005733Y008464D01*
X005706Y008527D01*
X005676Y008590D01*
X005642Y008650D01*
X005605Y008709D01*
X005564Y008765D01*
X005521Y008819D01*
X005474Y008871D01*
X005425Y008920D01*
X005373Y008966D01*
X005319Y009009D01*
D757*
X003569Y008009D02*
X003571Y008072D01*
X003577Y008134D01*
X003587Y008196D01*
X003600Y008258D01*
X003618Y008318D01*
X003639Y008377D01*
X003664Y008435D01*
X003693Y008491D01*
X003725Y008545D01*
X003760Y008597D01*
X003798Y008646D01*
X003840Y008694D01*
X003884Y008738D01*
X003932Y008780D01*
X003981Y008818D01*
X004033Y008853D01*
X004087Y008885D01*
X004143Y008914D01*
X004201Y008939D01*
X004260Y008960D01*
X004320Y008978D01*
X004382Y008991D01*
X004444Y009001D01*
X004506Y009007D01*
X004569Y009009D01*
X004632Y009007D01*
X004694Y009001D01*
X004756Y008991D01*
X004818Y008978D01*
X004878Y008960D01*
X004937Y008939D01*
X004995Y008914D01*
X005051Y008885D01*
X005105Y008853D01*
X005157Y008818D01*
X005206Y008780D01*
X005254Y008738D01*
X005298Y008694D01*
X005340Y008646D01*
X005378Y008597D01*
X005413Y008545D01*
X005445Y008491D01*
X005474Y008435D01*
X005499Y008377D01*
X005520Y008318D01*
X005538Y008258D01*
X005551Y008196D01*
X005561Y008134D01*
X005567Y008072D01*
X005569Y008009D01*
X005567Y007946D01*
X005561Y007884D01*
X005551Y007822D01*
X005538Y007760D01*
X005520Y007700D01*
X005499Y007641D01*
X005474Y007583D01*
X005445Y007527D01*
X005413Y007473D01*
X005378Y007421D01*
X005340Y007372D01*
X005298Y007324D01*
X005254Y007280D01*
X005206Y007238D01*
X005157Y007200D01*
X005105Y007165D01*
X005051Y007133D01*
X004995Y007104D01*
X004937Y007079D01*
X004878Y007058D01*
X004818Y007040D01*
X004756Y007027D01*
X004694Y007017D01*
X004632Y007011D01*
X004569Y007009D01*
X004506Y007011D01*
X004444Y007017D01*
X004382Y007027D01*
X004320Y007040D01*
X004260Y007058D01*
X004201Y007079D01*
X004143Y007104D01*
X004087Y007133D01*
X004033Y007165D01*
X003981Y007200D01*
X003932Y007238D01*
X003884Y007280D01*
X003840Y007324D01*
X003798Y007372D01*
X003760Y007421D01*
X003725Y007473D01*
X003693Y007527D01*
X003664Y007583D01*
X003639Y007641D01*
X003618Y007700D01*
X003600Y007760D01*
X003587Y007822D01*
X003577Y007884D01*
X003571Y007946D01*
X003569Y008009D01*
X014619Y008509D02*
X014619Y007509D01*
X014619Y007159D01*
X015419Y006809D02*
X015519Y006809D01*
X015519Y006709D01*
X016119Y006709D01*
X016119Y006809D01*
X016219Y006809D01*
X017019Y007159D02*
X017019Y007509D01*
X017019Y008459D01*
X017019Y008859D01*
X016219Y009209D02*
X016119Y009209D01*
X016119Y009309D01*
X015519Y009309D01*
X015519Y009209D01*
X015419Y009209D01*
X014619Y008859D02*
X014619Y008509D01*
X015719Y008009D02*
X015721Y008029D01*
X015727Y008047D01*
X015736Y008065D01*
X015748Y008080D01*
X015763Y008092D01*
X015781Y008101D01*
X015799Y008107D01*
X015819Y008109D01*
X015839Y008107D01*
X015857Y008101D01*
X015875Y008092D01*
X015890Y008080D01*
X015902Y008065D01*
X015911Y008047D01*
X015917Y008029D01*
X015919Y008009D01*
X015917Y007989D01*
X015911Y007971D01*
X015902Y007953D01*
X015890Y007938D01*
X015875Y007926D01*
X015857Y007917D01*
X015839Y007911D01*
X015819Y007909D01*
X015799Y007911D01*
X015781Y007917D01*
X015763Y007926D01*
X015748Y007938D01*
X015736Y007953D01*
X015727Y007971D01*
X015721Y007989D01*
X015719Y008009D01*
X015119Y008009D02*
X015121Y008061D01*
X015127Y008113D01*
X015137Y008165D01*
X015150Y008215D01*
X015167Y008265D01*
X015188Y008313D01*
X015213Y008359D01*
X015241Y008403D01*
X015272Y008445D01*
X015306Y008485D01*
X015343Y008522D01*
X015383Y008556D01*
X015425Y008587D01*
X015469Y008615D01*
X015515Y008640D01*
X015563Y008661D01*
X015613Y008678D01*
X015663Y008691D01*
X015715Y008701D01*
X015767Y008707D01*
X015819Y008709D01*
X015871Y008707D01*
X015923Y008701D01*
X015975Y008691D01*
X016025Y008678D01*
X016075Y008661D01*
X016123Y008640D01*
X016169Y008615D01*
X016213Y008587D01*
X016255Y008556D01*
X016295Y008522D01*
X016332Y008485D01*
X016366Y008445D01*
X016397Y008403D01*
X016425Y008359D01*
X016450Y008313D01*
X016471Y008265D01*
X016488Y008215D01*
X016501Y008165D01*
X016511Y008113D01*
X016517Y008061D01*
X016519Y008009D01*
X016517Y007957D01*
X016511Y007905D01*
X016501Y007853D01*
X016488Y007803D01*
X016471Y007753D01*
X016450Y007705D01*
X016425Y007659D01*
X016397Y007615D01*
X016366Y007573D01*
X016332Y007533D01*
X016295Y007496D01*
X016255Y007462D01*
X016213Y007431D01*
X016169Y007403D01*
X016123Y007378D01*
X016075Y007357D01*
X016025Y007340D01*
X015975Y007327D01*
X015923Y007317D01*
X015871Y007311D01*
X015819Y007309D01*
X015767Y007311D01*
X015715Y007317D01*
X015663Y007327D01*
X015613Y007340D01*
X015563Y007357D01*
X015515Y007378D01*
X015469Y007403D01*
X015425Y007431D01*
X015383Y007462D01*
X015343Y007496D01*
X015306Y007533D01*
X015272Y007573D01*
X015241Y007615D01*
X015213Y007659D01*
X015188Y007705D01*
X015167Y007753D01*
X015150Y007803D01*
X015137Y007853D01*
X015127Y007905D01*
X015121Y007957D01*
X015119Y008009D01*
D758*
X014719Y008509D02*
X014619Y008509D01*
X014719Y008509D02*
X014719Y007509D01*
X014619Y007509D01*
X016919Y007509D02*
X017019Y007509D01*
X016919Y007509D02*
X016919Y008459D01*
X017019Y008459D01*
M02*
